M48
INCH,TZ
T1C0.0157
T2C0.0236
T3C0.0315
T4C0.0394
T5C0.0512
T6C0.0630
T7C0.1693
%
G90
G05
T1
X20870Y-24988
X21984Y-27319
X22531Y-27303
X22858Y-30449
X22898Y-32169
X22933Y-32579
X22984Y-27331
X23228Y-32874
X23232Y-31906
X23280Y-28244
X23622Y-27264
X23917Y-26280
X23917Y-26575
X23917Y-27559
X24571Y-13402
X24594Y-13953
X24705Y-34055
X24866Y-12886
X25000Y-34350
X25067Y-28256
X25079Y-35748
X25106Y-28780
X25118Y-29850
X25122Y-29315
X25571Y-34465
X25787Y-32579
X26185Y-34035
X26575Y-32677
X27343Y-32323
X27480Y-36693
X28185Y-41799
X28276Y-28358
X28437Y-33961
X28445Y-34941
X28543Y-32677
X28567Y-11358
X28571Y-12752
X28665Y-32224
X28764Y-35681
X28839Y-30441
X28937Y-10917
X28957Y-11783
X28961Y-12358
X28976Y-13134
X29339Y-32205
X29413Y-28720
X29823Y-34843
X29921Y-43307
X30217Y-34843
X30327Y-27433
X30488Y-33339
X30512Y-40748
X30551Y-24713
X30610Y-39370
X30709Y-43898
X30709Y-44193
X30807Y-39764
X30843Y-26606
X30906Y-40354
X31028Y-27102
X31102Y-32047
X31102Y-33110
X31272Y-30638
X31323Y-31118
X31417Y-32441
X31417Y-32835
X31484Y-34843
X31496Y-33858
X31772Y-31413
X31780Y-32039
X31823Y-26969
X31890Y-34350
X32173Y-26634
X32185Y-41535
X32193Y-27591
X32283Y-41240
X32343Y-28059
X32382Y-41831
X32406Y-28484
X33071Y-45965
X33071Y-46850
X33366Y-41240
X33366Y-41831
X33465Y-45571
X33465Y-46358
X33500Y-24961
X33563Y-41535
X33992Y-24957
X34386Y-24961
X34535Y-11689
X34547Y-10945
X34579Y-13197
X34606Y-12425
X34744Y-47244
X34803Y-24953
X34906Y-11311
X34941Y-12815
X35138Y-46850
X35181Y-31980
X35181Y-34189
X35213Y-24929
X35335Y-45571
X35335Y-46358
X35555Y-34579
X35661Y-24949
X35728Y-45965
X35886Y-15886
X35965Y-34197
X36378Y-16280
X36752Y-36087
X36870Y-15787
X37008Y-41339
X37008Y-43996
X37118Y-36441
X37402Y-41634
X37402Y-43701
X37461Y-16673
X37461Y-17165
X37465Y-30961
X37524Y-36110
X37843Y-31374
X37953Y-16181
X37953Y-17461
X38150Y-28661
X38358Y-13780
X38445Y-17461
X38575Y-31055
X38626Y-35988
X38839Y-16181
X38937Y-17461
X39035Y-13819
X39035Y-31413
X39055Y-26535
X39055Y-26890
X39134Y-27402
X39331Y-16575
X39331Y-16969
X39346Y-31043
X39429Y-13819
X39449Y-33819
X39559Y-24996
X39803Y-27717
X39823Y-14213
X39823Y-15394
X39823Y-15787
X39843Y-35000
X39843Y-35748
X39886Y-32177
X39886Y-32807
X39921Y-16280
X40118Y-14409
X40165Y-31815
X40197Y-35394
X40276Y-27717
X40307Y-32827
X40512Y-14409
X40547Y-31433
X40618Y-32331
X40709Y-16083
X40807Y-14803
X41657Y-32807
X42165Y-27953
X42165Y-34783
X42559Y-35079
X42638Y-27559
X42677Y-31272
X43075Y-31264
X43189Y-29528
X43346Y-35079
X43386Y-31669
X43543Y-29882
X43937Y-29803
X44134Y-17835
X44181Y-17063
X44331Y-30157
T2
X17825Y-12205
X18197Y-11307
X18197Y-13103
X19094Y-10935
X19094Y-13474
X19992Y-11307
X19992Y-13103
X20364Y-12205
X48533Y-46850
X48905Y-45953
X48905Y-47748
X49803Y-45581
X49803Y-48120
X50701Y-45953
X50701Y-47748
X51073Y-46850
X48533Y-12205
X48905Y-11307
X48905Y-13103
X49803Y-10935
X49803Y-13474
X50701Y-11307
X50701Y-13103
X51073Y-12205
X17825Y-46850
X18197Y-45953
X18197Y-47748
X19094Y-45581
X19094Y-48120
X19992Y-45953
X19992Y-47748
X20364Y-46850
T3
X32858Y-38505
X32858Y-39505
X32858Y-40505
X32858Y-41505
X32858Y-42505
X32858Y-43505
X32858Y-44505
X35858Y-38505
X35858Y-39505
X35858Y-40505
X35858Y-41505
X35858Y-42505
X35858Y-43505
X35858Y-44505
T4
X18996Y-31465
X18996Y-32465
X18996Y-33465
X30768Y-11323
X31768Y-11323
X32768Y-11323
X47583Y-18740
X48567Y-18740
X49551Y-18740
X18980Y-27724
X18980Y-28724
X18980Y-29724
X19980Y-27724
X19980Y-28724
X19980Y-29724
X30753Y-12795
X31753Y-12795
X32753Y-12795
X28908Y-18740
X29892Y-18740
X30877Y-18740
X38245Y-18740
X39230Y-18740
X40214Y-18740
X18996Y-35433
X18996Y-36433
X18622Y-15339
X18622Y-16339
X19571Y-18740
X20555Y-18740
X21539Y-18740
T5
X46575Y-32362
X46575Y-34331
X50512Y-33346
T6
X21618Y-37945
X21618Y-44362
X24098Y-37945
X24098Y-44362
X26579Y-37945
X26579Y-44362
X42051Y-37921
X42051Y-44339
X44531Y-37921
X44531Y-44339
X47012Y-37921
X47012Y-44339
T7
X19094Y-46850
X19094Y-12205
X49803Y-46850
X49803Y-12205
T4
G00X42047Y-13878
M15
G01X42047Y-14665
M16
G05
G00X44291Y-13091
M15
G01X43504Y-13091
M16
G05
G00X44291Y-15453
M15
G01X43504Y-15453
M16
G05
T0
M30
