G04 #@! TF.GenerationSoftware,KiCad,Pcbnew,(5.1.5-0-10_14)*
G04 #@! TF.CreationDate,2021-04-10T11:01:01-04:00*
G04 #@! TF.ProjectId,E90,4539302e-6b69-4636-9164-5f7063625858,rev?*
G04 #@! TF.SameCoordinates,Original*
G04 #@! TF.FileFunction,Legend,Bot*
G04 #@! TF.FilePolarity,Positive*
%FSLAX46Y46*%
G04 Gerber Fmt 4.6, Leading zero omitted, Abs format (unit mm)*
G04 Created by KiCad (PCBNEW (5.1.5-0-10_14)) date 2021-04-10 11:01:01*
%MOMM*%
%LPD*%
G04 APERTURE LIST*
%ADD10C,0.150000*%
%ADD11C,0.300000*%
G04 APERTURE END LIST*
D10*
X52938095Y-80252380D02*
X52938095Y-79252380D01*
X52557142Y-79252380D01*
X52461904Y-79300000D01*
X52414285Y-79347619D01*
X52366666Y-79442857D01*
X52366666Y-79585714D01*
X52414285Y-79680952D01*
X52461904Y-79728571D01*
X52557142Y-79776190D01*
X52938095Y-79776190D01*
X51938095Y-80252380D02*
X51938095Y-79252380D01*
X51700000Y-79252380D01*
X51557142Y-79300000D01*
X51461904Y-79395238D01*
X51414285Y-79490476D01*
X51366666Y-79680952D01*
X51366666Y-79823809D01*
X51414285Y-80014285D01*
X51461904Y-80109523D01*
X51557142Y-80204761D01*
X51700000Y-80252380D01*
X51938095Y-80252380D01*
X50747619Y-79252380D02*
X50652380Y-79252380D01*
X50557142Y-79300000D01*
X50509523Y-79347619D01*
X50461904Y-79442857D01*
X50414285Y-79633333D01*
X50414285Y-79871428D01*
X50461904Y-80061904D01*
X50509523Y-80157142D01*
X50557142Y-80204761D01*
X50652380Y-80252380D01*
X50747619Y-80252380D01*
X50842857Y-80204761D01*
X50890476Y-80157142D01*
X50938095Y-80061904D01*
X50985714Y-79871428D01*
X50985714Y-79633333D01*
X50938095Y-79442857D01*
X50890476Y-79347619D01*
X50842857Y-79300000D01*
X50747619Y-79252380D01*
X52938095Y-82652380D02*
X52938095Y-81652380D01*
X52557142Y-81652380D01*
X52461904Y-81700000D01*
X52414285Y-81747619D01*
X52366666Y-81842857D01*
X52366666Y-81985714D01*
X52414285Y-82080952D01*
X52461904Y-82128571D01*
X52557142Y-82176190D01*
X52938095Y-82176190D01*
X51938095Y-82652380D02*
X51938095Y-81652380D01*
X51700000Y-81652380D01*
X51557142Y-81700000D01*
X51461904Y-81795238D01*
X51414285Y-81890476D01*
X51366666Y-82080952D01*
X51366666Y-82223809D01*
X51414285Y-82414285D01*
X51461904Y-82509523D01*
X51557142Y-82604761D01*
X51700000Y-82652380D01*
X51938095Y-82652380D01*
X50414285Y-82652380D02*
X50985714Y-82652380D01*
X50700000Y-82652380D02*
X50700000Y-81652380D01*
X50795238Y-81795238D01*
X50890476Y-81890476D01*
X50985714Y-81938095D01*
X52938095Y-85452380D02*
X52938095Y-84452380D01*
X52557142Y-84452380D01*
X52461904Y-84500000D01*
X52414285Y-84547619D01*
X52366666Y-84642857D01*
X52366666Y-84785714D01*
X52414285Y-84880952D01*
X52461904Y-84928571D01*
X52557142Y-84976190D01*
X52938095Y-84976190D01*
X51938095Y-85452380D02*
X51938095Y-84452380D01*
X51700000Y-84452380D01*
X51557142Y-84500000D01*
X51461904Y-84595238D01*
X51414285Y-84690476D01*
X51366666Y-84880952D01*
X51366666Y-85023809D01*
X51414285Y-85214285D01*
X51461904Y-85309523D01*
X51557142Y-85404761D01*
X51700000Y-85452380D01*
X51938095Y-85452380D01*
X50985714Y-84547619D02*
X50938095Y-84500000D01*
X50842857Y-84452380D01*
X50604761Y-84452380D01*
X50509523Y-84500000D01*
X50461904Y-84547619D01*
X50414285Y-84642857D01*
X50414285Y-84738095D01*
X50461904Y-84880952D01*
X51033333Y-85452380D01*
X50414285Y-85452380D01*
D11*
X117070238Y-68229761D02*
X117070238Y-66229761D01*
X116213095Y-68229761D02*
X116213095Y-67182142D01*
X116308333Y-66991666D01*
X116498809Y-66896428D01*
X116784523Y-66896428D01*
X116975000Y-66991666D01*
X117070238Y-67086904D01*
X115546428Y-66896428D02*
X114784523Y-66896428D01*
X115260714Y-66229761D02*
X115260714Y-67944047D01*
X115165476Y-68134523D01*
X114975000Y-68229761D01*
X114784523Y-68229761D01*
X114403571Y-66896428D02*
X113641666Y-66896428D01*
X114117857Y-66229761D02*
X114117857Y-67944047D01*
X114022619Y-68134523D01*
X113832142Y-68229761D01*
X113641666Y-68229761D01*
X112975000Y-66896428D02*
X112975000Y-68896428D01*
X112975000Y-66991666D02*
X112784523Y-66896428D01*
X112403571Y-66896428D01*
X112213095Y-66991666D01*
X112117857Y-67086904D01*
X112022619Y-67277380D01*
X112022619Y-67848809D01*
X112117857Y-68039285D01*
X112213095Y-68134523D01*
X112403571Y-68229761D01*
X112784523Y-68229761D01*
X112975000Y-68134523D01*
X111260714Y-68134523D02*
X111070238Y-68229761D01*
X110689285Y-68229761D01*
X110498809Y-68134523D01*
X110403571Y-67944047D01*
X110403571Y-67848809D01*
X110498809Y-67658333D01*
X110689285Y-67563095D01*
X110975000Y-67563095D01*
X111165476Y-67467857D01*
X111260714Y-67277380D01*
X111260714Y-67182142D01*
X111165476Y-66991666D01*
X110975000Y-66896428D01*
X110689285Y-66896428D01*
X110498809Y-66991666D01*
X109546428Y-68039285D02*
X109451190Y-68134523D01*
X109546428Y-68229761D01*
X109641666Y-68134523D01*
X109546428Y-68039285D01*
X109546428Y-68229761D01*
X109546428Y-66991666D02*
X109451190Y-67086904D01*
X109546428Y-67182142D01*
X109641666Y-67086904D01*
X109546428Y-66991666D01*
X109546428Y-67182142D01*
X107165476Y-66134523D02*
X108879761Y-68705952D01*
X105070238Y-66134523D02*
X106784523Y-68705952D01*
X103546428Y-66896428D02*
X103546428Y-68515476D01*
X103641666Y-68705952D01*
X103736904Y-68801190D01*
X103927380Y-68896428D01*
X104213095Y-68896428D01*
X104403571Y-68801190D01*
X103546428Y-68134523D02*
X103736904Y-68229761D01*
X104117857Y-68229761D01*
X104308333Y-68134523D01*
X104403571Y-68039285D01*
X104498809Y-67848809D01*
X104498809Y-67277380D01*
X104403571Y-67086904D01*
X104308333Y-66991666D01*
X104117857Y-66896428D01*
X103736904Y-66896428D01*
X103546428Y-66991666D01*
X102594047Y-68229761D02*
X102594047Y-66896428D01*
X102594047Y-66229761D02*
X102689285Y-66325000D01*
X102594047Y-66420238D01*
X102498809Y-66325000D01*
X102594047Y-66229761D01*
X102594047Y-66420238D01*
X101927380Y-66896428D02*
X101165476Y-66896428D01*
X101641666Y-66229761D02*
X101641666Y-67944047D01*
X101546428Y-68134523D01*
X101355952Y-68229761D01*
X101165476Y-68229761D01*
X100498809Y-68229761D02*
X100498809Y-66229761D01*
X99641666Y-68229761D02*
X99641666Y-67182142D01*
X99736904Y-66991666D01*
X99927380Y-66896428D01*
X100213095Y-66896428D01*
X100403571Y-66991666D01*
X100498809Y-67086904D01*
X97832142Y-66896428D02*
X97832142Y-68229761D01*
X98689285Y-66896428D02*
X98689285Y-67944047D01*
X98594047Y-68134523D01*
X98403571Y-68229761D01*
X98117857Y-68229761D01*
X97927380Y-68134523D01*
X97832142Y-68039285D01*
X96879761Y-68229761D02*
X96879761Y-66229761D01*
X96879761Y-66991666D02*
X96689285Y-66896428D01*
X96308333Y-66896428D01*
X96117857Y-66991666D01*
X96022619Y-67086904D01*
X95927380Y-67277380D01*
X95927380Y-67848809D01*
X96022619Y-68039285D01*
X96117857Y-68134523D01*
X96308333Y-68229761D01*
X96689285Y-68229761D01*
X96879761Y-68134523D01*
X95070238Y-68039285D02*
X94975000Y-68134523D01*
X95070238Y-68229761D01*
X95165476Y-68134523D01*
X95070238Y-68039285D01*
X95070238Y-68229761D01*
X93260714Y-68134523D02*
X93451190Y-68229761D01*
X93832142Y-68229761D01*
X94022619Y-68134523D01*
X94117857Y-68039285D01*
X94213095Y-67848809D01*
X94213095Y-67277380D01*
X94117857Y-67086904D01*
X94022619Y-66991666D01*
X93832142Y-66896428D01*
X93451190Y-66896428D01*
X93260714Y-66991666D01*
X92117857Y-68229761D02*
X92308333Y-68134523D01*
X92403571Y-68039285D01*
X92498809Y-67848809D01*
X92498809Y-67277380D01*
X92403571Y-67086904D01*
X92308333Y-66991666D01*
X92117857Y-66896428D01*
X91832142Y-66896428D01*
X91641666Y-66991666D01*
X91546428Y-67086904D01*
X91451190Y-67277380D01*
X91451190Y-67848809D01*
X91546428Y-68039285D01*
X91641666Y-68134523D01*
X91832142Y-68229761D01*
X92117857Y-68229761D01*
X90594047Y-68229761D02*
X90594047Y-66896428D01*
X90594047Y-67086904D02*
X90498809Y-66991666D01*
X90308333Y-66896428D01*
X90022619Y-66896428D01*
X89832142Y-66991666D01*
X89736904Y-67182142D01*
X89736904Y-68229761D01*
X89736904Y-67182142D02*
X89641666Y-66991666D01*
X89451190Y-66896428D01*
X89165476Y-66896428D01*
X88975000Y-66991666D01*
X88879761Y-67182142D01*
X88879761Y-68229761D01*
X86498809Y-66134523D02*
X88213095Y-68705952D01*
X85927380Y-68134523D02*
X85641666Y-68229761D01*
X85165476Y-68229761D01*
X84975000Y-68134523D01*
X84879761Y-68039285D01*
X84784523Y-67848809D01*
X84784523Y-67658333D01*
X84879761Y-67467857D01*
X84975000Y-67372619D01*
X85165476Y-67277380D01*
X85546428Y-67182142D01*
X85736904Y-67086904D01*
X85832142Y-66991666D01*
X85927380Y-66801190D01*
X85927380Y-66610714D01*
X85832142Y-66420238D01*
X85736904Y-66325000D01*
X85546428Y-66229761D01*
X85070238Y-66229761D01*
X84784523Y-66325000D01*
X83927380Y-68229761D02*
X83927380Y-66229761D01*
X83736904Y-67467857D02*
X83165476Y-68229761D01*
X83165476Y-66896428D02*
X83927380Y-67658333D01*
X82498809Y-66896428D02*
X82022619Y-68229761D01*
X81546428Y-66896428D02*
X82022619Y-68229761D01*
X82213095Y-68705952D01*
X82308333Y-68801190D01*
X82498809Y-68896428D01*
X80498809Y-68229761D02*
X80689285Y-68134523D01*
X80784523Y-67944047D01*
X80784523Y-66229761D01*
X78975000Y-68134523D02*
X79165476Y-68229761D01*
X79546428Y-68229761D01*
X79736904Y-68134523D01*
X79832142Y-67944047D01*
X79832142Y-67182142D01*
X79736904Y-66991666D01*
X79546428Y-66896428D01*
X79165476Y-66896428D01*
X78975000Y-66991666D01*
X78879761Y-67182142D01*
X78879761Y-67372619D01*
X79832142Y-67563095D01*
X78022619Y-68229761D02*
X78022619Y-66896428D01*
X78022619Y-67277380D02*
X77927380Y-67086904D01*
X77832142Y-66991666D01*
X77641666Y-66896428D01*
X77451190Y-66896428D01*
X76784523Y-67467857D02*
X75260714Y-67467857D01*
X73165476Y-68039285D02*
X73260714Y-68134523D01*
X73546428Y-68229761D01*
X73736904Y-68229761D01*
X74022619Y-68134523D01*
X74213095Y-67944047D01*
X74308333Y-67753571D01*
X74403571Y-67372619D01*
X74403571Y-67086904D01*
X74308333Y-66705952D01*
X74213095Y-66515476D01*
X74022619Y-66325000D01*
X73736904Y-66229761D01*
X73546428Y-66229761D01*
X73260714Y-66325000D01*
X73165476Y-66420238D01*
X72022619Y-68229761D02*
X72213095Y-68134523D01*
X72308333Y-68039285D01*
X72403571Y-67848809D01*
X72403571Y-67277380D01*
X72308333Y-67086904D01*
X72213095Y-66991666D01*
X72022619Y-66896428D01*
X71736904Y-66896428D01*
X71546428Y-66991666D01*
X71451190Y-67086904D01*
X71355952Y-67277380D01*
X71355952Y-67848809D01*
X71451190Y-68039285D01*
X71546428Y-68134523D01*
X71736904Y-68229761D01*
X72022619Y-68229761D01*
X70498809Y-68229761D02*
X70498809Y-66896428D01*
X70498809Y-67277380D02*
X70403571Y-67086904D01*
X70308333Y-66991666D01*
X70117857Y-66896428D01*
X69927380Y-66896428D01*
X69260714Y-66896428D02*
X69260714Y-68229761D01*
X69260714Y-67086904D02*
X69165476Y-66991666D01*
X68975000Y-66896428D01*
X68689285Y-66896428D01*
X68498809Y-66991666D01*
X68403571Y-67182142D01*
X68403571Y-68229761D01*
X66689285Y-68134523D02*
X66879761Y-68229761D01*
X67260714Y-68229761D01*
X67451190Y-68134523D01*
X67546428Y-67944047D01*
X67546428Y-67182142D01*
X67451190Y-66991666D01*
X67260714Y-66896428D01*
X66879761Y-66896428D01*
X66689285Y-66991666D01*
X66594047Y-67182142D01*
X66594047Y-67372619D01*
X67546428Y-67563095D01*
X65451190Y-68229761D02*
X65641666Y-68134523D01*
X65736904Y-67944047D01*
X65736904Y-66229761D01*
X64403571Y-68229761D02*
X64594047Y-68134523D01*
X64689285Y-67944047D01*
X64689285Y-66229761D01*
X62213095Y-66134523D02*
X63927380Y-68705952D01*
X61546428Y-67182142D02*
X60879761Y-67182142D01*
X60594047Y-68229761D02*
X61546428Y-68229761D01*
X61546428Y-66229761D01*
X60594047Y-66229761D01*
X59641666Y-68229761D02*
X59260714Y-68229761D01*
X59070238Y-68134523D01*
X58975000Y-68039285D01*
X58784523Y-67753571D01*
X58689285Y-67372619D01*
X58689285Y-66610714D01*
X58784523Y-66420238D01*
X58879761Y-66325000D01*
X59070238Y-66229761D01*
X59451190Y-66229761D01*
X59641666Y-66325000D01*
X59736904Y-66420238D01*
X59832142Y-66610714D01*
X59832142Y-67086904D01*
X59736904Y-67277380D01*
X59641666Y-67372619D01*
X59451190Y-67467857D01*
X59070238Y-67467857D01*
X58879761Y-67372619D01*
X58784523Y-67277380D01*
X58689285Y-67086904D01*
X57451190Y-66229761D02*
X57260714Y-66229761D01*
X57070238Y-66325000D01*
X56975000Y-66420238D01*
X56879761Y-66610714D01*
X56784523Y-66991666D01*
X56784523Y-67467857D01*
X56879761Y-67848809D01*
X56975000Y-68039285D01*
X57070238Y-68134523D01*
X57260714Y-68229761D01*
X57451190Y-68229761D01*
X57641666Y-68134523D01*
X57736904Y-68039285D01*
X57832142Y-67848809D01*
X57927380Y-67467857D01*
X57927380Y-66991666D01*
X57832142Y-66610714D01*
X57736904Y-66420238D01*
X57641666Y-66325000D01*
X57451190Y-66229761D01*
D10*
X53063095Y-93027380D02*
X53063095Y-92027380D01*
X52682142Y-92027380D01*
X52586904Y-92075000D01*
X52539285Y-92122619D01*
X52491666Y-92217857D01*
X52491666Y-92360714D01*
X52539285Y-92455952D01*
X52586904Y-92503571D01*
X52682142Y-92551190D01*
X53063095Y-92551190D01*
X51729761Y-92503571D02*
X51586904Y-92551190D01*
X51539285Y-92598809D01*
X51491666Y-92694047D01*
X51491666Y-92836904D01*
X51539285Y-92932142D01*
X51586904Y-92979761D01*
X51682142Y-93027380D01*
X52063095Y-93027380D01*
X52063095Y-92027380D01*
X51729761Y-92027380D01*
X51634523Y-92075000D01*
X51586904Y-92122619D01*
X51539285Y-92217857D01*
X51539285Y-92313095D01*
X51586904Y-92408333D01*
X51634523Y-92455952D01*
X51729761Y-92503571D01*
X52063095Y-92503571D01*
X51158333Y-92027380D02*
X50491666Y-92027380D01*
X50920238Y-93027380D01*
X53088095Y-90152380D02*
X53088095Y-89152380D01*
X52707142Y-89152380D01*
X52611904Y-89200000D01*
X52564285Y-89247619D01*
X52516666Y-89342857D01*
X52516666Y-89485714D01*
X52564285Y-89580952D01*
X52611904Y-89628571D01*
X52707142Y-89676190D01*
X53088095Y-89676190D01*
X51754761Y-89628571D02*
X51611904Y-89676190D01*
X51564285Y-89723809D01*
X51516666Y-89819047D01*
X51516666Y-89961904D01*
X51564285Y-90057142D01*
X51611904Y-90104761D01*
X51707142Y-90152380D01*
X52088095Y-90152380D01*
X52088095Y-89152380D01*
X51754761Y-89152380D01*
X51659523Y-89200000D01*
X51611904Y-89247619D01*
X51564285Y-89342857D01*
X51564285Y-89438095D01*
X51611904Y-89533333D01*
X51659523Y-89580952D01*
X51754761Y-89628571D01*
X52088095Y-89628571D01*
X50659523Y-89152380D02*
X50850000Y-89152380D01*
X50945238Y-89200000D01*
X50992857Y-89247619D01*
X51088095Y-89390476D01*
X51135714Y-89580952D01*
X51135714Y-89961904D01*
X51088095Y-90057142D01*
X51040476Y-90104761D01*
X50945238Y-90152380D01*
X50754761Y-90152380D01*
X50659523Y-90104761D01*
X50611904Y-90057142D01*
X50564285Y-89961904D01*
X50564285Y-89723809D01*
X50611904Y-89628571D01*
X50659523Y-89580952D01*
X50754761Y-89533333D01*
X50945238Y-89533333D01*
X51040476Y-89580952D01*
X51088095Y-89628571D01*
X51135714Y-89723809D01*
M02*
