%TF.GenerationSoftware,KiCad,Pcbnew,(5.1.5-0-10_14)*%
%TF.CreationDate,2021-01-02T15:40:46-05:00*%
%TF.ProjectId,E90,4539302e-6b69-4636-9164-5f7063625858,rev?*%
%TF.SameCoordinates,Original*%
%TF.FileFunction,Soldermask,Bot*%
%TF.FilePolarity,Negative*%
%FSLAX46Y46*%
G04 Gerber Fmt 4.6, Leading zero omitted, Abs format (unit mm)*
G04 Created by KiCad (PCBNEW (5.1.5-0-10_14)) date 2021-01-02 15:40:46*
%MOMM*%
%LPD*%
G04 APERTURE LIST*
%ADD10C,0.100000*%
G04 APERTURE END LIST*
D10*
G36*
X96251512Y-114229927D02*
G01*
X96400812Y-114259624D01*
X96564784Y-114327544D01*
X96712354Y-114426147D01*
X96837853Y-114551646D01*
X96936456Y-114699216D01*
X97004376Y-114863188D01*
X97039000Y-115037259D01*
X97039000Y-115214741D01*
X97004376Y-115388812D01*
X96936456Y-115552784D01*
X96837853Y-115700354D01*
X96712354Y-115825853D01*
X96564784Y-115924456D01*
X96400812Y-115992376D01*
X96251512Y-116022073D01*
X96226742Y-116027000D01*
X96049258Y-116027000D01*
X96024488Y-116022073D01*
X95875188Y-115992376D01*
X95711216Y-115924456D01*
X95563646Y-115825853D01*
X95438147Y-115700354D01*
X95339544Y-115552784D01*
X95271624Y-115388812D01*
X95237000Y-115214741D01*
X95237000Y-115037259D01*
X95271624Y-114863188D01*
X95339544Y-114699216D01*
X95438147Y-114551646D01*
X95563646Y-114426147D01*
X95711216Y-114327544D01*
X95875188Y-114259624D01*
X96024488Y-114229927D01*
X96049258Y-114225000D01*
X96226742Y-114225000D01*
X96251512Y-114229927D01*
G37*
G36*
X66091000Y-115131000D02*
G01*
X64289000Y-115131000D01*
X64289000Y-113329000D01*
X66091000Y-113329000D01*
X66091000Y-115131000D01*
G37*
G36*
X96251512Y-111689927D02*
G01*
X96400812Y-111719624D01*
X96564784Y-111787544D01*
X96712354Y-111886147D01*
X96837853Y-112011646D01*
X96936456Y-112159216D01*
X97004376Y-112323188D01*
X97039000Y-112497259D01*
X97039000Y-112674741D01*
X97004376Y-112848812D01*
X96936456Y-113012784D01*
X96837853Y-113160354D01*
X96712354Y-113285853D01*
X96564784Y-113384456D01*
X96400812Y-113452376D01*
X96251512Y-113482073D01*
X96226742Y-113487000D01*
X96049258Y-113487000D01*
X96024488Y-113482073D01*
X95875188Y-113452376D01*
X95711216Y-113384456D01*
X95563646Y-113285853D01*
X95438147Y-113160354D01*
X95339544Y-113012784D01*
X95271624Y-112848812D01*
X95237000Y-112674741D01*
X95237000Y-112497259D01*
X95271624Y-112323188D01*
X95339544Y-112159216D01*
X95438147Y-112011646D01*
X95563646Y-111886147D01*
X95711216Y-111787544D01*
X95875188Y-111719624D01*
X96024488Y-111689927D01*
X96049258Y-111685000D01*
X96226742Y-111685000D01*
X96251512Y-111689927D01*
G37*
G36*
X97039000Y-110947000D02*
G01*
X95237000Y-110947000D01*
X95237000Y-109145000D01*
X97039000Y-109145000D01*
X97039000Y-110947000D01*
G37*
G36*
X67551000Y-105921000D02*
G01*
X65749000Y-105921000D01*
X65749000Y-104119000D01*
X67551000Y-104119000D01*
X67551000Y-105921000D01*
G37*
G36*
X66763512Y-101583927D02*
G01*
X66912812Y-101613624D01*
X67076784Y-101681544D01*
X67224354Y-101780147D01*
X67349853Y-101905646D01*
X67448456Y-102053216D01*
X67516376Y-102217188D01*
X67551000Y-102391259D01*
X67551000Y-102568741D01*
X67516376Y-102742812D01*
X67448456Y-102906784D01*
X67349853Y-103054354D01*
X67224354Y-103179853D01*
X67076784Y-103278456D01*
X66912812Y-103346376D01*
X66763512Y-103376073D01*
X66738742Y-103381000D01*
X66561258Y-103381000D01*
X66536488Y-103376073D01*
X66387188Y-103346376D01*
X66223216Y-103278456D01*
X66075646Y-103179853D01*
X65950147Y-103054354D01*
X65851544Y-102906784D01*
X65783624Y-102742812D01*
X65749000Y-102568741D01*
X65749000Y-102391259D01*
X65783624Y-102217188D01*
X65851544Y-102053216D01*
X65950147Y-101905646D01*
X66075646Y-101780147D01*
X66223216Y-101681544D01*
X66387188Y-101613624D01*
X66536488Y-101583927D01*
X66561258Y-101579000D01*
X66738742Y-101579000D01*
X66763512Y-101583927D01*
G37*
G36*
X96379512Y-99941927D02*
G01*
X96528812Y-99971624D01*
X96692784Y-100039544D01*
X96840354Y-100138147D01*
X96965853Y-100263646D01*
X97064456Y-100411216D01*
X97132376Y-100575188D01*
X97167000Y-100749259D01*
X97167000Y-100926741D01*
X97132376Y-101100812D01*
X97064456Y-101264784D01*
X96965853Y-101412354D01*
X96840354Y-101537853D01*
X96692784Y-101636456D01*
X96528812Y-101704376D01*
X96379512Y-101734073D01*
X96354742Y-101739000D01*
X96177258Y-101739000D01*
X96152488Y-101734073D01*
X96003188Y-101704376D01*
X95839216Y-101636456D01*
X95691646Y-101537853D01*
X95566147Y-101412354D01*
X95467544Y-101264784D01*
X95399624Y-101100812D01*
X95365000Y-100926741D01*
X95365000Y-100749259D01*
X95399624Y-100575188D01*
X95467544Y-100411216D01*
X95566147Y-100263646D01*
X95691646Y-100138147D01*
X95839216Y-100039544D01*
X96003188Y-99971624D01*
X96152488Y-99941927D01*
X96177258Y-99937000D01*
X96354742Y-99937000D01*
X96379512Y-99941927D01*
G37*
G36*
X96379512Y-97401927D02*
G01*
X96528812Y-97431624D01*
X96692784Y-97499544D01*
X96840354Y-97598147D01*
X96965853Y-97723646D01*
X97064456Y-97871216D01*
X97132376Y-98035188D01*
X97167000Y-98209259D01*
X97167000Y-98386741D01*
X97132376Y-98560812D01*
X97064456Y-98724784D01*
X96965853Y-98872354D01*
X96840354Y-98997853D01*
X96692784Y-99096456D01*
X96528812Y-99164376D01*
X96379512Y-99194073D01*
X96354742Y-99199000D01*
X96177258Y-99199000D01*
X96152488Y-99194073D01*
X96003188Y-99164376D01*
X95839216Y-99096456D01*
X95691646Y-98997853D01*
X95566147Y-98872354D01*
X95467544Y-98724784D01*
X95399624Y-98560812D01*
X95365000Y-98386741D01*
X95365000Y-98209259D01*
X95399624Y-98035188D01*
X95467544Y-97871216D01*
X95566147Y-97723646D01*
X95691646Y-97598147D01*
X95839216Y-97499544D01*
X96003188Y-97431624D01*
X96152488Y-97401927D01*
X96177258Y-97397000D01*
X96354742Y-97397000D01*
X96379512Y-97401927D01*
G37*
G36*
X97167000Y-96659000D02*
G01*
X95365000Y-96659000D01*
X95365000Y-94857000D01*
X97167000Y-94857000D01*
X97167000Y-96659000D01*
G37*
G36*
X77261988Y-86513624D02*
G01*
X77412812Y-86543624D01*
X77576784Y-86611544D01*
X77724354Y-86710147D01*
X77849853Y-86835646D01*
X77948456Y-86983216D01*
X78016376Y-87147188D01*
X78051000Y-87321259D01*
X78051000Y-87498741D01*
X78016376Y-87672812D01*
X77948456Y-87836784D01*
X77849853Y-87984354D01*
X77724354Y-88109853D01*
X77576784Y-88208456D01*
X77412812Y-88276376D01*
X77263512Y-88306073D01*
X77238742Y-88311000D01*
X77061258Y-88311000D01*
X77036488Y-88306073D01*
X76887188Y-88276376D01*
X76723216Y-88208456D01*
X76575646Y-88109853D01*
X76450147Y-87984354D01*
X76351544Y-87836784D01*
X76283624Y-87672812D01*
X76249000Y-87498741D01*
X76249000Y-87321259D01*
X76283624Y-87147188D01*
X76351544Y-86983216D01*
X76450147Y-86835646D01*
X76575646Y-86710147D01*
X76723216Y-86611544D01*
X76887188Y-86543624D01*
X77038012Y-86513624D01*
X77061258Y-86509000D01*
X77238742Y-86509000D01*
X77261988Y-86513624D01*
G37*
G36*
X74721988Y-86513624D02*
G01*
X74872812Y-86543624D01*
X75036784Y-86611544D01*
X75184354Y-86710147D01*
X75309853Y-86835646D01*
X75408456Y-86983216D01*
X75476376Y-87147188D01*
X75511000Y-87321259D01*
X75511000Y-87498741D01*
X75476376Y-87672812D01*
X75408456Y-87836784D01*
X75309853Y-87984354D01*
X75184354Y-88109853D01*
X75036784Y-88208456D01*
X74872812Y-88276376D01*
X74723512Y-88306073D01*
X74698742Y-88311000D01*
X74521258Y-88311000D01*
X74496488Y-88306073D01*
X74347188Y-88276376D01*
X74183216Y-88208456D01*
X74035646Y-88109853D01*
X73910147Y-87984354D01*
X73811544Y-87836784D01*
X73743624Y-87672812D01*
X73709000Y-87498741D01*
X73709000Y-87321259D01*
X73743624Y-87147188D01*
X73811544Y-86983216D01*
X73910147Y-86835646D01*
X74035646Y-86710147D01*
X74183216Y-86611544D01*
X74347188Y-86543624D01*
X74498012Y-86513624D01*
X74521258Y-86509000D01*
X74698742Y-86509000D01*
X74721988Y-86513624D01*
G37*
G36*
X70603512Y-86483927D02*
G01*
X70752812Y-86513624D01*
X70916784Y-86581544D01*
X71064354Y-86680147D01*
X71189853Y-86805646D01*
X71288456Y-86953216D01*
X71356376Y-87117188D01*
X71391000Y-87291259D01*
X71391000Y-87468741D01*
X71356376Y-87642812D01*
X71288456Y-87806784D01*
X71189853Y-87954354D01*
X71064354Y-88079853D01*
X70916784Y-88178456D01*
X70752812Y-88246376D01*
X70603512Y-88276073D01*
X70578742Y-88281000D01*
X70401258Y-88281000D01*
X70376488Y-88276073D01*
X70227188Y-88246376D01*
X70063216Y-88178456D01*
X69915646Y-88079853D01*
X69790147Y-87954354D01*
X69691544Y-87806784D01*
X69623624Y-87642812D01*
X69589000Y-87468741D01*
X69589000Y-87291259D01*
X69623624Y-87117188D01*
X69691544Y-86953216D01*
X69790147Y-86805646D01*
X69915646Y-86680147D01*
X70063216Y-86581544D01*
X70227188Y-86513624D01*
X70376488Y-86483927D01*
X70401258Y-86479000D01*
X70578742Y-86479000D01*
X70603512Y-86483927D01*
G37*
G36*
X68063512Y-86483927D02*
G01*
X68212812Y-86513624D01*
X68376784Y-86581544D01*
X68524354Y-86680147D01*
X68649853Y-86805646D01*
X68748456Y-86953216D01*
X68816376Y-87117188D01*
X68851000Y-87291259D01*
X68851000Y-87468741D01*
X68816376Y-87642812D01*
X68748456Y-87806784D01*
X68649853Y-87954354D01*
X68524354Y-88079853D01*
X68376784Y-88178456D01*
X68212812Y-88246376D01*
X68063512Y-88276073D01*
X68038742Y-88281000D01*
X67861258Y-88281000D01*
X67836488Y-88276073D01*
X67687188Y-88246376D01*
X67523216Y-88178456D01*
X67375646Y-88079853D01*
X67250147Y-87954354D01*
X67151544Y-87806784D01*
X67083624Y-87642812D01*
X67049000Y-87468741D01*
X67049000Y-87291259D01*
X67083624Y-87117188D01*
X67151544Y-86953216D01*
X67250147Y-86805646D01*
X67375646Y-86680147D01*
X67523216Y-86581544D01*
X67687188Y-86513624D01*
X67836488Y-86483927D01*
X67861258Y-86479000D01*
X68038742Y-86479000D01*
X68063512Y-86483927D01*
G37*
G36*
X89453512Y-84613927D02*
G01*
X89602812Y-84643624D01*
X89766784Y-84711544D01*
X89914354Y-84810147D01*
X90039853Y-84935646D01*
X90138456Y-85083216D01*
X90206376Y-85247188D01*
X90241000Y-85421259D01*
X90241000Y-85598741D01*
X90206376Y-85772812D01*
X90138456Y-85936784D01*
X90039853Y-86084354D01*
X89914354Y-86209853D01*
X89766784Y-86308456D01*
X89602812Y-86376376D01*
X89453512Y-86406073D01*
X89428742Y-86411000D01*
X89251258Y-86411000D01*
X89226488Y-86406073D01*
X89077188Y-86376376D01*
X88913216Y-86308456D01*
X88765646Y-86209853D01*
X88640147Y-86084354D01*
X88541544Y-85936784D01*
X88473624Y-85772812D01*
X88439000Y-85598741D01*
X88439000Y-85421259D01*
X88473624Y-85247188D01*
X88541544Y-85083216D01*
X88640147Y-84935646D01*
X88765646Y-84810147D01*
X88913216Y-84711544D01*
X89077188Y-84643624D01*
X89226488Y-84613927D01*
X89251258Y-84609000D01*
X89428742Y-84609000D01*
X89453512Y-84613927D01*
G37*
G36*
X86913512Y-84613927D02*
G01*
X87062812Y-84643624D01*
X87226784Y-84711544D01*
X87374354Y-84810147D01*
X87499853Y-84935646D01*
X87598456Y-85083216D01*
X87666376Y-85247188D01*
X87701000Y-85421259D01*
X87701000Y-85598741D01*
X87666376Y-85772812D01*
X87598456Y-85936784D01*
X87499853Y-86084354D01*
X87374354Y-86209853D01*
X87226784Y-86308456D01*
X87062812Y-86376376D01*
X86913512Y-86406073D01*
X86888742Y-86411000D01*
X86711258Y-86411000D01*
X86686488Y-86406073D01*
X86537188Y-86376376D01*
X86373216Y-86308456D01*
X86225646Y-86209853D01*
X86100147Y-86084354D01*
X86001544Y-85936784D01*
X85933624Y-85772812D01*
X85899000Y-85598741D01*
X85899000Y-85421259D01*
X85933624Y-85247188D01*
X86001544Y-85083216D01*
X86100147Y-84935646D01*
X86225646Y-84810147D01*
X86373216Y-84711544D01*
X86537188Y-84643624D01*
X86686488Y-84613927D01*
X86711258Y-84609000D01*
X86888742Y-84609000D01*
X86913512Y-84613927D01*
G37*
G36*
X77261988Y-83973624D02*
G01*
X77412812Y-84003624D01*
X77576784Y-84071544D01*
X77724354Y-84170147D01*
X77849853Y-84295646D01*
X77948456Y-84443216D01*
X78016376Y-84607188D01*
X78051000Y-84781259D01*
X78051000Y-84958741D01*
X78016376Y-85132812D01*
X77948456Y-85296784D01*
X77849853Y-85444354D01*
X77724354Y-85569853D01*
X77576784Y-85668456D01*
X77412812Y-85736376D01*
X77263512Y-85766073D01*
X77238742Y-85771000D01*
X77061258Y-85771000D01*
X77036488Y-85766073D01*
X76887188Y-85736376D01*
X76723216Y-85668456D01*
X76575646Y-85569853D01*
X76450147Y-85444354D01*
X76351544Y-85296784D01*
X76283624Y-85132812D01*
X76249000Y-84958741D01*
X76249000Y-84781259D01*
X76283624Y-84607188D01*
X76351544Y-84443216D01*
X76450147Y-84295646D01*
X76575646Y-84170147D01*
X76723216Y-84071544D01*
X76887188Y-84003624D01*
X77038012Y-83973624D01*
X77061258Y-83969000D01*
X77238742Y-83969000D01*
X77261988Y-83973624D01*
G37*
G36*
X75511000Y-85771000D02*
G01*
X73709000Y-85771000D01*
X73709000Y-83969000D01*
X75511000Y-83969000D01*
X75511000Y-85771000D01*
G37*
G36*
X70603512Y-83943927D02*
G01*
X70752812Y-83973624D01*
X70916784Y-84041544D01*
X71064354Y-84140147D01*
X71189853Y-84265646D01*
X71288456Y-84413216D01*
X71356376Y-84577188D01*
X71391000Y-84751259D01*
X71391000Y-84928741D01*
X71356376Y-85102812D01*
X71288456Y-85266784D01*
X71189853Y-85414354D01*
X71064354Y-85539853D01*
X70916784Y-85638456D01*
X70752812Y-85706376D01*
X70603512Y-85736073D01*
X70578742Y-85741000D01*
X70401258Y-85741000D01*
X70376488Y-85736073D01*
X70227188Y-85706376D01*
X70063216Y-85638456D01*
X69915646Y-85539853D01*
X69790147Y-85414354D01*
X69691544Y-85266784D01*
X69623624Y-85102812D01*
X69589000Y-84928741D01*
X69589000Y-84751259D01*
X69623624Y-84577188D01*
X69691544Y-84413216D01*
X69790147Y-84265646D01*
X69915646Y-84140147D01*
X70063216Y-84041544D01*
X70227188Y-83973624D01*
X70376488Y-83943927D01*
X70401258Y-83939000D01*
X70578742Y-83939000D01*
X70603512Y-83943927D01*
G37*
G36*
X68851000Y-85741000D02*
G01*
X67049000Y-85741000D01*
X67049000Y-83939000D01*
X68851000Y-83939000D01*
X68851000Y-85741000D01*
G37*
G36*
X61476000Y-85201000D02*
G01*
X59674000Y-85201000D01*
X59674000Y-83399000D01*
X61476000Y-83399000D01*
X61476000Y-85201000D01*
G37*
G36*
X56338512Y-83393927D02*
G01*
X56487812Y-83423624D01*
X56651784Y-83491544D01*
X56799354Y-83590147D01*
X56924853Y-83715646D01*
X57023456Y-83863216D01*
X57091376Y-84027188D01*
X57126000Y-84201259D01*
X57126000Y-84378741D01*
X57091376Y-84552812D01*
X57023456Y-84716784D01*
X56924853Y-84864354D01*
X56799354Y-84989853D01*
X56651784Y-85088456D01*
X56487812Y-85156376D01*
X56338512Y-85186073D01*
X56313742Y-85191000D01*
X56136258Y-85191000D01*
X56111488Y-85186073D01*
X55962188Y-85156376D01*
X55798216Y-85088456D01*
X55650646Y-84989853D01*
X55525147Y-84864354D01*
X55426544Y-84716784D01*
X55358624Y-84552812D01*
X55324000Y-84378741D01*
X55324000Y-84201259D01*
X55358624Y-84027188D01*
X55426544Y-83863216D01*
X55525147Y-83715646D01*
X55650646Y-83590147D01*
X55798216Y-83491544D01*
X55962188Y-83423624D01*
X56111488Y-83393927D01*
X56136258Y-83389000D01*
X56313742Y-83389000D01*
X56338512Y-83393927D01*
G37*
G36*
X89451988Y-82073624D02*
G01*
X89602812Y-82103624D01*
X89766784Y-82171544D01*
X89914354Y-82270147D01*
X90039853Y-82395646D01*
X90138456Y-82543216D01*
X90206376Y-82707188D01*
X90241000Y-82881259D01*
X90241000Y-83058741D01*
X90206376Y-83232812D01*
X90138456Y-83396784D01*
X90039853Y-83544354D01*
X89914354Y-83669853D01*
X89766784Y-83768456D01*
X89602812Y-83836376D01*
X89453512Y-83866073D01*
X89428742Y-83871000D01*
X89251258Y-83871000D01*
X89226488Y-83866073D01*
X89077188Y-83836376D01*
X88913216Y-83768456D01*
X88765646Y-83669853D01*
X88640147Y-83544354D01*
X88541544Y-83396784D01*
X88473624Y-83232812D01*
X88439000Y-83058741D01*
X88439000Y-82881259D01*
X88473624Y-82707188D01*
X88541544Y-82543216D01*
X88640147Y-82395646D01*
X88765646Y-82270147D01*
X88913216Y-82171544D01*
X89077188Y-82103624D01*
X89228012Y-82073624D01*
X89251258Y-82069000D01*
X89428742Y-82069000D01*
X89451988Y-82073624D01*
G37*
G36*
X87701000Y-83871000D02*
G01*
X85899000Y-83871000D01*
X85899000Y-82069000D01*
X87701000Y-82069000D01*
X87701000Y-83871000D01*
G37*
G36*
X94903512Y-82043927D02*
G01*
X95052812Y-82073624D01*
X95216784Y-82141544D01*
X95364354Y-82240147D01*
X95489853Y-82365646D01*
X95588456Y-82513216D01*
X95656376Y-82677188D01*
X95691000Y-82851259D01*
X95691000Y-83028741D01*
X95656376Y-83202812D01*
X95588456Y-83366784D01*
X95489853Y-83514354D01*
X95364354Y-83639853D01*
X95216784Y-83738456D01*
X95052812Y-83806376D01*
X94903512Y-83836073D01*
X94878742Y-83841000D01*
X94701258Y-83841000D01*
X94676488Y-83836073D01*
X94527188Y-83806376D01*
X94363216Y-83738456D01*
X94215646Y-83639853D01*
X94090147Y-83514354D01*
X93991544Y-83366784D01*
X93923624Y-83202812D01*
X93889000Y-83028741D01*
X93889000Y-82851259D01*
X93923624Y-82677188D01*
X93991544Y-82513216D01*
X94090147Y-82365646D01*
X94215646Y-82240147D01*
X94363216Y-82141544D01*
X94527188Y-82073624D01*
X94676488Y-82043927D01*
X94701258Y-82039000D01*
X94878742Y-82039000D01*
X94903512Y-82043927D01*
G37*
G36*
X98231000Y-83841000D02*
G01*
X96429000Y-83841000D01*
X96429000Y-82039000D01*
X98231000Y-82039000D01*
X98231000Y-83841000D01*
G37*
G36*
X60688512Y-80863927D02*
G01*
X60837812Y-80893624D01*
X61001784Y-80961544D01*
X61149354Y-81060147D01*
X61274853Y-81185646D01*
X61373456Y-81333216D01*
X61441376Y-81497188D01*
X61476000Y-81671259D01*
X61476000Y-81848741D01*
X61441376Y-82022812D01*
X61373456Y-82186784D01*
X61274853Y-82334354D01*
X61149354Y-82459853D01*
X61001784Y-82558456D01*
X60837812Y-82626376D01*
X60688512Y-82656073D01*
X60663742Y-82661000D01*
X60486258Y-82661000D01*
X60461488Y-82656073D01*
X60312188Y-82626376D01*
X60148216Y-82558456D01*
X60000646Y-82459853D01*
X59875147Y-82334354D01*
X59776544Y-82186784D01*
X59708624Y-82022812D01*
X59674000Y-81848741D01*
X59674000Y-81671259D01*
X59708624Y-81497188D01*
X59776544Y-81333216D01*
X59875147Y-81185646D01*
X60000646Y-81060147D01*
X60148216Y-80961544D01*
X60312188Y-80893624D01*
X60461488Y-80863927D01*
X60486258Y-80859000D01*
X60663742Y-80859000D01*
X60688512Y-80863927D01*
G37*
G36*
X57126000Y-82651000D02*
G01*
X55324000Y-82651000D01*
X55324000Y-80849000D01*
X57126000Y-80849000D01*
X57126000Y-82651000D01*
G37*
G36*
X89453512Y-77743927D02*
G01*
X89602812Y-77773624D01*
X89766784Y-77841544D01*
X89914354Y-77940147D01*
X90039853Y-78065646D01*
X90138456Y-78213216D01*
X90206376Y-78377188D01*
X90241000Y-78551259D01*
X90241000Y-78728741D01*
X90206376Y-78902812D01*
X90138456Y-79066784D01*
X90039853Y-79214354D01*
X89914354Y-79339853D01*
X89766784Y-79438456D01*
X89602812Y-79506376D01*
X89453512Y-79536073D01*
X89428742Y-79541000D01*
X89251258Y-79541000D01*
X89226488Y-79536073D01*
X89077188Y-79506376D01*
X88913216Y-79438456D01*
X88765646Y-79339853D01*
X88640147Y-79214354D01*
X88541544Y-79066784D01*
X88473624Y-78902812D01*
X88439000Y-78728741D01*
X88439000Y-78551259D01*
X88473624Y-78377188D01*
X88541544Y-78213216D01*
X88640147Y-78065646D01*
X88765646Y-77940147D01*
X88913216Y-77841544D01*
X89077188Y-77773624D01*
X89226488Y-77743927D01*
X89251258Y-77739000D01*
X89428742Y-77739000D01*
X89453512Y-77743927D01*
G37*
G36*
X86913512Y-77743927D02*
G01*
X87062812Y-77773624D01*
X87226784Y-77841544D01*
X87374354Y-77940147D01*
X87499853Y-78065646D01*
X87598456Y-78213216D01*
X87666376Y-78377188D01*
X87701000Y-78551259D01*
X87701000Y-78728741D01*
X87666376Y-78902812D01*
X87598456Y-79066784D01*
X87499853Y-79214354D01*
X87374354Y-79339853D01*
X87226784Y-79438456D01*
X87062812Y-79506376D01*
X86913512Y-79536073D01*
X86888742Y-79541000D01*
X86711258Y-79541000D01*
X86686488Y-79536073D01*
X86537188Y-79506376D01*
X86373216Y-79438456D01*
X86225646Y-79339853D01*
X86100147Y-79214354D01*
X86001544Y-79066784D01*
X85933624Y-78902812D01*
X85899000Y-78728741D01*
X85899000Y-78551259D01*
X85933624Y-78377188D01*
X86001544Y-78213216D01*
X86100147Y-78065646D01*
X86225646Y-77940147D01*
X86373216Y-77841544D01*
X86537188Y-77773624D01*
X86686488Y-77743927D01*
X86711258Y-77739000D01*
X86888742Y-77739000D01*
X86913512Y-77743927D01*
G37*
G36*
X97653512Y-76803927D02*
G01*
X97802812Y-76833624D01*
X97966784Y-76901544D01*
X98114354Y-77000147D01*
X98239853Y-77125646D01*
X98338456Y-77273216D01*
X98406376Y-77437188D01*
X98441000Y-77611259D01*
X98441000Y-77788741D01*
X98406376Y-77962812D01*
X98338456Y-78126784D01*
X98239853Y-78274354D01*
X98114354Y-78399853D01*
X97966784Y-78498456D01*
X97802812Y-78566376D01*
X97653512Y-78596073D01*
X97628742Y-78601000D01*
X97451258Y-78601000D01*
X97426488Y-78596073D01*
X97277188Y-78566376D01*
X97113216Y-78498456D01*
X96965646Y-78399853D01*
X96840147Y-78274354D01*
X96741544Y-78126784D01*
X96673624Y-77962812D01*
X96639000Y-77788741D01*
X96639000Y-77611259D01*
X96673624Y-77437188D01*
X96741544Y-77273216D01*
X96840147Y-77125646D01*
X96965646Y-77000147D01*
X97113216Y-76901544D01*
X97277188Y-76833624D01*
X97426488Y-76803927D01*
X97451258Y-76799000D01*
X97628742Y-76799000D01*
X97653512Y-76803927D01*
G37*
G36*
X95113512Y-76803927D02*
G01*
X95262812Y-76833624D01*
X95426784Y-76901544D01*
X95574354Y-77000147D01*
X95699853Y-77125646D01*
X95798456Y-77273216D01*
X95866376Y-77437188D01*
X95901000Y-77611259D01*
X95901000Y-77788741D01*
X95866376Y-77962812D01*
X95798456Y-78126784D01*
X95699853Y-78274354D01*
X95574354Y-78399853D01*
X95426784Y-78498456D01*
X95262812Y-78566376D01*
X95113512Y-78596073D01*
X95088742Y-78601000D01*
X94911258Y-78601000D01*
X94886488Y-78596073D01*
X94737188Y-78566376D01*
X94573216Y-78498456D01*
X94425646Y-78399853D01*
X94300147Y-78274354D01*
X94201544Y-78126784D01*
X94133624Y-77962812D01*
X94099000Y-77788741D01*
X94099000Y-77611259D01*
X94133624Y-77437188D01*
X94201544Y-77273216D01*
X94300147Y-77125646D01*
X94425646Y-77000147D01*
X94573216Y-76901544D01*
X94737188Y-76833624D01*
X94886488Y-76803927D01*
X94911258Y-76799000D01*
X95088742Y-76799000D01*
X95113512Y-76803927D01*
G37*
G36*
X87701000Y-77001000D02*
G01*
X85899000Y-77001000D01*
X85899000Y-75199000D01*
X87701000Y-75199000D01*
X87701000Y-77001000D01*
G37*
G36*
X89453512Y-75203927D02*
G01*
X89602812Y-75233624D01*
X89766784Y-75301544D01*
X89914354Y-75400147D01*
X90039853Y-75525646D01*
X90138456Y-75673216D01*
X90206376Y-75837188D01*
X90241000Y-76011259D01*
X90241000Y-76188741D01*
X90206376Y-76362812D01*
X90138456Y-76526784D01*
X90039853Y-76674354D01*
X89914354Y-76799853D01*
X89766784Y-76898456D01*
X89602812Y-76966376D01*
X89453512Y-76996073D01*
X89428742Y-77001000D01*
X89251258Y-77001000D01*
X89226488Y-76996073D01*
X89077188Y-76966376D01*
X88913216Y-76898456D01*
X88765646Y-76799853D01*
X88640147Y-76674354D01*
X88541544Y-76526784D01*
X88473624Y-76362812D01*
X88439000Y-76188741D01*
X88439000Y-76011259D01*
X88473624Y-75837188D01*
X88541544Y-75673216D01*
X88640147Y-75525646D01*
X88765646Y-75400147D01*
X88913216Y-75301544D01*
X89077188Y-75233624D01*
X89226488Y-75203927D01*
X89251258Y-75199000D01*
X89428742Y-75199000D01*
X89453512Y-75203927D01*
G37*
G36*
X95113512Y-74263927D02*
G01*
X95262812Y-74293624D01*
X95426784Y-74361544D01*
X95574354Y-74460147D01*
X95699853Y-74585646D01*
X95798456Y-74733216D01*
X95866376Y-74897188D01*
X95901000Y-75071259D01*
X95901000Y-75248741D01*
X95866376Y-75422812D01*
X95798456Y-75586784D01*
X95699853Y-75734354D01*
X95574354Y-75859853D01*
X95426784Y-75958456D01*
X95262812Y-76026376D01*
X95113512Y-76056073D01*
X95088742Y-76061000D01*
X94911258Y-76061000D01*
X94886488Y-76056073D01*
X94737188Y-76026376D01*
X94573216Y-75958456D01*
X94425646Y-75859853D01*
X94300147Y-75734354D01*
X94201544Y-75586784D01*
X94133624Y-75422812D01*
X94099000Y-75248741D01*
X94099000Y-75071259D01*
X94133624Y-74897188D01*
X94201544Y-74733216D01*
X94300147Y-74585646D01*
X94425646Y-74460147D01*
X94573216Y-74361544D01*
X94737188Y-74293624D01*
X94886488Y-74263927D01*
X94911258Y-74259000D01*
X95088742Y-74259000D01*
X95113512Y-74263927D01*
G37*
G36*
X97653512Y-74263927D02*
G01*
X97802812Y-74293624D01*
X97966784Y-74361544D01*
X98114354Y-74460147D01*
X98239853Y-74585646D01*
X98338456Y-74733216D01*
X98406376Y-74897188D01*
X98441000Y-75071259D01*
X98441000Y-75248741D01*
X98406376Y-75422812D01*
X98338456Y-75586784D01*
X98239853Y-75734354D01*
X98114354Y-75859853D01*
X97966784Y-75958456D01*
X97802812Y-76026376D01*
X97653512Y-76056073D01*
X97628742Y-76061000D01*
X97451258Y-76061000D01*
X97426488Y-76056073D01*
X97277188Y-76026376D01*
X97113216Y-75958456D01*
X96965646Y-75859853D01*
X96840147Y-75734354D01*
X96741544Y-75586784D01*
X96673624Y-75422812D01*
X96639000Y-75248741D01*
X96639000Y-75071259D01*
X96673624Y-74897188D01*
X96741544Y-74733216D01*
X96840147Y-74585646D01*
X96965646Y-74460147D01*
X97113216Y-74361544D01*
X97277188Y-74293624D01*
X97426488Y-74263927D01*
X97451258Y-74259000D01*
X97628742Y-74259000D01*
X97653512Y-74263927D01*
G37*
G36*
X95113512Y-71723927D02*
G01*
X95262812Y-71753624D01*
X95426784Y-71821544D01*
X95574354Y-71920147D01*
X95699853Y-72045646D01*
X95798456Y-72193216D01*
X95866376Y-72357188D01*
X95901000Y-72531259D01*
X95901000Y-72708741D01*
X95866376Y-72882812D01*
X95798456Y-73046784D01*
X95699853Y-73194354D01*
X95574354Y-73319853D01*
X95426784Y-73418456D01*
X95262812Y-73486376D01*
X95113512Y-73516073D01*
X95088742Y-73521000D01*
X94911258Y-73521000D01*
X94886488Y-73516073D01*
X94737188Y-73486376D01*
X94573216Y-73418456D01*
X94425646Y-73319853D01*
X94300147Y-73194354D01*
X94201544Y-73046784D01*
X94133624Y-72882812D01*
X94099000Y-72708741D01*
X94099000Y-72531259D01*
X94133624Y-72357188D01*
X94201544Y-72193216D01*
X94300147Y-72045646D01*
X94425646Y-71920147D01*
X94573216Y-71821544D01*
X94737188Y-71753624D01*
X94886488Y-71723927D01*
X94911258Y-71719000D01*
X95088742Y-71719000D01*
X95113512Y-71723927D01*
G37*
G36*
X97653512Y-71723927D02*
G01*
X97802812Y-71753624D01*
X97966784Y-71821544D01*
X98114354Y-71920147D01*
X98239853Y-72045646D01*
X98338456Y-72193216D01*
X98406376Y-72357188D01*
X98441000Y-72531259D01*
X98441000Y-72708741D01*
X98406376Y-72882812D01*
X98338456Y-73046784D01*
X98239853Y-73194354D01*
X98114354Y-73319853D01*
X97966784Y-73418456D01*
X97802812Y-73486376D01*
X97653512Y-73516073D01*
X97628742Y-73521000D01*
X97451258Y-73521000D01*
X97426488Y-73516073D01*
X97277188Y-73486376D01*
X97113216Y-73418456D01*
X96965646Y-73319853D01*
X96840147Y-73194354D01*
X96741544Y-73046784D01*
X96673624Y-72882812D01*
X96639000Y-72708741D01*
X96639000Y-72531259D01*
X96673624Y-72357188D01*
X96741544Y-72193216D01*
X96840147Y-72045646D01*
X96965646Y-71920147D01*
X97113216Y-71821544D01*
X97277188Y-71753624D01*
X97426488Y-71723927D01*
X97451258Y-71719000D01*
X97628742Y-71719000D01*
X97653512Y-71723927D01*
G37*
G36*
X89473512Y-70903927D02*
G01*
X89622812Y-70933624D01*
X89786784Y-71001544D01*
X89934354Y-71100147D01*
X90059853Y-71225646D01*
X90158456Y-71373216D01*
X90226376Y-71537188D01*
X90261000Y-71711259D01*
X90261000Y-71888741D01*
X90226376Y-72062812D01*
X90158456Y-72226784D01*
X90059853Y-72374354D01*
X89934354Y-72499853D01*
X89786784Y-72598456D01*
X89622812Y-72666376D01*
X89473512Y-72696073D01*
X89448742Y-72701000D01*
X89271258Y-72701000D01*
X89246488Y-72696073D01*
X89097188Y-72666376D01*
X88933216Y-72598456D01*
X88785646Y-72499853D01*
X88660147Y-72374354D01*
X88561544Y-72226784D01*
X88493624Y-72062812D01*
X88459000Y-71888741D01*
X88459000Y-71711259D01*
X88493624Y-71537188D01*
X88561544Y-71373216D01*
X88660147Y-71225646D01*
X88785646Y-71100147D01*
X88933216Y-71001544D01*
X89097188Y-70933624D01*
X89246488Y-70903927D01*
X89271258Y-70899000D01*
X89448742Y-70899000D01*
X89473512Y-70903927D01*
G37*
G36*
X86933512Y-70903927D02*
G01*
X87082812Y-70933624D01*
X87246784Y-71001544D01*
X87394354Y-71100147D01*
X87519853Y-71225646D01*
X87618456Y-71373216D01*
X87686376Y-71537188D01*
X87721000Y-71711259D01*
X87721000Y-71888741D01*
X87686376Y-72062812D01*
X87618456Y-72226784D01*
X87519853Y-72374354D01*
X87394354Y-72499853D01*
X87246784Y-72598456D01*
X87082812Y-72666376D01*
X86933512Y-72696073D01*
X86908742Y-72701000D01*
X86731258Y-72701000D01*
X86706488Y-72696073D01*
X86557188Y-72666376D01*
X86393216Y-72598456D01*
X86245646Y-72499853D01*
X86120147Y-72374354D01*
X86021544Y-72226784D01*
X85953624Y-72062812D01*
X85919000Y-71888741D01*
X85919000Y-71711259D01*
X85953624Y-71537188D01*
X86021544Y-71373216D01*
X86120147Y-71225646D01*
X86245646Y-71100147D01*
X86393216Y-71001544D01*
X86557188Y-70933624D01*
X86706488Y-70903927D01*
X86731258Y-70899000D01*
X86908742Y-70899000D01*
X86933512Y-70903927D01*
G37*
G36*
X97653512Y-69183927D02*
G01*
X97802812Y-69213624D01*
X97966784Y-69281544D01*
X98114354Y-69380147D01*
X98239853Y-69505646D01*
X98338456Y-69653216D01*
X98406376Y-69817188D01*
X98441000Y-69991259D01*
X98441000Y-70168741D01*
X98406376Y-70342812D01*
X98338456Y-70506784D01*
X98239853Y-70654354D01*
X98114354Y-70779853D01*
X97966784Y-70878456D01*
X97802812Y-70946376D01*
X97653512Y-70976073D01*
X97628742Y-70981000D01*
X97451258Y-70981000D01*
X97426488Y-70976073D01*
X97277188Y-70946376D01*
X97113216Y-70878456D01*
X96965646Y-70779853D01*
X96840147Y-70654354D01*
X96741544Y-70506784D01*
X96673624Y-70342812D01*
X96639000Y-70168741D01*
X96639000Y-69991259D01*
X96673624Y-69817188D01*
X96741544Y-69653216D01*
X96840147Y-69505646D01*
X96965646Y-69380147D01*
X97113216Y-69281544D01*
X97277188Y-69213624D01*
X97426488Y-69183927D01*
X97451258Y-69179000D01*
X97628742Y-69179000D01*
X97653512Y-69183927D01*
G37*
G36*
X95113512Y-69183927D02*
G01*
X95262812Y-69213624D01*
X95426784Y-69281544D01*
X95574354Y-69380147D01*
X95699853Y-69505646D01*
X95798456Y-69653216D01*
X95866376Y-69817188D01*
X95901000Y-69991259D01*
X95901000Y-70168741D01*
X95866376Y-70342812D01*
X95798456Y-70506784D01*
X95699853Y-70654354D01*
X95574354Y-70779853D01*
X95426784Y-70878456D01*
X95262812Y-70946376D01*
X95113512Y-70976073D01*
X95088742Y-70981000D01*
X94911258Y-70981000D01*
X94886488Y-70976073D01*
X94737188Y-70946376D01*
X94573216Y-70878456D01*
X94425646Y-70779853D01*
X94300147Y-70654354D01*
X94201544Y-70506784D01*
X94133624Y-70342812D01*
X94099000Y-70168741D01*
X94099000Y-69991259D01*
X94133624Y-69817188D01*
X94201544Y-69653216D01*
X94300147Y-69505646D01*
X94425646Y-69380147D01*
X94573216Y-69281544D01*
X94737188Y-69213624D01*
X94886488Y-69183927D01*
X94911258Y-69179000D01*
X95088742Y-69179000D01*
X95113512Y-69183927D01*
G37*
G36*
X87721000Y-70161000D02*
G01*
X85919000Y-70161000D01*
X85919000Y-68359000D01*
X87721000Y-68359000D01*
X87721000Y-70161000D01*
G37*
G36*
X89473512Y-68363927D02*
G01*
X89622812Y-68393624D01*
X89786784Y-68461544D01*
X89934354Y-68560147D01*
X90059853Y-68685646D01*
X90158456Y-68833216D01*
X90226376Y-68997188D01*
X90261000Y-69171259D01*
X90261000Y-69348741D01*
X90226376Y-69522812D01*
X90158456Y-69686784D01*
X90059853Y-69834354D01*
X89934354Y-69959853D01*
X89786784Y-70058456D01*
X89622812Y-70126376D01*
X89473512Y-70156073D01*
X89448742Y-70161000D01*
X89271258Y-70161000D01*
X89246488Y-70156073D01*
X89097188Y-70126376D01*
X88933216Y-70058456D01*
X88785646Y-69959853D01*
X88660147Y-69834354D01*
X88561544Y-69686784D01*
X88493624Y-69522812D01*
X88459000Y-69348741D01*
X88459000Y-69171259D01*
X88493624Y-68997188D01*
X88561544Y-68833216D01*
X88660147Y-68685646D01*
X88785646Y-68560147D01*
X88933216Y-68461544D01*
X89097188Y-68393624D01*
X89246488Y-68363927D01*
X89271258Y-68359000D01*
X89448742Y-68359000D01*
X89473512Y-68363927D01*
G37*
G36*
X95113512Y-66643927D02*
G01*
X95262812Y-66673624D01*
X95426784Y-66741544D01*
X95574354Y-66840147D01*
X95699853Y-66965646D01*
X95798456Y-67113216D01*
X95866376Y-67277188D01*
X95901000Y-67451259D01*
X95901000Y-67628741D01*
X95866376Y-67802812D01*
X95798456Y-67966784D01*
X95699853Y-68114354D01*
X95574354Y-68239853D01*
X95426784Y-68338456D01*
X95262812Y-68406376D01*
X95113512Y-68436073D01*
X95088742Y-68441000D01*
X94911258Y-68441000D01*
X94886488Y-68436073D01*
X94737188Y-68406376D01*
X94573216Y-68338456D01*
X94425646Y-68239853D01*
X94300147Y-68114354D01*
X94201544Y-67966784D01*
X94133624Y-67802812D01*
X94099000Y-67628741D01*
X94099000Y-67451259D01*
X94133624Y-67277188D01*
X94201544Y-67113216D01*
X94300147Y-66965646D01*
X94425646Y-66840147D01*
X94573216Y-66741544D01*
X94737188Y-66673624D01*
X94886488Y-66643927D01*
X94911258Y-66639000D01*
X95088742Y-66639000D01*
X95113512Y-66643927D01*
G37*
G36*
X97653512Y-66643927D02*
G01*
X97802812Y-66673624D01*
X97966784Y-66741544D01*
X98114354Y-66840147D01*
X98239853Y-66965646D01*
X98338456Y-67113216D01*
X98406376Y-67277188D01*
X98441000Y-67451259D01*
X98441000Y-67628741D01*
X98406376Y-67802812D01*
X98338456Y-67966784D01*
X98239853Y-68114354D01*
X98114354Y-68239853D01*
X97966784Y-68338456D01*
X97802812Y-68406376D01*
X97653512Y-68436073D01*
X97628742Y-68441000D01*
X97451258Y-68441000D01*
X97426488Y-68436073D01*
X97277188Y-68406376D01*
X97113216Y-68338456D01*
X96965646Y-68239853D01*
X96840147Y-68114354D01*
X96741544Y-67966784D01*
X96673624Y-67802812D01*
X96639000Y-67628741D01*
X96639000Y-67451259D01*
X96673624Y-67277188D01*
X96741544Y-67113216D01*
X96840147Y-66965646D01*
X96965646Y-66840147D01*
X97113216Y-66741544D01*
X97277188Y-66673624D01*
X97426488Y-66643927D01*
X97451258Y-66639000D01*
X97628742Y-66639000D01*
X97653512Y-66643927D01*
G37*
G36*
X54113512Y-64643927D02*
G01*
X54262812Y-64673624D01*
X54426784Y-64741544D01*
X54574354Y-64840147D01*
X54699853Y-64965646D01*
X54798456Y-65113216D01*
X54866376Y-65277188D01*
X54901000Y-65451259D01*
X54901000Y-65628741D01*
X54866376Y-65802812D01*
X54798456Y-65966784D01*
X54699853Y-66114354D01*
X54574354Y-66239853D01*
X54426784Y-66338456D01*
X54262812Y-66406376D01*
X54113512Y-66436073D01*
X54088742Y-66441000D01*
X53911258Y-66441000D01*
X53886488Y-66436073D01*
X53737188Y-66406376D01*
X53573216Y-66338456D01*
X53425646Y-66239853D01*
X53300147Y-66114354D01*
X53201544Y-65966784D01*
X53133624Y-65802812D01*
X53099000Y-65628741D01*
X53099000Y-65451259D01*
X53133624Y-65277188D01*
X53201544Y-65113216D01*
X53300147Y-64965646D01*
X53425646Y-64840147D01*
X53573216Y-64741544D01*
X53737188Y-64673624D01*
X53886488Y-64643927D01*
X53911258Y-64639000D01*
X54088742Y-64639000D01*
X54113512Y-64643927D01*
G37*
G36*
X95901000Y-65901000D02*
G01*
X94099000Y-65901000D01*
X94099000Y-64099000D01*
X95901000Y-64099000D01*
X95901000Y-65901000D01*
G37*
G36*
X97653512Y-64103927D02*
G01*
X97802812Y-64133624D01*
X97966784Y-64201544D01*
X98114354Y-64300147D01*
X98239853Y-64425646D01*
X98338456Y-64573216D01*
X98406376Y-64737188D01*
X98441000Y-64911259D01*
X98441000Y-65088741D01*
X98406376Y-65262812D01*
X98338456Y-65426784D01*
X98239853Y-65574354D01*
X98114354Y-65699853D01*
X97966784Y-65798456D01*
X97802812Y-65866376D01*
X97653512Y-65896073D01*
X97628742Y-65901000D01*
X97451258Y-65901000D01*
X97426488Y-65896073D01*
X97277188Y-65866376D01*
X97113216Y-65798456D01*
X96965646Y-65699853D01*
X96840147Y-65574354D01*
X96741544Y-65426784D01*
X96673624Y-65262812D01*
X96639000Y-65088741D01*
X96639000Y-64911259D01*
X96673624Y-64737188D01*
X96741544Y-64573216D01*
X96840147Y-64425646D01*
X96965646Y-64300147D01*
X97113216Y-64201544D01*
X97277188Y-64133624D01*
X97426488Y-64103927D01*
X97451258Y-64099000D01*
X97628742Y-64099000D01*
X97653512Y-64103927D01*
G37*
G36*
X54901000Y-63901000D02*
G01*
X53099000Y-63901000D01*
X53099000Y-62099000D01*
X54901000Y-62099000D01*
X54901000Y-63901000D01*
G37*
G36*
X90791512Y-58793927D02*
G01*
X90940812Y-58823624D01*
X91104784Y-58891544D01*
X91252354Y-58990147D01*
X91377853Y-59115646D01*
X91476456Y-59263216D01*
X91544376Y-59427188D01*
X91579000Y-59601259D01*
X91579000Y-59778741D01*
X91544376Y-59952812D01*
X91476456Y-60116784D01*
X91377853Y-60264354D01*
X91252354Y-60389853D01*
X91104784Y-60488456D01*
X90940812Y-60556376D01*
X90791512Y-60586073D01*
X90766742Y-60591000D01*
X90589258Y-60591000D01*
X90564488Y-60586073D01*
X90415188Y-60556376D01*
X90251216Y-60488456D01*
X90103646Y-60389853D01*
X89978147Y-60264354D01*
X89879544Y-60116784D01*
X89811624Y-59952812D01*
X89777000Y-59778741D01*
X89777000Y-59601259D01*
X89811624Y-59427188D01*
X89879544Y-59263216D01*
X89978147Y-59115646D01*
X90103646Y-58990147D01*
X90251216Y-58891544D01*
X90415188Y-58823624D01*
X90564488Y-58793927D01*
X90589258Y-58789000D01*
X90766742Y-58789000D01*
X90791512Y-58793927D01*
G37*
G36*
X94119000Y-60591000D02*
G01*
X92317000Y-60591000D01*
X92317000Y-58789000D01*
X94119000Y-58789000D01*
X94119000Y-60591000D01*
G37*
G36*
X80403000Y-58813000D02*
G01*
X78601000Y-58813000D01*
X78601000Y-57011000D01*
X80403000Y-57011000D01*
X80403000Y-58813000D01*
G37*
G36*
X90791512Y-56253927D02*
G01*
X90940812Y-56283624D01*
X91104784Y-56351544D01*
X91252354Y-56450147D01*
X91377853Y-56575646D01*
X91476456Y-56723216D01*
X91544376Y-56887188D01*
X91579000Y-57061259D01*
X91579000Y-57238741D01*
X91544376Y-57412812D01*
X91476456Y-57576784D01*
X91377853Y-57724354D01*
X91252354Y-57849853D01*
X91104784Y-57948456D01*
X90940812Y-58016376D01*
X90791512Y-58046073D01*
X90766742Y-58051000D01*
X90589258Y-58051000D01*
X90564488Y-58046073D01*
X90415188Y-58016376D01*
X90251216Y-57948456D01*
X90103646Y-57849853D01*
X89978147Y-57724354D01*
X89879544Y-57576784D01*
X89811624Y-57412812D01*
X89777000Y-57238741D01*
X89777000Y-57061259D01*
X89811624Y-56887188D01*
X89879544Y-56723216D01*
X89978147Y-56575646D01*
X90103646Y-56450147D01*
X90251216Y-56351544D01*
X90415188Y-56283624D01*
X90564488Y-56253927D01*
X90589258Y-56249000D01*
X90766742Y-56249000D01*
X90791512Y-56253927D01*
G37*
G36*
X93331512Y-56253927D02*
G01*
X93480812Y-56283624D01*
X93644784Y-56351544D01*
X93792354Y-56450147D01*
X93917853Y-56575646D01*
X94016456Y-56723216D01*
X94084376Y-56887188D01*
X94119000Y-57061259D01*
X94119000Y-57238741D01*
X94084376Y-57412812D01*
X94016456Y-57576784D01*
X93917853Y-57724354D01*
X93792354Y-57849853D01*
X93644784Y-57948456D01*
X93480812Y-58016376D01*
X93331512Y-58046073D01*
X93306742Y-58051000D01*
X93129258Y-58051000D01*
X93104488Y-58046073D01*
X92955188Y-58016376D01*
X92791216Y-57948456D01*
X92643646Y-57849853D01*
X92518147Y-57724354D01*
X92419544Y-57576784D01*
X92351624Y-57412812D01*
X92317000Y-57238741D01*
X92317000Y-57061259D01*
X92351624Y-56887188D01*
X92419544Y-56723216D01*
X92518147Y-56575646D01*
X92643646Y-56450147D01*
X92791216Y-56351544D01*
X92955188Y-56283624D01*
X93104488Y-56253927D01*
X93129258Y-56249000D01*
X93306742Y-56249000D01*
X93331512Y-56253927D01*
G37*
G36*
X90791512Y-53713927D02*
G01*
X90940812Y-53743624D01*
X91104784Y-53811544D01*
X91252354Y-53910147D01*
X91377853Y-54035646D01*
X91476456Y-54183216D01*
X91544376Y-54347188D01*
X91579000Y-54521259D01*
X91579000Y-54698741D01*
X91544376Y-54872812D01*
X91476456Y-55036784D01*
X91377853Y-55184354D01*
X91252354Y-55309853D01*
X91104784Y-55408456D01*
X90940812Y-55476376D01*
X90791512Y-55506073D01*
X90766742Y-55511000D01*
X90589258Y-55511000D01*
X90564488Y-55506073D01*
X90415188Y-55476376D01*
X90251216Y-55408456D01*
X90103646Y-55309853D01*
X89978147Y-55184354D01*
X89879544Y-55036784D01*
X89811624Y-54872812D01*
X89777000Y-54698741D01*
X89777000Y-54521259D01*
X89811624Y-54347188D01*
X89879544Y-54183216D01*
X89978147Y-54035646D01*
X90103646Y-53910147D01*
X90251216Y-53811544D01*
X90415188Y-53743624D01*
X90564488Y-53713927D01*
X90589258Y-53709000D01*
X90766742Y-53709000D01*
X90791512Y-53713927D01*
G37*
G36*
X93331512Y-53713927D02*
G01*
X93480812Y-53743624D01*
X93644784Y-53811544D01*
X93792354Y-53910147D01*
X93917853Y-54035646D01*
X94016456Y-54183216D01*
X94084376Y-54347188D01*
X94119000Y-54521259D01*
X94119000Y-54698741D01*
X94084376Y-54872812D01*
X94016456Y-55036784D01*
X93917853Y-55184354D01*
X93792354Y-55309853D01*
X93644784Y-55408456D01*
X93480812Y-55476376D01*
X93331512Y-55506073D01*
X93306742Y-55511000D01*
X93129258Y-55511000D01*
X93104488Y-55506073D01*
X92955188Y-55476376D01*
X92791216Y-55408456D01*
X92643646Y-55309853D01*
X92518147Y-55184354D01*
X92419544Y-55036784D01*
X92351624Y-54872812D01*
X92317000Y-54698741D01*
X92317000Y-54521259D01*
X92351624Y-54347188D01*
X92419544Y-54183216D01*
X92518147Y-54035646D01*
X92643646Y-53910147D01*
X92791216Y-53811544D01*
X92955188Y-53743624D01*
X93104488Y-53713927D01*
X93129258Y-53709000D01*
X93306742Y-53709000D01*
X93331512Y-53713927D01*
G37*
G36*
X60153512Y-53103927D02*
G01*
X60302812Y-53133624D01*
X60466784Y-53201544D01*
X60614354Y-53300147D01*
X60739853Y-53425646D01*
X60838456Y-53573216D01*
X60906376Y-53737188D01*
X60941000Y-53911259D01*
X60941000Y-54088741D01*
X60906376Y-54262812D01*
X60838456Y-54426784D01*
X60739853Y-54574354D01*
X60614354Y-54699853D01*
X60466784Y-54798456D01*
X60302812Y-54866376D01*
X60153512Y-54896073D01*
X60128742Y-54901000D01*
X59951258Y-54901000D01*
X59926488Y-54896073D01*
X59777188Y-54866376D01*
X59613216Y-54798456D01*
X59465646Y-54699853D01*
X59340147Y-54574354D01*
X59241544Y-54426784D01*
X59173624Y-54262812D01*
X59139000Y-54088741D01*
X59139000Y-53911259D01*
X59173624Y-53737188D01*
X59241544Y-53573216D01*
X59340147Y-53425646D01*
X59465646Y-53300147D01*
X59613216Y-53201544D01*
X59777188Y-53133624D01*
X59926488Y-53103927D01*
X59951258Y-53099000D01*
X60128742Y-53099000D01*
X60153512Y-53103927D01*
G37*
G36*
X58401000Y-54901000D02*
G01*
X56599000Y-54901000D01*
X56599000Y-53099000D01*
X58401000Y-53099000D01*
X58401000Y-54901000D01*
G37*
M02*
