G04 #@! TF.GenerationSoftware,KiCad,Pcbnew,(5.1.5-0-10_14)*
G04 #@! TF.CreationDate,2021-04-10T11:01:01-04:00*
G04 #@! TF.ProjectId,E90,4539302e-6b69-4636-9164-5f7063625858,rev?*
G04 #@! TF.SameCoordinates,Original*
G04 #@! TF.FileFunction,Copper,L4,Bot*
G04 #@! TF.FilePolarity,Positive*
%FSLAX46Y46*%
G04 Gerber Fmt 4.6, Leading zero omitted, Abs format (unit mm)*
G04 Created by KiCad (PCBNEW (5.1.5-0-10_14)) date 2021-04-10 11:01:01*
%MOMM*%
%LPD*%
G04 APERTURE LIST*
%ADD10C,1.800000*%
%ADD11C,4.000000*%
%ADD12C,0.900000*%
%ADD13C,8.600000*%
%ADD14O,1.700000X1.700000*%
%ADD15R,1.700000X1.700000*%
%ADD16R,3.500000X3.500000*%
%ADD17C,0.100000*%
%ADD18C,2.400000*%
%ADD19R,2.400000X2.400000*%
%ADD20C,2.340000*%
%ADD21R,2.400000X1.600000*%
%ADD22O,2.400000X1.600000*%
%ADD23C,0.800000*%
%ADD24C,0.500000*%
%ADD25C,0.400000*%
%ADD26C,0.300000*%
G04 APERTURE END LIST*
D10*
X78426666Y-47600000D03*
X75926666Y-47600000D03*
X73426666Y-47600000D03*
D11*
X80326666Y-54600000D03*
X71526666Y-54600000D03*
D12*
X128780419Y-116719581D03*
X126500000Y-115775000D03*
X124219581Y-116719581D03*
X123275000Y-119000000D03*
X124219581Y-121280419D03*
X126500000Y-122225000D03*
X128780419Y-121280419D03*
X129725000Y-119000000D03*
D13*
X126500000Y-119000000D03*
D12*
X50780419Y-116719581D03*
X48500000Y-115775000D03*
X46219581Y-116719581D03*
X45275000Y-119000000D03*
X46219581Y-121280419D03*
X48500000Y-122225000D03*
X50780419Y-121280419D03*
X51725000Y-119000000D03*
D13*
X48500000Y-119000000D03*
D12*
X50780419Y-28719581D03*
X48500000Y-27775000D03*
X46219581Y-28719581D03*
X45275000Y-31000000D03*
X46219581Y-33280419D03*
X48500000Y-34225000D03*
X50780419Y-33280419D03*
X51725000Y-31000000D03*
D13*
X48500000Y-31000000D03*
D12*
X128780419Y-28719581D03*
X126500000Y-27775000D03*
X124219581Y-28719581D03*
X123275000Y-31000000D03*
X124219581Y-33280419D03*
X126500000Y-34225000D03*
X128780419Y-33280419D03*
X129725000Y-31000000D03*
D13*
X126500000Y-31000000D03*
D14*
X83192000Y-32500000D03*
X80652000Y-32500000D03*
D15*
X78112000Y-32500000D03*
X48210000Y-70420000D03*
D14*
X50750000Y-70420000D03*
X48210000Y-72960000D03*
X50750000Y-72960000D03*
X48210000Y-75500000D03*
X50750000Y-75500000D03*
X47300000Y-38960000D03*
D15*
X47300000Y-41500000D03*
X78150000Y-28760000D03*
D14*
X80690000Y-28760000D03*
X83230000Y-28760000D03*
D15*
X48250000Y-90000000D03*
D14*
X48250000Y-92540000D03*
D15*
X48250000Y-85000000D03*
D14*
X48250000Y-82460000D03*
X48250000Y-79920000D03*
D16*
X111500000Y-39250000D03*
G04 #@! TA.AperFunction,ComponentPad*
D17*
G36*
X112573513Y-31753611D02*
G01*
X112646318Y-31764411D01*
X112717714Y-31782295D01*
X112787013Y-31807090D01*
X112853548Y-31838559D01*
X112916678Y-31876398D01*
X112975795Y-31920242D01*
X113030330Y-31969670D01*
X113079758Y-32024205D01*
X113123602Y-32083322D01*
X113161441Y-32146452D01*
X113192910Y-32212987D01*
X113217705Y-32282286D01*
X113235589Y-32353682D01*
X113246389Y-32426487D01*
X113250000Y-32500000D01*
X113250000Y-34000000D01*
X113246389Y-34073513D01*
X113235589Y-34146318D01*
X113217705Y-34217714D01*
X113192910Y-34287013D01*
X113161441Y-34353548D01*
X113123602Y-34416678D01*
X113079758Y-34475795D01*
X113030330Y-34530330D01*
X112975795Y-34579758D01*
X112916678Y-34623602D01*
X112853548Y-34661441D01*
X112787013Y-34692910D01*
X112717714Y-34717705D01*
X112646318Y-34735589D01*
X112573513Y-34746389D01*
X112500000Y-34750000D01*
X110500000Y-34750000D01*
X110426487Y-34746389D01*
X110353682Y-34735589D01*
X110282286Y-34717705D01*
X110212987Y-34692910D01*
X110146452Y-34661441D01*
X110083322Y-34623602D01*
X110024205Y-34579758D01*
X109969670Y-34530330D01*
X109920242Y-34475795D01*
X109876398Y-34416678D01*
X109838559Y-34353548D01*
X109807090Y-34287013D01*
X109782295Y-34217714D01*
X109764411Y-34146318D01*
X109753611Y-34073513D01*
X109750000Y-34000000D01*
X109750000Y-32500000D01*
X109753611Y-32426487D01*
X109764411Y-32353682D01*
X109782295Y-32282286D01*
X109807090Y-32212987D01*
X109838559Y-32146452D01*
X109876398Y-32083322D01*
X109920242Y-32024205D01*
X109969670Y-31969670D01*
X110024205Y-31920242D01*
X110083322Y-31876398D01*
X110146452Y-31838559D01*
X110212987Y-31807090D01*
X110282286Y-31782295D01*
X110353682Y-31764411D01*
X110426487Y-31753611D01*
X110500000Y-31750000D01*
X112500000Y-31750000D01*
X112573513Y-31753611D01*
G37*
G04 #@! TD.AperFunction*
G04 #@! TA.AperFunction,ComponentPad*
G36*
X107760765Y-34504213D02*
G01*
X107845704Y-34516813D01*
X107928999Y-34537677D01*
X108009848Y-34566605D01*
X108087472Y-34603319D01*
X108161124Y-34647464D01*
X108230094Y-34698616D01*
X108293718Y-34756282D01*
X108351384Y-34819906D01*
X108402536Y-34888876D01*
X108446681Y-34962528D01*
X108483395Y-35040152D01*
X108512323Y-35121001D01*
X108533187Y-35204296D01*
X108545787Y-35289235D01*
X108550000Y-35375000D01*
X108550000Y-37125000D01*
X108545787Y-37210765D01*
X108533187Y-37295704D01*
X108512323Y-37378999D01*
X108483395Y-37459848D01*
X108446681Y-37537472D01*
X108402536Y-37611124D01*
X108351384Y-37680094D01*
X108293718Y-37743718D01*
X108230094Y-37801384D01*
X108161124Y-37852536D01*
X108087472Y-37896681D01*
X108009848Y-37933395D01*
X107928999Y-37962323D01*
X107845704Y-37983187D01*
X107760765Y-37995787D01*
X107675000Y-38000000D01*
X105925000Y-38000000D01*
X105839235Y-37995787D01*
X105754296Y-37983187D01*
X105671001Y-37962323D01*
X105590152Y-37933395D01*
X105512528Y-37896681D01*
X105438876Y-37852536D01*
X105369906Y-37801384D01*
X105306282Y-37743718D01*
X105248616Y-37680094D01*
X105197464Y-37611124D01*
X105153319Y-37537472D01*
X105116605Y-37459848D01*
X105087677Y-37378999D01*
X105066813Y-37295704D01*
X105054213Y-37210765D01*
X105050000Y-37125000D01*
X105050000Y-35375000D01*
X105054213Y-35289235D01*
X105066813Y-35204296D01*
X105087677Y-35121001D01*
X105116605Y-35040152D01*
X105153319Y-34962528D01*
X105197464Y-34888876D01*
X105248616Y-34819906D01*
X105306282Y-34756282D01*
X105369906Y-34698616D01*
X105438876Y-34647464D01*
X105512528Y-34603319D01*
X105590152Y-34566605D01*
X105671001Y-34537677D01*
X105754296Y-34516813D01*
X105839235Y-34504213D01*
X105925000Y-34500000D01*
X107675000Y-34500000D01*
X107760765Y-34504213D01*
G37*
G04 #@! TD.AperFunction*
D18*
X113110000Y-112620000D03*
X106810000Y-112620000D03*
X119410000Y-112620000D03*
X113110000Y-96320000D03*
X106810000Y-96320000D03*
D19*
X119410000Y-96320000D03*
X54910000Y-112680000D03*
D18*
X67510000Y-112680000D03*
X61210000Y-112680000D03*
X54910000Y-96380000D03*
X67510000Y-96380000D03*
X61210000Y-96380000D03*
D20*
X118300000Y-82200000D03*
X128300000Y-84700000D03*
X118300000Y-87200000D03*
D10*
X125860000Y-47600000D03*
X123360000Y-47600000D03*
X120860000Y-47600000D03*
D11*
X127760000Y-54600000D03*
X118960000Y-54600000D03*
X95243332Y-54600000D03*
X104043332Y-54600000D03*
D10*
X97143332Y-47600000D03*
X99643332Y-47600000D03*
X102143332Y-47600000D03*
D11*
X47810000Y-54600000D03*
X56610000Y-54600000D03*
D10*
X49710000Y-47600000D03*
X52210000Y-47600000D03*
X54710000Y-47600000D03*
D21*
X83460000Y-97802000D03*
D22*
X91080000Y-113042000D03*
X83460000Y-100342000D03*
X91080000Y-110502000D03*
X83460000Y-102882000D03*
X91080000Y-107962000D03*
X83460000Y-105422000D03*
X91080000Y-105422000D03*
X83460000Y-107962000D03*
X91080000Y-102882000D03*
X83460000Y-110502000D03*
X91080000Y-100342000D03*
X83460000Y-113042000D03*
X91080000Y-97802000D03*
D23*
X63700000Y-90800000D03*
X88750000Y-32550000D03*
X87900000Y-31560000D03*
X62410000Y-34040000D03*
X63500000Y-87250000D03*
X62750000Y-86500000D03*
X72250000Y-88750000D03*
X75750000Y-88500000D03*
X76750000Y-88500000D03*
X108100000Y-89100000D03*
X110100000Y-89100000D03*
X107100000Y-88350000D03*
X77750000Y-100000000D03*
X78250000Y-101000000D03*
X78000000Y-111500000D03*
X78000000Y-112250000D03*
X89750000Y-115750000D03*
X89750000Y-117750000D03*
X90750000Y-116750000D03*
X89250000Y-119000000D03*
X88250000Y-120000000D03*
X94000000Y-105000000D03*
X95000000Y-105750000D03*
X101900000Y-36600000D03*
X102900000Y-36600000D03*
X103650000Y-37600000D03*
X103400000Y-40850000D03*
X101400000Y-41350000D03*
X99150000Y-35100000D03*
X100150000Y-35100000D03*
X101150000Y-36100000D03*
X93650000Y-40100000D03*
X91150000Y-40350000D03*
X92400000Y-41350000D03*
X72500000Y-83000000D03*
X67500000Y-83000000D03*
X60750000Y-66750000D03*
X60750000Y-67500000D03*
X79800000Y-83400000D03*
X79000000Y-84100000D03*
X109700000Y-75000000D03*
X110600000Y-75900000D03*
X112600000Y-76600000D03*
X111600000Y-75700000D03*
X107100000Y-71000000D03*
X108300000Y-70000000D03*
X101100000Y-70400000D03*
X102300000Y-70400000D03*
X100200000Y-85900000D03*
X101310000Y-83330000D03*
X101310000Y-81730000D03*
X105810000Y-83330000D03*
X96900000Y-72800000D03*
X101200000Y-88900000D03*
X102100000Y-89900000D03*
X101200000Y-90800000D03*
X63160000Y-32730000D03*
X62470000Y-35440000D03*
X88660000Y-28730000D03*
X87750000Y-27800000D03*
X87720000Y-29690000D03*
X87830000Y-33520000D03*
X98110000Y-91410000D03*
X94280000Y-92560000D03*
X95310000Y-91720000D03*
X93350000Y-91660000D03*
X90310000Y-87830000D03*
X89360000Y-86840000D03*
X91350000Y-86860000D03*
X99940000Y-78850000D03*
X97980000Y-78880000D03*
X99150000Y-79790000D03*
X96120000Y-79690000D03*
X95160000Y-78640000D03*
X78810000Y-68840000D03*
X81720000Y-67650000D03*
X80830000Y-68500000D03*
X81770000Y-70080000D03*
X59010000Y-81040000D03*
X58160000Y-81710000D03*
X108400000Y-79430000D03*
X109410000Y-79410000D03*
X110200000Y-80440000D03*
X73060000Y-90630000D03*
X64950000Y-87540000D03*
X69800000Y-93200000D03*
X112100000Y-45300000D03*
X66510000Y-86450000D03*
X97430000Y-35000000D03*
X53010000Y-63470000D03*
X100480000Y-63490000D03*
X77600000Y-62770000D03*
X96400000Y-41100000D03*
X95150000Y-42350000D03*
X82250000Y-106250000D03*
X84750000Y-106250000D03*
X77500000Y-103500000D03*
X78500000Y-102500000D03*
X85000000Y-115750000D03*
X84000000Y-116750000D03*
X85000000Y-117750000D03*
X60750000Y-70000000D03*
X60000000Y-69250000D03*
X59000000Y-83500000D03*
X65500000Y-82750000D03*
X94000000Y-111750000D03*
X95000000Y-111000000D03*
X84750000Y-104750000D03*
X81750000Y-105500000D03*
X80000000Y-86000000D03*
X81000000Y-87250000D03*
X79968750Y-88500000D03*
X85250000Y-105500000D03*
X82000000Y-104750000D03*
X99900000Y-42100000D03*
X99900000Y-43100000D03*
X98900000Y-44350000D03*
X97650000Y-44350000D03*
X96400000Y-44350000D03*
X95150000Y-43600000D03*
X98650000Y-41100000D03*
X101150000Y-39100000D03*
X101150000Y-40100000D03*
X79000000Y-81400000D03*
X79800000Y-82400000D03*
X99200000Y-67400000D03*
X99200000Y-68300000D03*
X99400000Y-69600000D03*
X58250000Y-82750000D03*
X73550000Y-29930000D03*
X73500000Y-27730000D03*
X73560000Y-31390000D03*
X72570000Y-32390000D03*
X72560000Y-28850000D03*
X73600000Y-33360000D03*
X102990000Y-79840000D03*
X103170000Y-82120000D03*
X102020000Y-80810000D03*
X102380000Y-83380000D03*
X78340000Y-67580000D03*
X77030000Y-69680000D03*
X112220000Y-43340000D03*
X72230000Y-86260000D03*
X71590000Y-106170000D03*
X63670000Y-71770000D03*
X59130000Y-71740000D03*
X58060000Y-77340000D03*
X69450000Y-82100000D03*
X71820000Y-72030000D03*
X82150000Y-71270000D03*
X74710000Y-72950000D03*
X73250000Y-77320000D03*
X76000000Y-110000000D03*
X84000000Y-119000000D03*
X88400000Y-63380000D03*
X80700000Y-79790000D03*
X89440000Y-63320000D03*
X80720000Y-81380000D03*
X90580000Y-63370000D03*
X89360000Y-81230000D03*
X85090000Y-63400000D03*
X82310000Y-72350000D03*
X86340000Y-63390000D03*
X79430000Y-77820000D03*
X79560000Y-79040000D03*
X87339947Y-63400525D03*
X63770000Y-73100000D03*
X58380000Y-69420000D03*
X63810000Y-74460000D03*
X57230000Y-69350000D03*
X63800000Y-75820000D03*
X55840000Y-69390000D03*
X72810000Y-81850000D03*
X74520000Y-81800000D03*
X77440000Y-84680000D03*
D24*
X98410000Y-115719998D02*
X92999998Y-121130000D01*
X92999998Y-121130000D02*
X81270000Y-121130000D01*
X81270000Y-121130000D02*
X70150000Y-110010000D01*
X70150000Y-107610000D02*
X71590000Y-106170000D01*
X70150000Y-110010000D02*
X70150000Y-107610000D01*
X98410000Y-110171998D02*
X105441998Y-103140000D01*
X98410000Y-115719998D02*
X98410000Y-110171998D01*
X105441998Y-103140000D02*
X119550000Y-103140000D01*
X119550000Y-103140000D02*
X123360000Y-99330000D01*
D25*
X123360000Y-47600000D02*
X123360000Y-48872792D01*
D24*
X123360000Y-99330000D02*
X123360000Y-47600000D01*
D26*
X59160000Y-71770000D02*
X59130000Y-71740000D01*
X63670000Y-71770000D02*
X59160000Y-71770000D01*
X49059999Y-73809999D02*
X48210000Y-72960000D01*
X55019999Y-74299999D02*
X49549999Y-74299999D01*
X49549999Y-74299999D02*
X49059999Y-73809999D01*
X58060000Y-77340000D02*
X55019999Y-74299999D01*
X69450000Y-82100000D02*
X65810000Y-78460000D01*
X53710000Y-78460000D02*
X50750000Y-75500000D01*
X65810000Y-78460000D02*
X53710000Y-78460000D01*
X71420001Y-71630001D02*
X71820000Y-72030000D01*
X69176665Y-69386665D02*
X71420001Y-71630001D01*
X69176665Y-43975335D02*
X69176665Y-69386665D01*
X80652000Y-32500000D02*
X69176665Y-43975335D01*
X82130000Y-71290000D02*
X82150000Y-71270000D01*
X76390000Y-71270000D02*
X82150000Y-71270000D01*
X74710000Y-72950000D02*
X76390000Y-71270000D01*
X77761998Y-30520000D02*
X78930000Y-30520000D01*
X78930000Y-30520000D02*
X80690000Y-28760000D01*
X68500000Y-39781998D02*
X77761998Y-30520000D01*
X72460000Y-73780002D02*
X68500000Y-69820002D01*
X68500000Y-69820002D02*
X68500000Y-39781998D01*
X72460000Y-76530000D02*
X72460000Y-73780002D01*
X73250000Y-77320000D02*
X72460000Y-76530000D01*
D24*
X83491998Y-119000000D02*
X84000000Y-119000000D01*
X76000000Y-111508002D02*
X83491998Y-119000000D01*
X76000000Y-110000000D02*
X76000000Y-111508002D01*
D26*
X88400000Y-72090000D02*
X88400000Y-63380000D01*
X80700000Y-79790000D02*
X88400000Y-72090000D01*
X89440000Y-72660000D02*
X89440000Y-63320000D01*
X80720000Y-81380000D02*
X89440000Y-72660000D01*
X90580000Y-63370000D02*
X90580000Y-74007242D01*
X90580000Y-80010000D02*
X90580000Y-74007242D01*
X89360000Y-81230000D02*
X90580000Y-80010000D01*
X85090000Y-63400000D02*
X85090000Y-70020000D01*
X82760000Y-72350000D02*
X82310000Y-72350000D01*
X85090000Y-70020000D02*
X82760000Y-72350000D01*
X86340000Y-63390000D02*
X86340000Y-69477120D01*
X86340000Y-70910000D02*
X79430000Y-77820000D01*
X86340000Y-69477120D02*
X86340000Y-70910000D01*
X87339947Y-71260053D02*
X79560000Y-79040000D01*
X87339947Y-63400525D02*
X87339947Y-71260053D01*
X59379998Y-73100000D02*
X58340000Y-72060002D01*
X63770000Y-73100000D02*
X59379998Y-73100000D01*
X58340000Y-69460000D02*
X58380000Y-69420000D01*
X58340000Y-72060002D02*
X58340000Y-69460000D01*
X63810000Y-74460000D02*
X58490000Y-74460000D01*
X57230000Y-73200000D02*
X57230000Y-69350000D01*
X58490000Y-74460000D02*
X57230000Y-73200000D01*
X63800000Y-75820000D02*
X57900000Y-75820000D01*
X55840000Y-73760000D02*
X55840000Y-69390000D01*
X57900000Y-75820000D02*
X55840000Y-73760000D01*
D25*
X52210000Y-48872792D02*
X52210000Y-47600000D01*
X52210000Y-53678002D02*
X52210000Y-48872792D01*
X71069999Y-80109999D02*
X71069999Y-75259999D01*
X72810000Y-81850000D02*
X71069999Y-80109999D01*
X71069999Y-75259999D02*
X52210000Y-56400000D01*
X52210000Y-56400000D02*
X52210000Y-53678002D01*
X74520000Y-81800000D02*
X74520000Y-74030000D01*
X75926666Y-48872792D02*
X75926666Y-47600000D01*
X75926666Y-53678002D02*
X75926666Y-48872792D01*
X74520000Y-74030000D02*
X73089999Y-72599999D01*
X73089999Y-72599999D02*
X73089999Y-60450001D01*
X75926666Y-57613334D02*
X75926666Y-53678002D01*
X73089999Y-60450001D02*
X75926666Y-57613334D01*
D26*
X98449999Y-73250003D02*
X98449999Y-48793333D01*
X86620003Y-85079999D02*
X98449999Y-73250003D01*
X98743333Y-48499999D02*
X99643332Y-47600000D01*
X77839999Y-85079999D02*
X86620003Y-85079999D01*
X98449999Y-48793333D02*
X98743333Y-48499999D01*
X77440000Y-84680000D02*
X77839999Y-85079999D01*
M02*
