%TF.GenerationSoftware,KiCad,Pcbnew,(5.1.5-0-10_14)*%
%TF.CreationDate,2021-01-01T10:31:15-05:00*%
%TF.ProjectId,E90,4539302e-6b69-4636-9164-5f7063625858,rev?*%
%TF.SameCoordinates,Original*%
%TF.FileFunction,Copper,L2,Inr*%
%TF.FilePolarity,Positive*%
%FSLAX46Y46*%
G04 Gerber Fmt 4.6, Leading zero omitted, Abs format (unit mm)*
G04 Created by KiCad (PCBNEW (5.1.5-0-10_14)) date 2021-01-01 10:31:15*
%MOMM*%
%LPD*%
G04 APERTURE LIST*
%ADD10C,0.050000*%
%ADD11R,1.700000X1.700000*%
%ADD12O,1.700000X1.700000*%
%ADD13C,0.800000*%
%ADD14C,0.500000*%
%ADD15C,0.254000*%
G04 APERTURE END LIST*
D10*
X50000000Y-55000000D02*
G75*
G02X55000000Y-50000000I5000000J0D01*
G01*
X95000000Y-50000000D02*
G75*
G02X100000000Y-55000000I0J-5000000D01*
G01*
X55000000Y-120000000D02*
G75*
G02X50000000Y-115000000I0J5000000D01*
G01*
X100000000Y-115000000D02*
G75*
G02X95000000Y-120000000I-5000000J0D01*
G01*
X100000000Y-55000000D02*
X100000000Y-115000000D01*
X95000000Y-50000000D02*
X95000000Y-50000000D01*
X55000000Y-120000000D02*
X95000000Y-120000000D01*
X50000000Y-115000000D02*
X50000000Y-110000000D01*
X55000000Y-50000000D02*
X95000000Y-50000000D01*
X50000000Y-110000000D02*
X50000000Y-55000000D01*
D11*
X65190000Y-114230000D03*
X57500000Y-54000000D03*
D12*
X60040000Y-54000000D03*
D11*
X93218000Y-59690000D03*
D12*
X90678000Y-59690000D03*
X93218000Y-57150000D03*
X90678000Y-57150000D03*
X93218000Y-54610000D03*
X90678000Y-54610000D03*
X54000000Y-65540000D03*
D11*
X54000000Y-63000000D03*
X79502000Y-57912000D03*
D12*
X96266000Y-100838000D03*
X96266000Y-98298000D03*
D11*
X96266000Y-95758000D03*
X86820000Y-69260000D03*
D12*
X89360000Y-69260000D03*
X86820000Y-71800000D03*
X89360000Y-71800000D03*
D11*
X86800000Y-76100000D03*
D12*
X89340000Y-76100000D03*
X86800000Y-78640000D03*
X89340000Y-78640000D03*
X89340000Y-85510000D03*
X86800000Y-85510000D03*
X89340000Y-82970000D03*
D11*
X86800000Y-82970000D03*
X67950000Y-84840000D03*
D12*
X70490000Y-84840000D03*
X67950000Y-87380000D03*
X70490000Y-87380000D03*
D11*
X96138000Y-110046000D03*
D12*
X96138000Y-112586000D03*
X96138000Y-115126000D03*
D11*
X95000000Y-65000000D03*
D12*
X97540000Y-65000000D03*
X95000000Y-67540000D03*
X97540000Y-67540000D03*
X95000000Y-70080000D03*
X97540000Y-70080000D03*
X95000000Y-72620000D03*
X97540000Y-72620000D03*
X95000000Y-75160000D03*
X97540000Y-75160000D03*
X95000000Y-77700000D03*
X97540000Y-77700000D03*
D11*
X66650000Y-105020000D03*
D12*
X66650000Y-102480000D03*
X56225000Y-84290000D03*
D11*
X56225000Y-81750000D03*
X97330000Y-82940000D03*
D12*
X94790000Y-82940000D03*
D11*
X60575000Y-84300000D03*
D12*
X60575000Y-81760000D03*
D11*
X74610000Y-84870000D03*
D12*
X77150000Y-84870000D03*
X74610000Y-87410000D03*
X77150000Y-87410000D03*
D13*
X84120000Y-111660000D03*
X92200000Y-97740000D03*
X86590000Y-97770000D03*
X85070000Y-96850000D03*
X78210000Y-51660000D03*
X85560000Y-93880000D03*
X66290000Y-60580000D03*
X67750000Y-52200000D03*
X55768000Y-98772000D03*
X74680000Y-59860000D03*
X70100000Y-59390000D03*
X58760000Y-101230000D03*
X55944000Y-104080000D03*
X56120000Y-101270000D03*
X67710000Y-53260000D03*
X70780000Y-52870000D03*
X63790000Y-62220000D03*
X63510000Y-77400000D03*
X63160000Y-79810000D03*
X86460000Y-95250000D03*
X75990000Y-107910000D03*
X76980000Y-117340000D03*
X73850000Y-116830000D03*
X70470000Y-116810000D03*
X68320000Y-116760000D03*
X61870000Y-66550000D03*
X59370000Y-72470000D03*
X79430000Y-51660000D03*
X81380000Y-51590000D03*
X83080000Y-60810000D03*
X84560000Y-59890000D03*
X92310000Y-105130000D03*
X86670000Y-104970000D03*
X85230000Y-106880000D03*
X84300000Y-105720000D03*
X76270000Y-104120000D03*
X74530000Y-104070000D03*
X71950000Y-104380000D03*
X62640000Y-111360000D03*
X73880000Y-114890000D03*
X70590000Y-114840000D03*
X81170000Y-64110000D03*
X89390000Y-111600000D03*
X88400000Y-112570000D03*
X85090000Y-112540000D03*
X62910000Y-75060000D03*
X83920000Y-78190000D03*
X83900000Y-79760000D03*
X77550000Y-95980000D03*
X76730000Y-96710000D03*
X78490000Y-111700000D03*
X69340000Y-80460000D03*
X76960000Y-80250000D03*
X76030000Y-81200000D03*
X78310000Y-99720000D03*
X62280000Y-107840000D03*
X64420000Y-66730000D03*
X63550000Y-65820000D03*
X64080000Y-74370000D03*
X85020000Y-117940000D03*
X83120000Y-118020000D03*
X88510000Y-118000000D03*
X90490000Y-117970000D03*
X80320000Y-52630000D03*
X65290000Y-65020000D03*
X64060000Y-73310000D03*
X64220000Y-68360000D03*
X76150000Y-52720000D03*
X61580000Y-75880000D03*
X74990000Y-52740000D03*
X74050000Y-53880000D03*
X74040000Y-56280000D03*
X74850000Y-57520000D03*
X76190000Y-57520000D03*
X67740000Y-54550000D03*
X67720000Y-55730000D03*
X62340000Y-76740000D03*
X64790000Y-107810000D03*
X79970000Y-109360000D03*
X80850000Y-109370000D03*
X82100000Y-109520000D03*
X81280000Y-97500000D03*
X82180000Y-97530000D03*
X83350000Y-97640000D03*
X80730000Y-55570000D03*
X82260000Y-62610000D03*
X66360000Y-63170000D03*
X82220000Y-77240000D03*
X71100000Y-79660000D03*
X81670000Y-55520000D03*
X78660000Y-64870000D03*
X74510000Y-74130000D03*
X61000000Y-90290000D03*
X73070000Y-74010000D03*
X58890000Y-90270000D03*
X71660000Y-73960000D03*
X56870000Y-90240000D03*
X70270000Y-73950000D03*
X54790000Y-90210000D03*
D14*
X62820000Y-66550000D02*
X63550000Y-65820000D01*
X61870000Y-66550000D02*
X62820000Y-66550000D01*
D15*
G36*
X95768083Y-50731173D02*
G01*
X96511891Y-50934656D01*
X97207905Y-51266638D01*
X97834130Y-51716626D01*
X98370777Y-52270403D01*
X98800871Y-52910451D01*
X99110829Y-53616553D01*
X99292065Y-54371457D01*
X99340000Y-55024207D01*
X99340001Y-114970597D01*
X99268827Y-115768083D01*
X99065344Y-116511890D01*
X98733363Y-117207904D01*
X98283374Y-117834130D01*
X97729597Y-118370777D01*
X97089549Y-118800871D01*
X96383447Y-119110829D01*
X95628543Y-119292065D01*
X94975793Y-119340000D01*
X55029392Y-119340000D01*
X54231917Y-119268827D01*
X53488110Y-119065344D01*
X52792096Y-118733363D01*
X52165870Y-118283374D01*
X51629223Y-117729597D01*
X51199129Y-117089549D01*
X50889171Y-116383447D01*
X50707935Y-115628543D01*
X50660000Y-114975793D01*
X50660000Y-113380000D01*
X63701928Y-113380000D01*
X63701928Y-115080000D01*
X63714188Y-115204482D01*
X63750498Y-115324180D01*
X63809463Y-115434494D01*
X63888815Y-115531185D01*
X63985506Y-115610537D01*
X64095820Y-115669502D01*
X64215518Y-115705812D01*
X64340000Y-115718072D01*
X66040000Y-115718072D01*
X66164482Y-115705812D01*
X66284180Y-115669502D01*
X66394494Y-115610537D01*
X66491185Y-115531185D01*
X66530819Y-115482890D01*
X94696524Y-115482890D01*
X94741175Y-115630099D01*
X94866359Y-115892920D01*
X95040412Y-116126269D01*
X95256645Y-116321178D01*
X95506748Y-116470157D01*
X95781109Y-116567481D01*
X96011000Y-116446814D01*
X96011000Y-115253000D01*
X96265000Y-115253000D01*
X96265000Y-116446814D01*
X96494891Y-116567481D01*
X96769252Y-116470157D01*
X97019355Y-116321178D01*
X97235588Y-116126269D01*
X97409641Y-115892920D01*
X97534825Y-115630099D01*
X97579476Y-115482890D01*
X97458155Y-115253000D01*
X96265000Y-115253000D01*
X96011000Y-115253000D01*
X94817845Y-115253000D01*
X94696524Y-115482890D01*
X66530819Y-115482890D01*
X66570537Y-115434494D01*
X66629502Y-115324180D01*
X66665812Y-115204482D01*
X66678072Y-115080000D01*
X66678072Y-113380000D01*
X66665812Y-113255518D01*
X66629502Y-113135820D01*
X66570537Y-113025506D01*
X66491185Y-112928815D01*
X66394494Y-112849463D01*
X66284180Y-112790498D01*
X66164482Y-112754188D01*
X66040000Y-112741928D01*
X64340000Y-112741928D01*
X64215518Y-112754188D01*
X64095820Y-112790498D01*
X63985506Y-112849463D01*
X63888815Y-112928815D01*
X63809463Y-113025506D01*
X63750498Y-113135820D01*
X63714188Y-113255518D01*
X63701928Y-113380000D01*
X50660000Y-113380000D01*
X50660000Y-109258061D01*
X78935000Y-109258061D01*
X78935000Y-109461939D01*
X78974774Y-109661898D01*
X79052795Y-109850256D01*
X79166063Y-110019774D01*
X79310226Y-110163937D01*
X79479744Y-110277205D01*
X79668102Y-110355226D01*
X79868061Y-110395000D01*
X80071939Y-110395000D01*
X80271898Y-110355226D01*
X80397929Y-110303022D01*
X80548102Y-110365226D01*
X80748061Y-110405000D01*
X80951939Y-110405000D01*
X81151898Y-110365226D01*
X81340256Y-110287205D01*
X81378164Y-110261875D01*
X81440226Y-110323937D01*
X81609744Y-110437205D01*
X81798102Y-110515226D01*
X81998061Y-110555000D01*
X82201939Y-110555000D01*
X82401898Y-110515226D01*
X82590256Y-110437205D01*
X82759774Y-110323937D01*
X82903937Y-110179774D01*
X83017205Y-110010256D01*
X83095226Y-109821898D01*
X83135000Y-109621939D01*
X83135000Y-109418061D01*
X83095226Y-109218102D01*
X83086071Y-109196000D01*
X94649928Y-109196000D01*
X94649928Y-110896000D01*
X94662188Y-111020482D01*
X94698498Y-111140180D01*
X94757463Y-111250494D01*
X94836815Y-111347185D01*
X94933506Y-111426537D01*
X95043820Y-111485502D01*
X95116380Y-111507513D01*
X94984525Y-111639368D01*
X94822010Y-111882589D01*
X94710068Y-112152842D01*
X94653000Y-112439740D01*
X94653000Y-112732260D01*
X94710068Y-113019158D01*
X94822010Y-113289411D01*
X94984525Y-113532632D01*
X95191368Y-113739475D01*
X95373534Y-113861195D01*
X95256645Y-113930822D01*
X95040412Y-114125731D01*
X94866359Y-114359080D01*
X94741175Y-114621901D01*
X94696524Y-114769110D01*
X94817845Y-114999000D01*
X96011000Y-114999000D01*
X96011000Y-114979000D01*
X96265000Y-114979000D01*
X96265000Y-114999000D01*
X97458155Y-114999000D01*
X97579476Y-114769110D01*
X97534825Y-114621901D01*
X97409641Y-114359080D01*
X97235588Y-114125731D01*
X97019355Y-113930822D01*
X96902466Y-113861195D01*
X97084632Y-113739475D01*
X97291475Y-113532632D01*
X97453990Y-113289411D01*
X97565932Y-113019158D01*
X97623000Y-112732260D01*
X97623000Y-112439740D01*
X97565932Y-112152842D01*
X97453990Y-111882589D01*
X97291475Y-111639368D01*
X97159620Y-111507513D01*
X97232180Y-111485502D01*
X97342494Y-111426537D01*
X97439185Y-111347185D01*
X97518537Y-111250494D01*
X97577502Y-111140180D01*
X97613812Y-111020482D01*
X97626072Y-110896000D01*
X97626072Y-109196000D01*
X97613812Y-109071518D01*
X97577502Y-108951820D01*
X97518537Y-108841506D01*
X97439185Y-108744815D01*
X97342494Y-108665463D01*
X97232180Y-108606498D01*
X97112482Y-108570188D01*
X96988000Y-108557928D01*
X95288000Y-108557928D01*
X95163518Y-108570188D01*
X95043820Y-108606498D01*
X94933506Y-108665463D01*
X94836815Y-108744815D01*
X94757463Y-108841506D01*
X94698498Y-108951820D01*
X94662188Y-109071518D01*
X94649928Y-109196000D01*
X83086071Y-109196000D01*
X83017205Y-109029744D01*
X82903937Y-108860226D01*
X82759774Y-108716063D01*
X82590256Y-108602795D01*
X82401898Y-108524774D01*
X82201939Y-108485000D01*
X81998061Y-108485000D01*
X81798102Y-108524774D01*
X81609744Y-108602795D01*
X81571836Y-108628125D01*
X81509774Y-108566063D01*
X81340256Y-108452795D01*
X81151898Y-108374774D01*
X80951939Y-108335000D01*
X80748061Y-108335000D01*
X80548102Y-108374774D01*
X80422071Y-108426978D01*
X80271898Y-108364774D01*
X80071939Y-108325000D01*
X79868061Y-108325000D01*
X79668102Y-108364774D01*
X79479744Y-108442795D01*
X79310226Y-108556063D01*
X79166063Y-108700226D01*
X79052795Y-108869744D01*
X78974774Y-109058102D01*
X78935000Y-109258061D01*
X50660000Y-109258061D01*
X50660000Y-107708061D01*
X63755000Y-107708061D01*
X63755000Y-107911939D01*
X63794774Y-108111898D01*
X63872795Y-108300256D01*
X63986063Y-108469774D01*
X64130226Y-108613937D01*
X64299744Y-108727205D01*
X64488102Y-108805226D01*
X64688061Y-108845000D01*
X64891939Y-108845000D01*
X65091898Y-108805226D01*
X65280256Y-108727205D01*
X65449774Y-108613937D01*
X65593937Y-108469774D01*
X65707205Y-108300256D01*
X65785226Y-108111898D01*
X65825000Y-107911939D01*
X65825000Y-107708061D01*
X65785226Y-107508102D01*
X65707205Y-107319744D01*
X65593937Y-107150226D01*
X65449774Y-107006063D01*
X65280256Y-106892795D01*
X65091898Y-106814774D01*
X64891939Y-106775000D01*
X64688061Y-106775000D01*
X64488102Y-106814774D01*
X64299744Y-106892795D01*
X64130226Y-107006063D01*
X63986063Y-107150226D01*
X63872795Y-107319744D01*
X63794774Y-107508102D01*
X63755000Y-107708061D01*
X50660000Y-107708061D01*
X50660000Y-104170000D01*
X65161928Y-104170000D01*
X65161928Y-105870000D01*
X65174188Y-105994482D01*
X65210498Y-106114180D01*
X65269463Y-106224494D01*
X65348815Y-106321185D01*
X65445506Y-106400537D01*
X65555820Y-106459502D01*
X65675518Y-106495812D01*
X65800000Y-106508072D01*
X67500000Y-106508072D01*
X67624482Y-106495812D01*
X67744180Y-106459502D01*
X67854494Y-106400537D01*
X67951185Y-106321185D01*
X68030537Y-106224494D01*
X68089502Y-106114180D01*
X68125812Y-105994482D01*
X68138072Y-105870000D01*
X68138072Y-104170000D01*
X68125812Y-104045518D01*
X68089502Y-103925820D01*
X68030537Y-103815506D01*
X67951185Y-103718815D01*
X67854494Y-103639463D01*
X67744180Y-103580498D01*
X67671620Y-103558487D01*
X67803475Y-103426632D01*
X67965990Y-103183411D01*
X68077932Y-102913158D01*
X68135000Y-102626260D01*
X68135000Y-102333740D01*
X68077932Y-102046842D01*
X67965990Y-101776589D01*
X67803475Y-101533368D01*
X67596632Y-101326525D01*
X67399627Y-101194890D01*
X94824524Y-101194890D01*
X94869175Y-101342099D01*
X94994359Y-101604920D01*
X95168412Y-101838269D01*
X95384645Y-102033178D01*
X95634748Y-102182157D01*
X95909109Y-102279481D01*
X96139000Y-102158814D01*
X96139000Y-100965000D01*
X96393000Y-100965000D01*
X96393000Y-102158814D01*
X96622891Y-102279481D01*
X96897252Y-102182157D01*
X97147355Y-102033178D01*
X97363588Y-101838269D01*
X97537641Y-101604920D01*
X97662825Y-101342099D01*
X97707476Y-101194890D01*
X97586155Y-100965000D01*
X96393000Y-100965000D01*
X96139000Y-100965000D01*
X94945845Y-100965000D01*
X94824524Y-101194890D01*
X67399627Y-101194890D01*
X67353411Y-101164010D01*
X67083158Y-101052068D01*
X66796260Y-100995000D01*
X66503740Y-100995000D01*
X66216842Y-101052068D01*
X65946589Y-101164010D01*
X65703368Y-101326525D01*
X65496525Y-101533368D01*
X65334010Y-101776589D01*
X65222068Y-102046842D01*
X65165000Y-102333740D01*
X65165000Y-102626260D01*
X65222068Y-102913158D01*
X65334010Y-103183411D01*
X65496525Y-103426632D01*
X65628380Y-103558487D01*
X65555820Y-103580498D01*
X65445506Y-103639463D01*
X65348815Y-103718815D01*
X65269463Y-103815506D01*
X65210498Y-103925820D01*
X65174188Y-104045518D01*
X65161928Y-104170000D01*
X50660000Y-104170000D01*
X50660000Y-97398061D01*
X80245000Y-97398061D01*
X80245000Y-97601939D01*
X80284774Y-97801898D01*
X80362795Y-97990256D01*
X80476063Y-98159774D01*
X80620226Y-98303937D01*
X80789744Y-98417205D01*
X80978102Y-98495226D01*
X81178061Y-98535000D01*
X81381939Y-98535000D01*
X81581898Y-98495226D01*
X81693787Y-98448880D01*
X81878102Y-98525226D01*
X82078061Y-98565000D01*
X82281939Y-98565000D01*
X82481898Y-98525226D01*
X82670256Y-98447205D01*
X82684186Y-98437897D01*
X82690226Y-98443937D01*
X82859744Y-98557205D01*
X83048102Y-98635226D01*
X83248061Y-98675000D01*
X83451939Y-98675000D01*
X83651898Y-98635226D01*
X83840256Y-98557205D01*
X84009774Y-98443937D01*
X84153937Y-98299774D01*
X84267205Y-98130256D01*
X84345226Y-97941898D01*
X84385000Y-97741939D01*
X84385000Y-97538061D01*
X84345226Y-97338102D01*
X84267205Y-97149744D01*
X84153937Y-96980226D01*
X84009774Y-96836063D01*
X83840256Y-96722795D01*
X83651898Y-96644774D01*
X83451939Y-96605000D01*
X83248061Y-96605000D01*
X83048102Y-96644774D01*
X82859744Y-96722795D01*
X82845814Y-96732103D01*
X82839774Y-96726063D01*
X82670256Y-96612795D01*
X82481898Y-96534774D01*
X82281939Y-96495000D01*
X82078061Y-96495000D01*
X81878102Y-96534774D01*
X81766213Y-96581120D01*
X81581898Y-96504774D01*
X81381939Y-96465000D01*
X81178061Y-96465000D01*
X80978102Y-96504774D01*
X80789744Y-96582795D01*
X80620226Y-96696063D01*
X80476063Y-96840226D01*
X80362795Y-97009744D01*
X80284774Y-97198102D01*
X80245000Y-97398061D01*
X50660000Y-97398061D01*
X50660000Y-94908000D01*
X94777928Y-94908000D01*
X94777928Y-96608000D01*
X94790188Y-96732482D01*
X94826498Y-96852180D01*
X94885463Y-96962494D01*
X94964815Y-97059185D01*
X95061506Y-97138537D01*
X95171820Y-97197502D01*
X95244380Y-97219513D01*
X95112525Y-97351368D01*
X94950010Y-97594589D01*
X94838068Y-97864842D01*
X94781000Y-98151740D01*
X94781000Y-98444260D01*
X94838068Y-98731158D01*
X94950010Y-99001411D01*
X95112525Y-99244632D01*
X95319368Y-99451475D01*
X95501534Y-99573195D01*
X95384645Y-99642822D01*
X95168412Y-99837731D01*
X94994359Y-100071080D01*
X94869175Y-100333901D01*
X94824524Y-100481110D01*
X94945845Y-100711000D01*
X96139000Y-100711000D01*
X96139000Y-100691000D01*
X96393000Y-100691000D01*
X96393000Y-100711000D01*
X97586155Y-100711000D01*
X97707476Y-100481110D01*
X97662825Y-100333901D01*
X97537641Y-100071080D01*
X97363588Y-99837731D01*
X97147355Y-99642822D01*
X97030466Y-99573195D01*
X97212632Y-99451475D01*
X97419475Y-99244632D01*
X97581990Y-99001411D01*
X97693932Y-98731158D01*
X97751000Y-98444260D01*
X97751000Y-98151740D01*
X97693932Y-97864842D01*
X97581990Y-97594589D01*
X97419475Y-97351368D01*
X97287620Y-97219513D01*
X97360180Y-97197502D01*
X97470494Y-97138537D01*
X97567185Y-97059185D01*
X97646537Y-96962494D01*
X97705502Y-96852180D01*
X97741812Y-96732482D01*
X97754072Y-96608000D01*
X97754072Y-94908000D01*
X97741812Y-94783518D01*
X97705502Y-94663820D01*
X97646537Y-94553506D01*
X97567185Y-94456815D01*
X97470494Y-94377463D01*
X97360180Y-94318498D01*
X97240482Y-94282188D01*
X97116000Y-94269928D01*
X95416000Y-94269928D01*
X95291518Y-94282188D01*
X95171820Y-94318498D01*
X95061506Y-94377463D01*
X94964815Y-94456815D01*
X94885463Y-94553506D01*
X94826498Y-94663820D01*
X94790188Y-94783518D01*
X94777928Y-94908000D01*
X50660000Y-94908000D01*
X50660000Y-90108061D01*
X53755000Y-90108061D01*
X53755000Y-90311939D01*
X53794774Y-90511898D01*
X53872795Y-90700256D01*
X53986063Y-90869774D01*
X54130226Y-91013937D01*
X54299744Y-91127205D01*
X54488102Y-91205226D01*
X54688061Y-91245000D01*
X54891939Y-91245000D01*
X55091898Y-91205226D01*
X55280256Y-91127205D01*
X55449774Y-91013937D01*
X55593937Y-90869774D01*
X55707205Y-90700256D01*
X55785226Y-90511898D01*
X55825000Y-90311939D01*
X55825000Y-90138061D01*
X55835000Y-90138061D01*
X55835000Y-90341939D01*
X55874774Y-90541898D01*
X55952795Y-90730256D01*
X56066063Y-90899774D01*
X56210226Y-91043937D01*
X56379744Y-91157205D01*
X56568102Y-91235226D01*
X56768061Y-91275000D01*
X56971939Y-91275000D01*
X57171898Y-91235226D01*
X57360256Y-91157205D01*
X57529774Y-91043937D01*
X57673937Y-90899774D01*
X57787205Y-90730256D01*
X57865226Y-90541898D01*
X57877016Y-90482623D01*
X57894774Y-90571898D01*
X57972795Y-90760256D01*
X58086063Y-90929774D01*
X58230226Y-91073937D01*
X58399744Y-91187205D01*
X58588102Y-91265226D01*
X58788061Y-91305000D01*
X58991939Y-91305000D01*
X59191898Y-91265226D01*
X59380256Y-91187205D01*
X59549774Y-91073937D01*
X59693937Y-90929774D01*
X59807205Y-90760256D01*
X59885226Y-90571898D01*
X59925000Y-90371939D01*
X59925000Y-90188061D01*
X59965000Y-90188061D01*
X59965000Y-90391939D01*
X60004774Y-90591898D01*
X60082795Y-90780256D01*
X60196063Y-90949774D01*
X60340226Y-91093937D01*
X60509744Y-91207205D01*
X60698102Y-91285226D01*
X60898061Y-91325000D01*
X61101939Y-91325000D01*
X61301898Y-91285226D01*
X61490256Y-91207205D01*
X61659774Y-91093937D01*
X61803937Y-90949774D01*
X61917205Y-90780256D01*
X61995226Y-90591898D01*
X62035000Y-90391939D01*
X62035000Y-90188061D01*
X61995226Y-89988102D01*
X61917205Y-89799744D01*
X61803937Y-89630226D01*
X61659774Y-89486063D01*
X61490256Y-89372795D01*
X61301898Y-89294774D01*
X61101939Y-89255000D01*
X60898061Y-89255000D01*
X60698102Y-89294774D01*
X60509744Y-89372795D01*
X60340226Y-89486063D01*
X60196063Y-89630226D01*
X60082795Y-89799744D01*
X60004774Y-89988102D01*
X59965000Y-90188061D01*
X59925000Y-90188061D01*
X59925000Y-90168061D01*
X59885226Y-89968102D01*
X59807205Y-89779744D01*
X59693937Y-89610226D01*
X59549774Y-89466063D01*
X59380256Y-89352795D01*
X59191898Y-89274774D01*
X58991939Y-89235000D01*
X58788061Y-89235000D01*
X58588102Y-89274774D01*
X58399744Y-89352795D01*
X58230226Y-89466063D01*
X58086063Y-89610226D01*
X57972795Y-89779744D01*
X57894774Y-89968102D01*
X57882984Y-90027377D01*
X57865226Y-89938102D01*
X57787205Y-89749744D01*
X57673937Y-89580226D01*
X57529774Y-89436063D01*
X57360256Y-89322795D01*
X57171898Y-89244774D01*
X56971939Y-89205000D01*
X56768061Y-89205000D01*
X56568102Y-89244774D01*
X56379744Y-89322795D01*
X56210226Y-89436063D01*
X56066063Y-89580226D01*
X55952795Y-89749744D01*
X55874774Y-89938102D01*
X55835000Y-90138061D01*
X55825000Y-90138061D01*
X55825000Y-90108061D01*
X55785226Y-89908102D01*
X55707205Y-89719744D01*
X55593937Y-89550226D01*
X55449774Y-89406063D01*
X55280256Y-89292795D01*
X55091898Y-89214774D01*
X54891939Y-89175000D01*
X54688061Y-89175000D01*
X54488102Y-89214774D01*
X54299744Y-89292795D01*
X54130226Y-89406063D01*
X53986063Y-89550226D01*
X53872795Y-89719744D01*
X53794774Y-89908102D01*
X53755000Y-90108061D01*
X50660000Y-90108061D01*
X50660000Y-80900000D01*
X54736928Y-80900000D01*
X54736928Y-82600000D01*
X54749188Y-82724482D01*
X54785498Y-82844180D01*
X54844463Y-82954494D01*
X54923815Y-83051185D01*
X55020506Y-83130537D01*
X55130820Y-83189502D01*
X55203380Y-83211513D01*
X55071525Y-83343368D01*
X54909010Y-83586589D01*
X54797068Y-83856842D01*
X54740000Y-84143740D01*
X54740000Y-84436260D01*
X54797068Y-84723158D01*
X54909010Y-84993411D01*
X55071525Y-85236632D01*
X55278368Y-85443475D01*
X55521589Y-85605990D01*
X55791842Y-85717932D01*
X56078740Y-85775000D01*
X56371260Y-85775000D01*
X56658158Y-85717932D01*
X56928411Y-85605990D01*
X57171632Y-85443475D01*
X57378475Y-85236632D01*
X57540990Y-84993411D01*
X57652932Y-84723158D01*
X57710000Y-84436260D01*
X57710000Y-84143740D01*
X57652932Y-83856842D01*
X57540990Y-83586589D01*
X57449725Y-83450000D01*
X59086928Y-83450000D01*
X59086928Y-85150000D01*
X59099188Y-85274482D01*
X59135498Y-85394180D01*
X59194463Y-85504494D01*
X59273815Y-85601185D01*
X59370506Y-85680537D01*
X59480820Y-85739502D01*
X59600518Y-85775812D01*
X59725000Y-85788072D01*
X61425000Y-85788072D01*
X61549482Y-85775812D01*
X61669180Y-85739502D01*
X61779494Y-85680537D01*
X61876185Y-85601185D01*
X61955537Y-85504494D01*
X62014502Y-85394180D01*
X62050812Y-85274482D01*
X62063072Y-85150000D01*
X62063072Y-83990000D01*
X66461928Y-83990000D01*
X66461928Y-85690000D01*
X66474188Y-85814482D01*
X66510498Y-85934180D01*
X66569463Y-86044494D01*
X66648815Y-86141185D01*
X66745506Y-86220537D01*
X66855820Y-86279502D01*
X66928380Y-86301513D01*
X66796525Y-86433368D01*
X66634010Y-86676589D01*
X66522068Y-86946842D01*
X66465000Y-87233740D01*
X66465000Y-87526260D01*
X66522068Y-87813158D01*
X66634010Y-88083411D01*
X66796525Y-88326632D01*
X67003368Y-88533475D01*
X67246589Y-88695990D01*
X67516842Y-88807932D01*
X67803740Y-88865000D01*
X68096260Y-88865000D01*
X68383158Y-88807932D01*
X68653411Y-88695990D01*
X68896632Y-88533475D01*
X69103475Y-88326632D01*
X69220000Y-88152240D01*
X69336525Y-88326632D01*
X69543368Y-88533475D01*
X69786589Y-88695990D01*
X70056842Y-88807932D01*
X70343740Y-88865000D01*
X70636260Y-88865000D01*
X70923158Y-88807932D01*
X71193411Y-88695990D01*
X71436632Y-88533475D01*
X71643475Y-88326632D01*
X71805990Y-88083411D01*
X71917932Y-87813158D01*
X71975000Y-87526260D01*
X71975000Y-87233740D01*
X71917932Y-86946842D01*
X71805990Y-86676589D01*
X71643475Y-86433368D01*
X71436632Y-86226525D01*
X71262240Y-86110000D01*
X71436632Y-85993475D01*
X71643475Y-85786632D01*
X71805990Y-85543411D01*
X71917932Y-85273158D01*
X71975000Y-84986260D01*
X71975000Y-84693740D01*
X71917932Y-84406842D01*
X71805990Y-84136589D01*
X71728088Y-84020000D01*
X73121928Y-84020000D01*
X73121928Y-85720000D01*
X73134188Y-85844482D01*
X73170498Y-85964180D01*
X73229463Y-86074494D01*
X73308815Y-86171185D01*
X73405506Y-86250537D01*
X73515820Y-86309502D01*
X73588380Y-86331513D01*
X73456525Y-86463368D01*
X73294010Y-86706589D01*
X73182068Y-86976842D01*
X73125000Y-87263740D01*
X73125000Y-87556260D01*
X73182068Y-87843158D01*
X73294010Y-88113411D01*
X73456525Y-88356632D01*
X73663368Y-88563475D01*
X73906589Y-88725990D01*
X74176842Y-88837932D01*
X74463740Y-88895000D01*
X74756260Y-88895000D01*
X75043158Y-88837932D01*
X75313411Y-88725990D01*
X75556632Y-88563475D01*
X75763475Y-88356632D01*
X75880000Y-88182240D01*
X75996525Y-88356632D01*
X76203368Y-88563475D01*
X76446589Y-88725990D01*
X76716842Y-88837932D01*
X77003740Y-88895000D01*
X77296260Y-88895000D01*
X77583158Y-88837932D01*
X77853411Y-88725990D01*
X78096632Y-88563475D01*
X78303475Y-88356632D01*
X78465990Y-88113411D01*
X78577932Y-87843158D01*
X78635000Y-87556260D01*
X78635000Y-87263740D01*
X78577932Y-86976842D01*
X78465990Y-86706589D01*
X78303475Y-86463368D01*
X78096632Y-86256525D01*
X77922240Y-86140000D01*
X78096632Y-86023475D01*
X78303475Y-85816632D01*
X78465990Y-85573411D01*
X78577932Y-85303158D01*
X78635000Y-85016260D01*
X78635000Y-84723740D01*
X78577932Y-84436842D01*
X78465990Y-84166589D01*
X78303475Y-83923368D01*
X78096632Y-83716525D01*
X77853411Y-83554010D01*
X77583158Y-83442068D01*
X77296260Y-83385000D01*
X77003740Y-83385000D01*
X76716842Y-83442068D01*
X76446589Y-83554010D01*
X76203368Y-83716525D01*
X76071513Y-83848380D01*
X76049502Y-83775820D01*
X75990537Y-83665506D01*
X75911185Y-83568815D01*
X75814494Y-83489463D01*
X75704180Y-83430498D01*
X75584482Y-83394188D01*
X75460000Y-83381928D01*
X73760000Y-83381928D01*
X73635518Y-83394188D01*
X73515820Y-83430498D01*
X73405506Y-83489463D01*
X73308815Y-83568815D01*
X73229463Y-83665506D01*
X73170498Y-83775820D01*
X73134188Y-83895518D01*
X73121928Y-84020000D01*
X71728088Y-84020000D01*
X71643475Y-83893368D01*
X71436632Y-83686525D01*
X71193411Y-83524010D01*
X70923158Y-83412068D01*
X70636260Y-83355000D01*
X70343740Y-83355000D01*
X70056842Y-83412068D01*
X69786589Y-83524010D01*
X69543368Y-83686525D01*
X69411513Y-83818380D01*
X69389502Y-83745820D01*
X69330537Y-83635506D01*
X69251185Y-83538815D01*
X69154494Y-83459463D01*
X69044180Y-83400498D01*
X68924482Y-83364188D01*
X68800000Y-83351928D01*
X67100000Y-83351928D01*
X66975518Y-83364188D01*
X66855820Y-83400498D01*
X66745506Y-83459463D01*
X66648815Y-83538815D01*
X66569463Y-83635506D01*
X66510498Y-83745820D01*
X66474188Y-83865518D01*
X66461928Y-83990000D01*
X62063072Y-83990000D01*
X62063072Y-83450000D01*
X62050812Y-83325518D01*
X62014502Y-83205820D01*
X61955537Y-83095506D01*
X61876185Y-82998815D01*
X61779494Y-82919463D01*
X61669180Y-82860498D01*
X61596620Y-82838487D01*
X61728475Y-82706632D01*
X61890990Y-82463411D01*
X62002932Y-82193158D01*
X62017484Y-82120000D01*
X85311928Y-82120000D01*
X85311928Y-83820000D01*
X85324188Y-83944482D01*
X85360498Y-84064180D01*
X85419463Y-84174494D01*
X85498815Y-84271185D01*
X85595506Y-84350537D01*
X85705820Y-84409502D01*
X85778380Y-84431513D01*
X85646525Y-84563368D01*
X85484010Y-84806589D01*
X85372068Y-85076842D01*
X85315000Y-85363740D01*
X85315000Y-85656260D01*
X85372068Y-85943158D01*
X85484010Y-86213411D01*
X85646525Y-86456632D01*
X85853368Y-86663475D01*
X86096589Y-86825990D01*
X86366842Y-86937932D01*
X86653740Y-86995000D01*
X86946260Y-86995000D01*
X87233158Y-86937932D01*
X87503411Y-86825990D01*
X87746632Y-86663475D01*
X87953475Y-86456632D01*
X88070000Y-86282240D01*
X88186525Y-86456632D01*
X88393368Y-86663475D01*
X88636589Y-86825990D01*
X88906842Y-86937932D01*
X89193740Y-86995000D01*
X89486260Y-86995000D01*
X89773158Y-86937932D01*
X90043411Y-86825990D01*
X90286632Y-86663475D01*
X90493475Y-86456632D01*
X90655990Y-86213411D01*
X90767932Y-85943158D01*
X90825000Y-85656260D01*
X90825000Y-85363740D01*
X90767932Y-85076842D01*
X90655990Y-84806589D01*
X90493475Y-84563368D01*
X90286632Y-84356525D01*
X90112240Y-84240000D01*
X90286632Y-84123475D01*
X90493475Y-83916632D01*
X90655990Y-83673411D01*
X90767932Y-83403158D01*
X90825000Y-83116260D01*
X90825000Y-82823740D01*
X90819033Y-82793740D01*
X93305000Y-82793740D01*
X93305000Y-83086260D01*
X93362068Y-83373158D01*
X93474010Y-83643411D01*
X93636525Y-83886632D01*
X93843368Y-84093475D01*
X94086589Y-84255990D01*
X94356842Y-84367932D01*
X94643740Y-84425000D01*
X94936260Y-84425000D01*
X95223158Y-84367932D01*
X95493411Y-84255990D01*
X95736632Y-84093475D01*
X95868487Y-83961620D01*
X95890498Y-84034180D01*
X95949463Y-84144494D01*
X96028815Y-84241185D01*
X96125506Y-84320537D01*
X96235820Y-84379502D01*
X96355518Y-84415812D01*
X96480000Y-84428072D01*
X98180000Y-84428072D01*
X98304482Y-84415812D01*
X98424180Y-84379502D01*
X98534494Y-84320537D01*
X98631185Y-84241185D01*
X98710537Y-84144494D01*
X98769502Y-84034180D01*
X98805812Y-83914482D01*
X98818072Y-83790000D01*
X98818072Y-82090000D01*
X98805812Y-81965518D01*
X98769502Y-81845820D01*
X98710537Y-81735506D01*
X98631185Y-81638815D01*
X98534494Y-81559463D01*
X98424180Y-81500498D01*
X98304482Y-81464188D01*
X98180000Y-81451928D01*
X96480000Y-81451928D01*
X96355518Y-81464188D01*
X96235820Y-81500498D01*
X96125506Y-81559463D01*
X96028815Y-81638815D01*
X95949463Y-81735506D01*
X95890498Y-81845820D01*
X95868487Y-81918380D01*
X95736632Y-81786525D01*
X95493411Y-81624010D01*
X95223158Y-81512068D01*
X94936260Y-81455000D01*
X94643740Y-81455000D01*
X94356842Y-81512068D01*
X94086589Y-81624010D01*
X93843368Y-81786525D01*
X93636525Y-81993368D01*
X93474010Y-82236589D01*
X93362068Y-82506842D01*
X93305000Y-82793740D01*
X90819033Y-82793740D01*
X90767932Y-82536842D01*
X90655990Y-82266589D01*
X90493475Y-82023368D01*
X90286632Y-81816525D01*
X90043411Y-81654010D01*
X89773158Y-81542068D01*
X89486260Y-81485000D01*
X89193740Y-81485000D01*
X88906842Y-81542068D01*
X88636589Y-81654010D01*
X88393368Y-81816525D01*
X88261513Y-81948380D01*
X88239502Y-81875820D01*
X88180537Y-81765506D01*
X88101185Y-81668815D01*
X88004494Y-81589463D01*
X87894180Y-81530498D01*
X87774482Y-81494188D01*
X87650000Y-81481928D01*
X85950000Y-81481928D01*
X85825518Y-81494188D01*
X85705820Y-81530498D01*
X85595506Y-81589463D01*
X85498815Y-81668815D01*
X85419463Y-81765506D01*
X85360498Y-81875820D01*
X85324188Y-81995518D01*
X85311928Y-82120000D01*
X62017484Y-82120000D01*
X62060000Y-81906260D01*
X62060000Y-81613740D01*
X62002932Y-81326842D01*
X61890990Y-81056589D01*
X61728475Y-80813368D01*
X61521632Y-80606525D01*
X61278411Y-80444010D01*
X61008158Y-80332068D01*
X60721260Y-80275000D01*
X60428740Y-80275000D01*
X60141842Y-80332068D01*
X59871589Y-80444010D01*
X59628368Y-80606525D01*
X59421525Y-80813368D01*
X59259010Y-81056589D01*
X59147068Y-81326842D01*
X59090000Y-81613740D01*
X59090000Y-81906260D01*
X59147068Y-82193158D01*
X59259010Y-82463411D01*
X59421525Y-82706632D01*
X59553380Y-82838487D01*
X59480820Y-82860498D01*
X59370506Y-82919463D01*
X59273815Y-82998815D01*
X59194463Y-83095506D01*
X59135498Y-83205820D01*
X59099188Y-83325518D01*
X59086928Y-83450000D01*
X57449725Y-83450000D01*
X57378475Y-83343368D01*
X57246620Y-83211513D01*
X57319180Y-83189502D01*
X57429494Y-83130537D01*
X57526185Y-83051185D01*
X57605537Y-82954494D01*
X57664502Y-82844180D01*
X57700812Y-82724482D01*
X57713072Y-82600000D01*
X57713072Y-80900000D01*
X57700812Y-80775518D01*
X57664502Y-80655820D01*
X57605537Y-80545506D01*
X57526185Y-80448815D01*
X57429494Y-80369463D01*
X57319180Y-80310498D01*
X57199482Y-80274188D01*
X57075000Y-80261928D01*
X55375000Y-80261928D01*
X55250518Y-80274188D01*
X55130820Y-80310498D01*
X55020506Y-80369463D01*
X54923815Y-80448815D01*
X54844463Y-80545506D01*
X54785498Y-80655820D01*
X54749188Y-80775518D01*
X54736928Y-80900000D01*
X50660000Y-80900000D01*
X50660000Y-79558061D01*
X70065000Y-79558061D01*
X70065000Y-79761939D01*
X70104774Y-79961898D01*
X70182795Y-80150256D01*
X70296063Y-80319774D01*
X70440226Y-80463937D01*
X70609744Y-80577205D01*
X70798102Y-80655226D01*
X70998061Y-80695000D01*
X71201939Y-80695000D01*
X71401898Y-80655226D01*
X71590256Y-80577205D01*
X71759774Y-80463937D01*
X71903937Y-80319774D01*
X72017205Y-80150256D01*
X72095226Y-79961898D01*
X72135000Y-79761939D01*
X72135000Y-79558061D01*
X72095226Y-79358102D01*
X72017205Y-79169744D01*
X71903937Y-79000226D01*
X71759774Y-78856063D01*
X71590256Y-78742795D01*
X71401898Y-78664774D01*
X71201939Y-78625000D01*
X70998061Y-78625000D01*
X70798102Y-78664774D01*
X70609744Y-78742795D01*
X70440226Y-78856063D01*
X70296063Y-79000226D01*
X70182795Y-79169744D01*
X70104774Y-79358102D01*
X70065000Y-79558061D01*
X50660000Y-79558061D01*
X50660000Y-75778061D01*
X60545000Y-75778061D01*
X60545000Y-75981939D01*
X60584774Y-76181898D01*
X60662795Y-76370256D01*
X60776063Y-76539774D01*
X60920226Y-76683937D01*
X61089744Y-76797205D01*
X61278102Y-76875226D01*
X61313002Y-76882168D01*
X61344774Y-77041898D01*
X61422795Y-77230256D01*
X61536063Y-77399774D01*
X61680226Y-77543937D01*
X61849744Y-77657205D01*
X62038102Y-77735226D01*
X62238061Y-77775000D01*
X62441939Y-77775000D01*
X62641898Y-77735226D01*
X62830256Y-77657205D01*
X62999774Y-77543937D01*
X63143937Y-77399774D01*
X63257205Y-77230256D01*
X63295393Y-77138061D01*
X81185000Y-77138061D01*
X81185000Y-77341939D01*
X81224774Y-77541898D01*
X81302795Y-77730256D01*
X81416063Y-77899774D01*
X81560226Y-78043937D01*
X81729744Y-78157205D01*
X81918102Y-78235226D01*
X82118061Y-78275000D01*
X82321939Y-78275000D01*
X82521898Y-78235226D01*
X82710256Y-78157205D01*
X82879774Y-78043937D01*
X83023937Y-77899774D01*
X83137205Y-77730256D01*
X83215226Y-77541898D01*
X83255000Y-77341939D01*
X83255000Y-77138061D01*
X83215226Y-76938102D01*
X83137205Y-76749744D01*
X83023937Y-76580226D01*
X82879774Y-76436063D01*
X82710256Y-76322795D01*
X82521898Y-76244774D01*
X82321939Y-76205000D01*
X82118061Y-76205000D01*
X81918102Y-76244774D01*
X81729744Y-76322795D01*
X81560226Y-76436063D01*
X81416063Y-76580226D01*
X81302795Y-76749744D01*
X81224774Y-76938102D01*
X81185000Y-77138061D01*
X63295393Y-77138061D01*
X63335226Y-77041898D01*
X63375000Y-76841939D01*
X63375000Y-76638061D01*
X63335226Y-76438102D01*
X63257205Y-76249744D01*
X63143937Y-76080226D01*
X62999774Y-75936063D01*
X62830256Y-75822795D01*
X62641898Y-75744774D01*
X62606998Y-75737832D01*
X62575226Y-75578102D01*
X62497205Y-75389744D01*
X62403832Y-75250000D01*
X85311928Y-75250000D01*
X85311928Y-76950000D01*
X85324188Y-77074482D01*
X85360498Y-77194180D01*
X85419463Y-77304494D01*
X85498815Y-77401185D01*
X85595506Y-77480537D01*
X85705820Y-77539502D01*
X85778380Y-77561513D01*
X85646525Y-77693368D01*
X85484010Y-77936589D01*
X85372068Y-78206842D01*
X85315000Y-78493740D01*
X85315000Y-78786260D01*
X85372068Y-79073158D01*
X85484010Y-79343411D01*
X85646525Y-79586632D01*
X85853368Y-79793475D01*
X86096589Y-79955990D01*
X86366842Y-80067932D01*
X86653740Y-80125000D01*
X86946260Y-80125000D01*
X87233158Y-80067932D01*
X87503411Y-79955990D01*
X87746632Y-79793475D01*
X87953475Y-79586632D01*
X88070000Y-79412240D01*
X88186525Y-79586632D01*
X88393368Y-79793475D01*
X88636589Y-79955990D01*
X88906842Y-80067932D01*
X89193740Y-80125000D01*
X89486260Y-80125000D01*
X89773158Y-80067932D01*
X90043411Y-79955990D01*
X90286632Y-79793475D01*
X90493475Y-79586632D01*
X90655990Y-79343411D01*
X90767932Y-79073158D01*
X90825000Y-78786260D01*
X90825000Y-78493740D01*
X90767932Y-78206842D01*
X90655990Y-77936589D01*
X90493475Y-77693368D01*
X90353847Y-77553740D01*
X93515000Y-77553740D01*
X93515000Y-77846260D01*
X93572068Y-78133158D01*
X93684010Y-78403411D01*
X93846525Y-78646632D01*
X94053368Y-78853475D01*
X94296589Y-79015990D01*
X94566842Y-79127932D01*
X94853740Y-79185000D01*
X95146260Y-79185000D01*
X95433158Y-79127932D01*
X95703411Y-79015990D01*
X95946632Y-78853475D01*
X96153475Y-78646632D01*
X96270000Y-78472240D01*
X96386525Y-78646632D01*
X96593368Y-78853475D01*
X96836589Y-79015990D01*
X97106842Y-79127932D01*
X97393740Y-79185000D01*
X97686260Y-79185000D01*
X97973158Y-79127932D01*
X98243411Y-79015990D01*
X98486632Y-78853475D01*
X98693475Y-78646632D01*
X98855990Y-78403411D01*
X98967932Y-78133158D01*
X99025000Y-77846260D01*
X99025000Y-77553740D01*
X98967932Y-77266842D01*
X98855990Y-76996589D01*
X98693475Y-76753368D01*
X98486632Y-76546525D01*
X98304466Y-76424805D01*
X98421355Y-76355178D01*
X98637588Y-76160269D01*
X98811641Y-75926920D01*
X98936825Y-75664099D01*
X98981476Y-75516890D01*
X98860155Y-75287000D01*
X97667000Y-75287000D01*
X97667000Y-75307000D01*
X97413000Y-75307000D01*
X97413000Y-75287000D01*
X95127000Y-75287000D01*
X95127000Y-75307000D01*
X94873000Y-75307000D01*
X94873000Y-75287000D01*
X93679845Y-75287000D01*
X93558524Y-75516890D01*
X93603175Y-75664099D01*
X93728359Y-75926920D01*
X93902412Y-76160269D01*
X94118645Y-76355178D01*
X94235534Y-76424805D01*
X94053368Y-76546525D01*
X93846525Y-76753368D01*
X93684010Y-76996589D01*
X93572068Y-77266842D01*
X93515000Y-77553740D01*
X90353847Y-77553740D01*
X90286632Y-77486525D01*
X90112240Y-77370000D01*
X90286632Y-77253475D01*
X90493475Y-77046632D01*
X90655990Y-76803411D01*
X90767932Y-76533158D01*
X90825000Y-76246260D01*
X90825000Y-75953740D01*
X90767932Y-75666842D01*
X90655990Y-75396589D01*
X90493475Y-75153368D01*
X90286632Y-74946525D01*
X90043411Y-74784010D01*
X89773158Y-74672068D01*
X89486260Y-74615000D01*
X89193740Y-74615000D01*
X88906842Y-74672068D01*
X88636589Y-74784010D01*
X88393368Y-74946525D01*
X88261513Y-75078380D01*
X88239502Y-75005820D01*
X88180537Y-74895506D01*
X88101185Y-74798815D01*
X88004494Y-74719463D01*
X87894180Y-74660498D01*
X87774482Y-74624188D01*
X87650000Y-74611928D01*
X85950000Y-74611928D01*
X85825518Y-74624188D01*
X85705820Y-74660498D01*
X85595506Y-74719463D01*
X85498815Y-74798815D01*
X85419463Y-74895506D01*
X85360498Y-75005820D01*
X85324188Y-75125518D01*
X85311928Y-75250000D01*
X62403832Y-75250000D01*
X62383937Y-75220226D01*
X62239774Y-75076063D01*
X62070256Y-74962795D01*
X61881898Y-74884774D01*
X61681939Y-74845000D01*
X61478061Y-74845000D01*
X61278102Y-74884774D01*
X61089744Y-74962795D01*
X60920226Y-75076063D01*
X60776063Y-75220226D01*
X60662795Y-75389744D01*
X60584774Y-75578102D01*
X60545000Y-75778061D01*
X50660000Y-75778061D01*
X50660000Y-65896890D01*
X52558524Y-65896890D01*
X52603175Y-66044099D01*
X52728359Y-66306920D01*
X52902412Y-66540269D01*
X53118645Y-66735178D01*
X53368748Y-66884157D01*
X53643109Y-66981481D01*
X53873000Y-66860814D01*
X53873000Y-65667000D01*
X54127000Y-65667000D01*
X54127000Y-66860814D01*
X54356891Y-66981481D01*
X54631252Y-66884157D01*
X54881355Y-66735178D01*
X55097588Y-66540269D01*
X55271641Y-66306920D01*
X55396825Y-66044099D01*
X55441476Y-65896890D01*
X55320155Y-65667000D01*
X54127000Y-65667000D01*
X53873000Y-65667000D01*
X52679845Y-65667000D01*
X52558524Y-65896890D01*
X50660000Y-65896890D01*
X50660000Y-62150000D01*
X52511928Y-62150000D01*
X52511928Y-63850000D01*
X52524188Y-63974482D01*
X52560498Y-64094180D01*
X52619463Y-64204494D01*
X52698815Y-64301185D01*
X52795506Y-64380537D01*
X52905820Y-64439502D01*
X52986466Y-64463966D01*
X52902412Y-64539731D01*
X52728359Y-64773080D01*
X52603175Y-65035901D01*
X52558524Y-65183110D01*
X52679845Y-65413000D01*
X53873000Y-65413000D01*
X53873000Y-65393000D01*
X54127000Y-65393000D01*
X54127000Y-65413000D01*
X55320155Y-65413000D01*
X55441476Y-65183110D01*
X55396825Y-65035901D01*
X55379726Y-65000000D01*
X57873000Y-65000000D01*
X57873000Y-74000000D01*
X57875440Y-74024776D01*
X57882667Y-74048601D01*
X57894403Y-74070557D01*
X57910197Y-74089803D01*
X57929443Y-74105597D01*
X57951399Y-74117333D01*
X57975224Y-74124560D01*
X58000000Y-74127000D01*
X62600000Y-74127000D01*
X62624776Y-74124560D01*
X62648601Y-74117333D01*
X62670557Y-74105597D01*
X62689803Y-74089803D01*
X62705597Y-74070557D01*
X62717333Y-74048601D01*
X62724560Y-74024776D01*
X62727000Y-74000000D01*
X62727000Y-72727000D01*
X63204764Y-72727000D01*
X63142795Y-72819744D01*
X63064774Y-73008102D01*
X63025000Y-73208061D01*
X63025000Y-73411939D01*
X63064774Y-73611898D01*
X63142795Y-73800256D01*
X63256063Y-73969774D01*
X63400226Y-74113937D01*
X63569744Y-74227205D01*
X63758102Y-74305226D01*
X63958061Y-74345000D01*
X64161939Y-74345000D01*
X64361898Y-74305226D01*
X64550256Y-74227205D01*
X64719774Y-74113937D01*
X64863937Y-73969774D01*
X64945262Y-73848061D01*
X69235000Y-73848061D01*
X69235000Y-74051939D01*
X69274774Y-74251898D01*
X69352795Y-74440256D01*
X69466063Y-74609774D01*
X69610226Y-74753937D01*
X69779744Y-74867205D01*
X69968102Y-74945226D01*
X70168061Y-74985000D01*
X70371939Y-74985000D01*
X70571898Y-74945226D01*
X70760256Y-74867205D01*
X70929774Y-74753937D01*
X70960000Y-74723711D01*
X71000226Y-74763937D01*
X71169744Y-74877205D01*
X71358102Y-74955226D01*
X71558061Y-74995000D01*
X71761939Y-74995000D01*
X71961898Y-74955226D01*
X72150256Y-74877205D01*
X72319774Y-74763937D01*
X72340000Y-74743711D01*
X72410226Y-74813937D01*
X72579744Y-74927205D01*
X72768102Y-75005226D01*
X72968061Y-75045000D01*
X73171939Y-75045000D01*
X73371898Y-75005226D01*
X73560256Y-74927205D01*
X73729774Y-74813937D01*
X73730000Y-74813711D01*
X73850226Y-74933937D01*
X74019744Y-75047205D01*
X74208102Y-75125226D01*
X74408061Y-75165000D01*
X74611939Y-75165000D01*
X74811898Y-75125226D01*
X75000256Y-75047205D01*
X75169774Y-74933937D01*
X75313937Y-74789774D01*
X75427205Y-74620256D01*
X75505226Y-74431898D01*
X75545000Y-74231939D01*
X75545000Y-74028061D01*
X75505226Y-73828102D01*
X75427205Y-73639744D01*
X75313937Y-73470226D01*
X75169774Y-73326063D01*
X75000256Y-73212795D01*
X74811898Y-73134774D01*
X74611939Y-73095000D01*
X74408061Y-73095000D01*
X74208102Y-73134774D01*
X74019744Y-73212795D01*
X73850226Y-73326063D01*
X73850000Y-73326289D01*
X73729774Y-73206063D01*
X73560256Y-73092795D01*
X73371898Y-73014774D01*
X73171939Y-72975000D01*
X72968061Y-72975000D01*
X72768102Y-73014774D01*
X72579744Y-73092795D01*
X72410226Y-73206063D01*
X72390000Y-73226289D01*
X72319774Y-73156063D01*
X72150256Y-73042795D01*
X71961898Y-72964774D01*
X71761939Y-72925000D01*
X71558061Y-72925000D01*
X71358102Y-72964774D01*
X71169744Y-73042795D01*
X71000226Y-73156063D01*
X70970000Y-73186289D01*
X70929774Y-73146063D01*
X70760256Y-73032795D01*
X70571898Y-72954774D01*
X70371939Y-72915000D01*
X70168061Y-72915000D01*
X69968102Y-72954774D01*
X69779744Y-73032795D01*
X69610226Y-73146063D01*
X69466063Y-73290226D01*
X69352795Y-73459744D01*
X69274774Y-73648102D01*
X69235000Y-73848061D01*
X64945262Y-73848061D01*
X64977205Y-73800256D01*
X65055226Y-73611898D01*
X65095000Y-73411939D01*
X65095000Y-73208061D01*
X65055226Y-73008102D01*
X64977205Y-72819744D01*
X64915236Y-72727000D01*
X66400000Y-72727000D01*
X66424776Y-72724560D01*
X66448601Y-72717333D01*
X66470557Y-72705597D01*
X66489803Y-72689803D01*
X66505597Y-72670557D01*
X66517333Y-72648601D01*
X66524560Y-72624776D01*
X66527000Y-72600000D01*
X66527000Y-70827000D01*
X68700000Y-70827000D01*
X68724776Y-70824560D01*
X68748601Y-70817333D01*
X68770557Y-70805597D01*
X68789803Y-70789803D01*
X68805597Y-70770557D01*
X68817333Y-70748601D01*
X68824560Y-70724776D01*
X68827000Y-70700000D01*
X68827000Y-68700000D01*
X68824560Y-68675224D01*
X68817333Y-68651399D01*
X68805597Y-68629443D01*
X68789803Y-68610197D01*
X68770557Y-68594403D01*
X68748601Y-68582667D01*
X68724776Y-68575440D01*
X68700000Y-68573000D01*
X65232909Y-68573000D01*
X65255000Y-68461939D01*
X65255000Y-68410000D01*
X85331928Y-68410000D01*
X85331928Y-70110000D01*
X85344188Y-70234482D01*
X85380498Y-70354180D01*
X85439463Y-70464494D01*
X85518815Y-70561185D01*
X85615506Y-70640537D01*
X85725820Y-70699502D01*
X85798380Y-70721513D01*
X85666525Y-70853368D01*
X85504010Y-71096589D01*
X85392068Y-71366842D01*
X85335000Y-71653740D01*
X85335000Y-71946260D01*
X85392068Y-72233158D01*
X85504010Y-72503411D01*
X85666525Y-72746632D01*
X85873368Y-72953475D01*
X86116589Y-73115990D01*
X86386842Y-73227932D01*
X86673740Y-73285000D01*
X86966260Y-73285000D01*
X87253158Y-73227932D01*
X87523411Y-73115990D01*
X87766632Y-72953475D01*
X87973475Y-72746632D01*
X88090000Y-72572240D01*
X88206525Y-72746632D01*
X88413368Y-72953475D01*
X88656589Y-73115990D01*
X88926842Y-73227932D01*
X89213740Y-73285000D01*
X89506260Y-73285000D01*
X89793158Y-73227932D01*
X90063411Y-73115990D01*
X90306632Y-72953475D01*
X90513475Y-72746632D01*
X90675990Y-72503411D01*
X90787932Y-72233158D01*
X90845000Y-71946260D01*
X90845000Y-71653740D01*
X90787932Y-71366842D01*
X90675990Y-71096589D01*
X90513475Y-70853368D01*
X90306632Y-70646525D01*
X90132240Y-70530000D01*
X90306632Y-70413475D01*
X90513475Y-70206632D01*
X90675990Y-69963411D01*
X90787932Y-69693158D01*
X90845000Y-69406260D01*
X90845000Y-69113740D01*
X90787932Y-68826842D01*
X90675990Y-68556589D01*
X90513475Y-68313368D01*
X90306632Y-68106525D01*
X90063411Y-67944010D01*
X89793158Y-67832068D01*
X89506260Y-67775000D01*
X89213740Y-67775000D01*
X88926842Y-67832068D01*
X88656589Y-67944010D01*
X88413368Y-68106525D01*
X88281513Y-68238380D01*
X88259502Y-68165820D01*
X88200537Y-68055506D01*
X88121185Y-67958815D01*
X88024494Y-67879463D01*
X87914180Y-67820498D01*
X87794482Y-67784188D01*
X87670000Y-67771928D01*
X85970000Y-67771928D01*
X85845518Y-67784188D01*
X85725820Y-67820498D01*
X85615506Y-67879463D01*
X85518815Y-67958815D01*
X85439463Y-68055506D01*
X85380498Y-68165820D01*
X85344188Y-68285518D01*
X85331928Y-68410000D01*
X65255000Y-68410000D01*
X65255000Y-68258061D01*
X65215226Y-68058102D01*
X65137205Y-67869744D01*
X65023937Y-67700226D01*
X64879774Y-67556063D01*
X64710256Y-67442795D01*
X64521898Y-67364774D01*
X64321939Y-67325000D01*
X64118061Y-67325000D01*
X63918102Y-67364774D01*
X63729744Y-67442795D01*
X63560226Y-67556063D01*
X63416063Y-67700226D01*
X63302795Y-67869744D01*
X63224774Y-68058102D01*
X63185000Y-68258061D01*
X63185000Y-68461939D01*
X63207091Y-68573000D01*
X63102861Y-68573000D01*
X63126997Y-65000858D01*
X63124724Y-64976066D01*
X63117658Y-64952193D01*
X63106071Y-64930158D01*
X63096280Y-64918061D01*
X64255000Y-64918061D01*
X64255000Y-65121939D01*
X64294774Y-65321898D01*
X64372795Y-65510256D01*
X64486063Y-65679774D01*
X64630226Y-65823937D01*
X64799744Y-65937205D01*
X64988102Y-66015226D01*
X65188061Y-66055000D01*
X65391939Y-66055000D01*
X65591898Y-66015226D01*
X65780256Y-65937205D01*
X65949774Y-65823937D01*
X66093937Y-65679774D01*
X66207205Y-65510256D01*
X66285226Y-65321898D01*
X66325000Y-65121939D01*
X66325000Y-64918061D01*
X66295164Y-64768061D01*
X77625000Y-64768061D01*
X77625000Y-64971939D01*
X77664774Y-65171898D01*
X77742795Y-65360256D01*
X77856063Y-65529774D01*
X78000226Y-65673937D01*
X78169744Y-65787205D01*
X78358102Y-65865226D01*
X78558061Y-65905000D01*
X78761939Y-65905000D01*
X78961898Y-65865226D01*
X79150256Y-65787205D01*
X79319774Y-65673937D01*
X79463937Y-65529774D01*
X79577205Y-65360256D01*
X79655226Y-65171898D01*
X79695000Y-64971939D01*
X79695000Y-64768061D01*
X79655226Y-64568102D01*
X79577205Y-64379744D01*
X79463937Y-64210226D01*
X79403711Y-64150000D01*
X93511928Y-64150000D01*
X93511928Y-65850000D01*
X93524188Y-65974482D01*
X93560498Y-66094180D01*
X93619463Y-66204494D01*
X93698815Y-66301185D01*
X93795506Y-66380537D01*
X93905820Y-66439502D01*
X93978380Y-66461513D01*
X93846525Y-66593368D01*
X93684010Y-66836589D01*
X93572068Y-67106842D01*
X93515000Y-67393740D01*
X93515000Y-67686260D01*
X93572068Y-67973158D01*
X93684010Y-68243411D01*
X93846525Y-68486632D01*
X94053368Y-68693475D01*
X94227760Y-68810000D01*
X94053368Y-68926525D01*
X93846525Y-69133368D01*
X93684010Y-69376589D01*
X93572068Y-69646842D01*
X93515000Y-69933740D01*
X93515000Y-70226260D01*
X93572068Y-70513158D01*
X93684010Y-70783411D01*
X93846525Y-71026632D01*
X94053368Y-71233475D01*
X94227760Y-71350000D01*
X94053368Y-71466525D01*
X93846525Y-71673368D01*
X93684010Y-71916589D01*
X93572068Y-72186842D01*
X93515000Y-72473740D01*
X93515000Y-72766260D01*
X93572068Y-73053158D01*
X93684010Y-73323411D01*
X93846525Y-73566632D01*
X94053368Y-73773475D01*
X94235534Y-73895195D01*
X94118645Y-73964822D01*
X93902412Y-74159731D01*
X93728359Y-74393080D01*
X93603175Y-74655901D01*
X93558524Y-74803110D01*
X93679845Y-75033000D01*
X94873000Y-75033000D01*
X94873000Y-75013000D01*
X95127000Y-75013000D01*
X95127000Y-75033000D01*
X97413000Y-75033000D01*
X97413000Y-75013000D01*
X97667000Y-75013000D01*
X97667000Y-75033000D01*
X98860155Y-75033000D01*
X98981476Y-74803110D01*
X98936825Y-74655901D01*
X98811641Y-74393080D01*
X98637588Y-74159731D01*
X98421355Y-73964822D01*
X98304466Y-73895195D01*
X98486632Y-73773475D01*
X98693475Y-73566632D01*
X98855990Y-73323411D01*
X98967932Y-73053158D01*
X99025000Y-72766260D01*
X99025000Y-72473740D01*
X98967932Y-72186842D01*
X98855990Y-71916589D01*
X98693475Y-71673368D01*
X98486632Y-71466525D01*
X98312240Y-71350000D01*
X98486632Y-71233475D01*
X98693475Y-71026632D01*
X98855990Y-70783411D01*
X98967932Y-70513158D01*
X99025000Y-70226260D01*
X99025000Y-69933740D01*
X98967932Y-69646842D01*
X98855990Y-69376589D01*
X98693475Y-69133368D01*
X98486632Y-68926525D01*
X98312240Y-68810000D01*
X98486632Y-68693475D01*
X98693475Y-68486632D01*
X98855990Y-68243411D01*
X98967932Y-67973158D01*
X99025000Y-67686260D01*
X99025000Y-67393740D01*
X98967932Y-67106842D01*
X98855990Y-66836589D01*
X98693475Y-66593368D01*
X98486632Y-66386525D01*
X98312240Y-66270000D01*
X98486632Y-66153475D01*
X98693475Y-65946632D01*
X98855990Y-65703411D01*
X98967932Y-65433158D01*
X99025000Y-65146260D01*
X99025000Y-64853740D01*
X98967932Y-64566842D01*
X98855990Y-64296589D01*
X98693475Y-64053368D01*
X98486632Y-63846525D01*
X98243411Y-63684010D01*
X97973158Y-63572068D01*
X97686260Y-63515000D01*
X97393740Y-63515000D01*
X97106842Y-63572068D01*
X96836589Y-63684010D01*
X96593368Y-63846525D01*
X96461513Y-63978380D01*
X96439502Y-63905820D01*
X96380537Y-63795506D01*
X96301185Y-63698815D01*
X96204494Y-63619463D01*
X96094180Y-63560498D01*
X95974482Y-63524188D01*
X95850000Y-63511928D01*
X94150000Y-63511928D01*
X94025518Y-63524188D01*
X93905820Y-63560498D01*
X93795506Y-63619463D01*
X93698815Y-63698815D01*
X93619463Y-63795506D01*
X93560498Y-63905820D01*
X93524188Y-64025518D01*
X93511928Y-64150000D01*
X79403711Y-64150000D01*
X79319774Y-64066063D01*
X79150256Y-63952795D01*
X78961898Y-63874774D01*
X78761939Y-63835000D01*
X78558061Y-63835000D01*
X78358102Y-63874774D01*
X78169744Y-63952795D01*
X78000226Y-64066063D01*
X77856063Y-64210226D01*
X77742795Y-64379744D01*
X77664774Y-64568102D01*
X77625000Y-64768061D01*
X66295164Y-64768061D01*
X66285226Y-64718102D01*
X66207205Y-64529744D01*
X66093937Y-64360226D01*
X65949774Y-64216063D01*
X65780256Y-64102795D01*
X65591898Y-64024774D01*
X65391939Y-63985000D01*
X65188061Y-63985000D01*
X64988102Y-64024774D01*
X64799744Y-64102795D01*
X64630226Y-64216063D01*
X64486063Y-64360226D01*
X64372795Y-64529744D01*
X64294774Y-64718102D01*
X64255000Y-64918061D01*
X63096280Y-64918061D01*
X63090407Y-64910806D01*
X63071269Y-64894882D01*
X63049392Y-64882998D01*
X63025618Y-64875611D01*
X63000000Y-64873000D01*
X58000000Y-64873000D01*
X57975224Y-64875440D01*
X57951399Y-64882667D01*
X57929443Y-64894403D01*
X57910197Y-64910197D01*
X57894403Y-64929443D01*
X57882667Y-64951399D01*
X57875440Y-64975224D01*
X57873000Y-65000000D01*
X55379726Y-65000000D01*
X55271641Y-64773080D01*
X55097588Y-64539731D01*
X55013534Y-64463966D01*
X55094180Y-64439502D01*
X55204494Y-64380537D01*
X55301185Y-64301185D01*
X55380537Y-64204494D01*
X55439502Y-64094180D01*
X55475812Y-63974482D01*
X55488072Y-63850000D01*
X55488072Y-63068061D01*
X65325000Y-63068061D01*
X65325000Y-63271939D01*
X65364774Y-63471898D01*
X65442795Y-63660256D01*
X65556063Y-63829774D01*
X65700226Y-63973937D01*
X65869744Y-64087205D01*
X66058102Y-64165226D01*
X66258061Y-64205000D01*
X66461939Y-64205000D01*
X66661898Y-64165226D01*
X66850256Y-64087205D01*
X67019774Y-63973937D01*
X67163937Y-63829774D01*
X67277205Y-63660256D01*
X67355226Y-63471898D01*
X67395000Y-63271939D01*
X67395000Y-63068061D01*
X67355226Y-62868102D01*
X67277205Y-62679744D01*
X67163937Y-62510226D01*
X67161772Y-62508061D01*
X81225000Y-62508061D01*
X81225000Y-62711939D01*
X81264774Y-62911898D01*
X81342795Y-63100256D01*
X81456063Y-63269774D01*
X81600226Y-63413937D01*
X81769744Y-63527205D01*
X81958102Y-63605226D01*
X82158061Y-63645000D01*
X82361939Y-63645000D01*
X82561898Y-63605226D01*
X82750256Y-63527205D01*
X82919774Y-63413937D01*
X83063937Y-63269774D01*
X83177205Y-63100256D01*
X83255226Y-62911898D01*
X83295000Y-62711939D01*
X83295000Y-62508061D01*
X83255226Y-62308102D01*
X83177205Y-62119744D01*
X83063937Y-61950226D01*
X82919774Y-61806063D01*
X82750256Y-61692795D01*
X82561898Y-61614774D01*
X82361939Y-61575000D01*
X82158061Y-61575000D01*
X81958102Y-61614774D01*
X81769744Y-61692795D01*
X81600226Y-61806063D01*
X81456063Y-61950226D01*
X81342795Y-62119744D01*
X81264774Y-62308102D01*
X81225000Y-62508061D01*
X67161772Y-62508061D01*
X67019774Y-62366063D01*
X66850256Y-62252795D01*
X66661898Y-62174774D01*
X66461939Y-62135000D01*
X66258061Y-62135000D01*
X66058102Y-62174774D01*
X65869744Y-62252795D01*
X65700226Y-62366063D01*
X65556063Y-62510226D01*
X65442795Y-62679744D01*
X65364774Y-62868102D01*
X65325000Y-63068061D01*
X55488072Y-63068061D01*
X55488072Y-62150000D01*
X55475812Y-62025518D01*
X55439502Y-61905820D01*
X55380537Y-61795506D01*
X55301185Y-61698815D01*
X55204494Y-61619463D01*
X55094180Y-61560498D01*
X54974482Y-61524188D01*
X54850000Y-61511928D01*
X53150000Y-61511928D01*
X53025518Y-61524188D01*
X52905820Y-61560498D01*
X52795506Y-61619463D01*
X52698815Y-61698815D01*
X52619463Y-61795506D01*
X52560498Y-61905820D01*
X52524188Y-62025518D01*
X52511928Y-62150000D01*
X50660000Y-62150000D01*
X50660000Y-55628061D01*
X66685000Y-55628061D01*
X66685000Y-55831939D01*
X66724774Y-56031898D01*
X66802795Y-56220256D01*
X66916063Y-56389774D01*
X67060226Y-56533937D01*
X67229744Y-56647205D01*
X67418102Y-56725226D01*
X67618061Y-56765000D01*
X67821939Y-56765000D01*
X68021898Y-56725226D01*
X68210256Y-56647205D01*
X68379774Y-56533937D01*
X68523937Y-56389774D01*
X68637205Y-56220256D01*
X68654682Y-56178061D01*
X73005000Y-56178061D01*
X73005000Y-56381939D01*
X73044774Y-56581898D01*
X73122795Y-56770256D01*
X73236063Y-56939774D01*
X73380226Y-57083937D01*
X73549744Y-57197205D01*
X73738102Y-57275226D01*
X73839403Y-57295376D01*
X73815000Y-57418061D01*
X73815000Y-57621939D01*
X73854774Y-57821898D01*
X73932795Y-58010256D01*
X74046063Y-58179774D01*
X74190226Y-58323937D01*
X74359744Y-58437205D01*
X74548102Y-58515226D01*
X74748061Y-58555000D01*
X74951939Y-58555000D01*
X75151898Y-58515226D01*
X75340256Y-58437205D01*
X75509774Y-58323937D01*
X75520000Y-58313711D01*
X75530226Y-58323937D01*
X75699744Y-58437205D01*
X75888102Y-58515226D01*
X76088061Y-58555000D01*
X76291939Y-58555000D01*
X76491898Y-58515226D01*
X76680256Y-58437205D01*
X76849774Y-58323937D01*
X76993937Y-58179774D01*
X77107205Y-58010256D01*
X77185226Y-57821898D01*
X77225000Y-57621939D01*
X77225000Y-57418061D01*
X77185226Y-57218102D01*
X77120566Y-57062000D01*
X78013928Y-57062000D01*
X78013928Y-58762000D01*
X78026188Y-58886482D01*
X78062498Y-59006180D01*
X78121463Y-59116494D01*
X78200815Y-59213185D01*
X78297506Y-59292537D01*
X78407820Y-59351502D01*
X78527518Y-59387812D01*
X78652000Y-59400072D01*
X80352000Y-59400072D01*
X80476482Y-59387812D01*
X80596180Y-59351502D01*
X80706494Y-59292537D01*
X80803185Y-59213185D01*
X80882537Y-59116494D01*
X80941502Y-59006180D01*
X80977812Y-58886482D01*
X80990072Y-58762000D01*
X80990072Y-57062000D01*
X80977812Y-56937518D01*
X80941502Y-56817820D01*
X80882537Y-56707506D01*
X80803185Y-56610815D01*
X80796099Y-56605000D01*
X80831939Y-56605000D01*
X81031898Y-56565226D01*
X81220256Y-56487205D01*
X81250947Y-56466698D01*
X81368102Y-56515226D01*
X81568061Y-56555000D01*
X81771939Y-56555000D01*
X81971898Y-56515226D01*
X82160256Y-56437205D01*
X82329774Y-56323937D01*
X82473937Y-56179774D01*
X82587205Y-56010256D01*
X82665226Y-55821898D01*
X82705000Y-55621939D01*
X82705000Y-55418061D01*
X82665226Y-55218102D01*
X82587205Y-55029744D01*
X82473937Y-54860226D01*
X82329774Y-54716063D01*
X82160256Y-54602795D01*
X81971898Y-54524774D01*
X81771939Y-54485000D01*
X81568061Y-54485000D01*
X81368102Y-54524774D01*
X81179744Y-54602795D01*
X81149053Y-54623302D01*
X81031898Y-54574774D01*
X80831939Y-54535000D01*
X80628061Y-54535000D01*
X80428102Y-54574774D01*
X80239744Y-54652795D01*
X80070226Y-54766063D01*
X79926063Y-54910226D01*
X79812795Y-55079744D01*
X79734774Y-55268102D01*
X79695000Y-55468061D01*
X79695000Y-55671939D01*
X79734774Y-55871898D01*
X79812795Y-56060256D01*
X79926063Y-56229774D01*
X80070226Y-56373937D01*
X80145043Y-56423928D01*
X78652000Y-56423928D01*
X78527518Y-56436188D01*
X78407820Y-56472498D01*
X78297506Y-56531463D01*
X78200815Y-56610815D01*
X78121463Y-56707506D01*
X78062498Y-56817820D01*
X78026188Y-56937518D01*
X78013928Y-57062000D01*
X77120566Y-57062000D01*
X77107205Y-57029744D01*
X76993937Y-56860226D01*
X76849774Y-56716063D01*
X76680256Y-56602795D01*
X76491898Y-56524774D01*
X76291939Y-56485000D01*
X76088061Y-56485000D01*
X75888102Y-56524774D01*
X75699744Y-56602795D01*
X75530226Y-56716063D01*
X75520000Y-56726289D01*
X75509774Y-56716063D01*
X75340256Y-56602795D01*
X75151898Y-56524774D01*
X75050597Y-56504624D01*
X75075000Y-56381939D01*
X75075000Y-56178061D01*
X75035226Y-55978102D01*
X74957205Y-55789744D01*
X74843937Y-55620226D01*
X74699774Y-55476063D01*
X74530256Y-55362795D01*
X74341898Y-55284774D01*
X74141939Y-55245000D01*
X73938061Y-55245000D01*
X73738102Y-55284774D01*
X73549744Y-55362795D01*
X73380226Y-55476063D01*
X73236063Y-55620226D01*
X73122795Y-55789744D01*
X73044774Y-55978102D01*
X73005000Y-56178061D01*
X68654682Y-56178061D01*
X68715226Y-56031898D01*
X68755000Y-55831939D01*
X68755000Y-55628061D01*
X68715226Y-55428102D01*
X68637205Y-55239744D01*
X68580558Y-55154966D01*
X68657205Y-55040256D01*
X68735226Y-54851898D01*
X68775000Y-54651939D01*
X68775000Y-54448061D01*
X68735226Y-54248102D01*
X68657205Y-54059744D01*
X68543937Y-53890226D01*
X68431772Y-53778061D01*
X73015000Y-53778061D01*
X73015000Y-53981939D01*
X73054774Y-54181898D01*
X73132795Y-54370256D01*
X73246063Y-54539774D01*
X73390226Y-54683937D01*
X73559744Y-54797205D01*
X73748102Y-54875226D01*
X73948061Y-54915000D01*
X74151939Y-54915000D01*
X74351898Y-54875226D01*
X74540256Y-54797205D01*
X74709774Y-54683937D01*
X74853937Y-54539774D01*
X74904741Y-54463740D01*
X89193000Y-54463740D01*
X89193000Y-54756260D01*
X89250068Y-55043158D01*
X89362010Y-55313411D01*
X89524525Y-55556632D01*
X89731368Y-55763475D01*
X89905760Y-55880000D01*
X89731368Y-55996525D01*
X89524525Y-56203368D01*
X89362010Y-56446589D01*
X89250068Y-56716842D01*
X89193000Y-57003740D01*
X89193000Y-57296260D01*
X89250068Y-57583158D01*
X89362010Y-57853411D01*
X89524525Y-58096632D01*
X89731368Y-58303475D01*
X89905760Y-58420000D01*
X89731368Y-58536525D01*
X89524525Y-58743368D01*
X89362010Y-58986589D01*
X89250068Y-59256842D01*
X89193000Y-59543740D01*
X89193000Y-59836260D01*
X89250068Y-60123158D01*
X89362010Y-60393411D01*
X89524525Y-60636632D01*
X89731368Y-60843475D01*
X89974589Y-61005990D01*
X90244842Y-61117932D01*
X90531740Y-61175000D01*
X90824260Y-61175000D01*
X91111158Y-61117932D01*
X91381411Y-61005990D01*
X91624632Y-60843475D01*
X91756487Y-60711620D01*
X91778498Y-60784180D01*
X91837463Y-60894494D01*
X91916815Y-60991185D01*
X92013506Y-61070537D01*
X92123820Y-61129502D01*
X92243518Y-61165812D01*
X92368000Y-61178072D01*
X94068000Y-61178072D01*
X94192482Y-61165812D01*
X94312180Y-61129502D01*
X94422494Y-61070537D01*
X94519185Y-60991185D01*
X94598537Y-60894494D01*
X94657502Y-60784180D01*
X94693812Y-60664482D01*
X94706072Y-60540000D01*
X94706072Y-58840000D01*
X94693812Y-58715518D01*
X94657502Y-58595820D01*
X94598537Y-58485506D01*
X94519185Y-58388815D01*
X94422494Y-58309463D01*
X94312180Y-58250498D01*
X94239620Y-58228487D01*
X94371475Y-58096632D01*
X94533990Y-57853411D01*
X94645932Y-57583158D01*
X94703000Y-57296260D01*
X94703000Y-57003740D01*
X94645932Y-56716842D01*
X94533990Y-56446589D01*
X94371475Y-56203368D01*
X94164632Y-55996525D01*
X93982466Y-55874805D01*
X94099355Y-55805178D01*
X94315588Y-55610269D01*
X94489641Y-55376920D01*
X94614825Y-55114099D01*
X94659476Y-54966890D01*
X94538155Y-54737000D01*
X93345000Y-54737000D01*
X93345000Y-54757000D01*
X93091000Y-54757000D01*
X93091000Y-54737000D01*
X93071000Y-54737000D01*
X93071000Y-54483000D01*
X93091000Y-54483000D01*
X93091000Y-53289186D01*
X93345000Y-53289186D01*
X93345000Y-54483000D01*
X94538155Y-54483000D01*
X94659476Y-54253110D01*
X94614825Y-54105901D01*
X94489641Y-53843080D01*
X94315588Y-53609731D01*
X94099355Y-53414822D01*
X93849252Y-53265843D01*
X93574891Y-53168519D01*
X93345000Y-53289186D01*
X93091000Y-53289186D01*
X92861109Y-53168519D01*
X92586748Y-53265843D01*
X92336645Y-53414822D01*
X92120412Y-53609731D01*
X91949100Y-53839406D01*
X91831475Y-53663368D01*
X91624632Y-53456525D01*
X91381411Y-53294010D01*
X91111158Y-53182068D01*
X90824260Y-53125000D01*
X90531740Y-53125000D01*
X90244842Y-53182068D01*
X89974589Y-53294010D01*
X89731368Y-53456525D01*
X89524525Y-53663368D01*
X89362010Y-53906589D01*
X89250068Y-54176842D01*
X89193000Y-54463740D01*
X74904741Y-54463740D01*
X74967205Y-54370256D01*
X75045226Y-54181898D01*
X75085000Y-53981939D01*
X75085000Y-53778061D01*
X75084391Y-53775000D01*
X75091939Y-53775000D01*
X75291898Y-53735226D01*
X75480256Y-53657205D01*
X75584966Y-53587240D01*
X75659744Y-53637205D01*
X75848102Y-53715226D01*
X76048061Y-53755000D01*
X76251939Y-53755000D01*
X76451898Y-53715226D01*
X76640256Y-53637205D01*
X76809774Y-53523937D01*
X76953937Y-53379774D01*
X77067205Y-53210256D01*
X77145226Y-53021898D01*
X77185000Y-52821939D01*
X77185000Y-52618061D01*
X77145226Y-52418102D01*
X77067205Y-52229744D01*
X76953937Y-52060226D01*
X76809774Y-51916063D01*
X76640256Y-51802795D01*
X76451898Y-51724774D01*
X76251939Y-51685000D01*
X76048061Y-51685000D01*
X75848102Y-51724774D01*
X75659744Y-51802795D01*
X75555034Y-51872760D01*
X75480256Y-51822795D01*
X75291898Y-51744774D01*
X75091939Y-51705000D01*
X74888061Y-51705000D01*
X74688102Y-51744774D01*
X74499744Y-51822795D01*
X74330226Y-51936063D01*
X74186063Y-52080226D01*
X74072795Y-52249744D01*
X73994774Y-52438102D01*
X73955000Y-52638061D01*
X73955000Y-52841939D01*
X73955609Y-52845000D01*
X73948061Y-52845000D01*
X73748102Y-52884774D01*
X73559744Y-52962795D01*
X73390226Y-53076063D01*
X73246063Y-53220226D01*
X73132795Y-53389744D01*
X73054774Y-53578102D01*
X73015000Y-53778061D01*
X68431772Y-53778061D01*
X68399774Y-53746063D01*
X68230256Y-53632795D01*
X68041898Y-53554774D01*
X67841939Y-53515000D01*
X67638061Y-53515000D01*
X67438102Y-53554774D01*
X67249744Y-53632795D01*
X67080226Y-53746063D01*
X66936063Y-53890226D01*
X66822795Y-54059744D01*
X66744774Y-54248102D01*
X66705000Y-54448061D01*
X66705000Y-54651939D01*
X66744774Y-54851898D01*
X66822795Y-55040256D01*
X66879442Y-55125034D01*
X66802795Y-55239744D01*
X66724774Y-55428102D01*
X66685000Y-55628061D01*
X50660000Y-55628061D01*
X50660000Y-55029392D01*
X50731173Y-54231917D01*
X50934656Y-53488109D01*
X51095925Y-53150000D01*
X56011928Y-53150000D01*
X56011928Y-54850000D01*
X56024188Y-54974482D01*
X56060498Y-55094180D01*
X56119463Y-55204494D01*
X56198815Y-55301185D01*
X56295506Y-55380537D01*
X56405820Y-55439502D01*
X56525518Y-55475812D01*
X56650000Y-55488072D01*
X58350000Y-55488072D01*
X58474482Y-55475812D01*
X58594180Y-55439502D01*
X58704494Y-55380537D01*
X58801185Y-55301185D01*
X58880537Y-55204494D01*
X58939502Y-55094180D01*
X58963966Y-55013534D01*
X59039731Y-55097588D01*
X59273080Y-55271641D01*
X59535901Y-55396825D01*
X59683110Y-55441476D01*
X59913000Y-55320155D01*
X59913000Y-54127000D01*
X60167000Y-54127000D01*
X60167000Y-55320155D01*
X60396890Y-55441476D01*
X60544099Y-55396825D01*
X60806920Y-55271641D01*
X61040269Y-55097588D01*
X61235178Y-54881355D01*
X61384157Y-54631252D01*
X61481481Y-54356891D01*
X61360814Y-54127000D01*
X60167000Y-54127000D01*
X59913000Y-54127000D01*
X59893000Y-54127000D01*
X59893000Y-53873000D01*
X59913000Y-53873000D01*
X59913000Y-52679845D01*
X60167000Y-52679845D01*
X60167000Y-53873000D01*
X61360814Y-53873000D01*
X61481481Y-53643109D01*
X61384157Y-53368748D01*
X61235178Y-53118645D01*
X61040269Y-52902412D01*
X60806920Y-52728359D01*
X60544099Y-52603175D01*
X60396890Y-52558524D01*
X60167000Y-52679845D01*
X59913000Y-52679845D01*
X59683110Y-52558524D01*
X59535901Y-52603175D01*
X59273080Y-52728359D01*
X59039731Y-52902412D01*
X58963966Y-52986466D01*
X58939502Y-52905820D01*
X58880537Y-52795506D01*
X58801185Y-52698815D01*
X58704494Y-52619463D01*
X58594180Y-52560498D01*
X58474482Y-52524188D01*
X58350000Y-52511928D01*
X56650000Y-52511928D01*
X56525518Y-52524188D01*
X56405820Y-52560498D01*
X56295506Y-52619463D01*
X56198815Y-52698815D01*
X56119463Y-52795506D01*
X56060498Y-52905820D01*
X56024188Y-53025518D01*
X56011928Y-53150000D01*
X51095925Y-53150000D01*
X51266638Y-52792095D01*
X51716626Y-52165870D01*
X52270403Y-51629223D01*
X52910451Y-51199129D01*
X53616553Y-50889171D01*
X54371457Y-50707935D01*
X55024207Y-50660000D01*
X94970608Y-50660000D01*
X95768083Y-50731173D01*
G37*
X95768083Y-50731173D02*
X96511891Y-50934656D01*
X97207905Y-51266638D01*
X97834130Y-51716626D01*
X98370777Y-52270403D01*
X98800871Y-52910451D01*
X99110829Y-53616553D01*
X99292065Y-54371457D01*
X99340000Y-55024207D01*
X99340001Y-114970597D01*
X99268827Y-115768083D01*
X99065344Y-116511890D01*
X98733363Y-117207904D01*
X98283374Y-117834130D01*
X97729597Y-118370777D01*
X97089549Y-118800871D01*
X96383447Y-119110829D01*
X95628543Y-119292065D01*
X94975793Y-119340000D01*
X55029392Y-119340000D01*
X54231917Y-119268827D01*
X53488110Y-119065344D01*
X52792096Y-118733363D01*
X52165870Y-118283374D01*
X51629223Y-117729597D01*
X51199129Y-117089549D01*
X50889171Y-116383447D01*
X50707935Y-115628543D01*
X50660000Y-114975793D01*
X50660000Y-113380000D01*
X63701928Y-113380000D01*
X63701928Y-115080000D01*
X63714188Y-115204482D01*
X63750498Y-115324180D01*
X63809463Y-115434494D01*
X63888815Y-115531185D01*
X63985506Y-115610537D01*
X64095820Y-115669502D01*
X64215518Y-115705812D01*
X64340000Y-115718072D01*
X66040000Y-115718072D01*
X66164482Y-115705812D01*
X66284180Y-115669502D01*
X66394494Y-115610537D01*
X66491185Y-115531185D01*
X66530819Y-115482890D01*
X94696524Y-115482890D01*
X94741175Y-115630099D01*
X94866359Y-115892920D01*
X95040412Y-116126269D01*
X95256645Y-116321178D01*
X95506748Y-116470157D01*
X95781109Y-116567481D01*
X96011000Y-116446814D01*
X96011000Y-115253000D01*
X96265000Y-115253000D01*
X96265000Y-116446814D01*
X96494891Y-116567481D01*
X96769252Y-116470157D01*
X97019355Y-116321178D01*
X97235588Y-116126269D01*
X97409641Y-115892920D01*
X97534825Y-115630099D01*
X97579476Y-115482890D01*
X97458155Y-115253000D01*
X96265000Y-115253000D01*
X96011000Y-115253000D01*
X94817845Y-115253000D01*
X94696524Y-115482890D01*
X66530819Y-115482890D01*
X66570537Y-115434494D01*
X66629502Y-115324180D01*
X66665812Y-115204482D01*
X66678072Y-115080000D01*
X66678072Y-113380000D01*
X66665812Y-113255518D01*
X66629502Y-113135820D01*
X66570537Y-113025506D01*
X66491185Y-112928815D01*
X66394494Y-112849463D01*
X66284180Y-112790498D01*
X66164482Y-112754188D01*
X66040000Y-112741928D01*
X64340000Y-112741928D01*
X64215518Y-112754188D01*
X64095820Y-112790498D01*
X63985506Y-112849463D01*
X63888815Y-112928815D01*
X63809463Y-113025506D01*
X63750498Y-113135820D01*
X63714188Y-113255518D01*
X63701928Y-113380000D01*
X50660000Y-113380000D01*
X50660000Y-109258061D01*
X78935000Y-109258061D01*
X78935000Y-109461939D01*
X78974774Y-109661898D01*
X79052795Y-109850256D01*
X79166063Y-110019774D01*
X79310226Y-110163937D01*
X79479744Y-110277205D01*
X79668102Y-110355226D01*
X79868061Y-110395000D01*
X80071939Y-110395000D01*
X80271898Y-110355226D01*
X80397929Y-110303022D01*
X80548102Y-110365226D01*
X80748061Y-110405000D01*
X80951939Y-110405000D01*
X81151898Y-110365226D01*
X81340256Y-110287205D01*
X81378164Y-110261875D01*
X81440226Y-110323937D01*
X81609744Y-110437205D01*
X81798102Y-110515226D01*
X81998061Y-110555000D01*
X82201939Y-110555000D01*
X82401898Y-110515226D01*
X82590256Y-110437205D01*
X82759774Y-110323937D01*
X82903937Y-110179774D01*
X83017205Y-110010256D01*
X83095226Y-109821898D01*
X83135000Y-109621939D01*
X83135000Y-109418061D01*
X83095226Y-109218102D01*
X83086071Y-109196000D01*
X94649928Y-109196000D01*
X94649928Y-110896000D01*
X94662188Y-111020482D01*
X94698498Y-111140180D01*
X94757463Y-111250494D01*
X94836815Y-111347185D01*
X94933506Y-111426537D01*
X95043820Y-111485502D01*
X95116380Y-111507513D01*
X94984525Y-111639368D01*
X94822010Y-111882589D01*
X94710068Y-112152842D01*
X94653000Y-112439740D01*
X94653000Y-112732260D01*
X94710068Y-113019158D01*
X94822010Y-113289411D01*
X94984525Y-113532632D01*
X95191368Y-113739475D01*
X95373534Y-113861195D01*
X95256645Y-113930822D01*
X95040412Y-114125731D01*
X94866359Y-114359080D01*
X94741175Y-114621901D01*
X94696524Y-114769110D01*
X94817845Y-114999000D01*
X96011000Y-114999000D01*
X96011000Y-114979000D01*
X96265000Y-114979000D01*
X96265000Y-114999000D01*
X97458155Y-114999000D01*
X97579476Y-114769110D01*
X97534825Y-114621901D01*
X97409641Y-114359080D01*
X97235588Y-114125731D01*
X97019355Y-113930822D01*
X96902466Y-113861195D01*
X97084632Y-113739475D01*
X97291475Y-113532632D01*
X97453990Y-113289411D01*
X97565932Y-113019158D01*
X97623000Y-112732260D01*
X97623000Y-112439740D01*
X97565932Y-112152842D01*
X97453990Y-111882589D01*
X97291475Y-111639368D01*
X97159620Y-111507513D01*
X97232180Y-111485502D01*
X97342494Y-111426537D01*
X97439185Y-111347185D01*
X97518537Y-111250494D01*
X97577502Y-111140180D01*
X97613812Y-111020482D01*
X97626072Y-110896000D01*
X97626072Y-109196000D01*
X97613812Y-109071518D01*
X97577502Y-108951820D01*
X97518537Y-108841506D01*
X97439185Y-108744815D01*
X97342494Y-108665463D01*
X97232180Y-108606498D01*
X97112482Y-108570188D01*
X96988000Y-108557928D01*
X95288000Y-108557928D01*
X95163518Y-108570188D01*
X95043820Y-108606498D01*
X94933506Y-108665463D01*
X94836815Y-108744815D01*
X94757463Y-108841506D01*
X94698498Y-108951820D01*
X94662188Y-109071518D01*
X94649928Y-109196000D01*
X83086071Y-109196000D01*
X83017205Y-109029744D01*
X82903937Y-108860226D01*
X82759774Y-108716063D01*
X82590256Y-108602795D01*
X82401898Y-108524774D01*
X82201939Y-108485000D01*
X81998061Y-108485000D01*
X81798102Y-108524774D01*
X81609744Y-108602795D01*
X81571836Y-108628125D01*
X81509774Y-108566063D01*
X81340256Y-108452795D01*
X81151898Y-108374774D01*
X80951939Y-108335000D01*
X80748061Y-108335000D01*
X80548102Y-108374774D01*
X80422071Y-108426978D01*
X80271898Y-108364774D01*
X80071939Y-108325000D01*
X79868061Y-108325000D01*
X79668102Y-108364774D01*
X79479744Y-108442795D01*
X79310226Y-108556063D01*
X79166063Y-108700226D01*
X79052795Y-108869744D01*
X78974774Y-109058102D01*
X78935000Y-109258061D01*
X50660000Y-109258061D01*
X50660000Y-107708061D01*
X63755000Y-107708061D01*
X63755000Y-107911939D01*
X63794774Y-108111898D01*
X63872795Y-108300256D01*
X63986063Y-108469774D01*
X64130226Y-108613937D01*
X64299744Y-108727205D01*
X64488102Y-108805226D01*
X64688061Y-108845000D01*
X64891939Y-108845000D01*
X65091898Y-108805226D01*
X65280256Y-108727205D01*
X65449774Y-108613937D01*
X65593937Y-108469774D01*
X65707205Y-108300256D01*
X65785226Y-108111898D01*
X65825000Y-107911939D01*
X65825000Y-107708061D01*
X65785226Y-107508102D01*
X65707205Y-107319744D01*
X65593937Y-107150226D01*
X65449774Y-107006063D01*
X65280256Y-106892795D01*
X65091898Y-106814774D01*
X64891939Y-106775000D01*
X64688061Y-106775000D01*
X64488102Y-106814774D01*
X64299744Y-106892795D01*
X64130226Y-107006063D01*
X63986063Y-107150226D01*
X63872795Y-107319744D01*
X63794774Y-107508102D01*
X63755000Y-107708061D01*
X50660000Y-107708061D01*
X50660000Y-104170000D01*
X65161928Y-104170000D01*
X65161928Y-105870000D01*
X65174188Y-105994482D01*
X65210498Y-106114180D01*
X65269463Y-106224494D01*
X65348815Y-106321185D01*
X65445506Y-106400537D01*
X65555820Y-106459502D01*
X65675518Y-106495812D01*
X65800000Y-106508072D01*
X67500000Y-106508072D01*
X67624482Y-106495812D01*
X67744180Y-106459502D01*
X67854494Y-106400537D01*
X67951185Y-106321185D01*
X68030537Y-106224494D01*
X68089502Y-106114180D01*
X68125812Y-105994482D01*
X68138072Y-105870000D01*
X68138072Y-104170000D01*
X68125812Y-104045518D01*
X68089502Y-103925820D01*
X68030537Y-103815506D01*
X67951185Y-103718815D01*
X67854494Y-103639463D01*
X67744180Y-103580498D01*
X67671620Y-103558487D01*
X67803475Y-103426632D01*
X67965990Y-103183411D01*
X68077932Y-102913158D01*
X68135000Y-102626260D01*
X68135000Y-102333740D01*
X68077932Y-102046842D01*
X67965990Y-101776589D01*
X67803475Y-101533368D01*
X67596632Y-101326525D01*
X67399627Y-101194890D01*
X94824524Y-101194890D01*
X94869175Y-101342099D01*
X94994359Y-101604920D01*
X95168412Y-101838269D01*
X95384645Y-102033178D01*
X95634748Y-102182157D01*
X95909109Y-102279481D01*
X96139000Y-102158814D01*
X96139000Y-100965000D01*
X96393000Y-100965000D01*
X96393000Y-102158814D01*
X96622891Y-102279481D01*
X96897252Y-102182157D01*
X97147355Y-102033178D01*
X97363588Y-101838269D01*
X97537641Y-101604920D01*
X97662825Y-101342099D01*
X97707476Y-101194890D01*
X97586155Y-100965000D01*
X96393000Y-100965000D01*
X96139000Y-100965000D01*
X94945845Y-100965000D01*
X94824524Y-101194890D01*
X67399627Y-101194890D01*
X67353411Y-101164010D01*
X67083158Y-101052068D01*
X66796260Y-100995000D01*
X66503740Y-100995000D01*
X66216842Y-101052068D01*
X65946589Y-101164010D01*
X65703368Y-101326525D01*
X65496525Y-101533368D01*
X65334010Y-101776589D01*
X65222068Y-102046842D01*
X65165000Y-102333740D01*
X65165000Y-102626260D01*
X65222068Y-102913158D01*
X65334010Y-103183411D01*
X65496525Y-103426632D01*
X65628380Y-103558487D01*
X65555820Y-103580498D01*
X65445506Y-103639463D01*
X65348815Y-103718815D01*
X65269463Y-103815506D01*
X65210498Y-103925820D01*
X65174188Y-104045518D01*
X65161928Y-104170000D01*
X50660000Y-104170000D01*
X50660000Y-97398061D01*
X80245000Y-97398061D01*
X80245000Y-97601939D01*
X80284774Y-97801898D01*
X80362795Y-97990256D01*
X80476063Y-98159774D01*
X80620226Y-98303937D01*
X80789744Y-98417205D01*
X80978102Y-98495226D01*
X81178061Y-98535000D01*
X81381939Y-98535000D01*
X81581898Y-98495226D01*
X81693787Y-98448880D01*
X81878102Y-98525226D01*
X82078061Y-98565000D01*
X82281939Y-98565000D01*
X82481898Y-98525226D01*
X82670256Y-98447205D01*
X82684186Y-98437897D01*
X82690226Y-98443937D01*
X82859744Y-98557205D01*
X83048102Y-98635226D01*
X83248061Y-98675000D01*
X83451939Y-98675000D01*
X83651898Y-98635226D01*
X83840256Y-98557205D01*
X84009774Y-98443937D01*
X84153937Y-98299774D01*
X84267205Y-98130256D01*
X84345226Y-97941898D01*
X84385000Y-97741939D01*
X84385000Y-97538061D01*
X84345226Y-97338102D01*
X84267205Y-97149744D01*
X84153937Y-96980226D01*
X84009774Y-96836063D01*
X83840256Y-96722795D01*
X83651898Y-96644774D01*
X83451939Y-96605000D01*
X83248061Y-96605000D01*
X83048102Y-96644774D01*
X82859744Y-96722795D01*
X82845814Y-96732103D01*
X82839774Y-96726063D01*
X82670256Y-96612795D01*
X82481898Y-96534774D01*
X82281939Y-96495000D01*
X82078061Y-96495000D01*
X81878102Y-96534774D01*
X81766213Y-96581120D01*
X81581898Y-96504774D01*
X81381939Y-96465000D01*
X81178061Y-96465000D01*
X80978102Y-96504774D01*
X80789744Y-96582795D01*
X80620226Y-96696063D01*
X80476063Y-96840226D01*
X80362795Y-97009744D01*
X80284774Y-97198102D01*
X80245000Y-97398061D01*
X50660000Y-97398061D01*
X50660000Y-94908000D01*
X94777928Y-94908000D01*
X94777928Y-96608000D01*
X94790188Y-96732482D01*
X94826498Y-96852180D01*
X94885463Y-96962494D01*
X94964815Y-97059185D01*
X95061506Y-97138537D01*
X95171820Y-97197502D01*
X95244380Y-97219513D01*
X95112525Y-97351368D01*
X94950010Y-97594589D01*
X94838068Y-97864842D01*
X94781000Y-98151740D01*
X94781000Y-98444260D01*
X94838068Y-98731158D01*
X94950010Y-99001411D01*
X95112525Y-99244632D01*
X95319368Y-99451475D01*
X95501534Y-99573195D01*
X95384645Y-99642822D01*
X95168412Y-99837731D01*
X94994359Y-100071080D01*
X94869175Y-100333901D01*
X94824524Y-100481110D01*
X94945845Y-100711000D01*
X96139000Y-100711000D01*
X96139000Y-100691000D01*
X96393000Y-100691000D01*
X96393000Y-100711000D01*
X97586155Y-100711000D01*
X97707476Y-100481110D01*
X97662825Y-100333901D01*
X97537641Y-100071080D01*
X97363588Y-99837731D01*
X97147355Y-99642822D01*
X97030466Y-99573195D01*
X97212632Y-99451475D01*
X97419475Y-99244632D01*
X97581990Y-99001411D01*
X97693932Y-98731158D01*
X97751000Y-98444260D01*
X97751000Y-98151740D01*
X97693932Y-97864842D01*
X97581990Y-97594589D01*
X97419475Y-97351368D01*
X97287620Y-97219513D01*
X97360180Y-97197502D01*
X97470494Y-97138537D01*
X97567185Y-97059185D01*
X97646537Y-96962494D01*
X97705502Y-96852180D01*
X97741812Y-96732482D01*
X97754072Y-96608000D01*
X97754072Y-94908000D01*
X97741812Y-94783518D01*
X97705502Y-94663820D01*
X97646537Y-94553506D01*
X97567185Y-94456815D01*
X97470494Y-94377463D01*
X97360180Y-94318498D01*
X97240482Y-94282188D01*
X97116000Y-94269928D01*
X95416000Y-94269928D01*
X95291518Y-94282188D01*
X95171820Y-94318498D01*
X95061506Y-94377463D01*
X94964815Y-94456815D01*
X94885463Y-94553506D01*
X94826498Y-94663820D01*
X94790188Y-94783518D01*
X94777928Y-94908000D01*
X50660000Y-94908000D01*
X50660000Y-90108061D01*
X53755000Y-90108061D01*
X53755000Y-90311939D01*
X53794774Y-90511898D01*
X53872795Y-90700256D01*
X53986063Y-90869774D01*
X54130226Y-91013937D01*
X54299744Y-91127205D01*
X54488102Y-91205226D01*
X54688061Y-91245000D01*
X54891939Y-91245000D01*
X55091898Y-91205226D01*
X55280256Y-91127205D01*
X55449774Y-91013937D01*
X55593937Y-90869774D01*
X55707205Y-90700256D01*
X55785226Y-90511898D01*
X55825000Y-90311939D01*
X55825000Y-90138061D01*
X55835000Y-90138061D01*
X55835000Y-90341939D01*
X55874774Y-90541898D01*
X55952795Y-90730256D01*
X56066063Y-90899774D01*
X56210226Y-91043937D01*
X56379744Y-91157205D01*
X56568102Y-91235226D01*
X56768061Y-91275000D01*
X56971939Y-91275000D01*
X57171898Y-91235226D01*
X57360256Y-91157205D01*
X57529774Y-91043937D01*
X57673937Y-90899774D01*
X57787205Y-90730256D01*
X57865226Y-90541898D01*
X57877016Y-90482623D01*
X57894774Y-90571898D01*
X57972795Y-90760256D01*
X58086063Y-90929774D01*
X58230226Y-91073937D01*
X58399744Y-91187205D01*
X58588102Y-91265226D01*
X58788061Y-91305000D01*
X58991939Y-91305000D01*
X59191898Y-91265226D01*
X59380256Y-91187205D01*
X59549774Y-91073937D01*
X59693937Y-90929774D01*
X59807205Y-90760256D01*
X59885226Y-90571898D01*
X59925000Y-90371939D01*
X59925000Y-90188061D01*
X59965000Y-90188061D01*
X59965000Y-90391939D01*
X60004774Y-90591898D01*
X60082795Y-90780256D01*
X60196063Y-90949774D01*
X60340226Y-91093937D01*
X60509744Y-91207205D01*
X60698102Y-91285226D01*
X60898061Y-91325000D01*
X61101939Y-91325000D01*
X61301898Y-91285226D01*
X61490256Y-91207205D01*
X61659774Y-91093937D01*
X61803937Y-90949774D01*
X61917205Y-90780256D01*
X61995226Y-90591898D01*
X62035000Y-90391939D01*
X62035000Y-90188061D01*
X61995226Y-89988102D01*
X61917205Y-89799744D01*
X61803937Y-89630226D01*
X61659774Y-89486063D01*
X61490256Y-89372795D01*
X61301898Y-89294774D01*
X61101939Y-89255000D01*
X60898061Y-89255000D01*
X60698102Y-89294774D01*
X60509744Y-89372795D01*
X60340226Y-89486063D01*
X60196063Y-89630226D01*
X60082795Y-89799744D01*
X60004774Y-89988102D01*
X59965000Y-90188061D01*
X59925000Y-90188061D01*
X59925000Y-90168061D01*
X59885226Y-89968102D01*
X59807205Y-89779744D01*
X59693937Y-89610226D01*
X59549774Y-89466063D01*
X59380256Y-89352795D01*
X59191898Y-89274774D01*
X58991939Y-89235000D01*
X58788061Y-89235000D01*
X58588102Y-89274774D01*
X58399744Y-89352795D01*
X58230226Y-89466063D01*
X58086063Y-89610226D01*
X57972795Y-89779744D01*
X57894774Y-89968102D01*
X57882984Y-90027377D01*
X57865226Y-89938102D01*
X57787205Y-89749744D01*
X57673937Y-89580226D01*
X57529774Y-89436063D01*
X57360256Y-89322795D01*
X57171898Y-89244774D01*
X56971939Y-89205000D01*
X56768061Y-89205000D01*
X56568102Y-89244774D01*
X56379744Y-89322795D01*
X56210226Y-89436063D01*
X56066063Y-89580226D01*
X55952795Y-89749744D01*
X55874774Y-89938102D01*
X55835000Y-90138061D01*
X55825000Y-90138061D01*
X55825000Y-90108061D01*
X55785226Y-89908102D01*
X55707205Y-89719744D01*
X55593937Y-89550226D01*
X55449774Y-89406063D01*
X55280256Y-89292795D01*
X55091898Y-89214774D01*
X54891939Y-89175000D01*
X54688061Y-89175000D01*
X54488102Y-89214774D01*
X54299744Y-89292795D01*
X54130226Y-89406063D01*
X53986063Y-89550226D01*
X53872795Y-89719744D01*
X53794774Y-89908102D01*
X53755000Y-90108061D01*
X50660000Y-90108061D01*
X50660000Y-80900000D01*
X54736928Y-80900000D01*
X54736928Y-82600000D01*
X54749188Y-82724482D01*
X54785498Y-82844180D01*
X54844463Y-82954494D01*
X54923815Y-83051185D01*
X55020506Y-83130537D01*
X55130820Y-83189502D01*
X55203380Y-83211513D01*
X55071525Y-83343368D01*
X54909010Y-83586589D01*
X54797068Y-83856842D01*
X54740000Y-84143740D01*
X54740000Y-84436260D01*
X54797068Y-84723158D01*
X54909010Y-84993411D01*
X55071525Y-85236632D01*
X55278368Y-85443475D01*
X55521589Y-85605990D01*
X55791842Y-85717932D01*
X56078740Y-85775000D01*
X56371260Y-85775000D01*
X56658158Y-85717932D01*
X56928411Y-85605990D01*
X57171632Y-85443475D01*
X57378475Y-85236632D01*
X57540990Y-84993411D01*
X57652932Y-84723158D01*
X57710000Y-84436260D01*
X57710000Y-84143740D01*
X57652932Y-83856842D01*
X57540990Y-83586589D01*
X57449725Y-83450000D01*
X59086928Y-83450000D01*
X59086928Y-85150000D01*
X59099188Y-85274482D01*
X59135498Y-85394180D01*
X59194463Y-85504494D01*
X59273815Y-85601185D01*
X59370506Y-85680537D01*
X59480820Y-85739502D01*
X59600518Y-85775812D01*
X59725000Y-85788072D01*
X61425000Y-85788072D01*
X61549482Y-85775812D01*
X61669180Y-85739502D01*
X61779494Y-85680537D01*
X61876185Y-85601185D01*
X61955537Y-85504494D01*
X62014502Y-85394180D01*
X62050812Y-85274482D01*
X62063072Y-85150000D01*
X62063072Y-83990000D01*
X66461928Y-83990000D01*
X66461928Y-85690000D01*
X66474188Y-85814482D01*
X66510498Y-85934180D01*
X66569463Y-86044494D01*
X66648815Y-86141185D01*
X66745506Y-86220537D01*
X66855820Y-86279502D01*
X66928380Y-86301513D01*
X66796525Y-86433368D01*
X66634010Y-86676589D01*
X66522068Y-86946842D01*
X66465000Y-87233740D01*
X66465000Y-87526260D01*
X66522068Y-87813158D01*
X66634010Y-88083411D01*
X66796525Y-88326632D01*
X67003368Y-88533475D01*
X67246589Y-88695990D01*
X67516842Y-88807932D01*
X67803740Y-88865000D01*
X68096260Y-88865000D01*
X68383158Y-88807932D01*
X68653411Y-88695990D01*
X68896632Y-88533475D01*
X69103475Y-88326632D01*
X69220000Y-88152240D01*
X69336525Y-88326632D01*
X69543368Y-88533475D01*
X69786589Y-88695990D01*
X70056842Y-88807932D01*
X70343740Y-88865000D01*
X70636260Y-88865000D01*
X70923158Y-88807932D01*
X71193411Y-88695990D01*
X71436632Y-88533475D01*
X71643475Y-88326632D01*
X71805990Y-88083411D01*
X71917932Y-87813158D01*
X71975000Y-87526260D01*
X71975000Y-87233740D01*
X71917932Y-86946842D01*
X71805990Y-86676589D01*
X71643475Y-86433368D01*
X71436632Y-86226525D01*
X71262240Y-86110000D01*
X71436632Y-85993475D01*
X71643475Y-85786632D01*
X71805990Y-85543411D01*
X71917932Y-85273158D01*
X71975000Y-84986260D01*
X71975000Y-84693740D01*
X71917932Y-84406842D01*
X71805990Y-84136589D01*
X71728088Y-84020000D01*
X73121928Y-84020000D01*
X73121928Y-85720000D01*
X73134188Y-85844482D01*
X73170498Y-85964180D01*
X73229463Y-86074494D01*
X73308815Y-86171185D01*
X73405506Y-86250537D01*
X73515820Y-86309502D01*
X73588380Y-86331513D01*
X73456525Y-86463368D01*
X73294010Y-86706589D01*
X73182068Y-86976842D01*
X73125000Y-87263740D01*
X73125000Y-87556260D01*
X73182068Y-87843158D01*
X73294010Y-88113411D01*
X73456525Y-88356632D01*
X73663368Y-88563475D01*
X73906589Y-88725990D01*
X74176842Y-88837932D01*
X74463740Y-88895000D01*
X74756260Y-88895000D01*
X75043158Y-88837932D01*
X75313411Y-88725990D01*
X75556632Y-88563475D01*
X75763475Y-88356632D01*
X75880000Y-88182240D01*
X75996525Y-88356632D01*
X76203368Y-88563475D01*
X76446589Y-88725990D01*
X76716842Y-88837932D01*
X77003740Y-88895000D01*
X77296260Y-88895000D01*
X77583158Y-88837932D01*
X77853411Y-88725990D01*
X78096632Y-88563475D01*
X78303475Y-88356632D01*
X78465990Y-88113411D01*
X78577932Y-87843158D01*
X78635000Y-87556260D01*
X78635000Y-87263740D01*
X78577932Y-86976842D01*
X78465990Y-86706589D01*
X78303475Y-86463368D01*
X78096632Y-86256525D01*
X77922240Y-86140000D01*
X78096632Y-86023475D01*
X78303475Y-85816632D01*
X78465990Y-85573411D01*
X78577932Y-85303158D01*
X78635000Y-85016260D01*
X78635000Y-84723740D01*
X78577932Y-84436842D01*
X78465990Y-84166589D01*
X78303475Y-83923368D01*
X78096632Y-83716525D01*
X77853411Y-83554010D01*
X77583158Y-83442068D01*
X77296260Y-83385000D01*
X77003740Y-83385000D01*
X76716842Y-83442068D01*
X76446589Y-83554010D01*
X76203368Y-83716525D01*
X76071513Y-83848380D01*
X76049502Y-83775820D01*
X75990537Y-83665506D01*
X75911185Y-83568815D01*
X75814494Y-83489463D01*
X75704180Y-83430498D01*
X75584482Y-83394188D01*
X75460000Y-83381928D01*
X73760000Y-83381928D01*
X73635518Y-83394188D01*
X73515820Y-83430498D01*
X73405506Y-83489463D01*
X73308815Y-83568815D01*
X73229463Y-83665506D01*
X73170498Y-83775820D01*
X73134188Y-83895518D01*
X73121928Y-84020000D01*
X71728088Y-84020000D01*
X71643475Y-83893368D01*
X71436632Y-83686525D01*
X71193411Y-83524010D01*
X70923158Y-83412068D01*
X70636260Y-83355000D01*
X70343740Y-83355000D01*
X70056842Y-83412068D01*
X69786589Y-83524010D01*
X69543368Y-83686525D01*
X69411513Y-83818380D01*
X69389502Y-83745820D01*
X69330537Y-83635506D01*
X69251185Y-83538815D01*
X69154494Y-83459463D01*
X69044180Y-83400498D01*
X68924482Y-83364188D01*
X68800000Y-83351928D01*
X67100000Y-83351928D01*
X66975518Y-83364188D01*
X66855820Y-83400498D01*
X66745506Y-83459463D01*
X66648815Y-83538815D01*
X66569463Y-83635506D01*
X66510498Y-83745820D01*
X66474188Y-83865518D01*
X66461928Y-83990000D01*
X62063072Y-83990000D01*
X62063072Y-83450000D01*
X62050812Y-83325518D01*
X62014502Y-83205820D01*
X61955537Y-83095506D01*
X61876185Y-82998815D01*
X61779494Y-82919463D01*
X61669180Y-82860498D01*
X61596620Y-82838487D01*
X61728475Y-82706632D01*
X61890990Y-82463411D01*
X62002932Y-82193158D01*
X62017484Y-82120000D01*
X85311928Y-82120000D01*
X85311928Y-83820000D01*
X85324188Y-83944482D01*
X85360498Y-84064180D01*
X85419463Y-84174494D01*
X85498815Y-84271185D01*
X85595506Y-84350537D01*
X85705820Y-84409502D01*
X85778380Y-84431513D01*
X85646525Y-84563368D01*
X85484010Y-84806589D01*
X85372068Y-85076842D01*
X85315000Y-85363740D01*
X85315000Y-85656260D01*
X85372068Y-85943158D01*
X85484010Y-86213411D01*
X85646525Y-86456632D01*
X85853368Y-86663475D01*
X86096589Y-86825990D01*
X86366842Y-86937932D01*
X86653740Y-86995000D01*
X86946260Y-86995000D01*
X87233158Y-86937932D01*
X87503411Y-86825990D01*
X87746632Y-86663475D01*
X87953475Y-86456632D01*
X88070000Y-86282240D01*
X88186525Y-86456632D01*
X88393368Y-86663475D01*
X88636589Y-86825990D01*
X88906842Y-86937932D01*
X89193740Y-86995000D01*
X89486260Y-86995000D01*
X89773158Y-86937932D01*
X90043411Y-86825990D01*
X90286632Y-86663475D01*
X90493475Y-86456632D01*
X90655990Y-86213411D01*
X90767932Y-85943158D01*
X90825000Y-85656260D01*
X90825000Y-85363740D01*
X90767932Y-85076842D01*
X90655990Y-84806589D01*
X90493475Y-84563368D01*
X90286632Y-84356525D01*
X90112240Y-84240000D01*
X90286632Y-84123475D01*
X90493475Y-83916632D01*
X90655990Y-83673411D01*
X90767932Y-83403158D01*
X90825000Y-83116260D01*
X90825000Y-82823740D01*
X90819033Y-82793740D01*
X93305000Y-82793740D01*
X93305000Y-83086260D01*
X93362068Y-83373158D01*
X93474010Y-83643411D01*
X93636525Y-83886632D01*
X93843368Y-84093475D01*
X94086589Y-84255990D01*
X94356842Y-84367932D01*
X94643740Y-84425000D01*
X94936260Y-84425000D01*
X95223158Y-84367932D01*
X95493411Y-84255990D01*
X95736632Y-84093475D01*
X95868487Y-83961620D01*
X95890498Y-84034180D01*
X95949463Y-84144494D01*
X96028815Y-84241185D01*
X96125506Y-84320537D01*
X96235820Y-84379502D01*
X96355518Y-84415812D01*
X96480000Y-84428072D01*
X98180000Y-84428072D01*
X98304482Y-84415812D01*
X98424180Y-84379502D01*
X98534494Y-84320537D01*
X98631185Y-84241185D01*
X98710537Y-84144494D01*
X98769502Y-84034180D01*
X98805812Y-83914482D01*
X98818072Y-83790000D01*
X98818072Y-82090000D01*
X98805812Y-81965518D01*
X98769502Y-81845820D01*
X98710537Y-81735506D01*
X98631185Y-81638815D01*
X98534494Y-81559463D01*
X98424180Y-81500498D01*
X98304482Y-81464188D01*
X98180000Y-81451928D01*
X96480000Y-81451928D01*
X96355518Y-81464188D01*
X96235820Y-81500498D01*
X96125506Y-81559463D01*
X96028815Y-81638815D01*
X95949463Y-81735506D01*
X95890498Y-81845820D01*
X95868487Y-81918380D01*
X95736632Y-81786525D01*
X95493411Y-81624010D01*
X95223158Y-81512068D01*
X94936260Y-81455000D01*
X94643740Y-81455000D01*
X94356842Y-81512068D01*
X94086589Y-81624010D01*
X93843368Y-81786525D01*
X93636525Y-81993368D01*
X93474010Y-82236589D01*
X93362068Y-82506842D01*
X93305000Y-82793740D01*
X90819033Y-82793740D01*
X90767932Y-82536842D01*
X90655990Y-82266589D01*
X90493475Y-82023368D01*
X90286632Y-81816525D01*
X90043411Y-81654010D01*
X89773158Y-81542068D01*
X89486260Y-81485000D01*
X89193740Y-81485000D01*
X88906842Y-81542068D01*
X88636589Y-81654010D01*
X88393368Y-81816525D01*
X88261513Y-81948380D01*
X88239502Y-81875820D01*
X88180537Y-81765506D01*
X88101185Y-81668815D01*
X88004494Y-81589463D01*
X87894180Y-81530498D01*
X87774482Y-81494188D01*
X87650000Y-81481928D01*
X85950000Y-81481928D01*
X85825518Y-81494188D01*
X85705820Y-81530498D01*
X85595506Y-81589463D01*
X85498815Y-81668815D01*
X85419463Y-81765506D01*
X85360498Y-81875820D01*
X85324188Y-81995518D01*
X85311928Y-82120000D01*
X62017484Y-82120000D01*
X62060000Y-81906260D01*
X62060000Y-81613740D01*
X62002932Y-81326842D01*
X61890990Y-81056589D01*
X61728475Y-80813368D01*
X61521632Y-80606525D01*
X61278411Y-80444010D01*
X61008158Y-80332068D01*
X60721260Y-80275000D01*
X60428740Y-80275000D01*
X60141842Y-80332068D01*
X59871589Y-80444010D01*
X59628368Y-80606525D01*
X59421525Y-80813368D01*
X59259010Y-81056589D01*
X59147068Y-81326842D01*
X59090000Y-81613740D01*
X59090000Y-81906260D01*
X59147068Y-82193158D01*
X59259010Y-82463411D01*
X59421525Y-82706632D01*
X59553380Y-82838487D01*
X59480820Y-82860498D01*
X59370506Y-82919463D01*
X59273815Y-82998815D01*
X59194463Y-83095506D01*
X59135498Y-83205820D01*
X59099188Y-83325518D01*
X59086928Y-83450000D01*
X57449725Y-83450000D01*
X57378475Y-83343368D01*
X57246620Y-83211513D01*
X57319180Y-83189502D01*
X57429494Y-83130537D01*
X57526185Y-83051185D01*
X57605537Y-82954494D01*
X57664502Y-82844180D01*
X57700812Y-82724482D01*
X57713072Y-82600000D01*
X57713072Y-80900000D01*
X57700812Y-80775518D01*
X57664502Y-80655820D01*
X57605537Y-80545506D01*
X57526185Y-80448815D01*
X57429494Y-80369463D01*
X57319180Y-80310498D01*
X57199482Y-80274188D01*
X57075000Y-80261928D01*
X55375000Y-80261928D01*
X55250518Y-80274188D01*
X55130820Y-80310498D01*
X55020506Y-80369463D01*
X54923815Y-80448815D01*
X54844463Y-80545506D01*
X54785498Y-80655820D01*
X54749188Y-80775518D01*
X54736928Y-80900000D01*
X50660000Y-80900000D01*
X50660000Y-79558061D01*
X70065000Y-79558061D01*
X70065000Y-79761939D01*
X70104774Y-79961898D01*
X70182795Y-80150256D01*
X70296063Y-80319774D01*
X70440226Y-80463937D01*
X70609744Y-80577205D01*
X70798102Y-80655226D01*
X70998061Y-80695000D01*
X71201939Y-80695000D01*
X71401898Y-80655226D01*
X71590256Y-80577205D01*
X71759774Y-80463937D01*
X71903937Y-80319774D01*
X72017205Y-80150256D01*
X72095226Y-79961898D01*
X72135000Y-79761939D01*
X72135000Y-79558061D01*
X72095226Y-79358102D01*
X72017205Y-79169744D01*
X71903937Y-79000226D01*
X71759774Y-78856063D01*
X71590256Y-78742795D01*
X71401898Y-78664774D01*
X71201939Y-78625000D01*
X70998061Y-78625000D01*
X70798102Y-78664774D01*
X70609744Y-78742795D01*
X70440226Y-78856063D01*
X70296063Y-79000226D01*
X70182795Y-79169744D01*
X70104774Y-79358102D01*
X70065000Y-79558061D01*
X50660000Y-79558061D01*
X50660000Y-75778061D01*
X60545000Y-75778061D01*
X60545000Y-75981939D01*
X60584774Y-76181898D01*
X60662795Y-76370256D01*
X60776063Y-76539774D01*
X60920226Y-76683937D01*
X61089744Y-76797205D01*
X61278102Y-76875226D01*
X61313002Y-76882168D01*
X61344774Y-77041898D01*
X61422795Y-77230256D01*
X61536063Y-77399774D01*
X61680226Y-77543937D01*
X61849744Y-77657205D01*
X62038102Y-77735226D01*
X62238061Y-77775000D01*
X62441939Y-77775000D01*
X62641898Y-77735226D01*
X62830256Y-77657205D01*
X62999774Y-77543937D01*
X63143937Y-77399774D01*
X63257205Y-77230256D01*
X63295393Y-77138061D01*
X81185000Y-77138061D01*
X81185000Y-77341939D01*
X81224774Y-77541898D01*
X81302795Y-77730256D01*
X81416063Y-77899774D01*
X81560226Y-78043937D01*
X81729744Y-78157205D01*
X81918102Y-78235226D01*
X82118061Y-78275000D01*
X82321939Y-78275000D01*
X82521898Y-78235226D01*
X82710256Y-78157205D01*
X82879774Y-78043937D01*
X83023937Y-77899774D01*
X83137205Y-77730256D01*
X83215226Y-77541898D01*
X83255000Y-77341939D01*
X83255000Y-77138061D01*
X83215226Y-76938102D01*
X83137205Y-76749744D01*
X83023937Y-76580226D01*
X82879774Y-76436063D01*
X82710256Y-76322795D01*
X82521898Y-76244774D01*
X82321939Y-76205000D01*
X82118061Y-76205000D01*
X81918102Y-76244774D01*
X81729744Y-76322795D01*
X81560226Y-76436063D01*
X81416063Y-76580226D01*
X81302795Y-76749744D01*
X81224774Y-76938102D01*
X81185000Y-77138061D01*
X63295393Y-77138061D01*
X63335226Y-77041898D01*
X63375000Y-76841939D01*
X63375000Y-76638061D01*
X63335226Y-76438102D01*
X63257205Y-76249744D01*
X63143937Y-76080226D01*
X62999774Y-75936063D01*
X62830256Y-75822795D01*
X62641898Y-75744774D01*
X62606998Y-75737832D01*
X62575226Y-75578102D01*
X62497205Y-75389744D01*
X62403832Y-75250000D01*
X85311928Y-75250000D01*
X85311928Y-76950000D01*
X85324188Y-77074482D01*
X85360498Y-77194180D01*
X85419463Y-77304494D01*
X85498815Y-77401185D01*
X85595506Y-77480537D01*
X85705820Y-77539502D01*
X85778380Y-77561513D01*
X85646525Y-77693368D01*
X85484010Y-77936589D01*
X85372068Y-78206842D01*
X85315000Y-78493740D01*
X85315000Y-78786260D01*
X85372068Y-79073158D01*
X85484010Y-79343411D01*
X85646525Y-79586632D01*
X85853368Y-79793475D01*
X86096589Y-79955990D01*
X86366842Y-80067932D01*
X86653740Y-80125000D01*
X86946260Y-80125000D01*
X87233158Y-80067932D01*
X87503411Y-79955990D01*
X87746632Y-79793475D01*
X87953475Y-79586632D01*
X88070000Y-79412240D01*
X88186525Y-79586632D01*
X88393368Y-79793475D01*
X88636589Y-79955990D01*
X88906842Y-80067932D01*
X89193740Y-80125000D01*
X89486260Y-80125000D01*
X89773158Y-80067932D01*
X90043411Y-79955990D01*
X90286632Y-79793475D01*
X90493475Y-79586632D01*
X90655990Y-79343411D01*
X90767932Y-79073158D01*
X90825000Y-78786260D01*
X90825000Y-78493740D01*
X90767932Y-78206842D01*
X90655990Y-77936589D01*
X90493475Y-77693368D01*
X90353847Y-77553740D01*
X93515000Y-77553740D01*
X93515000Y-77846260D01*
X93572068Y-78133158D01*
X93684010Y-78403411D01*
X93846525Y-78646632D01*
X94053368Y-78853475D01*
X94296589Y-79015990D01*
X94566842Y-79127932D01*
X94853740Y-79185000D01*
X95146260Y-79185000D01*
X95433158Y-79127932D01*
X95703411Y-79015990D01*
X95946632Y-78853475D01*
X96153475Y-78646632D01*
X96270000Y-78472240D01*
X96386525Y-78646632D01*
X96593368Y-78853475D01*
X96836589Y-79015990D01*
X97106842Y-79127932D01*
X97393740Y-79185000D01*
X97686260Y-79185000D01*
X97973158Y-79127932D01*
X98243411Y-79015990D01*
X98486632Y-78853475D01*
X98693475Y-78646632D01*
X98855990Y-78403411D01*
X98967932Y-78133158D01*
X99025000Y-77846260D01*
X99025000Y-77553740D01*
X98967932Y-77266842D01*
X98855990Y-76996589D01*
X98693475Y-76753368D01*
X98486632Y-76546525D01*
X98304466Y-76424805D01*
X98421355Y-76355178D01*
X98637588Y-76160269D01*
X98811641Y-75926920D01*
X98936825Y-75664099D01*
X98981476Y-75516890D01*
X98860155Y-75287000D01*
X97667000Y-75287000D01*
X97667000Y-75307000D01*
X97413000Y-75307000D01*
X97413000Y-75287000D01*
X95127000Y-75287000D01*
X95127000Y-75307000D01*
X94873000Y-75307000D01*
X94873000Y-75287000D01*
X93679845Y-75287000D01*
X93558524Y-75516890D01*
X93603175Y-75664099D01*
X93728359Y-75926920D01*
X93902412Y-76160269D01*
X94118645Y-76355178D01*
X94235534Y-76424805D01*
X94053368Y-76546525D01*
X93846525Y-76753368D01*
X93684010Y-76996589D01*
X93572068Y-77266842D01*
X93515000Y-77553740D01*
X90353847Y-77553740D01*
X90286632Y-77486525D01*
X90112240Y-77370000D01*
X90286632Y-77253475D01*
X90493475Y-77046632D01*
X90655990Y-76803411D01*
X90767932Y-76533158D01*
X90825000Y-76246260D01*
X90825000Y-75953740D01*
X90767932Y-75666842D01*
X90655990Y-75396589D01*
X90493475Y-75153368D01*
X90286632Y-74946525D01*
X90043411Y-74784010D01*
X89773158Y-74672068D01*
X89486260Y-74615000D01*
X89193740Y-74615000D01*
X88906842Y-74672068D01*
X88636589Y-74784010D01*
X88393368Y-74946525D01*
X88261513Y-75078380D01*
X88239502Y-75005820D01*
X88180537Y-74895506D01*
X88101185Y-74798815D01*
X88004494Y-74719463D01*
X87894180Y-74660498D01*
X87774482Y-74624188D01*
X87650000Y-74611928D01*
X85950000Y-74611928D01*
X85825518Y-74624188D01*
X85705820Y-74660498D01*
X85595506Y-74719463D01*
X85498815Y-74798815D01*
X85419463Y-74895506D01*
X85360498Y-75005820D01*
X85324188Y-75125518D01*
X85311928Y-75250000D01*
X62403832Y-75250000D01*
X62383937Y-75220226D01*
X62239774Y-75076063D01*
X62070256Y-74962795D01*
X61881898Y-74884774D01*
X61681939Y-74845000D01*
X61478061Y-74845000D01*
X61278102Y-74884774D01*
X61089744Y-74962795D01*
X60920226Y-75076063D01*
X60776063Y-75220226D01*
X60662795Y-75389744D01*
X60584774Y-75578102D01*
X60545000Y-75778061D01*
X50660000Y-75778061D01*
X50660000Y-65896890D01*
X52558524Y-65896890D01*
X52603175Y-66044099D01*
X52728359Y-66306920D01*
X52902412Y-66540269D01*
X53118645Y-66735178D01*
X53368748Y-66884157D01*
X53643109Y-66981481D01*
X53873000Y-66860814D01*
X53873000Y-65667000D01*
X54127000Y-65667000D01*
X54127000Y-66860814D01*
X54356891Y-66981481D01*
X54631252Y-66884157D01*
X54881355Y-66735178D01*
X55097588Y-66540269D01*
X55271641Y-66306920D01*
X55396825Y-66044099D01*
X55441476Y-65896890D01*
X55320155Y-65667000D01*
X54127000Y-65667000D01*
X53873000Y-65667000D01*
X52679845Y-65667000D01*
X52558524Y-65896890D01*
X50660000Y-65896890D01*
X50660000Y-62150000D01*
X52511928Y-62150000D01*
X52511928Y-63850000D01*
X52524188Y-63974482D01*
X52560498Y-64094180D01*
X52619463Y-64204494D01*
X52698815Y-64301185D01*
X52795506Y-64380537D01*
X52905820Y-64439502D01*
X52986466Y-64463966D01*
X52902412Y-64539731D01*
X52728359Y-64773080D01*
X52603175Y-65035901D01*
X52558524Y-65183110D01*
X52679845Y-65413000D01*
X53873000Y-65413000D01*
X53873000Y-65393000D01*
X54127000Y-65393000D01*
X54127000Y-65413000D01*
X55320155Y-65413000D01*
X55441476Y-65183110D01*
X55396825Y-65035901D01*
X55379726Y-65000000D01*
X57873000Y-65000000D01*
X57873000Y-74000000D01*
X57875440Y-74024776D01*
X57882667Y-74048601D01*
X57894403Y-74070557D01*
X57910197Y-74089803D01*
X57929443Y-74105597D01*
X57951399Y-74117333D01*
X57975224Y-74124560D01*
X58000000Y-74127000D01*
X62600000Y-74127000D01*
X62624776Y-74124560D01*
X62648601Y-74117333D01*
X62670557Y-74105597D01*
X62689803Y-74089803D01*
X62705597Y-74070557D01*
X62717333Y-74048601D01*
X62724560Y-74024776D01*
X62727000Y-74000000D01*
X62727000Y-72727000D01*
X63204764Y-72727000D01*
X63142795Y-72819744D01*
X63064774Y-73008102D01*
X63025000Y-73208061D01*
X63025000Y-73411939D01*
X63064774Y-73611898D01*
X63142795Y-73800256D01*
X63256063Y-73969774D01*
X63400226Y-74113937D01*
X63569744Y-74227205D01*
X63758102Y-74305226D01*
X63958061Y-74345000D01*
X64161939Y-74345000D01*
X64361898Y-74305226D01*
X64550256Y-74227205D01*
X64719774Y-74113937D01*
X64863937Y-73969774D01*
X64945262Y-73848061D01*
X69235000Y-73848061D01*
X69235000Y-74051939D01*
X69274774Y-74251898D01*
X69352795Y-74440256D01*
X69466063Y-74609774D01*
X69610226Y-74753937D01*
X69779744Y-74867205D01*
X69968102Y-74945226D01*
X70168061Y-74985000D01*
X70371939Y-74985000D01*
X70571898Y-74945226D01*
X70760256Y-74867205D01*
X70929774Y-74753937D01*
X70960000Y-74723711D01*
X71000226Y-74763937D01*
X71169744Y-74877205D01*
X71358102Y-74955226D01*
X71558061Y-74995000D01*
X71761939Y-74995000D01*
X71961898Y-74955226D01*
X72150256Y-74877205D01*
X72319774Y-74763937D01*
X72340000Y-74743711D01*
X72410226Y-74813937D01*
X72579744Y-74927205D01*
X72768102Y-75005226D01*
X72968061Y-75045000D01*
X73171939Y-75045000D01*
X73371898Y-75005226D01*
X73560256Y-74927205D01*
X73729774Y-74813937D01*
X73730000Y-74813711D01*
X73850226Y-74933937D01*
X74019744Y-75047205D01*
X74208102Y-75125226D01*
X74408061Y-75165000D01*
X74611939Y-75165000D01*
X74811898Y-75125226D01*
X75000256Y-75047205D01*
X75169774Y-74933937D01*
X75313937Y-74789774D01*
X75427205Y-74620256D01*
X75505226Y-74431898D01*
X75545000Y-74231939D01*
X75545000Y-74028061D01*
X75505226Y-73828102D01*
X75427205Y-73639744D01*
X75313937Y-73470226D01*
X75169774Y-73326063D01*
X75000256Y-73212795D01*
X74811898Y-73134774D01*
X74611939Y-73095000D01*
X74408061Y-73095000D01*
X74208102Y-73134774D01*
X74019744Y-73212795D01*
X73850226Y-73326063D01*
X73850000Y-73326289D01*
X73729774Y-73206063D01*
X73560256Y-73092795D01*
X73371898Y-73014774D01*
X73171939Y-72975000D01*
X72968061Y-72975000D01*
X72768102Y-73014774D01*
X72579744Y-73092795D01*
X72410226Y-73206063D01*
X72390000Y-73226289D01*
X72319774Y-73156063D01*
X72150256Y-73042795D01*
X71961898Y-72964774D01*
X71761939Y-72925000D01*
X71558061Y-72925000D01*
X71358102Y-72964774D01*
X71169744Y-73042795D01*
X71000226Y-73156063D01*
X70970000Y-73186289D01*
X70929774Y-73146063D01*
X70760256Y-73032795D01*
X70571898Y-72954774D01*
X70371939Y-72915000D01*
X70168061Y-72915000D01*
X69968102Y-72954774D01*
X69779744Y-73032795D01*
X69610226Y-73146063D01*
X69466063Y-73290226D01*
X69352795Y-73459744D01*
X69274774Y-73648102D01*
X69235000Y-73848061D01*
X64945262Y-73848061D01*
X64977205Y-73800256D01*
X65055226Y-73611898D01*
X65095000Y-73411939D01*
X65095000Y-73208061D01*
X65055226Y-73008102D01*
X64977205Y-72819744D01*
X64915236Y-72727000D01*
X66400000Y-72727000D01*
X66424776Y-72724560D01*
X66448601Y-72717333D01*
X66470557Y-72705597D01*
X66489803Y-72689803D01*
X66505597Y-72670557D01*
X66517333Y-72648601D01*
X66524560Y-72624776D01*
X66527000Y-72600000D01*
X66527000Y-70827000D01*
X68700000Y-70827000D01*
X68724776Y-70824560D01*
X68748601Y-70817333D01*
X68770557Y-70805597D01*
X68789803Y-70789803D01*
X68805597Y-70770557D01*
X68817333Y-70748601D01*
X68824560Y-70724776D01*
X68827000Y-70700000D01*
X68827000Y-68700000D01*
X68824560Y-68675224D01*
X68817333Y-68651399D01*
X68805597Y-68629443D01*
X68789803Y-68610197D01*
X68770557Y-68594403D01*
X68748601Y-68582667D01*
X68724776Y-68575440D01*
X68700000Y-68573000D01*
X65232909Y-68573000D01*
X65255000Y-68461939D01*
X65255000Y-68410000D01*
X85331928Y-68410000D01*
X85331928Y-70110000D01*
X85344188Y-70234482D01*
X85380498Y-70354180D01*
X85439463Y-70464494D01*
X85518815Y-70561185D01*
X85615506Y-70640537D01*
X85725820Y-70699502D01*
X85798380Y-70721513D01*
X85666525Y-70853368D01*
X85504010Y-71096589D01*
X85392068Y-71366842D01*
X85335000Y-71653740D01*
X85335000Y-71946260D01*
X85392068Y-72233158D01*
X85504010Y-72503411D01*
X85666525Y-72746632D01*
X85873368Y-72953475D01*
X86116589Y-73115990D01*
X86386842Y-73227932D01*
X86673740Y-73285000D01*
X86966260Y-73285000D01*
X87253158Y-73227932D01*
X87523411Y-73115990D01*
X87766632Y-72953475D01*
X87973475Y-72746632D01*
X88090000Y-72572240D01*
X88206525Y-72746632D01*
X88413368Y-72953475D01*
X88656589Y-73115990D01*
X88926842Y-73227932D01*
X89213740Y-73285000D01*
X89506260Y-73285000D01*
X89793158Y-73227932D01*
X90063411Y-73115990D01*
X90306632Y-72953475D01*
X90513475Y-72746632D01*
X90675990Y-72503411D01*
X90787932Y-72233158D01*
X90845000Y-71946260D01*
X90845000Y-71653740D01*
X90787932Y-71366842D01*
X90675990Y-71096589D01*
X90513475Y-70853368D01*
X90306632Y-70646525D01*
X90132240Y-70530000D01*
X90306632Y-70413475D01*
X90513475Y-70206632D01*
X90675990Y-69963411D01*
X90787932Y-69693158D01*
X90845000Y-69406260D01*
X90845000Y-69113740D01*
X90787932Y-68826842D01*
X90675990Y-68556589D01*
X90513475Y-68313368D01*
X90306632Y-68106525D01*
X90063411Y-67944010D01*
X89793158Y-67832068D01*
X89506260Y-67775000D01*
X89213740Y-67775000D01*
X88926842Y-67832068D01*
X88656589Y-67944010D01*
X88413368Y-68106525D01*
X88281513Y-68238380D01*
X88259502Y-68165820D01*
X88200537Y-68055506D01*
X88121185Y-67958815D01*
X88024494Y-67879463D01*
X87914180Y-67820498D01*
X87794482Y-67784188D01*
X87670000Y-67771928D01*
X85970000Y-67771928D01*
X85845518Y-67784188D01*
X85725820Y-67820498D01*
X85615506Y-67879463D01*
X85518815Y-67958815D01*
X85439463Y-68055506D01*
X85380498Y-68165820D01*
X85344188Y-68285518D01*
X85331928Y-68410000D01*
X65255000Y-68410000D01*
X65255000Y-68258061D01*
X65215226Y-68058102D01*
X65137205Y-67869744D01*
X65023937Y-67700226D01*
X64879774Y-67556063D01*
X64710256Y-67442795D01*
X64521898Y-67364774D01*
X64321939Y-67325000D01*
X64118061Y-67325000D01*
X63918102Y-67364774D01*
X63729744Y-67442795D01*
X63560226Y-67556063D01*
X63416063Y-67700226D01*
X63302795Y-67869744D01*
X63224774Y-68058102D01*
X63185000Y-68258061D01*
X63185000Y-68461939D01*
X63207091Y-68573000D01*
X63102861Y-68573000D01*
X63126997Y-65000858D01*
X63124724Y-64976066D01*
X63117658Y-64952193D01*
X63106071Y-64930158D01*
X63096280Y-64918061D01*
X64255000Y-64918061D01*
X64255000Y-65121939D01*
X64294774Y-65321898D01*
X64372795Y-65510256D01*
X64486063Y-65679774D01*
X64630226Y-65823937D01*
X64799744Y-65937205D01*
X64988102Y-66015226D01*
X65188061Y-66055000D01*
X65391939Y-66055000D01*
X65591898Y-66015226D01*
X65780256Y-65937205D01*
X65949774Y-65823937D01*
X66093937Y-65679774D01*
X66207205Y-65510256D01*
X66285226Y-65321898D01*
X66325000Y-65121939D01*
X66325000Y-64918061D01*
X66295164Y-64768061D01*
X77625000Y-64768061D01*
X77625000Y-64971939D01*
X77664774Y-65171898D01*
X77742795Y-65360256D01*
X77856063Y-65529774D01*
X78000226Y-65673937D01*
X78169744Y-65787205D01*
X78358102Y-65865226D01*
X78558061Y-65905000D01*
X78761939Y-65905000D01*
X78961898Y-65865226D01*
X79150256Y-65787205D01*
X79319774Y-65673937D01*
X79463937Y-65529774D01*
X79577205Y-65360256D01*
X79655226Y-65171898D01*
X79695000Y-64971939D01*
X79695000Y-64768061D01*
X79655226Y-64568102D01*
X79577205Y-64379744D01*
X79463937Y-64210226D01*
X79403711Y-64150000D01*
X93511928Y-64150000D01*
X93511928Y-65850000D01*
X93524188Y-65974482D01*
X93560498Y-66094180D01*
X93619463Y-66204494D01*
X93698815Y-66301185D01*
X93795506Y-66380537D01*
X93905820Y-66439502D01*
X93978380Y-66461513D01*
X93846525Y-66593368D01*
X93684010Y-66836589D01*
X93572068Y-67106842D01*
X93515000Y-67393740D01*
X93515000Y-67686260D01*
X93572068Y-67973158D01*
X93684010Y-68243411D01*
X93846525Y-68486632D01*
X94053368Y-68693475D01*
X94227760Y-68810000D01*
X94053368Y-68926525D01*
X93846525Y-69133368D01*
X93684010Y-69376589D01*
X93572068Y-69646842D01*
X93515000Y-69933740D01*
X93515000Y-70226260D01*
X93572068Y-70513158D01*
X93684010Y-70783411D01*
X93846525Y-71026632D01*
X94053368Y-71233475D01*
X94227760Y-71350000D01*
X94053368Y-71466525D01*
X93846525Y-71673368D01*
X93684010Y-71916589D01*
X93572068Y-72186842D01*
X93515000Y-72473740D01*
X93515000Y-72766260D01*
X93572068Y-73053158D01*
X93684010Y-73323411D01*
X93846525Y-73566632D01*
X94053368Y-73773475D01*
X94235534Y-73895195D01*
X94118645Y-73964822D01*
X93902412Y-74159731D01*
X93728359Y-74393080D01*
X93603175Y-74655901D01*
X93558524Y-74803110D01*
X93679845Y-75033000D01*
X94873000Y-75033000D01*
X94873000Y-75013000D01*
X95127000Y-75013000D01*
X95127000Y-75033000D01*
X97413000Y-75033000D01*
X97413000Y-75013000D01*
X97667000Y-75013000D01*
X97667000Y-75033000D01*
X98860155Y-75033000D01*
X98981476Y-74803110D01*
X98936825Y-74655901D01*
X98811641Y-74393080D01*
X98637588Y-74159731D01*
X98421355Y-73964822D01*
X98304466Y-73895195D01*
X98486632Y-73773475D01*
X98693475Y-73566632D01*
X98855990Y-73323411D01*
X98967932Y-73053158D01*
X99025000Y-72766260D01*
X99025000Y-72473740D01*
X98967932Y-72186842D01*
X98855990Y-71916589D01*
X98693475Y-71673368D01*
X98486632Y-71466525D01*
X98312240Y-71350000D01*
X98486632Y-71233475D01*
X98693475Y-71026632D01*
X98855990Y-70783411D01*
X98967932Y-70513158D01*
X99025000Y-70226260D01*
X99025000Y-69933740D01*
X98967932Y-69646842D01*
X98855990Y-69376589D01*
X98693475Y-69133368D01*
X98486632Y-68926525D01*
X98312240Y-68810000D01*
X98486632Y-68693475D01*
X98693475Y-68486632D01*
X98855990Y-68243411D01*
X98967932Y-67973158D01*
X99025000Y-67686260D01*
X99025000Y-67393740D01*
X98967932Y-67106842D01*
X98855990Y-66836589D01*
X98693475Y-66593368D01*
X98486632Y-66386525D01*
X98312240Y-66270000D01*
X98486632Y-66153475D01*
X98693475Y-65946632D01*
X98855990Y-65703411D01*
X98967932Y-65433158D01*
X99025000Y-65146260D01*
X99025000Y-64853740D01*
X98967932Y-64566842D01*
X98855990Y-64296589D01*
X98693475Y-64053368D01*
X98486632Y-63846525D01*
X98243411Y-63684010D01*
X97973158Y-63572068D01*
X97686260Y-63515000D01*
X97393740Y-63515000D01*
X97106842Y-63572068D01*
X96836589Y-63684010D01*
X96593368Y-63846525D01*
X96461513Y-63978380D01*
X96439502Y-63905820D01*
X96380537Y-63795506D01*
X96301185Y-63698815D01*
X96204494Y-63619463D01*
X96094180Y-63560498D01*
X95974482Y-63524188D01*
X95850000Y-63511928D01*
X94150000Y-63511928D01*
X94025518Y-63524188D01*
X93905820Y-63560498D01*
X93795506Y-63619463D01*
X93698815Y-63698815D01*
X93619463Y-63795506D01*
X93560498Y-63905820D01*
X93524188Y-64025518D01*
X93511928Y-64150000D01*
X79403711Y-64150000D01*
X79319774Y-64066063D01*
X79150256Y-63952795D01*
X78961898Y-63874774D01*
X78761939Y-63835000D01*
X78558061Y-63835000D01*
X78358102Y-63874774D01*
X78169744Y-63952795D01*
X78000226Y-64066063D01*
X77856063Y-64210226D01*
X77742795Y-64379744D01*
X77664774Y-64568102D01*
X77625000Y-64768061D01*
X66295164Y-64768061D01*
X66285226Y-64718102D01*
X66207205Y-64529744D01*
X66093937Y-64360226D01*
X65949774Y-64216063D01*
X65780256Y-64102795D01*
X65591898Y-64024774D01*
X65391939Y-63985000D01*
X65188061Y-63985000D01*
X64988102Y-64024774D01*
X64799744Y-64102795D01*
X64630226Y-64216063D01*
X64486063Y-64360226D01*
X64372795Y-64529744D01*
X64294774Y-64718102D01*
X64255000Y-64918061D01*
X63096280Y-64918061D01*
X63090407Y-64910806D01*
X63071269Y-64894882D01*
X63049392Y-64882998D01*
X63025618Y-64875611D01*
X63000000Y-64873000D01*
X58000000Y-64873000D01*
X57975224Y-64875440D01*
X57951399Y-64882667D01*
X57929443Y-64894403D01*
X57910197Y-64910197D01*
X57894403Y-64929443D01*
X57882667Y-64951399D01*
X57875440Y-64975224D01*
X57873000Y-65000000D01*
X55379726Y-65000000D01*
X55271641Y-64773080D01*
X55097588Y-64539731D01*
X55013534Y-64463966D01*
X55094180Y-64439502D01*
X55204494Y-64380537D01*
X55301185Y-64301185D01*
X55380537Y-64204494D01*
X55439502Y-64094180D01*
X55475812Y-63974482D01*
X55488072Y-63850000D01*
X55488072Y-63068061D01*
X65325000Y-63068061D01*
X65325000Y-63271939D01*
X65364774Y-63471898D01*
X65442795Y-63660256D01*
X65556063Y-63829774D01*
X65700226Y-63973937D01*
X65869744Y-64087205D01*
X66058102Y-64165226D01*
X66258061Y-64205000D01*
X66461939Y-64205000D01*
X66661898Y-64165226D01*
X66850256Y-64087205D01*
X67019774Y-63973937D01*
X67163937Y-63829774D01*
X67277205Y-63660256D01*
X67355226Y-63471898D01*
X67395000Y-63271939D01*
X67395000Y-63068061D01*
X67355226Y-62868102D01*
X67277205Y-62679744D01*
X67163937Y-62510226D01*
X67161772Y-62508061D01*
X81225000Y-62508061D01*
X81225000Y-62711939D01*
X81264774Y-62911898D01*
X81342795Y-63100256D01*
X81456063Y-63269774D01*
X81600226Y-63413937D01*
X81769744Y-63527205D01*
X81958102Y-63605226D01*
X82158061Y-63645000D01*
X82361939Y-63645000D01*
X82561898Y-63605226D01*
X82750256Y-63527205D01*
X82919774Y-63413937D01*
X83063937Y-63269774D01*
X83177205Y-63100256D01*
X83255226Y-62911898D01*
X83295000Y-62711939D01*
X83295000Y-62508061D01*
X83255226Y-62308102D01*
X83177205Y-62119744D01*
X83063937Y-61950226D01*
X82919774Y-61806063D01*
X82750256Y-61692795D01*
X82561898Y-61614774D01*
X82361939Y-61575000D01*
X82158061Y-61575000D01*
X81958102Y-61614774D01*
X81769744Y-61692795D01*
X81600226Y-61806063D01*
X81456063Y-61950226D01*
X81342795Y-62119744D01*
X81264774Y-62308102D01*
X81225000Y-62508061D01*
X67161772Y-62508061D01*
X67019774Y-62366063D01*
X66850256Y-62252795D01*
X66661898Y-62174774D01*
X66461939Y-62135000D01*
X66258061Y-62135000D01*
X66058102Y-62174774D01*
X65869744Y-62252795D01*
X65700226Y-62366063D01*
X65556063Y-62510226D01*
X65442795Y-62679744D01*
X65364774Y-62868102D01*
X65325000Y-63068061D01*
X55488072Y-63068061D01*
X55488072Y-62150000D01*
X55475812Y-62025518D01*
X55439502Y-61905820D01*
X55380537Y-61795506D01*
X55301185Y-61698815D01*
X55204494Y-61619463D01*
X55094180Y-61560498D01*
X54974482Y-61524188D01*
X54850000Y-61511928D01*
X53150000Y-61511928D01*
X53025518Y-61524188D01*
X52905820Y-61560498D01*
X52795506Y-61619463D01*
X52698815Y-61698815D01*
X52619463Y-61795506D01*
X52560498Y-61905820D01*
X52524188Y-62025518D01*
X52511928Y-62150000D01*
X50660000Y-62150000D01*
X50660000Y-55628061D01*
X66685000Y-55628061D01*
X66685000Y-55831939D01*
X66724774Y-56031898D01*
X66802795Y-56220256D01*
X66916063Y-56389774D01*
X67060226Y-56533937D01*
X67229744Y-56647205D01*
X67418102Y-56725226D01*
X67618061Y-56765000D01*
X67821939Y-56765000D01*
X68021898Y-56725226D01*
X68210256Y-56647205D01*
X68379774Y-56533937D01*
X68523937Y-56389774D01*
X68637205Y-56220256D01*
X68654682Y-56178061D01*
X73005000Y-56178061D01*
X73005000Y-56381939D01*
X73044774Y-56581898D01*
X73122795Y-56770256D01*
X73236063Y-56939774D01*
X73380226Y-57083937D01*
X73549744Y-57197205D01*
X73738102Y-57275226D01*
X73839403Y-57295376D01*
X73815000Y-57418061D01*
X73815000Y-57621939D01*
X73854774Y-57821898D01*
X73932795Y-58010256D01*
X74046063Y-58179774D01*
X74190226Y-58323937D01*
X74359744Y-58437205D01*
X74548102Y-58515226D01*
X74748061Y-58555000D01*
X74951939Y-58555000D01*
X75151898Y-58515226D01*
X75340256Y-58437205D01*
X75509774Y-58323937D01*
X75520000Y-58313711D01*
X75530226Y-58323937D01*
X75699744Y-58437205D01*
X75888102Y-58515226D01*
X76088061Y-58555000D01*
X76291939Y-58555000D01*
X76491898Y-58515226D01*
X76680256Y-58437205D01*
X76849774Y-58323937D01*
X76993937Y-58179774D01*
X77107205Y-58010256D01*
X77185226Y-57821898D01*
X77225000Y-57621939D01*
X77225000Y-57418061D01*
X77185226Y-57218102D01*
X77120566Y-57062000D01*
X78013928Y-57062000D01*
X78013928Y-58762000D01*
X78026188Y-58886482D01*
X78062498Y-59006180D01*
X78121463Y-59116494D01*
X78200815Y-59213185D01*
X78297506Y-59292537D01*
X78407820Y-59351502D01*
X78527518Y-59387812D01*
X78652000Y-59400072D01*
X80352000Y-59400072D01*
X80476482Y-59387812D01*
X80596180Y-59351502D01*
X80706494Y-59292537D01*
X80803185Y-59213185D01*
X80882537Y-59116494D01*
X80941502Y-59006180D01*
X80977812Y-58886482D01*
X80990072Y-58762000D01*
X80990072Y-57062000D01*
X80977812Y-56937518D01*
X80941502Y-56817820D01*
X80882537Y-56707506D01*
X80803185Y-56610815D01*
X80796099Y-56605000D01*
X80831939Y-56605000D01*
X81031898Y-56565226D01*
X81220256Y-56487205D01*
X81250947Y-56466698D01*
X81368102Y-56515226D01*
X81568061Y-56555000D01*
X81771939Y-56555000D01*
X81971898Y-56515226D01*
X82160256Y-56437205D01*
X82329774Y-56323937D01*
X82473937Y-56179774D01*
X82587205Y-56010256D01*
X82665226Y-55821898D01*
X82705000Y-55621939D01*
X82705000Y-55418061D01*
X82665226Y-55218102D01*
X82587205Y-55029744D01*
X82473937Y-54860226D01*
X82329774Y-54716063D01*
X82160256Y-54602795D01*
X81971898Y-54524774D01*
X81771939Y-54485000D01*
X81568061Y-54485000D01*
X81368102Y-54524774D01*
X81179744Y-54602795D01*
X81149053Y-54623302D01*
X81031898Y-54574774D01*
X80831939Y-54535000D01*
X80628061Y-54535000D01*
X80428102Y-54574774D01*
X80239744Y-54652795D01*
X80070226Y-54766063D01*
X79926063Y-54910226D01*
X79812795Y-55079744D01*
X79734774Y-55268102D01*
X79695000Y-55468061D01*
X79695000Y-55671939D01*
X79734774Y-55871898D01*
X79812795Y-56060256D01*
X79926063Y-56229774D01*
X80070226Y-56373937D01*
X80145043Y-56423928D01*
X78652000Y-56423928D01*
X78527518Y-56436188D01*
X78407820Y-56472498D01*
X78297506Y-56531463D01*
X78200815Y-56610815D01*
X78121463Y-56707506D01*
X78062498Y-56817820D01*
X78026188Y-56937518D01*
X78013928Y-57062000D01*
X77120566Y-57062000D01*
X77107205Y-57029744D01*
X76993937Y-56860226D01*
X76849774Y-56716063D01*
X76680256Y-56602795D01*
X76491898Y-56524774D01*
X76291939Y-56485000D01*
X76088061Y-56485000D01*
X75888102Y-56524774D01*
X75699744Y-56602795D01*
X75530226Y-56716063D01*
X75520000Y-56726289D01*
X75509774Y-56716063D01*
X75340256Y-56602795D01*
X75151898Y-56524774D01*
X75050597Y-56504624D01*
X75075000Y-56381939D01*
X75075000Y-56178061D01*
X75035226Y-55978102D01*
X74957205Y-55789744D01*
X74843937Y-55620226D01*
X74699774Y-55476063D01*
X74530256Y-55362795D01*
X74341898Y-55284774D01*
X74141939Y-55245000D01*
X73938061Y-55245000D01*
X73738102Y-55284774D01*
X73549744Y-55362795D01*
X73380226Y-55476063D01*
X73236063Y-55620226D01*
X73122795Y-55789744D01*
X73044774Y-55978102D01*
X73005000Y-56178061D01*
X68654682Y-56178061D01*
X68715226Y-56031898D01*
X68755000Y-55831939D01*
X68755000Y-55628061D01*
X68715226Y-55428102D01*
X68637205Y-55239744D01*
X68580558Y-55154966D01*
X68657205Y-55040256D01*
X68735226Y-54851898D01*
X68775000Y-54651939D01*
X68775000Y-54448061D01*
X68735226Y-54248102D01*
X68657205Y-54059744D01*
X68543937Y-53890226D01*
X68431772Y-53778061D01*
X73015000Y-53778061D01*
X73015000Y-53981939D01*
X73054774Y-54181898D01*
X73132795Y-54370256D01*
X73246063Y-54539774D01*
X73390226Y-54683937D01*
X73559744Y-54797205D01*
X73748102Y-54875226D01*
X73948061Y-54915000D01*
X74151939Y-54915000D01*
X74351898Y-54875226D01*
X74540256Y-54797205D01*
X74709774Y-54683937D01*
X74853937Y-54539774D01*
X74904741Y-54463740D01*
X89193000Y-54463740D01*
X89193000Y-54756260D01*
X89250068Y-55043158D01*
X89362010Y-55313411D01*
X89524525Y-55556632D01*
X89731368Y-55763475D01*
X89905760Y-55880000D01*
X89731368Y-55996525D01*
X89524525Y-56203368D01*
X89362010Y-56446589D01*
X89250068Y-56716842D01*
X89193000Y-57003740D01*
X89193000Y-57296260D01*
X89250068Y-57583158D01*
X89362010Y-57853411D01*
X89524525Y-58096632D01*
X89731368Y-58303475D01*
X89905760Y-58420000D01*
X89731368Y-58536525D01*
X89524525Y-58743368D01*
X89362010Y-58986589D01*
X89250068Y-59256842D01*
X89193000Y-59543740D01*
X89193000Y-59836260D01*
X89250068Y-60123158D01*
X89362010Y-60393411D01*
X89524525Y-60636632D01*
X89731368Y-60843475D01*
X89974589Y-61005990D01*
X90244842Y-61117932D01*
X90531740Y-61175000D01*
X90824260Y-61175000D01*
X91111158Y-61117932D01*
X91381411Y-61005990D01*
X91624632Y-60843475D01*
X91756487Y-60711620D01*
X91778498Y-60784180D01*
X91837463Y-60894494D01*
X91916815Y-60991185D01*
X92013506Y-61070537D01*
X92123820Y-61129502D01*
X92243518Y-61165812D01*
X92368000Y-61178072D01*
X94068000Y-61178072D01*
X94192482Y-61165812D01*
X94312180Y-61129502D01*
X94422494Y-61070537D01*
X94519185Y-60991185D01*
X94598537Y-60894494D01*
X94657502Y-60784180D01*
X94693812Y-60664482D01*
X94706072Y-60540000D01*
X94706072Y-58840000D01*
X94693812Y-58715518D01*
X94657502Y-58595820D01*
X94598537Y-58485506D01*
X94519185Y-58388815D01*
X94422494Y-58309463D01*
X94312180Y-58250498D01*
X94239620Y-58228487D01*
X94371475Y-58096632D01*
X94533990Y-57853411D01*
X94645932Y-57583158D01*
X94703000Y-57296260D01*
X94703000Y-57003740D01*
X94645932Y-56716842D01*
X94533990Y-56446589D01*
X94371475Y-56203368D01*
X94164632Y-55996525D01*
X93982466Y-55874805D01*
X94099355Y-55805178D01*
X94315588Y-55610269D01*
X94489641Y-55376920D01*
X94614825Y-55114099D01*
X94659476Y-54966890D01*
X94538155Y-54737000D01*
X93345000Y-54737000D01*
X93345000Y-54757000D01*
X93091000Y-54757000D01*
X93091000Y-54737000D01*
X93071000Y-54737000D01*
X93071000Y-54483000D01*
X93091000Y-54483000D01*
X93091000Y-53289186D01*
X93345000Y-53289186D01*
X93345000Y-54483000D01*
X94538155Y-54483000D01*
X94659476Y-54253110D01*
X94614825Y-54105901D01*
X94489641Y-53843080D01*
X94315588Y-53609731D01*
X94099355Y-53414822D01*
X93849252Y-53265843D01*
X93574891Y-53168519D01*
X93345000Y-53289186D01*
X93091000Y-53289186D01*
X92861109Y-53168519D01*
X92586748Y-53265843D01*
X92336645Y-53414822D01*
X92120412Y-53609731D01*
X91949100Y-53839406D01*
X91831475Y-53663368D01*
X91624632Y-53456525D01*
X91381411Y-53294010D01*
X91111158Y-53182068D01*
X90824260Y-53125000D01*
X90531740Y-53125000D01*
X90244842Y-53182068D01*
X89974589Y-53294010D01*
X89731368Y-53456525D01*
X89524525Y-53663368D01*
X89362010Y-53906589D01*
X89250068Y-54176842D01*
X89193000Y-54463740D01*
X74904741Y-54463740D01*
X74967205Y-54370256D01*
X75045226Y-54181898D01*
X75085000Y-53981939D01*
X75085000Y-53778061D01*
X75084391Y-53775000D01*
X75091939Y-53775000D01*
X75291898Y-53735226D01*
X75480256Y-53657205D01*
X75584966Y-53587240D01*
X75659744Y-53637205D01*
X75848102Y-53715226D01*
X76048061Y-53755000D01*
X76251939Y-53755000D01*
X76451898Y-53715226D01*
X76640256Y-53637205D01*
X76809774Y-53523937D01*
X76953937Y-53379774D01*
X77067205Y-53210256D01*
X77145226Y-53021898D01*
X77185000Y-52821939D01*
X77185000Y-52618061D01*
X77145226Y-52418102D01*
X77067205Y-52229744D01*
X76953937Y-52060226D01*
X76809774Y-51916063D01*
X76640256Y-51802795D01*
X76451898Y-51724774D01*
X76251939Y-51685000D01*
X76048061Y-51685000D01*
X75848102Y-51724774D01*
X75659744Y-51802795D01*
X75555034Y-51872760D01*
X75480256Y-51822795D01*
X75291898Y-51744774D01*
X75091939Y-51705000D01*
X74888061Y-51705000D01*
X74688102Y-51744774D01*
X74499744Y-51822795D01*
X74330226Y-51936063D01*
X74186063Y-52080226D01*
X74072795Y-52249744D01*
X73994774Y-52438102D01*
X73955000Y-52638061D01*
X73955000Y-52841939D01*
X73955609Y-52845000D01*
X73948061Y-52845000D01*
X73748102Y-52884774D01*
X73559744Y-52962795D01*
X73390226Y-53076063D01*
X73246063Y-53220226D01*
X73132795Y-53389744D01*
X73054774Y-53578102D01*
X73015000Y-53778061D01*
X68431772Y-53778061D01*
X68399774Y-53746063D01*
X68230256Y-53632795D01*
X68041898Y-53554774D01*
X67841939Y-53515000D01*
X67638061Y-53515000D01*
X67438102Y-53554774D01*
X67249744Y-53632795D01*
X67080226Y-53746063D01*
X66936063Y-53890226D01*
X66822795Y-54059744D01*
X66744774Y-54248102D01*
X66705000Y-54448061D01*
X66705000Y-54651939D01*
X66744774Y-54851898D01*
X66822795Y-55040256D01*
X66879442Y-55125034D01*
X66802795Y-55239744D01*
X66724774Y-55428102D01*
X66685000Y-55628061D01*
X50660000Y-55628061D01*
X50660000Y-55029392D01*
X50731173Y-54231917D01*
X50934656Y-53488109D01*
X51095925Y-53150000D01*
X56011928Y-53150000D01*
X56011928Y-54850000D01*
X56024188Y-54974482D01*
X56060498Y-55094180D01*
X56119463Y-55204494D01*
X56198815Y-55301185D01*
X56295506Y-55380537D01*
X56405820Y-55439502D01*
X56525518Y-55475812D01*
X56650000Y-55488072D01*
X58350000Y-55488072D01*
X58474482Y-55475812D01*
X58594180Y-55439502D01*
X58704494Y-55380537D01*
X58801185Y-55301185D01*
X58880537Y-55204494D01*
X58939502Y-55094180D01*
X58963966Y-55013534D01*
X59039731Y-55097588D01*
X59273080Y-55271641D01*
X59535901Y-55396825D01*
X59683110Y-55441476D01*
X59913000Y-55320155D01*
X59913000Y-54127000D01*
X60167000Y-54127000D01*
X60167000Y-55320155D01*
X60396890Y-55441476D01*
X60544099Y-55396825D01*
X60806920Y-55271641D01*
X61040269Y-55097588D01*
X61235178Y-54881355D01*
X61384157Y-54631252D01*
X61481481Y-54356891D01*
X61360814Y-54127000D01*
X60167000Y-54127000D01*
X59913000Y-54127000D01*
X59893000Y-54127000D01*
X59893000Y-53873000D01*
X59913000Y-53873000D01*
X59913000Y-52679845D01*
X60167000Y-52679845D01*
X60167000Y-53873000D01*
X61360814Y-53873000D01*
X61481481Y-53643109D01*
X61384157Y-53368748D01*
X61235178Y-53118645D01*
X61040269Y-52902412D01*
X60806920Y-52728359D01*
X60544099Y-52603175D01*
X60396890Y-52558524D01*
X60167000Y-52679845D01*
X59913000Y-52679845D01*
X59683110Y-52558524D01*
X59535901Y-52603175D01*
X59273080Y-52728359D01*
X59039731Y-52902412D01*
X58963966Y-52986466D01*
X58939502Y-52905820D01*
X58880537Y-52795506D01*
X58801185Y-52698815D01*
X58704494Y-52619463D01*
X58594180Y-52560498D01*
X58474482Y-52524188D01*
X58350000Y-52511928D01*
X56650000Y-52511928D01*
X56525518Y-52524188D01*
X56405820Y-52560498D01*
X56295506Y-52619463D01*
X56198815Y-52698815D01*
X56119463Y-52795506D01*
X56060498Y-52905820D01*
X56024188Y-53025518D01*
X56011928Y-53150000D01*
X51095925Y-53150000D01*
X51266638Y-52792095D01*
X51716626Y-52165870D01*
X52270403Y-51629223D01*
X52910451Y-51199129D01*
X53616553Y-50889171D01*
X54371457Y-50707935D01*
X55024207Y-50660000D01*
X94970608Y-50660000D01*
X95768083Y-50731173D01*
G36*
X62273000Y-69100000D02*
G01*
X62275440Y-69124776D01*
X62282667Y-69148601D01*
X62294403Y-69170557D01*
X62310197Y-69189803D01*
X62329443Y-69205597D01*
X62351399Y-69217333D01*
X62375224Y-69224560D01*
X62400000Y-69227000D01*
X63654607Y-69227000D01*
X63729744Y-69277205D01*
X63918102Y-69355226D01*
X64118061Y-69395000D01*
X64321939Y-69395000D01*
X64521898Y-69355226D01*
X64710256Y-69277205D01*
X64785393Y-69227000D01*
X68073000Y-69227000D01*
X68073000Y-70173000D01*
X65900000Y-70173000D01*
X65875224Y-70175440D01*
X65851399Y-70182667D01*
X65829443Y-70194403D01*
X65810197Y-70210197D01*
X65794403Y-70229443D01*
X65782667Y-70251399D01*
X65775440Y-70275224D01*
X65773000Y-70300000D01*
X65773000Y-71873000D01*
X62000000Y-71873000D01*
X61975224Y-71875440D01*
X61951399Y-71882667D01*
X61929443Y-71894403D01*
X61910197Y-71910197D01*
X61894403Y-71929443D01*
X61882667Y-71951399D01*
X61875440Y-71975224D01*
X61873000Y-72000000D01*
X61873000Y-73173000D01*
X58727000Y-73173000D01*
X58727000Y-67127000D01*
X59400000Y-67127000D01*
X59424776Y-67124560D01*
X59448601Y-67117333D01*
X59470557Y-67105597D01*
X59489803Y-67089803D01*
X59505597Y-67070557D01*
X59517333Y-67048601D01*
X59524560Y-67024776D01*
X59527000Y-67000000D01*
X59527000Y-66027000D01*
X62273000Y-66027000D01*
X62273000Y-69100000D01*
G37*
X62273000Y-69100000D02*
X62275440Y-69124776D01*
X62282667Y-69148601D01*
X62294403Y-69170557D01*
X62310197Y-69189803D01*
X62329443Y-69205597D01*
X62351399Y-69217333D01*
X62375224Y-69224560D01*
X62400000Y-69227000D01*
X63654607Y-69227000D01*
X63729744Y-69277205D01*
X63918102Y-69355226D01*
X64118061Y-69395000D01*
X64321939Y-69395000D01*
X64521898Y-69355226D01*
X64710256Y-69277205D01*
X64785393Y-69227000D01*
X68073000Y-69227000D01*
X68073000Y-70173000D01*
X65900000Y-70173000D01*
X65875224Y-70175440D01*
X65851399Y-70182667D01*
X65829443Y-70194403D01*
X65810197Y-70210197D01*
X65794403Y-70229443D01*
X65782667Y-70251399D01*
X65775440Y-70275224D01*
X65773000Y-70300000D01*
X65773000Y-71873000D01*
X62000000Y-71873000D01*
X61975224Y-71875440D01*
X61951399Y-71882667D01*
X61929443Y-71894403D01*
X61910197Y-71910197D01*
X61894403Y-71929443D01*
X61882667Y-71951399D01*
X61875440Y-71975224D01*
X61873000Y-72000000D01*
X61873000Y-73173000D01*
X58727000Y-73173000D01*
X58727000Y-67127000D01*
X59400000Y-67127000D01*
X59424776Y-67124560D01*
X59448601Y-67117333D01*
X59470557Y-67105597D01*
X59489803Y-67089803D01*
X59505597Y-67070557D01*
X59517333Y-67048601D01*
X59524560Y-67024776D01*
X59527000Y-67000000D01*
X59527000Y-66027000D01*
X62273000Y-66027000D01*
X62273000Y-69100000D01*
M02*
