G04 #@! TF.GenerationSoftware,KiCad,Pcbnew,(5.1.5-0-10_14)*
G04 #@! TF.CreationDate,2021-04-10T11:01:01-04:00*
G04 #@! TF.ProjectId,E90,4539302e-6b69-4636-9164-5f7063625858,rev?*
G04 #@! TF.SameCoordinates,Original*
G04 #@! TF.FileFunction,Legend,Top*
G04 #@! TF.FilePolarity,Positive*
%FSLAX46Y46*%
G04 Gerber Fmt 4.6, Leading zero omitted, Abs format (unit mm)*
G04 Created by KiCad (PCBNEW (5.1.5-0-10_14)) date 2021-04-10 11:01:01*
%MOMM*%
%LPD*%
G04 APERTURE LIST*
%ADD10C,0.150000*%
%ADD11C,0.300000*%
%ADD12C,0.400000*%
%ADD13C,0.250000*%
%ADD14C,0.010000*%
%ADD15C,0.120000*%
%ADD16C,0.200000*%
%ADD17C,0.127000*%
%ADD18C,0.100000*%
G04 APERTURE END LIST*
D10*
X64130952Y-78352380D02*
X64130952Y-79066666D01*
X64083333Y-79209523D01*
X63988095Y-79304761D01*
X63845238Y-79352380D01*
X63750000Y-79352380D01*
X65083333Y-79352380D02*
X64607142Y-79352380D01*
X64607142Y-78352380D01*
X65988095Y-79257142D02*
X65940476Y-79304761D01*
X65797619Y-79352380D01*
X65702380Y-79352380D01*
X65559523Y-79304761D01*
X65464285Y-79209523D01*
X65416666Y-79114285D01*
X65369047Y-78923809D01*
X65369047Y-78780952D01*
X65416666Y-78590476D01*
X65464285Y-78495238D01*
X65559523Y-78400000D01*
X65702380Y-78352380D01*
X65797619Y-78352380D01*
X65940476Y-78400000D01*
X65988095Y-78447619D01*
X66702380Y-78352380D02*
X66702380Y-79066666D01*
X66654761Y-79209523D01*
X66559523Y-79304761D01*
X66416666Y-79352380D01*
X66321428Y-79352380D01*
X67654761Y-79352380D02*
X67178571Y-79352380D01*
X67178571Y-78352380D01*
X68559523Y-79257142D02*
X68511904Y-79304761D01*
X68369047Y-79352380D01*
X68273809Y-79352380D01*
X68130952Y-79304761D01*
X68035714Y-79209523D01*
X67988095Y-79114285D01*
X67940476Y-78923809D01*
X67940476Y-78780952D01*
X67988095Y-78590476D01*
X68035714Y-78495238D01*
X68130952Y-78400000D01*
X68273809Y-78352380D01*
X68369047Y-78352380D01*
X68511904Y-78400000D01*
X68559523Y-78447619D01*
X69273809Y-78352380D02*
X69273809Y-79066666D01*
X69226190Y-79209523D01*
X69130952Y-79304761D01*
X68988095Y-79352380D01*
X68892857Y-79352380D01*
X70226190Y-79352380D02*
X69750000Y-79352380D01*
X69750000Y-78352380D01*
X71130952Y-79257142D02*
X71083333Y-79304761D01*
X70940476Y-79352380D01*
X70845238Y-79352380D01*
X70702380Y-79304761D01*
X70607142Y-79209523D01*
X70559523Y-79114285D01*
X70511904Y-78923809D01*
X70511904Y-78780952D01*
X70559523Y-78590476D01*
X70607142Y-78495238D01*
X70702380Y-78400000D01*
X70845238Y-78352380D01*
X70940476Y-78352380D01*
X71083333Y-78400000D01*
X71130952Y-78447619D01*
X71845238Y-78352380D02*
X71845238Y-79066666D01*
X71797619Y-79209523D01*
X71702380Y-79304761D01*
X71559523Y-79352380D01*
X71464285Y-79352380D01*
X72797619Y-79352380D02*
X72321428Y-79352380D01*
X72321428Y-78352380D01*
X73702380Y-79257142D02*
X73654761Y-79304761D01*
X73511904Y-79352380D01*
X73416666Y-79352380D01*
X73273809Y-79304761D01*
X73178571Y-79209523D01*
X73130952Y-79114285D01*
X73083333Y-78923809D01*
X73083333Y-78780952D01*
X73130952Y-78590476D01*
X73178571Y-78495238D01*
X73273809Y-78400000D01*
X73416666Y-78352380D01*
X73511904Y-78352380D01*
X73654761Y-78400000D01*
X73702380Y-78447619D01*
D11*
X81625044Y-97750000D02*
G75*
G03X81625044Y-97750000I-125044J0D01*
G01*
X101125044Y-35075000D02*
G75*
G03X101125044Y-35075000I-125044J0D01*
G01*
X66225044Y-39800000D02*
G75*
G03X66225044Y-39800000I-125044J0D01*
G01*
D12*
X65600044Y-94300000D02*
G75*
G03X65600044Y-94300000I-125044J0D01*
G01*
D10*
X93719047Y-30446428D02*
X94480952Y-30446428D01*
X94100000Y-30827380D02*
X94100000Y-30065476D01*
X102719047Y-27946428D02*
X103480952Y-27946428D01*
X103100000Y-28327380D02*
X103100000Y-27565476D01*
X45325000Y-81475000D02*
X45372619Y-81379761D01*
X45372619Y-81236904D01*
X45325000Y-81094047D01*
X45229761Y-80998809D01*
X45134523Y-80951190D01*
X44944047Y-80903571D01*
X44801190Y-80903571D01*
X44610714Y-80951190D01*
X44515476Y-80998809D01*
X44420238Y-81094047D01*
X44372619Y-81236904D01*
X44372619Y-81332142D01*
X44420238Y-81475000D01*
X44467857Y-81522619D01*
X44801190Y-81522619D01*
X44801190Y-81332142D01*
X44372619Y-81951190D02*
X45372619Y-81951190D01*
X45372619Y-82332142D01*
X45325000Y-82427380D01*
X45277380Y-82475000D01*
X45182142Y-82522619D01*
X45039285Y-82522619D01*
X44944047Y-82475000D01*
X44896428Y-82427380D01*
X44848809Y-82332142D01*
X44848809Y-81951190D01*
X44372619Y-82951190D02*
X45372619Y-82951190D01*
X45372619Y-83617857D02*
X45372619Y-83808333D01*
X45325000Y-83903571D01*
X45229761Y-83998809D01*
X45039285Y-84046428D01*
X44705952Y-84046428D01*
X44515476Y-83998809D01*
X44420238Y-83903571D01*
X44372619Y-83808333D01*
X44372619Y-83617857D01*
X44420238Y-83522619D01*
X44515476Y-83427380D01*
X44705952Y-83379761D01*
X45039285Y-83379761D01*
X45229761Y-83427380D01*
X45325000Y-83522619D01*
X45372619Y-83617857D01*
D11*
X62100044Y-85674956D02*
G75*
G03X62100044Y-85674956I-125044J0D01*
G01*
D10*
X113044047Y-44321428D02*
X113805952Y-44321428D01*
X113425000Y-44702380D02*
X113425000Y-43940476D01*
X75921428Y-35096428D02*
X76683333Y-35096428D01*
X76302380Y-35477380D02*
X76302380Y-34715476D01*
X79016666Y-34953571D02*
X79159523Y-35001190D01*
X79207142Y-35048809D01*
X79254761Y-35144047D01*
X79254761Y-35286904D01*
X79207142Y-35382142D01*
X79159523Y-35429761D01*
X79064285Y-35477380D01*
X78683333Y-35477380D01*
X78683333Y-34477380D01*
X79016666Y-34477380D01*
X79111904Y-34525000D01*
X79159523Y-34572619D01*
X79207142Y-34667857D01*
X79207142Y-34763095D01*
X79159523Y-34858333D01*
X79111904Y-34905952D01*
X79016666Y-34953571D01*
X78683333Y-34953571D01*
X79873809Y-34477380D02*
X80064285Y-34477380D01*
X80159523Y-34525000D01*
X80254761Y-34620238D01*
X80302380Y-34810714D01*
X80302380Y-35144047D01*
X80254761Y-35334523D01*
X80159523Y-35429761D01*
X80064285Y-35477380D01*
X79873809Y-35477380D01*
X79778571Y-35429761D01*
X79683333Y-35334523D01*
X79635714Y-35144047D01*
X79635714Y-34810714D01*
X79683333Y-34620238D01*
X79778571Y-34525000D01*
X79873809Y-34477380D01*
X80921428Y-34477380D02*
X81111904Y-34477380D01*
X81207142Y-34525000D01*
X81302380Y-34620238D01*
X81350000Y-34810714D01*
X81350000Y-35144047D01*
X81302380Y-35334523D01*
X81207142Y-35429761D01*
X81111904Y-35477380D01*
X80921428Y-35477380D01*
X80826190Y-35429761D01*
X80730952Y-35334523D01*
X80683333Y-35144047D01*
X80683333Y-34810714D01*
X80730952Y-34620238D01*
X80826190Y-34525000D01*
X80921428Y-34477380D01*
X81635714Y-34477380D02*
X82207142Y-34477380D01*
X81921428Y-35477380D02*
X81921428Y-34477380D01*
X82730952Y-34477380D02*
X82826190Y-34477380D01*
X82921428Y-34525000D01*
X82969047Y-34572619D01*
X83016666Y-34667857D01*
X83064285Y-34858333D01*
X83064285Y-35096428D01*
X83016666Y-35286904D01*
X82969047Y-35382142D01*
X82921428Y-35429761D01*
X82826190Y-35477380D01*
X82730952Y-35477380D01*
X82635714Y-35429761D01*
X82588095Y-35382142D01*
X82540476Y-35286904D01*
X82492857Y-35096428D01*
X82492857Y-34858333D01*
X82540476Y-34667857D01*
X82588095Y-34572619D01*
X82635714Y-34525000D01*
X82730952Y-34477380D01*
X85016666Y-35096428D02*
X85778571Y-35096428D01*
X75871428Y-26371428D02*
X76633333Y-26371428D01*
X76252380Y-26752380D02*
X76252380Y-25990476D01*
X78966666Y-26228571D02*
X79109523Y-26276190D01*
X79157142Y-26323809D01*
X79204761Y-26419047D01*
X79204761Y-26561904D01*
X79157142Y-26657142D01*
X79109523Y-26704761D01*
X79014285Y-26752380D01*
X78633333Y-26752380D01*
X78633333Y-25752380D01*
X78966666Y-25752380D01*
X79061904Y-25800000D01*
X79109523Y-25847619D01*
X79157142Y-25942857D01*
X79157142Y-26038095D01*
X79109523Y-26133333D01*
X79061904Y-26180952D01*
X78966666Y-26228571D01*
X78633333Y-26228571D01*
X79823809Y-25752380D02*
X80014285Y-25752380D01*
X80109523Y-25800000D01*
X80204761Y-25895238D01*
X80252380Y-26085714D01*
X80252380Y-26419047D01*
X80204761Y-26609523D01*
X80109523Y-26704761D01*
X80014285Y-26752380D01*
X79823809Y-26752380D01*
X79728571Y-26704761D01*
X79633333Y-26609523D01*
X79585714Y-26419047D01*
X79585714Y-26085714D01*
X79633333Y-25895238D01*
X79728571Y-25800000D01*
X79823809Y-25752380D01*
X80871428Y-25752380D02*
X81061904Y-25752380D01*
X81157142Y-25800000D01*
X81252380Y-25895238D01*
X81300000Y-26085714D01*
X81300000Y-26419047D01*
X81252380Y-26609523D01*
X81157142Y-26704761D01*
X81061904Y-26752380D01*
X80871428Y-26752380D01*
X80776190Y-26704761D01*
X80680952Y-26609523D01*
X80633333Y-26419047D01*
X80633333Y-26085714D01*
X80680952Y-25895238D01*
X80776190Y-25800000D01*
X80871428Y-25752380D01*
X81585714Y-25752380D02*
X82157142Y-25752380D01*
X81871428Y-26752380D02*
X81871428Y-25752380D01*
X83014285Y-26752380D02*
X82442857Y-26752380D01*
X82728571Y-26752380D02*
X82728571Y-25752380D01*
X82633333Y-25895238D01*
X82538095Y-25990476D01*
X82442857Y-26038095D01*
X84966666Y-26371428D02*
X85728571Y-26371428D01*
D11*
X61665476Y-122959523D02*
X61951190Y-123054761D01*
X62427380Y-123054761D01*
X62617857Y-122959523D01*
X62713095Y-122864285D01*
X62808333Y-122673809D01*
X62808333Y-122483333D01*
X62713095Y-122292857D01*
X62617857Y-122197619D01*
X62427380Y-122102380D01*
X62046428Y-122007142D01*
X61855952Y-121911904D01*
X61760714Y-121816666D01*
X61665476Y-121626190D01*
X61665476Y-121435714D01*
X61760714Y-121245238D01*
X61855952Y-121150000D01*
X62046428Y-121054761D01*
X62522619Y-121054761D01*
X62808333Y-121150000D01*
X63665476Y-123054761D02*
X63665476Y-121054761D01*
X63855952Y-122292857D02*
X64427380Y-123054761D01*
X64427380Y-121721428D02*
X63665476Y-122483333D01*
X65094047Y-121721428D02*
X65570238Y-123054761D01*
X66046428Y-121721428D02*
X65570238Y-123054761D01*
X65379761Y-123530952D01*
X65284523Y-123626190D01*
X65094047Y-123721428D01*
X67094047Y-123054761D02*
X66903571Y-122959523D01*
X66808333Y-122769047D01*
X66808333Y-121054761D01*
X68617857Y-122959523D02*
X68427380Y-123054761D01*
X68046428Y-123054761D01*
X67855952Y-122959523D01*
X67760714Y-122769047D01*
X67760714Y-122007142D01*
X67855952Y-121816666D01*
X68046428Y-121721428D01*
X68427380Y-121721428D01*
X68617857Y-121816666D01*
X68713095Y-122007142D01*
X68713095Y-122197619D01*
X67760714Y-122388095D01*
X69570238Y-123054761D02*
X69570238Y-121721428D01*
X69570238Y-122102380D02*
X69665476Y-121911904D01*
X69760714Y-121816666D01*
X69951190Y-121721428D01*
X70141666Y-121721428D01*
X73475000Y-122864285D02*
X73379761Y-122959523D01*
X73094047Y-123054761D01*
X72903571Y-123054761D01*
X72617857Y-122959523D01*
X72427380Y-122769047D01*
X72332142Y-122578571D01*
X72236904Y-122197619D01*
X72236904Y-121911904D01*
X72332142Y-121530952D01*
X72427380Y-121340476D01*
X72617857Y-121150000D01*
X72903571Y-121054761D01*
X73094047Y-121054761D01*
X73379761Y-121150000D01*
X73475000Y-121245238D01*
X74617857Y-123054761D02*
X74427380Y-122959523D01*
X74332142Y-122864285D01*
X74236904Y-122673809D01*
X74236904Y-122102380D01*
X74332142Y-121911904D01*
X74427380Y-121816666D01*
X74617857Y-121721428D01*
X74903571Y-121721428D01*
X75094047Y-121816666D01*
X75189285Y-121911904D01*
X75284523Y-122102380D01*
X75284523Y-122673809D01*
X75189285Y-122864285D01*
X75094047Y-122959523D01*
X74903571Y-123054761D01*
X74617857Y-123054761D01*
X76141666Y-123054761D02*
X76141666Y-121721428D01*
X76141666Y-122102380D02*
X76236904Y-121911904D01*
X76332142Y-121816666D01*
X76522619Y-121721428D01*
X76713095Y-121721428D01*
X77379761Y-121721428D02*
X77379761Y-123054761D01*
X77379761Y-121911904D02*
X77475000Y-121816666D01*
X77665476Y-121721428D01*
X77951190Y-121721428D01*
X78141666Y-121816666D01*
X78236904Y-122007142D01*
X78236904Y-123054761D01*
X79951190Y-122959523D02*
X79760714Y-123054761D01*
X79379761Y-123054761D01*
X79189285Y-122959523D01*
X79094047Y-122769047D01*
X79094047Y-122007142D01*
X79189285Y-121816666D01*
X79379761Y-121721428D01*
X79760714Y-121721428D01*
X79951190Y-121816666D01*
X80046428Y-122007142D01*
X80046428Y-122197619D01*
X79094047Y-122388095D01*
X81189285Y-123054761D02*
X80998809Y-122959523D01*
X80903571Y-122769047D01*
X80903571Y-121054761D01*
X82236904Y-123054761D02*
X82046428Y-122959523D01*
X81951190Y-122769047D01*
X81951190Y-121054761D01*
X84522619Y-122007142D02*
X85189285Y-122007142D01*
X85475000Y-123054761D02*
X84522619Y-123054761D01*
X84522619Y-121054761D01*
X85475000Y-121054761D01*
X86427380Y-123054761D02*
X86808333Y-123054761D01*
X86998809Y-122959523D01*
X87094047Y-122864285D01*
X87284523Y-122578571D01*
X87379761Y-122197619D01*
X87379761Y-121435714D01*
X87284523Y-121245238D01*
X87189285Y-121150000D01*
X86998809Y-121054761D01*
X86617857Y-121054761D01*
X86427380Y-121150000D01*
X86332142Y-121245238D01*
X86236904Y-121435714D01*
X86236904Y-121911904D01*
X86332142Y-122102380D01*
X86427380Y-122197619D01*
X86617857Y-122292857D01*
X86998809Y-122292857D01*
X87189285Y-122197619D01*
X87284523Y-122102380D01*
X87379761Y-121911904D01*
X88617857Y-121054761D02*
X88808333Y-121054761D01*
X88998809Y-121150000D01*
X89094047Y-121245238D01*
X89189285Y-121435714D01*
X89284523Y-121816666D01*
X89284523Y-122292857D01*
X89189285Y-122673809D01*
X89094047Y-122864285D01*
X88998809Y-122959523D01*
X88808333Y-123054761D01*
X88617857Y-123054761D01*
X88427380Y-122959523D01*
X88332142Y-122864285D01*
X88236904Y-122673809D01*
X88141666Y-122292857D01*
X88141666Y-121816666D01*
X88236904Y-121435714D01*
X88332142Y-121245238D01*
X88427380Y-121150000D01*
X88617857Y-121054761D01*
X91570238Y-122483333D02*
X92522619Y-122483333D01*
X91379761Y-123054761D02*
X92046428Y-121054761D01*
X92713095Y-123054761D01*
X94236904Y-121721428D02*
X94236904Y-123054761D01*
X93379761Y-121721428D02*
X93379761Y-122769047D01*
X93474999Y-122959523D01*
X93665476Y-123054761D01*
X93951190Y-123054761D01*
X94141666Y-122959523D01*
X94236904Y-122864285D01*
X96046428Y-123054761D02*
X96046428Y-121054761D01*
X96046428Y-122959523D02*
X95855952Y-123054761D01*
X95475000Y-123054761D01*
X95284523Y-122959523D01*
X95189285Y-122864285D01*
X95094047Y-122673809D01*
X95094047Y-122102380D01*
X95189285Y-121911904D01*
X95284523Y-121816666D01*
X95475000Y-121721428D01*
X95855952Y-121721428D01*
X96046428Y-121816666D01*
X96998809Y-123054761D02*
X96998809Y-121721428D01*
X96998809Y-121054761D02*
X96903571Y-121150000D01*
X96998809Y-121245238D01*
X97094047Y-121150000D01*
X96998809Y-121054761D01*
X96998809Y-121245238D01*
X98236904Y-123054761D02*
X98046428Y-122959523D01*
X97951190Y-122864285D01*
X97855952Y-122673809D01*
X97855952Y-122102380D01*
X97951190Y-121911904D01*
X98046428Y-121816666D01*
X98236904Y-121721428D01*
X98522619Y-121721428D01*
X98713095Y-121816666D01*
X98808333Y-121911904D01*
X98903571Y-122102380D01*
X98903571Y-122673809D01*
X98808333Y-122864285D01*
X98713095Y-122959523D01*
X98522619Y-123054761D01*
X98236904Y-123054761D01*
X101284523Y-123054761D02*
X101284523Y-121054761D01*
X101760714Y-121054761D01*
X102046428Y-121150000D01*
X102236904Y-121340476D01*
X102332142Y-121530952D01*
X102427380Y-121911904D01*
X102427380Y-122197619D01*
X102332142Y-122578571D01*
X102236904Y-122769047D01*
X102046428Y-122959523D01*
X101760714Y-123054761D01*
X101284523Y-123054761D01*
X103189285Y-122959523D02*
X103474999Y-123054761D01*
X103951190Y-123054761D01*
X104141666Y-122959523D01*
X104236904Y-122864285D01*
X104332142Y-122673809D01*
X104332142Y-122483333D01*
X104236904Y-122292857D01*
X104141666Y-122197619D01*
X103951190Y-122102380D01*
X103570238Y-122007142D01*
X103379761Y-121911904D01*
X103284523Y-121816666D01*
X103189285Y-121626190D01*
X103189285Y-121435714D01*
X103284523Y-121245238D01*
X103379761Y-121150000D01*
X103570238Y-121054761D01*
X104046428Y-121054761D01*
X104332142Y-121150000D01*
X105189285Y-123054761D02*
X105189285Y-121054761D01*
X105951190Y-121054761D01*
X106141666Y-121150000D01*
X106236904Y-121245238D01*
X106332142Y-121435714D01*
X106332142Y-121721428D01*
X106236904Y-121911904D01*
X106141666Y-122007142D01*
X105951190Y-122102380D01*
X105189285Y-122102380D01*
X109855952Y-123054761D02*
X109189285Y-122102380D01*
X108713095Y-123054761D02*
X108713095Y-121054761D01*
X109474999Y-121054761D01*
X109665476Y-121150000D01*
X109760714Y-121245238D01*
X109855952Y-121435714D01*
X109855952Y-121721428D01*
X109760714Y-121911904D01*
X109665476Y-122007142D01*
X109474999Y-122102380D01*
X108713095Y-122102380D01*
X110713095Y-122007142D02*
X111379761Y-122007142D01*
X111665476Y-123054761D02*
X110713095Y-123054761D01*
X110713095Y-121054761D01*
X111665476Y-121054761D01*
X112236904Y-121054761D02*
X112903571Y-123054761D01*
X113570238Y-121054761D01*
X114141666Y-121245238D02*
X114236904Y-121150000D01*
X114427380Y-121054761D01*
X114903571Y-121054761D01*
X115094047Y-121150000D01*
X115189285Y-121245238D01*
X115284523Y-121435714D01*
X115284523Y-121626190D01*
X115189285Y-121911904D01*
X114046428Y-123054761D01*
X115284523Y-123054761D01*
D13*
X118359523Y-40498809D02*
X118664285Y-40498809D01*
X118816666Y-40422619D01*
X118892857Y-40346428D01*
X119045238Y-40117857D01*
X119121428Y-39813095D01*
X119121428Y-39203571D01*
X119045238Y-39051190D01*
X118969047Y-38975000D01*
X118816666Y-38898809D01*
X118511904Y-38898809D01*
X118359523Y-38975000D01*
X118283333Y-39051190D01*
X118207142Y-39203571D01*
X118207142Y-39584523D01*
X118283333Y-39736904D01*
X118359523Y-39813095D01*
X118511904Y-39889285D01*
X118816666Y-39889285D01*
X118969047Y-39813095D01*
X119045238Y-39736904D01*
X119121428Y-39584523D01*
X119578571Y-38898809D02*
X120111904Y-40498809D01*
X120645238Y-38898809D01*
D10*
X50038095Y-38300000D02*
X49942857Y-38252380D01*
X49800000Y-38252380D01*
X49657142Y-38300000D01*
X49561904Y-38395238D01*
X49514285Y-38490476D01*
X49466666Y-38680952D01*
X49466666Y-38823809D01*
X49514285Y-39014285D01*
X49561904Y-39109523D01*
X49657142Y-39204761D01*
X49800000Y-39252380D01*
X49895238Y-39252380D01*
X50038095Y-39204761D01*
X50085714Y-39157142D01*
X50085714Y-38823809D01*
X49895238Y-38823809D01*
X50514285Y-39252380D02*
X50514285Y-38252380D01*
X51085714Y-39252380D01*
X51085714Y-38252380D01*
X51561904Y-39252380D02*
X51561904Y-38252380D01*
X51800000Y-38252380D01*
X51942857Y-38300000D01*
X52038095Y-38395238D01*
X52085714Y-38490476D01*
X52133333Y-38680952D01*
X52133333Y-38823809D01*
X52085714Y-39014285D01*
X52038095Y-39109523D01*
X51942857Y-39204761D01*
X51800000Y-39252380D01*
X51561904Y-39252380D01*
X49423809Y-41352380D02*
X50042857Y-41352380D01*
X49709523Y-41733333D01*
X49852380Y-41733333D01*
X49947619Y-41780952D01*
X49995238Y-41828571D01*
X50042857Y-41923809D01*
X50042857Y-42161904D01*
X49995238Y-42257142D01*
X49947619Y-42304761D01*
X49852380Y-42352380D01*
X49566666Y-42352380D01*
X49471428Y-42304761D01*
X49423809Y-42257142D01*
X50471428Y-42257142D02*
X50519047Y-42304761D01*
X50471428Y-42352380D01*
X50423809Y-42304761D01*
X50471428Y-42257142D01*
X50471428Y-42352380D01*
X50852380Y-41352380D02*
X51471428Y-41352380D01*
X51138095Y-41733333D01*
X51280952Y-41733333D01*
X51376190Y-41780952D01*
X51423809Y-41828571D01*
X51471428Y-41923809D01*
X51471428Y-42161904D01*
X51423809Y-42257142D01*
X51376190Y-42304761D01*
X51280952Y-42352380D01*
X50995238Y-42352380D01*
X50900000Y-42304761D01*
X50852380Y-42257142D01*
X51757142Y-41352380D02*
X52090476Y-42352380D01*
X52423809Y-41352380D01*
X44472619Y-90298809D02*
X45472619Y-90298809D01*
X45377380Y-90727380D02*
X45425000Y-90775000D01*
X45472619Y-90870238D01*
X45472619Y-91108333D01*
X45425000Y-91203571D01*
X45377380Y-91251190D01*
X45282142Y-91298809D01*
X45186904Y-91298809D01*
X45044047Y-91251190D01*
X44472619Y-90679761D01*
X44472619Y-91298809D01*
X44567857Y-92298809D02*
X44520238Y-92251190D01*
X44472619Y-92108333D01*
X44472619Y-92013095D01*
X44520238Y-91870238D01*
X44615476Y-91775000D01*
X44710714Y-91727380D01*
X44901190Y-91679761D01*
X45044047Y-91679761D01*
X45234523Y-91727380D01*
X45329761Y-91775000D01*
X45425000Y-91870238D01*
X45472619Y-92013095D01*
X45472619Y-92108333D01*
X45425000Y-92251190D01*
X45377380Y-92298809D01*
X52338095Y-70979761D02*
X52480952Y-71027380D01*
X52719047Y-71027380D01*
X52814285Y-70979761D01*
X52861904Y-70932142D01*
X52909523Y-70836904D01*
X52909523Y-70741666D01*
X52861904Y-70646428D01*
X52814285Y-70598809D01*
X52719047Y-70551190D01*
X52528571Y-70503571D01*
X52433333Y-70455952D01*
X52385714Y-70408333D01*
X52338095Y-70313095D01*
X52338095Y-70217857D01*
X52385714Y-70122619D01*
X52433333Y-70075000D01*
X52528571Y-70027380D01*
X52766666Y-70027380D01*
X52909523Y-70075000D01*
X53242857Y-70027380D02*
X53480952Y-71027380D01*
X53671428Y-70313095D01*
X53861904Y-71027380D01*
X54100000Y-70027380D01*
X55052380Y-70932142D02*
X55004761Y-70979761D01*
X54861904Y-71027380D01*
X54766666Y-71027380D01*
X54623809Y-70979761D01*
X54528571Y-70884523D01*
X54480952Y-70789285D01*
X54433333Y-70598809D01*
X54433333Y-70455952D01*
X54480952Y-70265476D01*
X54528571Y-70170238D01*
X54623809Y-70075000D01*
X54766666Y-70027380D01*
X54861904Y-70027380D01*
X55004761Y-70075000D01*
X55052380Y-70122619D01*
X55957142Y-71027380D02*
X55480952Y-71027380D01*
X55480952Y-70027380D01*
X56290476Y-71027380D02*
X56290476Y-70027380D01*
X56861904Y-71027380D02*
X56433333Y-70455952D01*
X56861904Y-70027380D02*
X56290476Y-70598809D01*
X52323809Y-72452380D02*
X52942857Y-72452380D01*
X52609523Y-72833333D01*
X52752380Y-72833333D01*
X52847619Y-72880952D01*
X52895238Y-72928571D01*
X52942857Y-73023809D01*
X52942857Y-73261904D01*
X52895238Y-73357142D01*
X52847619Y-73404761D01*
X52752380Y-73452380D01*
X52466666Y-73452380D01*
X52371428Y-73404761D01*
X52323809Y-73357142D01*
X53371428Y-73357142D02*
X53419047Y-73404761D01*
X53371428Y-73452380D01*
X53323809Y-73404761D01*
X53371428Y-73357142D01*
X53371428Y-73452380D01*
X53752380Y-72452380D02*
X54371428Y-72452380D01*
X54038095Y-72833333D01*
X54180952Y-72833333D01*
X54276190Y-72880952D01*
X54323809Y-72928571D01*
X54371428Y-73023809D01*
X54371428Y-73261904D01*
X54323809Y-73357142D01*
X54276190Y-73404761D01*
X54180952Y-73452380D01*
X53895238Y-73452380D01*
X53800000Y-73404761D01*
X53752380Y-73357142D01*
X54657142Y-72452380D02*
X54990476Y-73452380D01*
X55323809Y-72452380D01*
X53138095Y-75300000D02*
X53042857Y-75252380D01*
X52900000Y-75252380D01*
X52757142Y-75300000D01*
X52661904Y-75395238D01*
X52614285Y-75490476D01*
X52566666Y-75680952D01*
X52566666Y-75823809D01*
X52614285Y-76014285D01*
X52661904Y-76109523D01*
X52757142Y-76204761D01*
X52900000Y-76252380D01*
X52995238Y-76252380D01*
X53138095Y-76204761D01*
X53185714Y-76157142D01*
X53185714Y-75823809D01*
X52995238Y-75823809D01*
X53614285Y-76252380D02*
X53614285Y-75252380D01*
X54185714Y-76252380D01*
X54185714Y-75252380D01*
X54661904Y-76252380D02*
X54661904Y-75252380D01*
X54900000Y-75252380D01*
X55042857Y-75300000D01*
X55138095Y-75395238D01*
X55185714Y-75490476D01*
X55233333Y-75680952D01*
X55233333Y-75823809D01*
X55185714Y-76014285D01*
X55138095Y-76109523D01*
X55042857Y-76204761D01*
X54900000Y-76252380D01*
X54661904Y-76252380D01*
X44238095Y-75200000D02*
X44142857Y-75152380D01*
X44000000Y-75152380D01*
X43857142Y-75200000D01*
X43761904Y-75295238D01*
X43714285Y-75390476D01*
X43666666Y-75580952D01*
X43666666Y-75723809D01*
X43714285Y-75914285D01*
X43761904Y-76009523D01*
X43857142Y-76104761D01*
X44000000Y-76152380D01*
X44095238Y-76152380D01*
X44238095Y-76104761D01*
X44285714Y-76057142D01*
X44285714Y-75723809D01*
X44095238Y-75723809D01*
X44714285Y-76152380D02*
X44714285Y-75152380D01*
X45285714Y-76152380D01*
X45285714Y-75152380D01*
X45761904Y-76152380D02*
X45761904Y-75152380D01*
X46000000Y-75152380D01*
X46142857Y-75200000D01*
X46238095Y-75295238D01*
X46285714Y-75390476D01*
X46333333Y-75580952D01*
X46333333Y-75723809D01*
X46285714Y-75914285D01*
X46238095Y-76009523D01*
X46142857Y-76104761D01*
X46000000Y-76152380D01*
X45761904Y-76152380D01*
X43519047Y-73404761D02*
X43661904Y-73452380D01*
X43900000Y-73452380D01*
X43995238Y-73404761D01*
X44042857Y-73357142D01*
X44090476Y-73261904D01*
X44090476Y-73166666D01*
X44042857Y-73071428D01*
X43995238Y-73023809D01*
X43900000Y-72976190D01*
X43709523Y-72928571D01*
X43614285Y-72880952D01*
X43566666Y-72833333D01*
X43519047Y-72738095D01*
X43519047Y-72642857D01*
X43566666Y-72547619D01*
X43614285Y-72500000D01*
X43709523Y-72452380D01*
X43947619Y-72452380D01*
X44090476Y-72500000D01*
X44423809Y-72452380D02*
X44661904Y-73452380D01*
X44852380Y-72738095D01*
X45042857Y-73452380D01*
X45280952Y-72452380D01*
X45852380Y-72452380D02*
X46042857Y-72452380D01*
X46138095Y-72500000D01*
X46233333Y-72595238D01*
X46280952Y-72785714D01*
X46280952Y-73119047D01*
X46233333Y-73309523D01*
X46138095Y-73404761D01*
X46042857Y-73452380D01*
X45852380Y-73452380D01*
X45757142Y-73404761D01*
X45661904Y-73309523D01*
X45614285Y-73119047D01*
X45614285Y-72785714D01*
X45661904Y-72595238D01*
X45757142Y-72500000D01*
X45852380Y-72452380D01*
X42680952Y-70904761D02*
X42823809Y-70952380D01*
X43061904Y-70952380D01*
X43157142Y-70904761D01*
X43204761Y-70857142D01*
X43252380Y-70761904D01*
X43252380Y-70666666D01*
X43204761Y-70571428D01*
X43157142Y-70523809D01*
X43061904Y-70476190D01*
X42871428Y-70428571D01*
X42776190Y-70380952D01*
X42728571Y-70333333D01*
X42680952Y-70238095D01*
X42680952Y-70142857D01*
X42728571Y-70047619D01*
X42776190Y-70000000D01*
X42871428Y-69952380D01*
X43109523Y-69952380D01*
X43252380Y-70000000D01*
X43585714Y-69952380D02*
X43823809Y-70952380D01*
X44014285Y-70238095D01*
X44204761Y-70952380D01*
X44442857Y-69952380D01*
X44823809Y-70952380D02*
X44823809Y-69952380D01*
X45061904Y-69952380D01*
X45204761Y-70000000D01*
X45300000Y-70095238D01*
X45347619Y-70190476D01*
X45395238Y-70380952D01*
X45395238Y-70523809D01*
X45347619Y-70714285D01*
X45300000Y-70809523D01*
X45204761Y-70904761D01*
X45061904Y-70952380D01*
X44823809Y-70952380D01*
X45823809Y-70952380D02*
X45823809Y-69952380D01*
X46490476Y-69952380D02*
X46680952Y-69952380D01*
X46776190Y-70000000D01*
X46871428Y-70095238D01*
X46919047Y-70285714D01*
X46919047Y-70619047D01*
X46871428Y-70809523D01*
X46776190Y-70904761D01*
X46680952Y-70952380D01*
X46490476Y-70952380D01*
X46395238Y-70904761D01*
X46300000Y-70809523D01*
X46252380Y-70619047D01*
X46252380Y-70285714D01*
X46300000Y-70095238D01*
X46395238Y-70000000D01*
X46490476Y-69952380D01*
X101219047Y-62771428D02*
X101980952Y-62771428D01*
X101600000Y-63152380D02*
X101600000Y-62390476D01*
X78119047Y-62771428D02*
X78880952Y-62771428D01*
X78500000Y-63152380D02*
X78500000Y-62390476D01*
X60666190Y-115572380D02*
X60856666Y-115572380D01*
X60951904Y-115620000D01*
X61047142Y-115715238D01*
X61094761Y-115905714D01*
X61094761Y-116239047D01*
X61047142Y-116429523D01*
X60951904Y-116524761D01*
X60856666Y-116572380D01*
X60666190Y-116572380D01*
X60570952Y-116524761D01*
X60475714Y-116429523D01*
X60428095Y-116239047D01*
X60428095Y-115905714D01*
X60475714Y-115715238D01*
X60570952Y-115620000D01*
X60666190Y-115572380D01*
X61951904Y-115905714D02*
X61951904Y-116572380D01*
X61523333Y-115905714D02*
X61523333Y-116429523D01*
X61570952Y-116524761D01*
X61666190Y-116572380D01*
X61809047Y-116572380D01*
X61904285Y-116524761D01*
X61951904Y-116477142D01*
X62285238Y-115905714D02*
X62666190Y-115905714D01*
X62428095Y-115572380D02*
X62428095Y-116429523D01*
X62475714Y-116524761D01*
X62570952Y-116572380D01*
X62666190Y-116572380D01*
X62999523Y-115905714D02*
X62999523Y-116905714D01*
X62999523Y-115953333D02*
X63094761Y-115905714D01*
X63285238Y-115905714D01*
X63380476Y-115953333D01*
X63428095Y-116000952D01*
X63475714Y-116096190D01*
X63475714Y-116381904D01*
X63428095Y-116477142D01*
X63380476Y-116524761D01*
X63285238Y-116572380D01*
X63094761Y-116572380D01*
X62999523Y-116524761D01*
X64332857Y-115905714D02*
X64332857Y-116572380D01*
X63904285Y-115905714D02*
X63904285Y-116429523D01*
X63951904Y-116524761D01*
X64047142Y-116572380D01*
X64190000Y-116572380D01*
X64285238Y-116524761D01*
X64332857Y-116477142D01*
X64666190Y-115905714D02*
X65047142Y-115905714D01*
X64809047Y-115572380D02*
X64809047Y-116429523D01*
X64856666Y-116524761D01*
X64951904Y-116572380D01*
X65047142Y-116572380D01*
X109567142Y-116472380D02*
X109567142Y-115472380D01*
X110043333Y-115805714D02*
X110043333Y-116472380D01*
X110043333Y-115900952D02*
X110090952Y-115853333D01*
X110186190Y-115805714D01*
X110329047Y-115805714D01*
X110424285Y-115853333D01*
X110471904Y-115948571D01*
X110471904Y-116472380D01*
X110948095Y-115805714D02*
X110948095Y-116805714D01*
X110948095Y-115853333D02*
X111043333Y-115805714D01*
X111233809Y-115805714D01*
X111329047Y-115853333D01*
X111376666Y-115900952D01*
X111424285Y-115996190D01*
X111424285Y-116281904D01*
X111376666Y-116377142D01*
X111329047Y-116424761D01*
X111233809Y-116472380D01*
X111043333Y-116472380D01*
X110948095Y-116424761D01*
X112281428Y-115805714D02*
X112281428Y-116472380D01*
X111852857Y-115805714D02*
X111852857Y-116329523D01*
X111900476Y-116424761D01*
X111995714Y-116472380D01*
X112138571Y-116472380D01*
X112233809Y-116424761D01*
X112281428Y-116377142D01*
X112614761Y-115805714D02*
X112995714Y-115805714D01*
X112757619Y-115472380D02*
X112757619Y-116329523D01*
X112805238Y-116424761D01*
X112900476Y-116472380D01*
X112995714Y-116472380D01*
X119633333Y-78252380D02*
X119633333Y-77252380D01*
X120109523Y-77585714D02*
X120109523Y-78252380D01*
X120109523Y-77680952D02*
X120157142Y-77633333D01*
X120252380Y-77585714D01*
X120395238Y-77585714D01*
X120490476Y-77633333D01*
X120538095Y-77728571D01*
X120538095Y-78252380D01*
X121014285Y-77585714D02*
X121014285Y-78585714D01*
X121014285Y-77633333D02*
X121109523Y-77585714D01*
X121300000Y-77585714D01*
X121395238Y-77633333D01*
X121442857Y-77680952D01*
X121490476Y-77776190D01*
X121490476Y-78061904D01*
X121442857Y-78157142D01*
X121395238Y-78204761D01*
X121300000Y-78252380D01*
X121109523Y-78252380D01*
X121014285Y-78204761D01*
X122347619Y-77585714D02*
X122347619Y-78252380D01*
X121919047Y-77585714D02*
X121919047Y-78109523D01*
X121966666Y-78204761D01*
X122061904Y-78252380D01*
X122204761Y-78252380D01*
X122300000Y-78204761D01*
X122347619Y-78157142D01*
X122680952Y-77585714D02*
X123061904Y-77585714D01*
X122823809Y-77252380D02*
X122823809Y-78109523D01*
X122871428Y-78204761D01*
X122966666Y-78252380D01*
X123061904Y-78252380D01*
X124680952Y-77300000D02*
X124585714Y-77252380D01*
X124442857Y-77252380D01*
X124300000Y-77300000D01*
X124204761Y-77395238D01*
X124157142Y-77490476D01*
X124109523Y-77680952D01*
X124109523Y-77823809D01*
X124157142Y-78014285D01*
X124204761Y-78109523D01*
X124300000Y-78204761D01*
X124442857Y-78252380D01*
X124538095Y-78252380D01*
X124680952Y-78204761D01*
X124728571Y-78157142D01*
X124728571Y-77823809D01*
X124538095Y-77823809D01*
X125585714Y-78252380D02*
X125585714Y-77728571D01*
X125538095Y-77633333D01*
X125442857Y-77585714D01*
X125252380Y-77585714D01*
X125157142Y-77633333D01*
X125585714Y-78204761D02*
X125490476Y-78252380D01*
X125252380Y-78252380D01*
X125157142Y-78204761D01*
X125109523Y-78109523D01*
X125109523Y-78014285D01*
X125157142Y-77919047D01*
X125252380Y-77871428D01*
X125490476Y-77871428D01*
X125585714Y-77823809D01*
X126061904Y-78252380D02*
X126061904Y-77585714D01*
X126061904Y-77252380D02*
X126014285Y-77300000D01*
X126061904Y-77347619D01*
X126109523Y-77300000D01*
X126061904Y-77252380D01*
X126061904Y-77347619D01*
X126538095Y-77585714D02*
X126538095Y-78252380D01*
X126538095Y-77680952D02*
X126585714Y-77633333D01*
X126680952Y-77585714D01*
X126823809Y-77585714D01*
X126919047Y-77633333D01*
X126966666Y-77728571D01*
X126966666Y-78252380D01*
D14*
G36*
X119542791Y-27246296D02*
G01*
X119542791Y-28581812D01*
X119274008Y-28581812D01*
X119274008Y-27246296D01*
X119542791Y-27246296D01*
G37*
X119542791Y-27246296D02*
X119542791Y-28581812D01*
X119274008Y-28581812D01*
X119274008Y-27246296D01*
X119542791Y-27246296D01*
G36*
X119274008Y-35847355D02*
G01*
X119274008Y-35309788D01*
X119542791Y-35309788D01*
X119542791Y-35847355D01*
X120080358Y-35847355D01*
X120080358Y-36116138D01*
X119542791Y-36116138D01*
X119542791Y-36653704D01*
X119274008Y-36653704D01*
X119274008Y-36116138D01*
X118736442Y-36116138D01*
X118736442Y-35847355D01*
X119274008Y-35847355D01*
G37*
X119274008Y-35847355D02*
X119274008Y-35309788D01*
X119542791Y-35309788D01*
X119542791Y-35847355D01*
X120080358Y-35847355D01*
X120080358Y-36116138D01*
X119542791Y-36116138D01*
X119542791Y-36653704D01*
X119274008Y-36653704D01*
X119274008Y-36116138D01*
X118736442Y-36116138D01*
X118736442Y-35847355D01*
X119274008Y-35847355D01*
G36*
X118074643Y-27759003D02*
G01*
X118097909Y-27614565D01*
X118136076Y-27473351D01*
X118189169Y-27336975D01*
X118225549Y-27263095D01*
X118291064Y-27153353D01*
X118366875Y-27052072D01*
X118454673Y-26956446D01*
X118564877Y-26857978D01*
X118683592Y-26773786D01*
X118811197Y-26703668D01*
X118948071Y-26647420D01*
X119094592Y-26604840D01*
X119122267Y-26598558D01*
X119169172Y-26590678D01*
X119228541Y-26584227D01*
X119296086Y-26579354D01*
X119367523Y-26576207D01*
X119438562Y-26574936D01*
X119504919Y-26575690D01*
X119562307Y-26578620D01*
X119595113Y-26582082D01*
X119745931Y-26611203D01*
X119889341Y-26655196D01*
X120024901Y-26713846D01*
X120152175Y-26786938D01*
X120270723Y-26874258D01*
X120361301Y-26956515D01*
X120459163Y-27065237D01*
X120543318Y-27183182D01*
X120613982Y-27310748D01*
X120671374Y-27448335D01*
X120715711Y-27596342D01*
X120720074Y-27614438D01*
X120727967Y-27659283D01*
X120734161Y-27717175D01*
X120738613Y-27784446D01*
X120741275Y-27857426D01*
X120742104Y-27932445D01*
X120741054Y-28005834D01*
X120738080Y-28073923D01*
X120733137Y-28133043D01*
X120726978Y-28175488D01*
X120691131Y-28320394D01*
X120640690Y-28458722D01*
X120576371Y-28589377D01*
X120498889Y-28711265D01*
X120408957Y-28823290D01*
X120307290Y-28924358D01*
X120194602Y-29013374D01*
X120168552Y-29031133D01*
X120067853Y-29091052D01*
X119958758Y-29143626D01*
X119845996Y-29186958D01*
X119734300Y-29219151D01*
X119664584Y-29233192D01*
X119626879Y-29239401D01*
X119593739Y-29244945D01*
X119569779Y-29249048D01*
X119561690Y-29250503D01*
X119542791Y-29254090D01*
X119542791Y-31334656D01*
X119582689Y-31345335D01*
X119661356Y-31373775D01*
X119739170Y-31415545D01*
X119811705Y-31467657D01*
X119874537Y-31527120D01*
X119903534Y-31562113D01*
X119949726Y-31630226D01*
X119983711Y-31696505D01*
X120007030Y-31765407D01*
X120021222Y-31841392D01*
X120027527Y-31920966D01*
X120027800Y-32001215D01*
X120020680Y-32071522D01*
X120005009Y-32137545D01*
X119979631Y-32204942D01*
X119961441Y-32243982D01*
X119942523Y-32279745D01*
X119922544Y-32310542D01*
X119897993Y-32341012D01*
X119865358Y-32375794D01*
X119850063Y-32391152D01*
X119779680Y-32453613D01*
X119708038Y-32501290D01*
X119632127Y-32535474D01*
X119548936Y-32557451D01*
X119455456Y-32568512D01*
X119433287Y-32569606D01*
X119375171Y-32569327D01*
X119375171Y-28960566D01*
X119499403Y-28957184D01*
X119621635Y-28941043D01*
X119739238Y-28912480D01*
X119849584Y-28871830D01*
X119942321Y-28824114D01*
X119985116Y-28796620D01*
X120032192Y-28763286D01*
X120079254Y-28727428D01*
X120122008Y-28692357D01*
X120156159Y-28661389D01*
X120165458Y-28651949D01*
X120249640Y-28550700D01*
X120319910Y-28440792D01*
X120375892Y-28323506D01*
X120417216Y-28200127D01*
X120443507Y-28071936D01*
X120454393Y-27940218D01*
X120449501Y-27806254D01*
X120437349Y-27716667D01*
X120406792Y-27589379D01*
X120361619Y-27469421D01*
X120302727Y-27357678D01*
X120231013Y-27255035D01*
X120147375Y-27162375D01*
X120052710Y-27080585D01*
X119947914Y-27010547D01*
X119833885Y-26953147D01*
X119711520Y-26909269D01*
X119589988Y-26881194D01*
X119550397Y-26875960D01*
X119500922Y-26871750D01*
X119448473Y-26869056D01*
X119408780Y-26868320D01*
X119271421Y-26875989D01*
X119140769Y-26898923D01*
X119017102Y-26937009D01*
X118900697Y-26990136D01*
X118791832Y-27058194D01*
X118690786Y-27141070D01*
X118664482Y-27166368D01*
X118577072Y-27264810D01*
X118503938Y-27372102D01*
X118445091Y-27488225D01*
X118400544Y-27613155D01*
X118377739Y-27706505D01*
X118369878Y-27759780D01*
X118364853Y-27824202D01*
X118362655Y-27894878D01*
X118363272Y-27966913D01*
X118366697Y-28035412D01*
X118372918Y-28095481D01*
X118378576Y-28128241D01*
X118412963Y-28256606D01*
X118459301Y-28373949D01*
X118518429Y-28481847D01*
X118591187Y-28581878D01*
X118660469Y-28658000D01*
X118758233Y-28745271D01*
X118862502Y-28817257D01*
X118974331Y-28874561D01*
X119094776Y-28917787D01*
X119131217Y-28927713D01*
X119251567Y-28950854D01*
X119375171Y-28960566D01*
X119375171Y-32569327D01*
X119349835Y-32569205D01*
X119275868Y-32560297D01*
X119205771Y-32541727D01*
X119133926Y-32512339D01*
X119118618Y-32504947D01*
X119034780Y-32454581D01*
X118961895Y-32392560D01*
X118900578Y-32320466D01*
X118851441Y-32239882D01*
X118815097Y-32152393D01*
X118792161Y-32059580D01*
X118783244Y-31963028D01*
X118788960Y-31864320D01*
X118809923Y-31765038D01*
X118819878Y-31733620D01*
X118845115Y-31669375D01*
X118874719Y-31613953D01*
X118912040Y-31562101D01*
X118960429Y-31508565D01*
X118968812Y-31500102D01*
X119006120Y-31464451D01*
X119038927Y-31437673D01*
X119073142Y-31415460D01*
X119114678Y-31393503D01*
X119115803Y-31392949D01*
X119153707Y-31375278D01*
X119190877Y-31359617D01*
X119221768Y-31348233D01*
X119234111Y-31344606D01*
X119274008Y-31334844D01*
X119274008Y-30294873D01*
X119273999Y-30140957D01*
X119273963Y-30002969D01*
X119273888Y-29880039D01*
X119273761Y-29771296D01*
X119273571Y-29675869D01*
X119273306Y-29592888D01*
X119272952Y-29521482D01*
X119272497Y-29460780D01*
X119271931Y-29409912D01*
X119271239Y-29368007D01*
X119270410Y-29334195D01*
X119269432Y-29307604D01*
X119268292Y-29287365D01*
X119266979Y-29272606D01*
X119265479Y-29262457D01*
X119263781Y-29256048D01*
X119261872Y-29252507D01*
X119259741Y-29250963D01*
X119259309Y-29250824D01*
X119243247Y-29247704D01*
X119216978Y-29243869D01*
X119194213Y-29241079D01*
X119123000Y-29229188D01*
X119042772Y-29209240D01*
X118958250Y-29182857D01*
X118874154Y-29151656D01*
X118795202Y-29117258D01*
X118726115Y-29081280D01*
X118722815Y-29079358D01*
X118599464Y-28997585D01*
X118486426Y-28903232D01*
X118384887Y-28797487D01*
X118296032Y-28681536D01*
X118246538Y-28602811D01*
X118180932Y-28472972D01*
X118130076Y-28336660D01*
X118093993Y-28195491D01*
X118072710Y-28051082D01*
X118066252Y-27905047D01*
X118074643Y-27759003D01*
G37*
X118074643Y-27759003D02*
X118097909Y-27614565D01*
X118136076Y-27473351D01*
X118189169Y-27336975D01*
X118225549Y-27263095D01*
X118291064Y-27153353D01*
X118366875Y-27052072D01*
X118454673Y-26956446D01*
X118564877Y-26857978D01*
X118683592Y-26773786D01*
X118811197Y-26703668D01*
X118948071Y-26647420D01*
X119094592Y-26604840D01*
X119122267Y-26598558D01*
X119169172Y-26590678D01*
X119228541Y-26584227D01*
X119296086Y-26579354D01*
X119367523Y-26576207D01*
X119438562Y-26574936D01*
X119504919Y-26575690D01*
X119562307Y-26578620D01*
X119595113Y-26582082D01*
X119745931Y-26611203D01*
X119889341Y-26655196D01*
X120024901Y-26713846D01*
X120152175Y-26786938D01*
X120270723Y-26874258D01*
X120361301Y-26956515D01*
X120459163Y-27065237D01*
X120543318Y-27183182D01*
X120613982Y-27310748D01*
X120671374Y-27448335D01*
X120715711Y-27596342D01*
X120720074Y-27614438D01*
X120727967Y-27659283D01*
X120734161Y-27717175D01*
X120738613Y-27784446D01*
X120741275Y-27857426D01*
X120742104Y-27932445D01*
X120741054Y-28005834D01*
X120738080Y-28073923D01*
X120733137Y-28133043D01*
X120726978Y-28175488D01*
X120691131Y-28320394D01*
X120640690Y-28458722D01*
X120576371Y-28589377D01*
X120498889Y-28711265D01*
X120408957Y-28823290D01*
X120307290Y-28924358D01*
X120194602Y-29013374D01*
X120168552Y-29031133D01*
X120067853Y-29091052D01*
X119958758Y-29143626D01*
X119845996Y-29186958D01*
X119734300Y-29219151D01*
X119664584Y-29233192D01*
X119626879Y-29239401D01*
X119593739Y-29244945D01*
X119569779Y-29249048D01*
X119561690Y-29250503D01*
X119542791Y-29254090D01*
X119542791Y-31334656D01*
X119582689Y-31345335D01*
X119661356Y-31373775D01*
X119739170Y-31415545D01*
X119811705Y-31467657D01*
X119874537Y-31527120D01*
X119903534Y-31562113D01*
X119949726Y-31630226D01*
X119983711Y-31696505D01*
X120007030Y-31765407D01*
X120021222Y-31841392D01*
X120027527Y-31920966D01*
X120027800Y-32001215D01*
X120020680Y-32071522D01*
X120005009Y-32137545D01*
X119979631Y-32204942D01*
X119961441Y-32243982D01*
X119942523Y-32279745D01*
X119922544Y-32310542D01*
X119897993Y-32341012D01*
X119865358Y-32375794D01*
X119850063Y-32391152D01*
X119779680Y-32453613D01*
X119708038Y-32501290D01*
X119632127Y-32535474D01*
X119548936Y-32557451D01*
X119455456Y-32568512D01*
X119433287Y-32569606D01*
X119375171Y-32569327D01*
X119375171Y-28960566D01*
X119499403Y-28957184D01*
X119621635Y-28941043D01*
X119739238Y-28912480D01*
X119849584Y-28871830D01*
X119942321Y-28824114D01*
X119985116Y-28796620D01*
X120032192Y-28763286D01*
X120079254Y-28727428D01*
X120122008Y-28692357D01*
X120156159Y-28661389D01*
X120165458Y-28651949D01*
X120249640Y-28550700D01*
X120319910Y-28440792D01*
X120375892Y-28323506D01*
X120417216Y-28200127D01*
X120443507Y-28071936D01*
X120454393Y-27940218D01*
X120449501Y-27806254D01*
X120437349Y-27716667D01*
X120406792Y-27589379D01*
X120361619Y-27469421D01*
X120302727Y-27357678D01*
X120231013Y-27255035D01*
X120147375Y-27162375D01*
X120052710Y-27080585D01*
X119947914Y-27010547D01*
X119833885Y-26953147D01*
X119711520Y-26909269D01*
X119589988Y-26881194D01*
X119550397Y-26875960D01*
X119500922Y-26871750D01*
X119448473Y-26869056D01*
X119408780Y-26868320D01*
X119271421Y-26875989D01*
X119140769Y-26898923D01*
X119017102Y-26937009D01*
X118900697Y-26990136D01*
X118791832Y-27058194D01*
X118690786Y-27141070D01*
X118664482Y-27166368D01*
X118577072Y-27264810D01*
X118503938Y-27372102D01*
X118445091Y-27488225D01*
X118400544Y-27613155D01*
X118377739Y-27706505D01*
X118369878Y-27759780D01*
X118364853Y-27824202D01*
X118362655Y-27894878D01*
X118363272Y-27966913D01*
X118366697Y-28035412D01*
X118372918Y-28095481D01*
X118378576Y-28128241D01*
X118412963Y-28256606D01*
X118459301Y-28373949D01*
X118518429Y-28481847D01*
X118591187Y-28581878D01*
X118660469Y-28658000D01*
X118758233Y-28745271D01*
X118862502Y-28817257D01*
X118974331Y-28874561D01*
X119094776Y-28917787D01*
X119131217Y-28927713D01*
X119251567Y-28950854D01*
X119375171Y-28960566D01*
X119375171Y-32569327D01*
X119349835Y-32569205D01*
X119275868Y-32560297D01*
X119205771Y-32541727D01*
X119133926Y-32512339D01*
X119118618Y-32504947D01*
X119034780Y-32454581D01*
X118961895Y-32392560D01*
X118900578Y-32320466D01*
X118851441Y-32239882D01*
X118815097Y-32152393D01*
X118792161Y-32059580D01*
X118783244Y-31963028D01*
X118788960Y-31864320D01*
X118809923Y-31765038D01*
X118819878Y-31733620D01*
X118845115Y-31669375D01*
X118874719Y-31613953D01*
X118912040Y-31562101D01*
X118960429Y-31508565D01*
X118968812Y-31500102D01*
X119006120Y-31464451D01*
X119038927Y-31437673D01*
X119073142Y-31415460D01*
X119114678Y-31393503D01*
X119115803Y-31392949D01*
X119153707Y-31375278D01*
X119190877Y-31359617D01*
X119221768Y-31348233D01*
X119234111Y-31344606D01*
X119274008Y-31334844D01*
X119274008Y-30294873D01*
X119273999Y-30140957D01*
X119273963Y-30002969D01*
X119273888Y-29880039D01*
X119273761Y-29771296D01*
X119273571Y-29675869D01*
X119273306Y-29592888D01*
X119272952Y-29521482D01*
X119272497Y-29460780D01*
X119271931Y-29409912D01*
X119271239Y-29368007D01*
X119270410Y-29334195D01*
X119269432Y-29307604D01*
X119268292Y-29287365D01*
X119266979Y-29272606D01*
X119265479Y-29262457D01*
X119263781Y-29256048D01*
X119261872Y-29252507D01*
X119259741Y-29250963D01*
X119259309Y-29250824D01*
X119243247Y-29247704D01*
X119216978Y-29243869D01*
X119194213Y-29241079D01*
X119123000Y-29229188D01*
X119042772Y-29209240D01*
X118958250Y-29182857D01*
X118874154Y-29151656D01*
X118795202Y-29117258D01*
X118726115Y-29081280D01*
X118722815Y-29079358D01*
X118599464Y-28997585D01*
X118486426Y-28903232D01*
X118384887Y-28797487D01*
X118296032Y-28681536D01*
X118246538Y-28602811D01*
X118180932Y-28472972D01*
X118130076Y-28336660D01*
X118093993Y-28195491D01*
X118072710Y-28051082D01*
X118066252Y-27905047D01*
X118074643Y-27759003D01*
G36*
X118080464Y-35783132D02*
G01*
X118107264Y-35642637D01*
X118147683Y-35506680D01*
X118201376Y-35376838D01*
X118267998Y-35254688D01*
X118347203Y-35141808D01*
X118395349Y-35084971D01*
X118498076Y-34981399D01*
X118605521Y-34893056D01*
X118719774Y-34818575D01*
X118842926Y-34756592D01*
X118975827Y-34706148D01*
X119026675Y-34690819D01*
X119081532Y-34676447D01*
X119136266Y-34663922D01*
X119186745Y-34654130D01*
X119228837Y-34647962D01*
X119254490Y-34646230D01*
X119274008Y-34646230D01*
X119274008Y-33286277D01*
X119242510Y-33281093D01*
X119143730Y-33262853D01*
X119057306Y-33242496D01*
X118996826Y-33224877D01*
X118863345Y-33173830D01*
X118736065Y-33108022D01*
X118616272Y-33028703D01*
X118505254Y-32937124D01*
X118404299Y-32834536D01*
X118314693Y-32722191D01*
X118237726Y-32601338D01*
X118174683Y-32473229D01*
X118145630Y-32397892D01*
X118103239Y-32251475D01*
X118077353Y-32104169D01*
X118067817Y-31956961D01*
X118074479Y-31810839D01*
X118097183Y-31666793D01*
X118135777Y-31525810D01*
X118190106Y-31388878D01*
X118260017Y-31256986D01*
X118342232Y-31135251D01*
X118372462Y-31097437D01*
X118407544Y-31057317D01*
X118445658Y-31016584D01*
X118484985Y-30976932D01*
X118523704Y-30940052D01*
X118559996Y-30907637D01*
X118592040Y-30881380D01*
X118618017Y-30862973D01*
X118636106Y-30854109D01*
X118643616Y-30854961D01*
X118650447Y-30864054D01*
X118665052Y-30884468D01*
X118685661Y-30913700D01*
X118710507Y-30949245D01*
X118727864Y-30974223D01*
X118805488Y-31086177D01*
X118785950Y-31099862D01*
X118698852Y-31170358D01*
X118618179Y-31254440D01*
X118545637Y-31349571D01*
X118482933Y-31453214D01*
X118431773Y-31562833D01*
X118393864Y-31675890D01*
X118390889Y-31687202D01*
X118366845Y-31814320D01*
X118358837Y-31943471D01*
X118366553Y-32072823D01*
X118389680Y-32200544D01*
X118427907Y-32324801D01*
X118480921Y-32443762D01*
X118535615Y-32536689D01*
X118563516Y-32574551D01*
X118600858Y-32619063D01*
X118643993Y-32666343D01*
X118689272Y-32712507D01*
X118733049Y-32753674D01*
X118764838Y-32780641D01*
X118860273Y-32846529D01*
X118968326Y-32903156D01*
X119087027Y-32949593D01*
X119181614Y-32977115D01*
X119230517Y-32986141D01*
X119291405Y-32992428D01*
X119359685Y-32995944D01*
X119430762Y-32996661D01*
X119500042Y-32994548D01*
X119562932Y-32989575D01*
X119614838Y-32981712D01*
X119622586Y-32980005D01*
X119754055Y-32941429D01*
X119876975Y-32889529D01*
X119990395Y-32824938D01*
X120093362Y-32748292D01*
X120184923Y-32660225D01*
X120264126Y-32561372D01*
X120275445Y-32544811D01*
X120343262Y-32431331D01*
X120394972Y-32317221D01*
X120431206Y-32200446D01*
X120452597Y-32078970D01*
X120459776Y-31951616D01*
X120452087Y-31817684D01*
X120428477Y-31688350D01*
X120389283Y-31564473D01*
X120334840Y-31446915D01*
X120265486Y-31336536D01*
X120181559Y-31234197D01*
X120177036Y-31229360D01*
X120145339Y-31197015D01*
X120111764Y-31164946D01*
X120081439Y-31137967D01*
X120068080Y-31127100D01*
X120044951Y-31108172D01*
X120028295Y-31092472D01*
X120021575Y-31083278D01*
X120021561Y-31083072D01*
X120026045Y-31074633D01*
X120038240Y-31055205D01*
X120056259Y-31027590D01*
X120078218Y-30994587D01*
X120102230Y-30958996D01*
X120126409Y-30923618D01*
X120148871Y-30891252D01*
X120167729Y-30864700D01*
X120178013Y-30850757D01*
X120185784Y-30853679D01*
X120204052Y-30866367D01*
X120230878Y-30887293D01*
X120264321Y-30914933D01*
X120302441Y-30947759D01*
X120311343Y-30955598D01*
X120401461Y-31045073D01*
X120484890Y-31147286D01*
X120559352Y-31258765D01*
X120622572Y-31376039D01*
X120672274Y-31495636D01*
X120679703Y-31517427D01*
X120698594Y-31577429D01*
X120713075Y-31630661D01*
X120723795Y-31681275D01*
X120731403Y-31733421D01*
X120736549Y-31791249D01*
X120739880Y-31858910D01*
X120741430Y-31912203D01*
X120742705Y-31975175D01*
X120743050Y-32025019D01*
X120742288Y-32065389D01*
X120740241Y-32099939D01*
X120736732Y-32132323D01*
X120731583Y-32166195D01*
X120728129Y-32185995D01*
X120700175Y-32305836D01*
X120659862Y-32427022D01*
X120609260Y-32544324D01*
X120550436Y-32652510D01*
X120532249Y-32681258D01*
X120450076Y-32792598D01*
X120355714Y-32895546D01*
X120250994Y-32988892D01*
X120137750Y-33071427D01*
X120017811Y-33141942D01*
X119893012Y-33199225D01*
X119765183Y-33242068D01*
X119643585Y-33268141D01*
X119610239Y-33273429D01*
X119581330Y-33278257D01*
X119562680Y-33281649D01*
X119561690Y-33281853D01*
X119542791Y-33285836D01*
X119542791Y-34644273D01*
X119598408Y-34650229D01*
X119694565Y-34665871D01*
X119797249Y-34692115D01*
X119901553Y-34727255D01*
X120002571Y-34769585D01*
X120095394Y-34817400D01*
X120118155Y-34830871D01*
X120238108Y-34913811D01*
X120347424Y-35009173D01*
X120445305Y-35115764D01*
X120530956Y-35232391D01*
X120603578Y-35357860D01*
X120662375Y-35490978D01*
X120706548Y-35630551D01*
X120731233Y-35748574D01*
X120736257Y-35791356D01*
X120739892Y-35846507D01*
X120742138Y-35909987D01*
X120742995Y-35977758D01*
X120742460Y-36045783D01*
X120740533Y-36110022D01*
X120737214Y-36166439D01*
X120732500Y-36210995D01*
X120731342Y-36218414D01*
X120698664Y-36363989D01*
X120651308Y-36502317D01*
X120590099Y-36632627D01*
X120515859Y-36754148D01*
X120429410Y-36866110D01*
X120331577Y-36967744D01*
X120223181Y-37058278D01*
X120105046Y-37136943D01*
X119977995Y-37202968D01*
X119842851Y-37255582D01*
X119700436Y-37294016D01*
X119557822Y-37316838D01*
X119412979Y-37324629D01*
X119408400Y-37324397D01*
X119408400Y-37027106D01*
X119487690Y-37025708D01*
X119555560Y-37021001D01*
X119617195Y-37012213D01*
X119677780Y-36998575D01*
X119742503Y-36979316D01*
X119752778Y-36975932D01*
X119871829Y-36927804D01*
X119981754Y-36866336D01*
X120081900Y-36792693D01*
X120171614Y-36708040D01*
X120250241Y-36613543D01*
X120317128Y-36510368D01*
X120371622Y-36399679D01*
X120413069Y-36282643D01*
X120440815Y-36160425D01*
X120454206Y-36034190D01*
X120452589Y-35905105D01*
X120435310Y-35774334D01*
X120433044Y-35762910D01*
X120399952Y-35636521D01*
X120353895Y-35520197D01*
X120294042Y-35412380D01*
X120219559Y-35311516D01*
X120152095Y-35237991D01*
X120056073Y-35152012D01*
X119954218Y-35080936D01*
X119844892Y-35023894D01*
X119726456Y-34980018D01*
X119609987Y-34950924D01*
X119556999Y-34943201D01*
X119492820Y-34938324D01*
X119422464Y-34936284D01*
X119350946Y-34937071D01*
X119283281Y-34940676D01*
X119224484Y-34947090D01*
X119198413Y-34951671D01*
X119067920Y-34986915D01*
X118945692Y-35036057D01*
X118832575Y-35098453D01*
X118729416Y-35173461D01*
X118637062Y-35260437D01*
X118556361Y-35358738D01*
X118488158Y-35467721D01*
X118468643Y-35505707D01*
X118427171Y-35600290D01*
X118396808Y-35692877D01*
X118376306Y-35788536D01*
X118364414Y-35892336D01*
X118361679Y-35939749D01*
X118363837Y-36071146D01*
X118381327Y-36198744D01*
X118413383Y-36321397D01*
X118459240Y-36437962D01*
X118518132Y-36547294D01*
X118589295Y-36648248D01*
X118671961Y-36739681D01*
X118765367Y-36820447D01*
X118868746Y-36889403D01*
X118981334Y-36945404D01*
X119052091Y-36972012D01*
X119120223Y-36993230D01*
X119181322Y-37008497D01*
X119240776Y-37018645D01*
X119303976Y-37024509D01*
X119376310Y-37026921D01*
X119408400Y-37027106D01*
X119408400Y-37324397D01*
X119267352Y-37317243D01*
X119123190Y-37295182D01*
X118982742Y-37258946D01*
X118848257Y-37209035D01*
X118721984Y-37145950D01*
X118681846Y-37121917D01*
X118567184Y-37040428D01*
X118461350Y-36945668D01*
X118365634Y-36839379D01*
X118281328Y-36723302D01*
X118209722Y-36599179D01*
X118152107Y-36468754D01*
X118116375Y-36358926D01*
X118085240Y-36216061D01*
X118069107Y-36071421D01*
X118067630Y-35926586D01*
X118080464Y-35783132D01*
G37*
X118080464Y-35783132D02*
X118107264Y-35642637D01*
X118147683Y-35506680D01*
X118201376Y-35376838D01*
X118267998Y-35254688D01*
X118347203Y-35141808D01*
X118395349Y-35084971D01*
X118498076Y-34981399D01*
X118605521Y-34893056D01*
X118719774Y-34818575D01*
X118842926Y-34756592D01*
X118975827Y-34706148D01*
X119026675Y-34690819D01*
X119081532Y-34676447D01*
X119136266Y-34663922D01*
X119186745Y-34654130D01*
X119228837Y-34647962D01*
X119254490Y-34646230D01*
X119274008Y-34646230D01*
X119274008Y-33286277D01*
X119242510Y-33281093D01*
X119143730Y-33262853D01*
X119057306Y-33242496D01*
X118996826Y-33224877D01*
X118863345Y-33173830D01*
X118736065Y-33108022D01*
X118616272Y-33028703D01*
X118505254Y-32937124D01*
X118404299Y-32834536D01*
X118314693Y-32722191D01*
X118237726Y-32601338D01*
X118174683Y-32473229D01*
X118145630Y-32397892D01*
X118103239Y-32251475D01*
X118077353Y-32104169D01*
X118067817Y-31956961D01*
X118074479Y-31810839D01*
X118097183Y-31666793D01*
X118135777Y-31525810D01*
X118190106Y-31388878D01*
X118260017Y-31256986D01*
X118342232Y-31135251D01*
X118372462Y-31097437D01*
X118407544Y-31057317D01*
X118445658Y-31016584D01*
X118484985Y-30976932D01*
X118523704Y-30940052D01*
X118559996Y-30907637D01*
X118592040Y-30881380D01*
X118618017Y-30862973D01*
X118636106Y-30854109D01*
X118643616Y-30854961D01*
X118650447Y-30864054D01*
X118665052Y-30884468D01*
X118685661Y-30913700D01*
X118710507Y-30949245D01*
X118727864Y-30974223D01*
X118805488Y-31086177D01*
X118785950Y-31099862D01*
X118698852Y-31170358D01*
X118618179Y-31254440D01*
X118545637Y-31349571D01*
X118482933Y-31453214D01*
X118431773Y-31562833D01*
X118393864Y-31675890D01*
X118390889Y-31687202D01*
X118366845Y-31814320D01*
X118358837Y-31943471D01*
X118366553Y-32072823D01*
X118389680Y-32200544D01*
X118427907Y-32324801D01*
X118480921Y-32443762D01*
X118535615Y-32536689D01*
X118563516Y-32574551D01*
X118600858Y-32619063D01*
X118643993Y-32666343D01*
X118689272Y-32712507D01*
X118733049Y-32753674D01*
X118764838Y-32780641D01*
X118860273Y-32846529D01*
X118968326Y-32903156D01*
X119087027Y-32949593D01*
X119181614Y-32977115D01*
X119230517Y-32986141D01*
X119291405Y-32992428D01*
X119359685Y-32995944D01*
X119430762Y-32996661D01*
X119500042Y-32994548D01*
X119562932Y-32989575D01*
X119614838Y-32981712D01*
X119622586Y-32980005D01*
X119754055Y-32941429D01*
X119876975Y-32889529D01*
X119990395Y-32824938D01*
X120093362Y-32748292D01*
X120184923Y-32660225D01*
X120264126Y-32561372D01*
X120275445Y-32544811D01*
X120343262Y-32431331D01*
X120394972Y-32317221D01*
X120431206Y-32200446D01*
X120452597Y-32078970D01*
X120459776Y-31951616D01*
X120452087Y-31817684D01*
X120428477Y-31688350D01*
X120389283Y-31564473D01*
X120334840Y-31446915D01*
X120265486Y-31336536D01*
X120181559Y-31234197D01*
X120177036Y-31229360D01*
X120145339Y-31197015D01*
X120111764Y-31164946D01*
X120081439Y-31137967D01*
X120068080Y-31127100D01*
X120044951Y-31108172D01*
X120028295Y-31092472D01*
X120021575Y-31083278D01*
X120021561Y-31083072D01*
X120026045Y-31074633D01*
X120038240Y-31055205D01*
X120056259Y-31027590D01*
X120078218Y-30994587D01*
X120102230Y-30958996D01*
X120126409Y-30923618D01*
X120148871Y-30891252D01*
X120167729Y-30864700D01*
X120178013Y-30850757D01*
X120185784Y-30853679D01*
X120204052Y-30866367D01*
X120230878Y-30887293D01*
X120264321Y-30914933D01*
X120302441Y-30947759D01*
X120311343Y-30955598D01*
X120401461Y-31045073D01*
X120484890Y-31147286D01*
X120559352Y-31258765D01*
X120622572Y-31376039D01*
X120672274Y-31495636D01*
X120679703Y-31517427D01*
X120698594Y-31577429D01*
X120713075Y-31630661D01*
X120723795Y-31681275D01*
X120731403Y-31733421D01*
X120736549Y-31791249D01*
X120739880Y-31858910D01*
X120741430Y-31912203D01*
X120742705Y-31975175D01*
X120743050Y-32025019D01*
X120742288Y-32065389D01*
X120740241Y-32099939D01*
X120736732Y-32132323D01*
X120731583Y-32166195D01*
X120728129Y-32185995D01*
X120700175Y-32305836D01*
X120659862Y-32427022D01*
X120609260Y-32544324D01*
X120550436Y-32652510D01*
X120532249Y-32681258D01*
X120450076Y-32792598D01*
X120355714Y-32895546D01*
X120250994Y-32988892D01*
X120137750Y-33071427D01*
X120017811Y-33141942D01*
X119893012Y-33199225D01*
X119765183Y-33242068D01*
X119643585Y-33268141D01*
X119610239Y-33273429D01*
X119581330Y-33278257D01*
X119562680Y-33281649D01*
X119561690Y-33281853D01*
X119542791Y-33285836D01*
X119542791Y-34644273D01*
X119598408Y-34650229D01*
X119694565Y-34665871D01*
X119797249Y-34692115D01*
X119901553Y-34727255D01*
X120002571Y-34769585D01*
X120095394Y-34817400D01*
X120118155Y-34830871D01*
X120238108Y-34913811D01*
X120347424Y-35009173D01*
X120445305Y-35115764D01*
X120530956Y-35232391D01*
X120603578Y-35357860D01*
X120662375Y-35490978D01*
X120706548Y-35630551D01*
X120731233Y-35748574D01*
X120736257Y-35791356D01*
X120739892Y-35846507D01*
X120742138Y-35909987D01*
X120742995Y-35977758D01*
X120742460Y-36045783D01*
X120740533Y-36110022D01*
X120737214Y-36166439D01*
X120732500Y-36210995D01*
X120731342Y-36218414D01*
X120698664Y-36363989D01*
X120651308Y-36502317D01*
X120590099Y-36632627D01*
X120515859Y-36754148D01*
X120429410Y-36866110D01*
X120331577Y-36967744D01*
X120223181Y-37058278D01*
X120105046Y-37136943D01*
X119977995Y-37202968D01*
X119842851Y-37255582D01*
X119700436Y-37294016D01*
X119557822Y-37316838D01*
X119412979Y-37324629D01*
X119408400Y-37324397D01*
X119408400Y-37027106D01*
X119487690Y-37025708D01*
X119555560Y-37021001D01*
X119617195Y-37012213D01*
X119677780Y-36998575D01*
X119742503Y-36979316D01*
X119752778Y-36975932D01*
X119871829Y-36927804D01*
X119981754Y-36866336D01*
X120081900Y-36792693D01*
X120171614Y-36708040D01*
X120250241Y-36613543D01*
X120317128Y-36510368D01*
X120371622Y-36399679D01*
X120413069Y-36282643D01*
X120440815Y-36160425D01*
X120454206Y-36034190D01*
X120452589Y-35905105D01*
X120435310Y-35774334D01*
X120433044Y-35762910D01*
X120399952Y-35636521D01*
X120353895Y-35520197D01*
X120294042Y-35412380D01*
X120219559Y-35311516D01*
X120152095Y-35237991D01*
X120056073Y-35152012D01*
X119954218Y-35080936D01*
X119844892Y-35023894D01*
X119726456Y-34980018D01*
X119609987Y-34950924D01*
X119556999Y-34943201D01*
X119492820Y-34938324D01*
X119422464Y-34936284D01*
X119350946Y-34937071D01*
X119283281Y-34940676D01*
X119224484Y-34947090D01*
X119198413Y-34951671D01*
X119067920Y-34986915D01*
X118945692Y-35036057D01*
X118832575Y-35098453D01*
X118729416Y-35173461D01*
X118637062Y-35260437D01*
X118556361Y-35358738D01*
X118488158Y-35467721D01*
X118468643Y-35505707D01*
X118427171Y-35600290D01*
X118396808Y-35692877D01*
X118376306Y-35788536D01*
X118364414Y-35892336D01*
X118361679Y-35939749D01*
X118363837Y-36071146D01*
X118381327Y-36198744D01*
X118413383Y-36321397D01*
X118459240Y-36437962D01*
X118518132Y-36547294D01*
X118589295Y-36648248D01*
X118671961Y-36739681D01*
X118765367Y-36820447D01*
X118868746Y-36889403D01*
X118981334Y-36945404D01*
X119052091Y-36972012D01*
X119120223Y-36993230D01*
X119181322Y-37008497D01*
X119240776Y-37018645D01*
X119303976Y-37024509D01*
X119376310Y-37026921D01*
X119408400Y-37027106D01*
X119408400Y-37324397D01*
X119267352Y-37317243D01*
X119123190Y-37295182D01*
X118982742Y-37258946D01*
X118848257Y-37209035D01*
X118721984Y-37145950D01*
X118681846Y-37121917D01*
X118567184Y-37040428D01*
X118461350Y-36945668D01*
X118365634Y-36839379D01*
X118281328Y-36723302D01*
X118209722Y-36599179D01*
X118152107Y-36468754D01*
X118116375Y-36358926D01*
X118085240Y-36216061D01*
X118069107Y-36071421D01*
X118067630Y-35926586D01*
X118080464Y-35783132D01*
D15*
X80896666Y-48480000D02*
X80896666Y-52345000D01*
X80896666Y-56855000D02*
X80896666Y-60720000D01*
X70956666Y-48480000D02*
X70956666Y-52345000D01*
X70956666Y-56855000D02*
X70956666Y-60720000D01*
X80896666Y-48480000D02*
X79297666Y-48480000D01*
X77555666Y-48480000D02*
X76796666Y-48480000D01*
X75055666Y-48480000D02*
X74296666Y-48480000D01*
X72556666Y-48480000D02*
X70956666Y-48480000D01*
X80896666Y-60720000D02*
X70956666Y-60720000D01*
X91770000Y-39091422D02*
X91770000Y-39608578D01*
X93190000Y-39091422D02*
X93190000Y-39608578D01*
X101720000Y-38810578D02*
X101720000Y-38293422D01*
X103140000Y-38810578D02*
X103140000Y-38293422D01*
X105610000Y-69012779D02*
X105610000Y-68687221D01*
X104590000Y-69012779D02*
X104590000Y-68687221D01*
X96940000Y-100387221D02*
X96940000Y-100712779D01*
X97960000Y-100387221D02*
X97960000Y-100712779D01*
X108012779Y-72840000D02*
X107687221Y-72840000D01*
X108012779Y-73860000D02*
X107687221Y-73860000D01*
X96710000Y-77837221D02*
X96710000Y-78162779D01*
X95690000Y-77837221D02*
X95690000Y-78162779D01*
X99510000Y-77937221D02*
X99510000Y-78262779D01*
X98490000Y-77937221D02*
X98490000Y-78262779D01*
X79825279Y-105640000D02*
X79499721Y-105640000D01*
X79825279Y-106660000D02*
X79499721Y-106660000D01*
X113187221Y-75090000D02*
X113512779Y-75090000D01*
X113187221Y-76110000D02*
X113512779Y-76110000D01*
X79839721Y-67080000D02*
X80165279Y-67080000D01*
X79839721Y-68100000D02*
X80165279Y-68100000D01*
X107620000Y-81342221D02*
X107620000Y-81667779D01*
X106600000Y-81342221D02*
X106600000Y-81667779D01*
X79499721Y-109640000D02*
X79825279Y-109640000D01*
X79499721Y-110660000D02*
X79825279Y-110660000D01*
X79847221Y-69600000D02*
X80172779Y-69600000D01*
X79847221Y-70620000D02*
X80172779Y-70620000D01*
X62700279Y-66490000D02*
X62374721Y-66490000D01*
X62700279Y-67510000D02*
X62374721Y-67510000D01*
X73662779Y-89240000D02*
X73337221Y-89240000D01*
X73662779Y-90260000D02*
X73337221Y-90260000D01*
X87001422Y-118192000D02*
X87518578Y-118192000D01*
X87001422Y-119612000D02*
X87518578Y-119612000D01*
X111020779Y-86846000D02*
X110695221Y-86846000D01*
X111020779Y-85826000D02*
X110695221Y-85826000D01*
X100224721Y-90410000D02*
X100550279Y-90410000D01*
X100224721Y-89390000D02*
X100550279Y-89390000D01*
X93840000Y-90687221D02*
X93840000Y-91012779D01*
X94860000Y-90687221D02*
X94860000Y-91012779D01*
X108476000Y-87189221D02*
X108476000Y-87514779D01*
X107456000Y-87189221D02*
X107456000Y-87514779D01*
X98150000Y-26850000D02*
X98150000Y-28850000D01*
X98150000Y-28850000D02*
X102050000Y-28850000D01*
X98150000Y-26850000D02*
X102050000Y-26850000D01*
X112200000Y-43615000D02*
X109915000Y-43615000D01*
X109915000Y-43615000D02*
X109915000Y-45085000D01*
X109915000Y-45085000D02*
X112200000Y-45085000D01*
X99150000Y-31600000D02*
X95250000Y-31600000D01*
X99150000Y-29600000D02*
X95250000Y-29600000D01*
X99150000Y-31600000D02*
X99150000Y-29600000D01*
X98243332Y-61400000D02*
X101043332Y-61400000D01*
X101043332Y-61400000D02*
X101043332Y-63200000D01*
X101043332Y-63200000D02*
X98243332Y-63200000D01*
X98243332Y-63200000D02*
X98243332Y-61400000D01*
X74526666Y-63200000D02*
X74526666Y-61400000D01*
X77326666Y-63200000D02*
X74526666Y-63200000D01*
X77326666Y-61400000D02*
X77326666Y-63200000D01*
X74526666Y-61400000D02*
X77326666Y-61400000D01*
X50810000Y-61400000D02*
X53610000Y-61400000D01*
X53610000Y-61400000D02*
X53610000Y-63200000D01*
X53610000Y-63200000D02*
X50810000Y-63200000D01*
X50810000Y-63200000D02*
X50810000Y-61400000D01*
X95953922Y-33810000D02*
X96471078Y-33810000D01*
X95953922Y-32390000D02*
X96471078Y-32390000D01*
X101358578Y-68560000D02*
X100841422Y-68560000D01*
X101358578Y-67140000D02*
X100841422Y-67140000D01*
X78741422Y-87960000D02*
X79258578Y-87960000D01*
X78741422Y-86540000D02*
X79258578Y-86540000D01*
X104169078Y-81667000D02*
X103651922Y-81667000D01*
X104169078Y-80247000D02*
X103651922Y-80247000D01*
X64750000Y-90600000D02*
X64750000Y-93900000D01*
X64750000Y-93900000D02*
X68750000Y-93900000D01*
X76782000Y-33830000D02*
X76782000Y-32500000D01*
X78112000Y-33830000D02*
X76782000Y-33830000D01*
X79382000Y-33830000D02*
X79382000Y-31170000D01*
X79382000Y-31170000D02*
X84522000Y-31170000D01*
X79382000Y-33830000D02*
X84522000Y-33830000D01*
X84522000Y-33830000D02*
X84522000Y-31170000D01*
X46880000Y-76830000D02*
X52080000Y-76830000D01*
X46880000Y-71690000D02*
X46880000Y-76830000D01*
X52080000Y-69090000D02*
X52080000Y-76830000D01*
X46880000Y-71690000D02*
X49480000Y-71690000D01*
X49480000Y-71690000D02*
X49480000Y-69090000D01*
X49480000Y-69090000D02*
X52080000Y-69090000D01*
X46880000Y-70420000D02*
X46880000Y-69090000D01*
X46880000Y-69090000D02*
X48210000Y-69090000D01*
X48630000Y-42830000D02*
X47300000Y-42830000D01*
X48630000Y-41500000D02*
X48630000Y-42830000D01*
X48630000Y-40230000D02*
X45970000Y-40230000D01*
X45970000Y-40230000D02*
X45970000Y-37630000D01*
X48630000Y-40230000D02*
X48630000Y-37630000D01*
X48630000Y-37630000D02*
X45970000Y-37630000D01*
X84560000Y-30090000D02*
X84560000Y-27430000D01*
X79420000Y-30090000D02*
X84560000Y-30090000D01*
X79420000Y-27430000D02*
X84560000Y-27430000D01*
X79420000Y-30090000D02*
X79420000Y-27430000D01*
X78150000Y-30090000D02*
X76820000Y-30090000D01*
X76820000Y-30090000D02*
X76820000Y-28760000D01*
X46920000Y-93870000D02*
X49580000Y-93870000D01*
X46920000Y-91270000D02*
X46920000Y-93870000D01*
X49580000Y-91270000D02*
X49580000Y-93870000D01*
X46920000Y-91270000D02*
X49580000Y-91270000D01*
X46920000Y-90000000D02*
X46920000Y-88670000D01*
X46920000Y-88670000D02*
X48250000Y-88670000D01*
X49580000Y-78590000D02*
X46920000Y-78590000D01*
X49580000Y-83730000D02*
X49580000Y-78590000D01*
X46920000Y-83730000D02*
X46920000Y-78590000D01*
X49580000Y-83730000D02*
X46920000Y-83730000D01*
X49580000Y-85000000D02*
X49580000Y-86330000D01*
X49580000Y-86330000D02*
X48250000Y-86330000D01*
X60850000Y-25560000D02*
X68670000Y-25560000D01*
X66870000Y-34880000D02*
X66870000Y-35310000D01*
X60850000Y-25560000D02*
X60850000Y-27510000D01*
X60850000Y-29730000D02*
X60850000Y-32960000D01*
X62650000Y-34880000D02*
X61570000Y-34880000D01*
X67950000Y-34880000D02*
X66870000Y-34880000D01*
X68670000Y-29730000D02*
X68670000Y-32960000D01*
X68670000Y-25560000D02*
X68670000Y-27510000D01*
X115250000Y-40350000D02*
X116300000Y-40350000D01*
X116300000Y-39300000D02*
X116300000Y-40350000D01*
X106900000Y-34250000D02*
X106900000Y-25450000D01*
X106900000Y-25450000D02*
X116100000Y-25450000D01*
X109600000Y-40150000D02*
X106900000Y-40150000D01*
X106900000Y-40150000D02*
X106900000Y-38250000D01*
X116100000Y-25450000D02*
X116100000Y-40150000D01*
X116100000Y-40150000D02*
X113500000Y-40150000D01*
D16*
X119550000Y-93590000D02*
G75*
G03X119550000Y-93590000I-100000J0D01*
G01*
D17*
X123610000Y-98913750D02*
X123610000Y-94470000D01*
X132010000Y-98913750D02*
X123610000Y-98913750D01*
X132010000Y-110026250D02*
X132010000Y-98913750D01*
X123610000Y-110026250D02*
X132010000Y-110026250D01*
X123610000Y-114470000D02*
X123610000Y-110026250D01*
X98810000Y-114470000D02*
X123610000Y-114470000D01*
X98810000Y-94470000D02*
X98810000Y-114470000D01*
X123610000Y-94470000D02*
X98810000Y-94470000D01*
X50710000Y-114530000D02*
X75510000Y-114530000D01*
X75510000Y-114530000D02*
X75510000Y-94530000D01*
X75510000Y-94530000D02*
X50710000Y-94530000D01*
X50710000Y-94530000D02*
X50710000Y-98973750D01*
X50710000Y-98973750D02*
X42310000Y-98973750D01*
X42310000Y-98973750D02*
X42310000Y-110086250D01*
X42310000Y-110086250D02*
X50710000Y-110086250D01*
X50710000Y-110086250D02*
X50710000Y-114530000D01*
D16*
X54970000Y-115410000D02*
G75*
G03X54970000Y-115410000I-100000J0D01*
G01*
D15*
X101927500Y-42262779D02*
X101927500Y-41937221D01*
X102947500Y-42262779D02*
X102947500Y-41937221D01*
X106390000Y-69358578D02*
X106390000Y-68841422D01*
X107810000Y-69358578D02*
X107810000Y-68841422D01*
X74522779Y-32930000D02*
X74197221Y-32930000D01*
X74522779Y-31910000D02*
X74197221Y-31910000D01*
X113187221Y-72840000D02*
X113512779Y-72840000D01*
X113187221Y-73860000D02*
X113512779Y-73860000D01*
X74502779Y-28290000D02*
X74177221Y-28290000D01*
X74502779Y-29310000D02*
X74177221Y-29310000D01*
X111110000Y-74262779D02*
X111110000Y-73937221D01*
X110090000Y-74262779D02*
X110090000Y-73937221D01*
X108250000Y-81046422D02*
X108250000Y-81563578D01*
X109670000Y-81046422D02*
X109670000Y-81563578D01*
X76662779Y-90260000D02*
X76337221Y-90260000D01*
X76662779Y-89240000D02*
X76337221Y-89240000D01*
X87242779Y-33050000D02*
X86917221Y-33050000D01*
X87242779Y-32030000D02*
X86917221Y-32030000D01*
X90860000Y-86262779D02*
X90860000Y-85937221D01*
X89840000Y-86262779D02*
X89840000Y-85937221D01*
X114478779Y-85826000D02*
X114153221Y-85826000D01*
X114478779Y-86846000D02*
X114153221Y-86846000D01*
X87102779Y-28250000D02*
X86777221Y-28250000D01*
X87102779Y-29270000D02*
X86777221Y-29270000D01*
X110597221Y-87604000D02*
X110922779Y-87604000D01*
X110597221Y-88624000D02*
X110922779Y-88624000D01*
X69760000Y-88412779D02*
X69760000Y-88087221D01*
X68740000Y-88412779D02*
X68740000Y-88087221D01*
X95012779Y-97640000D02*
X94687221Y-97640000D01*
X95012779Y-98660000D02*
X94687221Y-98660000D01*
X94687221Y-99240000D02*
X95012779Y-99240000D01*
X94687221Y-100260000D02*
X95012779Y-100260000D01*
X79487221Y-107240000D02*
X79812779Y-107240000D01*
X79487221Y-108260000D02*
X79812779Y-108260000D01*
X95012779Y-101860000D02*
X94687221Y-101860000D01*
X95012779Y-100840000D02*
X94687221Y-100840000D01*
X79812779Y-111440000D02*
X79487221Y-111440000D01*
X79812779Y-112460000D02*
X79487221Y-112460000D01*
X85497221Y-117262000D02*
X85822779Y-117262000D01*
X85497221Y-116242000D02*
X85822779Y-116242000D01*
X88797221Y-116242000D02*
X89122779Y-116242000D01*
X88797221Y-117262000D02*
X89122779Y-117262000D01*
X91217221Y-59550000D02*
X91542779Y-59550000D01*
X91217221Y-60570000D02*
X91542779Y-60570000D01*
X91217221Y-59070000D02*
X91542779Y-59070000D01*
X91217221Y-58050000D02*
X91542779Y-58050000D01*
X91217221Y-61050000D02*
X91542779Y-61050000D01*
X91217221Y-62070000D02*
X91542779Y-62070000D01*
X84482779Y-58120000D02*
X84157221Y-58120000D01*
X84482779Y-59140000D02*
X84157221Y-59140000D01*
X84482779Y-62140000D02*
X84157221Y-62140000D01*
X84482779Y-61120000D02*
X84157221Y-61120000D01*
X84482779Y-59620000D02*
X84157221Y-59620000D01*
X84482779Y-60640000D02*
X84157221Y-60640000D01*
X60972779Y-61292000D02*
X60647221Y-61292000D01*
X60972779Y-62312000D02*
X60647221Y-62312000D01*
X60972779Y-59062000D02*
X60647221Y-59062000D01*
X60972779Y-58042000D02*
X60647221Y-58042000D01*
X60960279Y-59592000D02*
X60634721Y-59592000D01*
X60960279Y-60612000D02*
X60634721Y-60612000D01*
X79037221Y-102990000D02*
X79362779Y-102990000D01*
X79037221Y-104010000D02*
X79362779Y-104010000D01*
X79500279Y-100510000D02*
X79174721Y-100510000D01*
X79500279Y-99490000D02*
X79174721Y-99490000D01*
X94570000Y-110277279D02*
X94570000Y-109951721D01*
X93550000Y-110277279D02*
X93550000Y-109951721D01*
X94570000Y-106864779D02*
X94570000Y-106539221D01*
X93550000Y-106864779D02*
X93550000Y-106539221D01*
X128339726Y-86090799D02*
G75*
G02X123300000Y-89820000I-5039726J1540799D01*
G01*
X119263379Y-81161525D02*
G75*
G02X128414000Y-83276000I4036621J-3388475D01*
G01*
X118185609Y-85824881D02*
G75*
G02X118126000Y-83544000I5114391J1274881D01*
G01*
X123392030Y-89819357D02*
G75*
G02X119509000Y-88211000I-92030J5269357D01*
G01*
X128330000Y-48480000D02*
X128330000Y-52345000D01*
X128330000Y-56855000D02*
X128330000Y-60720000D01*
X118390000Y-48480000D02*
X118390000Y-52345000D01*
X118390000Y-56855000D02*
X118390000Y-60720000D01*
X128330000Y-48480000D02*
X126731000Y-48480000D01*
X124989000Y-48480000D02*
X124230000Y-48480000D01*
X122489000Y-48480000D02*
X121730000Y-48480000D01*
X119990000Y-48480000D02*
X118390000Y-48480000D01*
X128330000Y-60720000D02*
X118390000Y-60720000D01*
X104613332Y-60720000D02*
X94673332Y-60720000D01*
X96273332Y-48480000D02*
X94673332Y-48480000D01*
X98772332Y-48480000D02*
X98013332Y-48480000D01*
X101272332Y-48480000D02*
X100513332Y-48480000D01*
X104613332Y-48480000D02*
X103014332Y-48480000D01*
X94673332Y-56855000D02*
X94673332Y-60720000D01*
X94673332Y-48480000D02*
X94673332Y-52345000D01*
X104613332Y-56855000D02*
X104613332Y-60720000D01*
X104613332Y-48480000D02*
X104613332Y-52345000D01*
X57180000Y-60720000D02*
X47240000Y-60720000D01*
X48840000Y-48480000D02*
X47240000Y-48480000D01*
X51339000Y-48480000D02*
X50580000Y-48480000D01*
X53839000Y-48480000D02*
X53080000Y-48480000D01*
X57180000Y-48480000D02*
X55581000Y-48480000D01*
X47240000Y-56855000D02*
X47240000Y-60720000D01*
X47240000Y-48480000D02*
X47240000Y-52345000D01*
X57180000Y-56855000D02*
X57180000Y-60720000D01*
X57180000Y-48480000D02*
X57180000Y-52345000D01*
X94070000Y-41510000D02*
X95330000Y-41510000D01*
X100890000Y-41510000D02*
X99630000Y-41510000D01*
X94070000Y-37750000D02*
X94070000Y-41510000D01*
X100890000Y-35500000D02*
X100890000Y-41510000D01*
D11*
X92850000Y-71750000D02*
G75*
G03X92850000Y-71750000I-100000J0D01*
G01*
D17*
X97850000Y-74350000D02*
X94850000Y-74350000D01*
X94850000Y-71350000D02*
X97850000Y-71350000D01*
D15*
X88270000Y-96472000D02*
G75*
G02X86270000Y-96472000I-1000000J0D01*
G01*
X86270000Y-96472000D02*
X85020000Y-96472000D01*
X85020000Y-96472000D02*
X85020000Y-114372000D01*
X85020000Y-114372000D02*
X89520000Y-114372000D01*
X89520000Y-114372000D02*
X89520000Y-96472000D01*
X89520000Y-96472000D02*
X88270000Y-96472000D01*
D17*
X94850000Y-84600000D02*
X97850000Y-84600000D01*
X97850000Y-87600000D02*
X94850000Y-87600000D01*
D11*
X92850000Y-85000000D02*
G75*
G03X92850000Y-85000000I-100000J0D01*
G01*
D15*
X76053260Y-70426060D02*
X76053260Y-69726060D01*
X76053260Y-69726060D02*
X75353260Y-69726060D01*
X76053260Y-83246060D02*
X76053260Y-83946060D01*
X76053260Y-83946060D02*
X75353260Y-83946060D01*
X61833260Y-70426060D02*
X61833260Y-69726060D01*
X61833260Y-69726060D02*
X62533260Y-69726060D01*
X61833260Y-83246060D02*
X61833260Y-83946060D01*
X61833260Y-83946060D02*
X62533260Y-83946060D01*
X62533260Y-83946060D02*
X62533260Y-85311060D01*
X63540000Y-41300000D02*
X63540000Y-43100000D01*
X66760000Y-43100000D02*
X66760000Y-40650000D01*
D10*
X72966666Y-45566666D02*
X73442857Y-45566666D01*
X72871428Y-45852380D02*
X73204761Y-44852380D01*
X73538095Y-45852380D01*
X73871428Y-45852380D02*
X73871428Y-44852380D01*
X74109523Y-44852380D01*
X74252380Y-44900000D01*
X74347619Y-44995238D01*
X74395238Y-45090476D01*
X74442857Y-45280952D01*
X74442857Y-45423809D01*
X74395238Y-45614285D01*
X74347619Y-45709523D01*
X74252380Y-45804761D01*
X74109523Y-45852380D01*
X73871428Y-45852380D01*
X75442857Y-45757142D02*
X75395238Y-45804761D01*
X75252380Y-45852380D01*
X75157142Y-45852380D01*
X75014285Y-45804761D01*
X74919047Y-45709523D01*
X74871428Y-45614285D01*
X74823809Y-45423809D01*
X74823809Y-45280952D01*
X74871428Y-45090476D01*
X74919047Y-44995238D01*
X75014285Y-44900000D01*
X75157142Y-44852380D01*
X75252380Y-44852380D01*
X75395238Y-44900000D01*
X75442857Y-44947619D01*
X76395238Y-45852380D02*
X75823809Y-45852380D01*
X76109523Y-45852380D02*
X76109523Y-44852380D01*
X76014285Y-44995238D01*
X75919047Y-45090476D01*
X75823809Y-45138095D01*
X76585714Y-45947619D02*
X77347619Y-45947619D01*
X77585714Y-45852380D02*
X77585714Y-44852380D01*
X78061904Y-45852380D02*
X78061904Y-44852380D01*
X78633333Y-45852380D01*
X78633333Y-44852380D01*
X79061904Y-44947619D02*
X79109523Y-44900000D01*
X79204761Y-44852380D01*
X79442857Y-44852380D01*
X79538095Y-44900000D01*
X79585714Y-44947619D01*
X79633333Y-45042857D01*
X79633333Y-45138095D01*
X79585714Y-45280952D01*
X79014285Y-45852380D01*
X79633333Y-45852380D01*
D18*
X101238570Y-62757142D02*
X101848093Y-62757142D01*
X101543332Y-63061904D02*
X101543332Y-62452380D01*
X77521904Y-62757142D02*
X78131427Y-62757142D01*
X77826666Y-63061904D02*
X77826666Y-62452380D01*
X53805238Y-62757142D02*
X54414761Y-62757142D01*
X54110000Y-63061904D02*
X54110000Y-62452380D01*
D10*
X48242857Y-68104761D02*
X48385714Y-68152380D01*
X48623809Y-68152380D01*
X48719047Y-68104761D01*
X48766666Y-68057142D01*
X48814285Y-67961904D01*
X48814285Y-67866666D01*
X48766666Y-67771428D01*
X48719047Y-67723809D01*
X48623809Y-67676190D01*
X48433333Y-67628571D01*
X48338095Y-67580952D01*
X48290476Y-67533333D01*
X48242857Y-67438095D01*
X48242857Y-67342857D01*
X48290476Y-67247619D01*
X48338095Y-67200000D01*
X48433333Y-67152380D01*
X48671428Y-67152380D01*
X48814285Y-67200000D01*
X49147619Y-67152380D02*
X49385714Y-68152380D01*
X49576190Y-67438095D01*
X49766666Y-68152380D01*
X50004761Y-67152380D01*
X50385714Y-68152380D02*
X50385714Y-67152380D01*
X50623809Y-67152380D01*
X50766666Y-67200000D01*
X50861904Y-67295238D01*
X50909523Y-67390476D01*
X50957142Y-67580952D01*
X50957142Y-67723809D01*
X50909523Y-67914285D01*
X50861904Y-68009523D01*
X50766666Y-68104761D01*
X50623809Y-68152380D01*
X50385714Y-68152380D01*
X118534761Y-45082380D02*
X118725238Y-45082380D01*
X118820476Y-45130000D01*
X118915714Y-45225238D01*
X118963333Y-45415714D01*
X118963333Y-45749047D01*
X118915714Y-45939523D01*
X118820476Y-46034761D01*
X118725238Y-46082380D01*
X118534761Y-46082380D01*
X118439523Y-46034761D01*
X118344285Y-45939523D01*
X118296666Y-45749047D01*
X118296666Y-45415714D01*
X118344285Y-45225238D01*
X118439523Y-45130000D01*
X118534761Y-45082380D01*
X119820476Y-45415714D02*
X119820476Y-46082380D01*
X119391904Y-45415714D02*
X119391904Y-45939523D01*
X119439523Y-46034761D01*
X119534761Y-46082380D01*
X119677619Y-46082380D01*
X119772857Y-46034761D01*
X119820476Y-45987142D01*
X120153809Y-45415714D02*
X120534761Y-45415714D01*
X120296666Y-45082380D02*
X120296666Y-45939523D01*
X120344285Y-46034761D01*
X120439523Y-46082380D01*
X120534761Y-46082380D01*
X120868095Y-45415714D02*
X120868095Y-46415714D01*
X120868095Y-45463333D02*
X120963333Y-45415714D01*
X121153809Y-45415714D01*
X121249047Y-45463333D01*
X121296666Y-45510952D01*
X121344285Y-45606190D01*
X121344285Y-45891904D01*
X121296666Y-45987142D01*
X121249047Y-46034761D01*
X121153809Y-46082380D01*
X120963333Y-46082380D01*
X120868095Y-46034761D01*
X122201428Y-45415714D02*
X122201428Y-46082380D01*
X121772857Y-45415714D02*
X121772857Y-45939523D01*
X121820476Y-46034761D01*
X121915714Y-46082380D01*
X122058571Y-46082380D01*
X122153809Y-46034761D01*
X122201428Y-45987142D01*
X122534761Y-45415714D02*
X122915714Y-45415714D01*
X122677619Y-45082380D02*
X122677619Y-45939523D01*
X122725238Y-46034761D01*
X122820476Y-46082380D01*
X122915714Y-46082380D01*
X123868095Y-45082380D02*
X124201428Y-46082380D01*
X124534761Y-45082380D01*
X125010952Y-46082380D02*
X124915714Y-46034761D01*
X124868095Y-45987142D01*
X124820476Y-45891904D01*
X124820476Y-45606190D01*
X124868095Y-45510952D01*
X124915714Y-45463333D01*
X125010952Y-45415714D01*
X125153809Y-45415714D01*
X125249047Y-45463333D01*
X125296666Y-45510952D01*
X125344285Y-45606190D01*
X125344285Y-45891904D01*
X125296666Y-45987142D01*
X125249047Y-46034761D01*
X125153809Y-46082380D01*
X125010952Y-46082380D01*
X125915714Y-46082380D02*
X125820476Y-46034761D01*
X125772857Y-45939523D01*
X125772857Y-45082380D01*
X126725238Y-45415714D02*
X126725238Y-46082380D01*
X126296666Y-45415714D02*
X126296666Y-45939523D01*
X126344285Y-46034761D01*
X126439523Y-46082380D01*
X126582380Y-46082380D01*
X126677619Y-46034761D01*
X126725238Y-45987142D01*
X127201428Y-46082380D02*
X127201428Y-45415714D01*
X127201428Y-45510952D02*
X127249047Y-45463333D01*
X127344285Y-45415714D01*
X127487142Y-45415714D01*
X127582380Y-45463333D01*
X127630000Y-45558571D01*
X127630000Y-46082380D01*
X127630000Y-45558571D02*
X127677619Y-45463333D01*
X127772857Y-45415714D01*
X127915714Y-45415714D01*
X128010952Y-45463333D01*
X128058571Y-45558571D01*
X128058571Y-46082380D01*
X128915714Y-46034761D02*
X128820476Y-46082380D01*
X128630000Y-46082380D01*
X128534761Y-46034761D01*
X128487142Y-45939523D01*
X128487142Y-45558571D01*
X128534761Y-45463333D01*
X128630000Y-45415714D01*
X128820476Y-45415714D01*
X128915714Y-45463333D01*
X128963333Y-45558571D01*
X128963333Y-45653809D01*
X128487142Y-45749047D01*
X96566666Y-45766666D02*
X97042857Y-45766666D01*
X96471428Y-46052380D02*
X96804761Y-45052380D01*
X97138095Y-46052380D01*
X97471428Y-46052380D02*
X97471428Y-45052380D01*
X97709523Y-45052380D01*
X97852380Y-45100000D01*
X97947619Y-45195238D01*
X97995238Y-45290476D01*
X98042857Y-45480952D01*
X98042857Y-45623809D01*
X97995238Y-45814285D01*
X97947619Y-45909523D01*
X97852380Y-46004761D01*
X97709523Y-46052380D01*
X97471428Y-46052380D01*
X99042857Y-45957142D02*
X98995238Y-46004761D01*
X98852380Y-46052380D01*
X98757142Y-46052380D01*
X98614285Y-46004761D01*
X98519047Y-45909523D01*
X98471428Y-45814285D01*
X98423809Y-45623809D01*
X98423809Y-45480952D01*
X98471428Y-45290476D01*
X98519047Y-45195238D01*
X98614285Y-45100000D01*
X98757142Y-45052380D01*
X98852380Y-45052380D01*
X98995238Y-45100000D01*
X99042857Y-45147619D01*
X99995238Y-46052380D02*
X99423809Y-46052380D01*
X99709523Y-46052380D02*
X99709523Y-45052380D01*
X99614285Y-45195238D01*
X99519047Y-45290476D01*
X99423809Y-45338095D01*
X100185714Y-46147619D02*
X100947619Y-46147619D01*
X101185714Y-46052380D02*
X101185714Y-45052380D01*
X101661904Y-46052380D02*
X101661904Y-45052380D01*
X102233333Y-46052380D01*
X102233333Y-45052380D01*
X102614285Y-45052380D02*
X103233333Y-45052380D01*
X102900000Y-45433333D01*
X103042857Y-45433333D01*
X103138095Y-45480952D01*
X103185714Y-45528571D01*
X103233333Y-45623809D01*
X103233333Y-45861904D01*
X103185714Y-45957142D01*
X103138095Y-46004761D01*
X103042857Y-46052380D01*
X102757142Y-46052380D01*
X102661904Y-46004761D01*
X102614285Y-45957142D01*
X48966666Y-45166666D02*
X49442857Y-45166666D01*
X48871428Y-45452380D02*
X49204761Y-44452380D01*
X49538095Y-45452380D01*
X49871428Y-45452380D02*
X49871428Y-44452380D01*
X50109523Y-44452380D01*
X50252380Y-44500000D01*
X50347619Y-44595238D01*
X50395238Y-44690476D01*
X50442857Y-44880952D01*
X50442857Y-45023809D01*
X50395238Y-45214285D01*
X50347619Y-45309523D01*
X50252380Y-45404761D01*
X50109523Y-45452380D01*
X49871428Y-45452380D01*
X51442857Y-45357142D02*
X51395238Y-45404761D01*
X51252380Y-45452380D01*
X51157142Y-45452380D01*
X51014285Y-45404761D01*
X50919047Y-45309523D01*
X50871428Y-45214285D01*
X50823809Y-45023809D01*
X50823809Y-44880952D01*
X50871428Y-44690476D01*
X50919047Y-44595238D01*
X51014285Y-44500000D01*
X51157142Y-44452380D01*
X51252380Y-44452380D01*
X51395238Y-44500000D01*
X51442857Y-44547619D01*
X52395238Y-45452380D02*
X51823809Y-45452380D01*
X52109523Y-45452380D02*
X52109523Y-44452380D01*
X52014285Y-44595238D01*
X51919047Y-44690476D01*
X51823809Y-44738095D01*
X52585714Y-45547619D02*
X53347619Y-45547619D01*
X53585714Y-45452380D02*
X53585714Y-44452380D01*
X54061904Y-45452380D02*
X54061904Y-44452380D01*
X54633333Y-45452380D01*
X54633333Y-44452380D01*
X55633333Y-45452380D02*
X55061904Y-45452380D01*
X55347619Y-45452380D02*
X55347619Y-44452380D01*
X55252380Y-44595238D01*
X55157142Y-44690476D01*
X55061904Y-44738095D01*
X91918095Y-35942380D02*
X91918095Y-36751904D01*
X91965714Y-36847142D01*
X92013333Y-36894761D01*
X92108571Y-36942380D01*
X92299047Y-36942380D01*
X92394285Y-36894761D01*
X92441904Y-36847142D01*
X92489523Y-36751904D01*
X92489523Y-35942380D01*
X93489523Y-36942380D02*
X92918095Y-36942380D01*
X93203809Y-36942380D02*
X93203809Y-35942380D01*
X93108571Y-36085238D01*
X93013333Y-36180476D01*
X92918095Y-36228095D01*
X95638095Y-69802380D02*
X95638095Y-70611904D01*
X95685714Y-70707142D01*
X95733333Y-70754761D01*
X95828571Y-70802380D01*
X96019047Y-70802380D01*
X96114285Y-70754761D01*
X96161904Y-70707142D01*
X96209523Y-70611904D01*
X96209523Y-69802380D01*
X96638095Y-69897619D02*
X96685714Y-69850000D01*
X96780952Y-69802380D01*
X97019047Y-69802380D01*
X97114285Y-69850000D01*
X97161904Y-69897619D01*
X97209523Y-69992857D01*
X97209523Y-70088095D01*
X97161904Y-70230952D01*
X96590476Y-70802380D01*
X97209523Y-70802380D01*
X86508095Y-98452380D02*
X86508095Y-99261904D01*
X86555714Y-99357142D01*
X86603333Y-99404761D01*
X86698571Y-99452380D01*
X86889047Y-99452380D01*
X86984285Y-99404761D01*
X87031904Y-99357142D01*
X87079523Y-99261904D01*
X87079523Y-98452380D01*
X87460476Y-98452380D02*
X88079523Y-98452380D01*
X87746190Y-98833333D01*
X87889047Y-98833333D01*
X87984285Y-98880952D01*
X88031904Y-98928571D01*
X88079523Y-99023809D01*
X88079523Y-99261904D01*
X88031904Y-99357142D01*
X87984285Y-99404761D01*
X87889047Y-99452380D01*
X87603333Y-99452380D01*
X87508095Y-99404761D01*
X87460476Y-99357142D01*
X95663095Y-83077380D02*
X95663095Y-83886904D01*
X95710714Y-83982142D01*
X95758333Y-84029761D01*
X95853571Y-84077380D01*
X96044047Y-84077380D01*
X96139285Y-84029761D01*
X96186904Y-83982142D01*
X96234523Y-83886904D01*
X96234523Y-83077380D01*
X97139285Y-83410714D02*
X97139285Y-84077380D01*
X96901190Y-83029761D02*
X96663095Y-83744047D01*
X97282142Y-83744047D01*
M02*
