%TF.GenerationSoftware,KiCad,Pcbnew,(5.1.5-0-10_14)*%
%TF.CreationDate,2021-01-02T15:40:46-05:00*%
%TF.ProjectId,E90,4539302e-6b69-4636-9164-5f7063625858,rev?*%
%TF.SameCoordinates,Original*%
%TF.FileFunction,Copper,L4,Bot*%
%TF.FilePolarity,Positive*%
%FSLAX46Y46*%
G04 Gerber Fmt 4.6, Leading zero omitted, Abs format (unit mm)*
G04 Created by KiCad (PCBNEW (5.1.5-0-10_14)) date 2021-01-02 15:40:46*
%MOMM*%
%LPD*%
G04 APERTURE LIST*
%TA.AperFunction,ComponentPad*%
%ADD10R,1.700000X1.700000*%
%TD*%
%TA.AperFunction,ComponentPad*%
%ADD11O,1.700000X1.700000*%
%TD*%
%TA.AperFunction,ViaPad*%
%ADD12C,0.800000*%
%TD*%
%TA.AperFunction,Conductor*%
%ADD13C,1.000000*%
%TD*%
%TA.AperFunction,Conductor*%
%ADD14C,0.300000*%
%TD*%
%TA.AperFunction,Conductor*%
%ADD15C,0.400000*%
%TD*%
%TA.AperFunction,Conductor*%
%ADD16C,0.500000*%
%TD*%
G04 APERTURE END LIST*
D10*
%TO.P,J11,1*%
%TO.N,Net-(J11-Pad1)*%
X65190000Y-114230000D03*
%TD*%
%TO.P,J1,1*%
%TO.N,VCC*%
X57500000Y-54000000D03*
D11*
%TO.P,J1,2*%
%TO.N,GND*%
X60040000Y-54000000D03*
%TD*%
D10*
%TO.P,J2,1*%
%TO.N,SWDIO*%
X93218000Y-59690000D03*
D11*
%TO.P,J2,2*%
%TO.N,SWCLK*%
X90678000Y-59690000D03*
%TO.P,J2,3*%
%TO.N,SWO*%
X93218000Y-57150000D03*
%TO.P,J2,4*%
%TO.N,+3V3*%
X90678000Y-57150000D03*
%TO.P,J2,5*%
%TO.N,GND*%
X93218000Y-54610000D03*
%TO.P,J2,6*%
%TO.N,NRST*%
X90678000Y-54610000D03*
%TD*%
%TO.P,J3,2*%
%TO.N,GND*%
X54000000Y-65540000D03*
D10*
%TO.P,J3,1*%
%TO.N,+3V3*%
X54000000Y-63000000D03*
%TD*%
%TO.P,J4,1*%
%TO.N,BOOT0*%
X79502000Y-57912000D03*
%TD*%
D11*
%TO.P,J6,3*%
%TO.N,GND*%
X96266000Y-100838000D03*
%TO.P,J6,2*%
%TO.N,Net-(C12-Pad2)*%
X96266000Y-98298000D03*
D10*
%TO.P,J6,1*%
%TO.N,Net-(C11-Pad2)*%
X96266000Y-95758000D03*
%TD*%
%TO.P,J7,1*%
%TO.N,I2S2_MCLK*%
X86820000Y-69260000D03*
D11*
%TO.P,J7,2*%
%TO.N,CS_MCLK*%
X89360000Y-69260000D03*
%TO.P,J7,3*%
%TO.N,PMOD_MCLK*%
X86820000Y-71800000D03*
%TO.P,J7,4*%
%TO.N,Net-(J7-Pad4)*%
X89360000Y-71800000D03*
%TD*%
D10*
%TO.P,J8,1*%
%TO.N,I2S2_WS*%
X86800000Y-76100000D03*
D11*
%TO.P,J8,2*%
%TO.N,CS_WS*%
X89340000Y-76100000D03*
%TO.P,J8,3*%
%TO.N,PMOD_WS*%
X86800000Y-78640000D03*
%TO.P,J8,4*%
%TO.N,Net-(J8-Pad4)*%
X89340000Y-78640000D03*
%TD*%
%TO.P,J9,4*%
%TO.N,Net-(J9-Pad4)*%
X89340000Y-85510000D03*
%TO.P,J9,3*%
%TO.N,PMOD_CLK*%
X86800000Y-85510000D03*
%TO.P,J9,2*%
%TO.N,CS_CLK*%
X89340000Y-82970000D03*
D10*
%TO.P,J9,1*%
%TO.N,I2S2_CLK*%
X86800000Y-82970000D03*
%TD*%
%TO.P,J10,1*%
%TO.N,STM32_I2S2_SDIN*%
X67950000Y-84840000D03*
D11*
%TO.P,J10,2*%
%TO.N,CS_SDOUT*%
X70490000Y-84840000D03*
%TO.P,J10,3*%
%TO.N,PMOD_SDOUT*%
X67950000Y-87380000D03*
%TO.P,J10,4*%
%TO.N,Net-(J10-Pad4)*%
X70490000Y-87380000D03*
%TD*%
D10*
%TO.P,J13,1*%
%TO.N,Net-(J13-Pad1)*%
X96138000Y-110046000D03*
D11*
%TO.P,J13,2*%
%TO.N,Net-(J13-Pad2)*%
X96138000Y-112586000D03*
%TO.P,J13,3*%
%TO.N,GND*%
X96138000Y-115126000D03*
%TD*%
D10*
%TO.P,J14,1*%
%TO.N,PMOD_MCLK*%
X95000000Y-65000000D03*
D11*
%TO.P,J14,2*%
X97540000Y-65000000D03*
%TO.P,J14,3*%
%TO.N,PMOD_WS*%
X95000000Y-67540000D03*
%TO.P,J14,4*%
X97540000Y-67540000D03*
%TO.P,J14,5*%
%TO.N,PMOD_CLK*%
X95000000Y-70080000D03*
%TO.P,J14,6*%
X97540000Y-70080000D03*
%TO.P,J14,7*%
%TO.N,PMOD_SDIN*%
X95000000Y-72620000D03*
%TO.P,J14,8*%
%TO.N,PMOD_SDOUT*%
X97540000Y-72620000D03*
%TO.P,J14,9*%
%TO.N,GND*%
X95000000Y-75160000D03*
%TO.P,J14,10*%
X97540000Y-75160000D03*
%TO.P,J14,11*%
%TO.N,+3V3*%
X95000000Y-77700000D03*
%TO.P,J14,12*%
X97540000Y-77700000D03*
%TD*%
D10*
%TO.P,J15,1*%
%TO.N,CS_SDOUT*%
X66650000Y-105020000D03*
D11*
%TO.P,J15,2*%
%TO.N,CS_SDIN*%
X66650000Y-102480000D03*
%TD*%
%TO.P,J17,2*%
%TO.N,STM32_I2S2_SDIN*%
X56225000Y-84290000D03*
D10*
%TO.P,J17,1*%
%TO.N,Net-(J17-Pad1)*%
X56225000Y-81750000D03*
%TD*%
%TO.P,J18,1*%
%TO.N,PMOD_SDOUT*%
X97330000Y-82940000D03*
D11*
%TO.P,J18,2*%
%TO.N,PMOD_SDIN*%
X94790000Y-82940000D03*
%TD*%
D10*
%TO.P,J19,1*%
%TO.N,STM_I2S2_SDOUT*%
X60575000Y-84300000D03*
D11*
%TO.P,J19,2*%
%TO.N,Net-(J19-Pad2)*%
X60575000Y-81760000D03*
%TD*%
D10*
%TO.P,J12,1*%
%TO.N,STM_I2S2_SDOUT*%
X74610000Y-84870000D03*
D11*
%TO.P,J12,2*%
%TO.N,CS_SDIN*%
X77150000Y-84870000D03*
%TO.P,J12,3*%
%TO.N,PMOD_SDIN*%
X74610000Y-87410000D03*
%TO.P,J12,4*%
%TO.N,Net-(J12-Pad4)*%
X77150000Y-87410000D03*
%TD*%
D12*
%TO.N,GND*%
X84120000Y-111660000D03*
X92200000Y-97740000D03*
X86590000Y-97770000D03*
X85070000Y-96850000D03*
X78210000Y-51660000D03*
X85560000Y-93880000D03*
X66290000Y-60580000D03*
X67750000Y-52200000D03*
X55768000Y-98772000D03*
X74680000Y-59860000D03*
X70100000Y-59390000D03*
X58760000Y-101230000D03*
X55944000Y-104080000D03*
X56120000Y-101270000D03*
X67710000Y-53260000D03*
X70780000Y-52870000D03*
X63790000Y-62220000D03*
X63510000Y-77400000D03*
X63160000Y-79810000D03*
X86460000Y-95250000D03*
X75990000Y-107910000D03*
X76980000Y-117340000D03*
X73850000Y-116830000D03*
X70470000Y-116810000D03*
X68320000Y-116760000D03*
X61870000Y-66550000D03*
X59370000Y-72470000D03*
X79430000Y-51660000D03*
X81380000Y-51590000D03*
X83080000Y-60810000D03*
X84560000Y-59890000D03*
X92310000Y-105130000D03*
X86670000Y-104970000D03*
X85230000Y-106880000D03*
X84300000Y-105720000D03*
X76270000Y-104120000D03*
X74530000Y-104070000D03*
X71950000Y-104380000D03*
X62640000Y-111360000D03*
X73880000Y-114890000D03*
X70590000Y-114840000D03*
X81170000Y-64110000D03*
X89390000Y-111600000D03*
X88400000Y-112570000D03*
X85090000Y-112540000D03*
X62910000Y-75060000D03*
X83920000Y-78190000D03*
X83900000Y-79760000D03*
X77550000Y-95980000D03*
X76730000Y-96710000D03*
X78490000Y-111700000D03*
X69340000Y-80460000D03*
X76960000Y-80250000D03*
X76030000Y-81200000D03*
X78310000Y-99720000D03*
X62280000Y-107840000D03*
X64420000Y-66730000D03*
X63550000Y-65820000D03*
X64080000Y-74370000D03*
X85020000Y-117940000D03*
X83120000Y-118020000D03*
X88510000Y-118000000D03*
X90490000Y-117970000D03*
X80320000Y-52630000D03*
%TO.N,+3V3*%
X65290000Y-65020000D03*
X64060000Y-73310000D03*
X64220000Y-68360000D03*
X76150000Y-52720000D03*
X61580000Y-75880000D03*
X74990000Y-52740000D03*
X74050000Y-53880000D03*
X74040000Y-56280000D03*
X74850000Y-57520000D03*
X76190000Y-57520000D03*
X67740000Y-54550000D03*
X67720000Y-55730000D03*
X62340000Y-76740000D03*
X64790000Y-107810000D03*
X79970000Y-109360000D03*
X80850000Y-109370000D03*
X82100000Y-109520000D03*
X81280000Y-97500000D03*
X82180000Y-97530000D03*
X83350000Y-97640000D03*
X80730000Y-55570000D03*
X82260000Y-62610000D03*
X66360000Y-63170000D03*
X82220000Y-77240000D03*
X71100000Y-79660000D03*
X81670000Y-55520000D03*
%TO.N,NRST*%
X78660000Y-64870000D03*
%TO.N,Net-(R15-Pad1)*%
X74510000Y-74130000D03*
X61000000Y-90290000D03*
%TO.N,Net-(R16-Pad1)*%
X73070000Y-74010000D03*
X58890000Y-90270000D03*
%TO.N,Net-(R17-Pad2)*%
X71660000Y-73960000D03*
X56870000Y-90240000D03*
%TO.N,Net-(R18-Pad1)*%
X70270000Y-73950000D03*
X54790000Y-90210000D03*
%TD*%
D13*
%TO.N,GND*%
X95000000Y-75160000D02*
X97540000Y-75160000D01*
%TO.N,+3V3*%
X95000000Y-77700000D02*
X97540000Y-77700000D01*
D14*
%TO.N,NRST*%
X78660000Y-64870000D02*
X83420000Y-64870000D01*
X88729998Y-54610000D02*
X89475919Y-54610000D01*
X83809999Y-60208001D02*
X83809999Y-59529999D01*
X83830001Y-60228003D02*
X83809999Y-60208001D01*
X83830001Y-64459999D02*
X83830001Y-60228003D01*
X89475919Y-54610000D02*
X90678000Y-54610000D01*
X83809999Y-59529999D02*
X88729998Y-54610000D01*
X83420000Y-64870000D02*
X83830001Y-64459999D01*
D15*
%TO.N,PMOD_MCLK*%
X85617919Y-71800000D02*
X84870000Y-71052081D01*
X86820000Y-71800000D02*
X85617919Y-71800000D01*
X88659998Y-65000000D02*
X93750000Y-65000000D01*
X93750000Y-65000000D02*
X95000000Y-65000000D01*
X84870000Y-68789998D02*
X88659998Y-65000000D01*
X84870000Y-71052081D02*
X84870000Y-68789998D01*
D16*
X95000000Y-65000000D02*
X97540000Y-65000000D01*
D15*
%TO.N,PMOD_WS*%
X89960001Y-73050001D02*
X91090000Y-71920002D01*
X87429997Y-73050001D02*
X89960001Y-73050001D01*
X85549999Y-77389999D02*
X85549999Y-74929999D01*
X85549999Y-74929999D02*
X87429997Y-73050001D01*
X86800000Y-78640000D02*
X85549999Y-77389999D01*
X91090000Y-71920002D02*
X91090000Y-68210000D01*
X91760000Y-67540000D02*
X95000000Y-67540000D01*
X91090000Y-68210000D02*
X91760000Y-67540000D01*
D16*
X95000000Y-67540000D02*
X97540000Y-67540000D01*
D15*
%TO.N,PMOD_CLK*%
X93797919Y-70080000D02*
X91740000Y-72137919D01*
X95000000Y-70080000D02*
X93797919Y-70080000D01*
X91740000Y-78090002D02*
X88580002Y-81250000D01*
X91740000Y-72137919D02*
X91740000Y-78090002D01*
X88580002Y-81250000D02*
X85970000Y-81250000D01*
X85970000Y-81250000D02*
X85180000Y-82040000D01*
X85180000Y-83890000D02*
X86800000Y-85510000D01*
X85180000Y-82040000D02*
X85180000Y-83890000D01*
D16*
X95000000Y-70080000D02*
X97540000Y-70080000D01*
D15*
%TO.N,PMOD_SDOUT*%
X97330000Y-82940000D02*
X97330000Y-80800000D01*
X97330000Y-80800000D02*
X98970000Y-79160000D01*
X98970000Y-74050000D02*
X97540000Y-72620000D01*
X98970000Y-79160000D02*
X98970000Y-74050000D01*
X67950000Y-88582081D02*
X69567919Y-90200000D01*
X67950000Y-87380000D02*
X67950000Y-88582081D01*
X97330000Y-84190000D02*
X97330000Y-82940000D01*
X91320000Y-90200000D02*
X97330000Y-84190000D01*
X69567919Y-90200000D02*
X91320000Y-90200000D01*
%TO.N,PMOD_SDIN*%
X95000000Y-72620000D02*
X92780000Y-74840000D01*
X92780000Y-80930000D02*
X94790000Y-82940000D01*
X92780000Y-74840000D02*
X92780000Y-80930000D01*
X89069999Y-88660001D02*
X93940001Y-83789999D01*
X75860001Y-88660001D02*
X89069999Y-88660001D01*
X93940001Y-83789999D02*
X94790000Y-82940000D01*
X74610000Y-87410000D02*
X75860001Y-88660001D01*
D14*
%TO.N,Net-(R15-Pad1)*%
X74510000Y-74130000D02*
X66200000Y-82440000D01*
X66200000Y-82440000D02*
X66200000Y-86310000D01*
X62250000Y-90260000D02*
X62230000Y-90260000D01*
X66200000Y-86310000D02*
X62250000Y-90260000D01*
X61030000Y-90260000D02*
X61000000Y-90290000D01*
X62250000Y-90260000D02*
X61030000Y-90260000D01*
%TO.N,Net-(R16-Pad1)*%
X72670001Y-74409999D02*
X72640001Y-74409999D01*
X73070000Y-74010000D02*
X72670001Y-74409999D01*
X72640001Y-74409999D02*
X65340000Y-81710000D01*
X65340000Y-81710000D02*
X65340000Y-85490000D01*
X61690000Y-89140000D02*
X60740000Y-89140000D01*
X65340000Y-85490000D02*
X61690000Y-89140000D01*
X60740000Y-89140000D02*
X59180000Y-89140000D01*
X58890000Y-89430000D02*
X58890000Y-90270000D01*
X59180000Y-89140000D02*
X58890000Y-89430000D01*
%TO.N,Net-(R17-Pad2)*%
X71660000Y-73960000D02*
X64340000Y-81280000D01*
X64340000Y-81280000D02*
X64340000Y-85010000D01*
X61280000Y-88070000D02*
X59420000Y-88070000D01*
X64340000Y-85010000D02*
X61280000Y-88070000D01*
X59420000Y-88070000D02*
X57780000Y-88070000D01*
X56870000Y-88980000D02*
X56870000Y-90240000D01*
X57780000Y-88070000D02*
X56870000Y-88980000D01*
%TO.N,Net-(R18-Pad1)*%
X70270000Y-73950000D02*
X63370000Y-80850000D01*
X63370000Y-80850000D02*
X63370000Y-84340000D01*
X60580000Y-87130000D02*
X57710000Y-87130000D01*
X63370000Y-84340000D02*
X60580000Y-87130000D01*
X57710000Y-87130000D02*
X56530000Y-87130000D01*
X54790000Y-88870000D02*
X54790000Y-90210000D01*
X56530000Y-87130000D02*
X54790000Y-88870000D01*
%TD*%
M02*
