%TF.GenerationSoftware,KiCad,Pcbnew,(5.1.5-0-10_14)*%
%TF.CreationDate,2021-01-02T15:40:46-05:00*%
%TF.ProjectId,E90,4539302e-6b69-4636-9164-5f7063625858,rev?*%
%TF.SameCoordinates,Original*%
%TF.FileFunction,Legend,Bot*%
%TF.FilePolarity,Positive*%
%FSLAX46Y46*%
G04 Gerber Fmt 4.6, Leading zero omitted, Abs format (unit mm)*
G04 Created by KiCad (PCBNEW (5.1.5-0-10_14)) date 2021-01-02 15:40:46*
%MOMM*%
%LPD*%
G04 APERTURE LIST*
%ADD10C,0.150000*%
G04 APERTURE END LIST*
D10*
X59668604Y-112387571D02*
X59335270Y-112387571D01*
X59257889Y-112911380D02*
X59734080Y-112911380D01*
X59609080Y-111911380D01*
X59132889Y-111911380D01*
X58781699Y-112911380D02*
X58591223Y-112911380D01*
X58490032Y-112863761D01*
X58436461Y-112816142D01*
X58323366Y-112673285D01*
X58251937Y-112482809D01*
X58204318Y-112101857D01*
X58240032Y-112006619D01*
X58281699Y-111959000D01*
X58370985Y-111911380D01*
X58561461Y-111911380D01*
X58662651Y-111959000D01*
X58716223Y-112006619D01*
X58775747Y-112101857D01*
X58805508Y-112339952D01*
X58769794Y-112435190D01*
X58728127Y-112482809D01*
X58638842Y-112530428D01*
X58448366Y-112530428D01*
X58347175Y-112482809D01*
X58293604Y-112435190D01*
X58234080Y-112339952D01*
X57561461Y-111911380D02*
X57466223Y-111911380D01*
X57376937Y-111959000D01*
X57335270Y-112006619D01*
X57299556Y-112101857D01*
X57275747Y-112292333D01*
X57305508Y-112530428D01*
X57376937Y-112720904D01*
X57436461Y-112816142D01*
X57490032Y-112863761D01*
X57591223Y-112911380D01*
X57686461Y-112911380D01*
X57775747Y-112863761D01*
X57817413Y-112816142D01*
X57853127Y-112720904D01*
X57876937Y-112530428D01*
X57847175Y-112292333D01*
X57775747Y-112101857D01*
X57716223Y-112006619D01*
X57662651Y-111959000D01*
X57561461Y-111911380D01*
X55638842Y-112911380D02*
X56210270Y-112911380D01*
X55924556Y-112911380D02*
X55799556Y-111911380D01*
X55912651Y-112054238D01*
X56019794Y-112149476D01*
X56120985Y-112197095D01*
X55198366Y-112816142D02*
X55156699Y-112863761D01*
X55210270Y-112911380D01*
X55251937Y-112863761D01*
X55198366Y-112816142D01*
X55210270Y-112911380D01*
X54418604Y-111911380D02*
X54323366Y-111911380D01*
X54234080Y-111959000D01*
X54192413Y-112006619D01*
X54156699Y-112101857D01*
X54132889Y-112292333D01*
X54162651Y-112530428D01*
X54234080Y-112720904D01*
X54293604Y-112816142D01*
X54347175Y-112863761D01*
X54448366Y-112911380D01*
X54543604Y-112911380D01*
X54632889Y-112863761D01*
X54674556Y-112816142D01*
X54710270Y-112720904D01*
X54734080Y-112530428D01*
X54704318Y-112292333D01*
X54632889Y-112101857D01*
X54573366Y-112006619D01*
X54519794Y-111959000D01*
X54418604Y-111911380D01*
X62109080Y-114513761D02*
X61972175Y-114561380D01*
X61734080Y-114561380D01*
X61632889Y-114513761D01*
X61579318Y-114466142D01*
X61519794Y-114370904D01*
X61507889Y-114275666D01*
X61543604Y-114180428D01*
X61585270Y-114132809D01*
X61674556Y-114085190D01*
X61859080Y-114037571D01*
X61948366Y-113989952D01*
X61990032Y-113942333D01*
X62025747Y-113847095D01*
X62013842Y-113751857D01*
X61954318Y-113656619D01*
X61900747Y-113609000D01*
X61799556Y-113561380D01*
X61561461Y-113561380D01*
X61424556Y-113609000D01*
X61115032Y-114561380D02*
X60990032Y-113561380D01*
X60972175Y-114180428D02*
X60734080Y-114561380D01*
X60650747Y-113894714D02*
X61079318Y-114275666D01*
X60317413Y-113894714D02*
X60162651Y-114561380D01*
X59841223Y-113894714D02*
X60162651Y-114561380D01*
X60287651Y-114799476D01*
X60341223Y-114847095D01*
X60442413Y-114894714D01*
X59400747Y-114561380D02*
X59490032Y-114513761D01*
X59525747Y-114418523D01*
X59418604Y-113561380D01*
X58632889Y-114513761D02*
X58734080Y-114561380D01*
X58924556Y-114561380D01*
X59013842Y-114513761D01*
X59049556Y-114418523D01*
X59001937Y-114037571D01*
X58942413Y-113942333D01*
X58841223Y-113894714D01*
X58650747Y-113894714D01*
X58561461Y-113942333D01*
X58525747Y-114037571D01*
X58537651Y-114132809D01*
X59025747Y-114228047D01*
X58162651Y-114561380D02*
X58079318Y-113894714D01*
X58103127Y-114085190D02*
X58043604Y-113989952D01*
X57990032Y-113942333D01*
X57888842Y-113894714D01*
X57793604Y-113894714D01*
X56198366Y-114466142D02*
X56251937Y-114513761D01*
X56400747Y-114561380D01*
X56495985Y-114561380D01*
X56632889Y-114513761D01*
X56716223Y-114418523D01*
X56751937Y-114323285D01*
X56775747Y-114132809D01*
X56757889Y-113989952D01*
X56686461Y-113799476D01*
X56626937Y-113704238D01*
X56519794Y-113609000D01*
X56370985Y-113561380D01*
X56275747Y-113561380D01*
X56138842Y-113609000D01*
X56097175Y-113656619D01*
X55638842Y-114561380D02*
X55728127Y-114513761D01*
X55769794Y-114466142D01*
X55805508Y-114370904D01*
X55769794Y-114085190D01*
X55710270Y-113989952D01*
X55656699Y-113942333D01*
X55555508Y-113894714D01*
X55412651Y-113894714D01*
X55323366Y-113942333D01*
X55281699Y-113989952D01*
X55245985Y-114085190D01*
X55281699Y-114370904D01*
X55341223Y-114466142D01*
X55394794Y-114513761D01*
X55495985Y-114561380D01*
X55638842Y-114561380D01*
X54876937Y-114561380D02*
X54793604Y-113894714D01*
X54817413Y-114085190D02*
X54757889Y-113989952D01*
X54704318Y-113942333D01*
X54603127Y-113894714D01*
X54507889Y-113894714D01*
X54174556Y-113894714D02*
X54257889Y-114561380D01*
X54186461Y-113989952D02*
X54132889Y-113942333D01*
X54031699Y-113894714D01*
X53888842Y-113894714D01*
X53799556Y-113942333D01*
X53763842Y-114037571D01*
X53829318Y-114561380D01*
X52966223Y-114513761D02*
X53067413Y-114561380D01*
X53257889Y-114561380D01*
X53347175Y-114513761D01*
X53382889Y-114418523D01*
X53335270Y-114037571D01*
X53275747Y-113942333D01*
X53174556Y-113894714D01*
X52984080Y-113894714D01*
X52894794Y-113942333D01*
X52859080Y-114037571D01*
X52870985Y-114132809D01*
X53359080Y-114228047D01*
X52353127Y-114561380D02*
X52442413Y-114513761D01*
X52478127Y-114418523D01*
X52370985Y-113561380D01*
X51829318Y-114561380D02*
X51918604Y-114513761D01*
X51954318Y-114418523D01*
X51847175Y-113561380D01*
M02*
