%TF.GenerationSoftware,KiCad,Pcbnew,(5.1.5-0-10_14)*%
%TF.CreationDate,2021-01-02T15:40:46-05:00*%
%TF.ProjectId,E90,4539302e-6b69-4636-9164-5f7063625858,rev?*%
%TF.SameCoordinates,Original*%
%TF.FileFunction,Legend,Top*%
%TF.FilePolarity,Positive*%
%FSLAX46Y46*%
G04 Gerber Fmt 4.6, Leading zero omitted, Abs format (unit mm)*
G04 Created by KiCad (PCBNEW (5.1.5-0-10_14)) date 2021-01-02 15:40:46*
%MOMM*%
%LPD*%
G04 APERTURE LIST*
%ADD10C,0.150000*%
%ADD11C,0.120000*%
%ADD12C,0.800000*%
%ADD13C,0.400000*%
%ADD14C,0.200000*%
%ADD15C,0.300000*%
%ADD16C,0.127000*%
G04 APERTURE END LIST*
D10*
X79979047Y-54011428D02*
X80740952Y-54011428D01*
X80360000Y-54392380D02*
X80360000Y-53630476D01*
X54123395Y-112387571D02*
X54456729Y-112387571D01*
X54534110Y-112911380D02*
X54057919Y-112911380D01*
X54182919Y-111911380D01*
X54659110Y-111911380D01*
X55010300Y-112911380D02*
X55200776Y-112911380D01*
X55301967Y-112863761D01*
X55355538Y-112816142D01*
X55468633Y-112673285D01*
X55540062Y-112482809D01*
X55587681Y-112101857D01*
X55551967Y-112006619D01*
X55510300Y-111959000D01*
X55421014Y-111911380D01*
X55230538Y-111911380D01*
X55129348Y-111959000D01*
X55075776Y-112006619D01*
X55016252Y-112101857D01*
X54986491Y-112339952D01*
X55022205Y-112435190D01*
X55063872Y-112482809D01*
X55153157Y-112530428D01*
X55343633Y-112530428D01*
X55444824Y-112482809D01*
X55498395Y-112435190D01*
X55557919Y-112339952D01*
X56230538Y-111911380D02*
X56325776Y-111911380D01*
X56415062Y-111959000D01*
X56456729Y-112006619D01*
X56492443Y-112101857D01*
X56516252Y-112292333D01*
X56486491Y-112530428D01*
X56415062Y-112720904D01*
X56355538Y-112816142D01*
X56301967Y-112863761D01*
X56200776Y-112911380D01*
X56105538Y-112911380D01*
X56016252Y-112863761D01*
X55974586Y-112816142D01*
X55938872Y-112720904D01*
X55915062Y-112530428D01*
X55944824Y-112292333D01*
X56016252Y-112101857D01*
X56075776Y-112006619D01*
X56129348Y-111959000D01*
X56230538Y-111911380D01*
X58153157Y-112911380D02*
X57581729Y-112911380D01*
X57867443Y-112911380D02*
X57992443Y-111911380D01*
X57879348Y-112054238D01*
X57772205Y-112149476D01*
X57671014Y-112197095D01*
X58593633Y-112816142D02*
X58635300Y-112863761D01*
X58581729Y-112911380D01*
X58540062Y-112863761D01*
X58593633Y-112816142D01*
X58581729Y-112911380D01*
X59373395Y-111911380D02*
X59468633Y-111911380D01*
X59557919Y-111959000D01*
X59599586Y-112006619D01*
X59635300Y-112101857D01*
X59659110Y-112292333D01*
X59629348Y-112530428D01*
X59557919Y-112720904D01*
X59498395Y-112816142D01*
X59444824Y-112863761D01*
X59343633Y-112911380D01*
X59248395Y-112911380D01*
X59159110Y-112863761D01*
X59117443Y-112816142D01*
X59081729Y-112720904D01*
X59057919Y-112530428D01*
X59087681Y-112292333D01*
X59159110Y-112101857D01*
X59218633Y-112006619D01*
X59272205Y-111959000D01*
X59373395Y-111911380D01*
X51682919Y-114513761D02*
X51819824Y-114561380D01*
X52057919Y-114561380D01*
X52159110Y-114513761D01*
X52212681Y-114466142D01*
X52272205Y-114370904D01*
X52284110Y-114275666D01*
X52248395Y-114180428D01*
X52206729Y-114132809D01*
X52117443Y-114085190D01*
X51932919Y-114037571D01*
X51843633Y-113989952D01*
X51801967Y-113942333D01*
X51766252Y-113847095D01*
X51778157Y-113751857D01*
X51837681Y-113656619D01*
X51891252Y-113609000D01*
X51992443Y-113561380D01*
X52230538Y-113561380D01*
X52367443Y-113609000D01*
X52676967Y-114561380D02*
X52801967Y-113561380D01*
X52819824Y-114180428D02*
X53057919Y-114561380D01*
X53141252Y-113894714D02*
X52712681Y-114275666D01*
X53474586Y-113894714D02*
X53629348Y-114561380D01*
X53950776Y-113894714D02*
X53629348Y-114561380D01*
X53504348Y-114799476D01*
X53450776Y-114847095D01*
X53349586Y-114894714D01*
X54391252Y-114561380D02*
X54301967Y-114513761D01*
X54266252Y-114418523D01*
X54373395Y-113561380D01*
X55159110Y-114513761D02*
X55057919Y-114561380D01*
X54867443Y-114561380D01*
X54778157Y-114513761D01*
X54742443Y-114418523D01*
X54790062Y-114037571D01*
X54849586Y-113942333D01*
X54950776Y-113894714D01*
X55141252Y-113894714D01*
X55230538Y-113942333D01*
X55266252Y-114037571D01*
X55254348Y-114132809D01*
X54766252Y-114228047D01*
X55629348Y-114561380D02*
X55712681Y-113894714D01*
X55688872Y-114085190D02*
X55748395Y-113989952D01*
X55801967Y-113942333D01*
X55903157Y-113894714D01*
X55998395Y-113894714D01*
X57593633Y-114466142D02*
X57540062Y-114513761D01*
X57391252Y-114561380D01*
X57296014Y-114561380D01*
X57159110Y-114513761D01*
X57075776Y-114418523D01*
X57040062Y-114323285D01*
X57016252Y-114132809D01*
X57034110Y-113989952D01*
X57105538Y-113799476D01*
X57165062Y-113704238D01*
X57272205Y-113609000D01*
X57421014Y-113561380D01*
X57516252Y-113561380D01*
X57653157Y-113609000D01*
X57694824Y-113656619D01*
X58153157Y-114561380D02*
X58063872Y-114513761D01*
X58022205Y-114466142D01*
X57986491Y-114370904D01*
X58022205Y-114085190D01*
X58081729Y-113989952D01*
X58135300Y-113942333D01*
X58236491Y-113894714D01*
X58379348Y-113894714D01*
X58468633Y-113942333D01*
X58510300Y-113989952D01*
X58546014Y-114085190D01*
X58510300Y-114370904D01*
X58450776Y-114466142D01*
X58397205Y-114513761D01*
X58296014Y-114561380D01*
X58153157Y-114561380D01*
X58915062Y-114561380D02*
X58998395Y-113894714D01*
X58974586Y-114085190D02*
X59034110Y-113989952D01*
X59087681Y-113942333D01*
X59188872Y-113894714D01*
X59284110Y-113894714D01*
X59617443Y-113894714D02*
X59534110Y-114561380D01*
X59605538Y-113989952D02*
X59659110Y-113942333D01*
X59760300Y-113894714D01*
X59903157Y-113894714D01*
X59992443Y-113942333D01*
X60028157Y-114037571D01*
X59962681Y-114561380D01*
X60825776Y-114513761D02*
X60724586Y-114561380D01*
X60534110Y-114561380D01*
X60444824Y-114513761D01*
X60409110Y-114418523D01*
X60456729Y-114037571D01*
X60516252Y-113942333D01*
X60617443Y-113894714D01*
X60807919Y-113894714D01*
X60897205Y-113942333D01*
X60932919Y-114037571D01*
X60921014Y-114132809D01*
X60432919Y-114228047D01*
X61438872Y-114561380D02*
X61349586Y-114513761D01*
X61313872Y-114418523D01*
X61421014Y-113561380D01*
X61962681Y-114561380D02*
X61873395Y-114513761D01*
X61837681Y-114418523D01*
X61944824Y-113561380D01*
X59358095Y-116997380D02*
X59358095Y-115997380D01*
X59739047Y-115997380D01*
X59834285Y-116045000D01*
X59881904Y-116092619D01*
X59929523Y-116187857D01*
X59929523Y-116330714D01*
X59881904Y-116425952D01*
X59834285Y-116473571D01*
X59739047Y-116521190D01*
X59358095Y-116521190D01*
X60358095Y-116997380D02*
X60358095Y-116330714D01*
X60358095Y-116521190D02*
X60405714Y-116425952D01*
X60453333Y-116378333D01*
X60548571Y-116330714D01*
X60643809Y-116330714D01*
X61358095Y-116949761D02*
X61262857Y-116997380D01*
X61072380Y-116997380D01*
X60977142Y-116949761D01*
X60929523Y-116854523D01*
X60929523Y-116473571D01*
X60977142Y-116378333D01*
X61072380Y-116330714D01*
X61262857Y-116330714D01*
X61358095Y-116378333D01*
X61405714Y-116473571D01*
X61405714Y-116568809D01*
X60929523Y-116664047D01*
X61834285Y-116616428D02*
X62596190Y-116616428D01*
X63405714Y-116473571D02*
X63548571Y-116521190D01*
X63596190Y-116568809D01*
X63643809Y-116664047D01*
X63643809Y-116806904D01*
X63596190Y-116902142D01*
X63548571Y-116949761D01*
X63453333Y-116997380D01*
X63072380Y-116997380D01*
X63072380Y-115997380D01*
X63405714Y-115997380D01*
X63500952Y-116045000D01*
X63548571Y-116092619D01*
X63596190Y-116187857D01*
X63596190Y-116283095D01*
X63548571Y-116378333D01*
X63500952Y-116425952D01*
X63405714Y-116473571D01*
X63072380Y-116473571D01*
X64500952Y-116330714D02*
X64500952Y-116997380D01*
X64072380Y-116330714D02*
X64072380Y-116854523D01*
X64120000Y-116949761D01*
X64215238Y-116997380D01*
X64358095Y-116997380D01*
X64453333Y-116949761D01*
X64500952Y-116902142D01*
X64834285Y-116330714D02*
X65215238Y-116330714D01*
X64977142Y-116997380D02*
X64977142Y-116140238D01*
X65024761Y-116045000D01*
X65120000Y-115997380D01*
X65215238Y-115997380D01*
X65405714Y-116330714D02*
X65786666Y-116330714D01*
X65548571Y-116997380D02*
X65548571Y-116140238D01*
X65596190Y-116045000D01*
X65691428Y-115997380D01*
X65786666Y-115997380D01*
X66500952Y-116949761D02*
X66405714Y-116997380D01*
X66215238Y-116997380D01*
X66120000Y-116949761D01*
X66072380Y-116854523D01*
X66072380Y-116473571D01*
X66120000Y-116378333D01*
X66215238Y-116330714D01*
X66405714Y-116330714D01*
X66500952Y-116378333D01*
X66548571Y-116473571D01*
X66548571Y-116568809D01*
X66072380Y-116664047D01*
X66977142Y-116997380D02*
X66977142Y-116330714D01*
X66977142Y-116521190D02*
X67024761Y-116425952D01*
X67072380Y-116378333D01*
X67167619Y-116330714D01*
X67262857Y-116330714D01*
X62834285Y-117647380D02*
X63405714Y-117647380D01*
X63120000Y-118647380D02*
X63120000Y-117647380D01*
X63739047Y-118647380D02*
X63739047Y-117647380D01*
X64120000Y-117647380D01*
X64215238Y-117695000D01*
X64262857Y-117742619D01*
X64310476Y-117837857D01*
X64310476Y-117980714D01*
X64262857Y-118075952D01*
X64215238Y-118123571D01*
X64120000Y-118171190D01*
X63739047Y-118171190D01*
X58642571Y-87459761D02*
X58785428Y-87507380D01*
X59023523Y-87507380D01*
X59118761Y-87459761D01*
X59166380Y-87412142D01*
X59214000Y-87316904D01*
X59214000Y-87221666D01*
X59166380Y-87126428D01*
X59118761Y-87078809D01*
X59023523Y-87031190D01*
X58833047Y-86983571D01*
X58737809Y-86935952D01*
X58690190Y-86888333D01*
X58642571Y-86793095D01*
X58642571Y-86697857D01*
X58690190Y-86602619D01*
X58737809Y-86555000D01*
X58833047Y-86507380D01*
X59071142Y-86507380D01*
X59214000Y-86555000D01*
X59499714Y-86507380D02*
X60071142Y-86507380D01*
X59785428Y-87507380D02*
X59785428Y-86507380D01*
X60404476Y-87507380D02*
X60404476Y-86507380D01*
X60737809Y-87221666D01*
X61071142Y-86507380D01*
X61071142Y-87507380D01*
X61452095Y-86507380D02*
X62071142Y-86507380D01*
X61737809Y-86888333D01*
X61880666Y-86888333D01*
X61975904Y-86935952D01*
X62023523Y-86983571D01*
X62071142Y-87078809D01*
X62071142Y-87316904D01*
X62023523Y-87412142D01*
X61975904Y-87459761D01*
X61880666Y-87507380D01*
X61594952Y-87507380D01*
X61499714Y-87459761D01*
X61452095Y-87412142D01*
X62452095Y-86602619D02*
X62499714Y-86555000D01*
X62594952Y-86507380D01*
X62833047Y-86507380D01*
X62928285Y-86555000D01*
X62975904Y-86602619D01*
X63023523Y-86697857D01*
X63023523Y-86793095D01*
X62975904Y-86935952D01*
X62404476Y-87507380D01*
X63023523Y-87507380D01*
X58999714Y-89109761D02*
X59142571Y-89157380D01*
X59380666Y-89157380D01*
X59475904Y-89109761D01*
X59523523Y-89062142D01*
X59571142Y-88966904D01*
X59571142Y-88871666D01*
X59523523Y-88776428D01*
X59475904Y-88728809D01*
X59380666Y-88681190D01*
X59190190Y-88633571D01*
X59094952Y-88585952D01*
X59047333Y-88538333D01*
X58999714Y-88443095D01*
X58999714Y-88347857D01*
X59047333Y-88252619D01*
X59094952Y-88205000D01*
X59190190Y-88157380D01*
X59428285Y-88157380D01*
X59571142Y-88205000D01*
X59999714Y-89157380D02*
X59999714Y-88157380D01*
X60237809Y-88157380D01*
X60380666Y-88205000D01*
X60475904Y-88300238D01*
X60523523Y-88395476D01*
X60571142Y-88585952D01*
X60571142Y-88728809D01*
X60523523Y-88919285D01*
X60475904Y-89014523D01*
X60380666Y-89109761D01*
X60237809Y-89157380D01*
X59999714Y-89157380D01*
X61190190Y-88157380D02*
X61380666Y-88157380D01*
X61475904Y-88205000D01*
X61571142Y-88300238D01*
X61618761Y-88490714D01*
X61618761Y-88824047D01*
X61571142Y-89014523D01*
X61475904Y-89109761D01*
X61380666Y-89157380D01*
X61190190Y-89157380D01*
X61094952Y-89109761D01*
X60999714Y-89014523D01*
X60952095Y-88824047D01*
X60952095Y-88490714D01*
X60999714Y-88300238D01*
X61094952Y-88205000D01*
X61190190Y-88157380D01*
X62047333Y-88157380D02*
X62047333Y-88966904D01*
X62094952Y-89062142D01*
X62142571Y-89109761D01*
X62237809Y-89157380D01*
X62428285Y-89157380D01*
X62523523Y-89109761D01*
X62571142Y-89062142D01*
X62618761Y-88966904D01*
X62618761Y-88157380D01*
X62952095Y-88157380D02*
X63523523Y-88157380D01*
X63237809Y-89157380D02*
X63237809Y-88157380D01*
X52800571Y-87429761D02*
X52943428Y-87477380D01*
X53181523Y-87477380D01*
X53276761Y-87429761D01*
X53324380Y-87382142D01*
X53372000Y-87286904D01*
X53372000Y-87191666D01*
X53324380Y-87096428D01*
X53276761Y-87048809D01*
X53181523Y-87001190D01*
X52991047Y-86953571D01*
X52895809Y-86905952D01*
X52848190Y-86858333D01*
X52800571Y-86763095D01*
X52800571Y-86667857D01*
X52848190Y-86572619D01*
X52895809Y-86525000D01*
X52991047Y-86477380D01*
X53229142Y-86477380D01*
X53372000Y-86525000D01*
X53657714Y-86477380D02*
X54229142Y-86477380D01*
X53943428Y-87477380D02*
X53943428Y-86477380D01*
X54562476Y-87477380D02*
X54562476Y-86477380D01*
X54895809Y-87191666D01*
X55229142Y-86477380D01*
X55229142Y-87477380D01*
X55610095Y-86477380D02*
X56229142Y-86477380D01*
X55895809Y-86858333D01*
X56038666Y-86858333D01*
X56133904Y-86905952D01*
X56181523Y-86953571D01*
X56229142Y-87048809D01*
X56229142Y-87286904D01*
X56181523Y-87382142D01*
X56133904Y-87429761D01*
X56038666Y-87477380D01*
X55752952Y-87477380D01*
X55657714Y-87429761D01*
X55610095Y-87382142D01*
X56610095Y-86572619D02*
X56657714Y-86525000D01*
X56752952Y-86477380D01*
X56991047Y-86477380D01*
X57086285Y-86525000D01*
X57133904Y-86572619D01*
X57181523Y-86667857D01*
X57181523Y-86763095D01*
X57133904Y-86905952D01*
X56562476Y-87477380D01*
X57181523Y-87477380D01*
X53824380Y-89079761D02*
X53967238Y-89127380D01*
X54205333Y-89127380D01*
X54300571Y-89079761D01*
X54348190Y-89032142D01*
X54395809Y-88936904D01*
X54395809Y-88841666D01*
X54348190Y-88746428D01*
X54300571Y-88698809D01*
X54205333Y-88651190D01*
X54014857Y-88603571D01*
X53919619Y-88555952D01*
X53872000Y-88508333D01*
X53824380Y-88413095D01*
X53824380Y-88317857D01*
X53872000Y-88222619D01*
X53919619Y-88175000D01*
X54014857Y-88127380D01*
X54252952Y-88127380D01*
X54395809Y-88175000D01*
X54824380Y-89127380D02*
X54824380Y-88127380D01*
X55062476Y-88127380D01*
X55205333Y-88175000D01*
X55300571Y-88270238D01*
X55348190Y-88365476D01*
X55395809Y-88555952D01*
X55395809Y-88698809D01*
X55348190Y-88889285D01*
X55300571Y-88984523D01*
X55205333Y-89079761D01*
X55062476Y-89127380D01*
X54824380Y-89127380D01*
X55824380Y-89127380D02*
X55824380Y-88127380D01*
X56300571Y-89127380D02*
X56300571Y-88127380D01*
X56872000Y-89127380D01*
X56872000Y-88127380D01*
X56075714Y-106352380D02*
X56075714Y-105352380D01*
X56456666Y-105352380D01*
X56551904Y-105400000D01*
X56599523Y-105447619D01*
X56647142Y-105542857D01*
X56647142Y-105685714D01*
X56599523Y-105780952D01*
X56551904Y-105828571D01*
X56456666Y-105876190D01*
X56075714Y-105876190D01*
X57075714Y-106352380D02*
X57075714Y-105352380D01*
X57313809Y-105352380D01*
X57456666Y-105400000D01*
X57551904Y-105495238D01*
X57599523Y-105590476D01*
X57647142Y-105780952D01*
X57647142Y-105923809D01*
X57599523Y-106114285D01*
X57551904Y-106209523D01*
X57456666Y-106304761D01*
X57313809Y-106352380D01*
X57075714Y-106352380D01*
X58599523Y-106352380D02*
X58028095Y-106352380D01*
X58313809Y-106352380D02*
X58313809Y-105352380D01*
X58218571Y-105495238D01*
X58123333Y-105590476D01*
X58028095Y-105638095D01*
X59456666Y-105685714D02*
X59456666Y-106352380D01*
X59218571Y-105304761D02*
X58980476Y-106019047D01*
X59599523Y-106019047D01*
X60425714Y-100162380D02*
X60425714Y-99162380D01*
X60806666Y-99162380D01*
X60901904Y-99210000D01*
X60949523Y-99257619D01*
X60997142Y-99352857D01*
X60997142Y-99495714D01*
X60949523Y-99590952D01*
X60901904Y-99638571D01*
X60806666Y-99686190D01*
X60425714Y-99686190D01*
X61425714Y-100162380D02*
X61425714Y-99162380D01*
X61663809Y-99162380D01*
X61806666Y-99210000D01*
X61901904Y-99305238D01*
X61949523Y-99400476D01*
X61997142Y-99590952D01*
X61997142Y-99733809D01*
X61949523Y-99924285D01*
X61901904Y-100019523D01*
X61806666Y-100114761D01*
X61663809Y-100162380D01*
X61425714Y-100162380D01*
X62949523Y-100162380D02*
X62378095Y-100162380D01*
X62663809Y-100162380D02*
X62663809Y-99162380D01*
X62568571Y-99305238D01*
X62473333Y-99400476D01*
X62378095Y-99448095D01*
X63806666Y-99495714D02*
X63806666Y-100162380D01*
X63568571Y-99114761D02*
X63330476Y-99829047D01*
X63949523Y-99829047D01*
X52269047Y-101231428D02*
X53030952Y-101231428D01*
X52650000Y-101612380D02*
X52650000Y-100850476D01*
X59229047Y-104031428D02*
X59990952Y-104031428D01*
X59610000Y-104412380D02*
X59610000Y-103650476D01*
X61979047Y-101181428D02*
X62740952Y-101181428D01*
X62360000Y-101562380D02*
X62360000Y-100800476D01*
X58829047Y-98791428D02*
X59590952Y-98791428D01*
X59210000Y-99172380D02*
X59210000Y-98410476D01*
X79789047Y-54631428D02*
X80550952Y-54631428D01*
X80170000Y-55012380D02*
X80170000Y-54250476D01*
X56429047Y-59631428D02*
X57190952Y-59631428D01*
X56810000Y-60012380D02*
X56810000Y-59250476D01*
D11*
X66208661Y-63970000D02*
G75*
G03X66208661Y-63970000I-148661J0D01*
G01*
D12*
X66732000Y-52630000D02*
G75*
G03X66732000Y-52630000I-2000J0D01*
G01*
D13*
X59492000Y-67100000D02*
G75*
G03X59492000Y-67100000I-2000J0D01*
G01*
D10*
X55625714Y-97682380D02*
X55625714Y-96682380D01*
X56006666Y-96682380D01*
X56101904Y-96730000D01*
X56149523Y-96777619D01*
X56197142Y-96872857D01*
X56197142Y-97015714D01*
X56149523Y-97110952D01*
X56101904Y-97158571D01*
X56006666Y-97206190D01*
X55625714Y-97206190D01*
X56625714Y-97682380D02*
X56625714Y-96682380D01*
X56863809Y-96682380D01*
X57006666Y-96730000D01*
X57101904Y-96825238D01*
X57149523Y-96920476D01*
X57197142Y-97110952D01*
X57197142Y-97253809D01*
X57149523Y-97444285D01*
X57101904Y-97539523D01*
X57006666Y-97634761D01*
X56863809Y-97682380D01*
X56625714Y-97682380D01*
X58149523Y-97682380D02*
X57578095Y-97682380D01*
X57863809Y-97682380D02*
X57863809Y-96682380D01*
X57768571Y-96825238D01*
X57673333Y-96920476D01*
X57578095Y-96968095D01*
X59054285Y-96682380D02*
X58578095Y-96682380D01*
X58530476Y-97158571D01*
X58578095Y-97110952D01*
X58673333Y-97063333D01*
X58911428Y-97063333D01*
X59006666Y-97110952D01*
X59054285Y-97158571D01*
X59101904Y-97253809D01*
X59101904Y-97491904D01*
X59054285Y-97587142D01*
X59006666Y-97634761D01*
X58911428Y-97682380D01*
X58673333Y-97682380D01*
X58578095Y-97634761D01*
X58530476Y-97587142D01*
X52035714Y-103362380D02*
X52035714Y-102362380D01*
X52416666Y-102362380D01*
X52511904Y-102410000D01*
X52559523Y-102457619D01*
X52607142Y-102552857D01*
X52607142Y-102695714D01*
X52559523Y-102790952D01*
X52511904Y-102838571D01*
X52416666Y-102886190D01*
X52035714Y-102886190D01*
X53035714Y-103362380D02*
X53035714Y-102362380D01*
X53273809Y-102362380D01*
X53416666Y-102410000D01*
X53511904Y-102505238D01*
X53559523Y-102600476D01*
X53607142Y-102790952D01*
X53607142Y-102933809D01*
X53559523Y-103124285D01*
X53511904Y-103219523D01*
X53416666Y-103314761D01*
X53273809Y-103362380D01*
X53035714Y-103362380D01*
X54559523Y-103362380D02*
X53988095Y-103362380D01*
X54273809Y-103362380D02*
X54273809Y-102362380D01*
X54178571Y-102505238D01*
X54083333Y-102600476D01*
X53988095Y-102648095D01*
X54940476Y-102457619D02*
X54988095Y-102410000D01*
X55083333Y-102362380D01*
X55321428Y-102362380D01*
X55416666Y-102410000D01*
X55464285Y-102457619D01*
X55511904Y-102552857D01*
X55511904Y-102648095D01*
X55464285Y-102790952D01*
X54892857Y-103362380D01*
X55511904Y-103362380D01*
X95438095Y-102990000D02*
X95342857Y-102942380D01*
X95200000Y-102942380D01*
X95057142Y-102990000D01*
X94961904Y-103085238D01*
X94914285Y-103180476D01*
X94866666Y-103370952D01*
X94866666Y-103513809D01*
X94914285Y-103704285D01*
X94961904Y-103799523D01*
X95057142Y-103894761D01*
X95200000Y-103942380D01*
X95295238Y-103942380D01*
X95438095Y-103894761D01*
X95485714Y-103847142D01*
X95485714Y-103513809D01*
X95295238Y-103513809D01*
X95914285Y-103942380D02*
X95914285Y-102942380D01*
X96485714Y-103942380D01*
X96485714Y-102942380D01*
X96961904Y-103942380D02*
X96961904Y-102942380D01*
X97200000Y-102942380D01*
X97342857Y-102990000D01*
X97438095Y-103085238D01*
X97485714Y-103180476D01*
X97533333Y-103370952D01*
X97533333Y-103513809D01*
X97485714Y-103704285D01*
X97438095Y-103799523D01*
X97342857Y-103894761D01*
X97200000Y-103942380D01*
X96961904Y-103942380D01*
X95268095Y-117230000D02*
X95172857Y-117182380D01*
X95030000Y-117182380D01*
X94887142Y-117230000D01*
X94791904Y-117325238D01*
X94744285Y-117420476D01*
X94696666Y-117610952D01*
X94696666Y-117753809D01*
X94744285Y-117944285D01*
X94791904Y-118039523D01*
X94887142Y-118134761D01*
X95030000Y-118182380D01*
X95125238Y-118182380D01*
X95268095Y-118134761D01*
X95315714Y-118087142D01*
X95315714Y-117753809D01*
X95125238Y-117753809D01*
X95744285Y-118182380D02*
X95744285Y-117182380D01*
X96315714Y-118182380D01*
X96315714Y-117182380D01*
X96791904Y-118182380D02*
X96791904Y-117182380D01*
X97030000Y-117182380D01*
X97172857Y-117230000D01*
X97268095Y-117325238D01*
X97315714Y-117420476D01*
X97363333Y-117610952D01*
X97363333Y-117753809D01*
X97315714Y-117944285D01*
X97268095Y-118039523D01*
X97172857Y-118134761D01*
X97030000Y-118182380D01*
X96791904Y-118182380D01*
X56558095Y-65480000D02*
X56462857Y-65432380D01*
X56320000Y-65432380D01*
X56177142Y-65480000D01*
X56081904Y-65575238D01*
X56034285Y-65670476D01*
X55986666Y-65860952D01*
X55986666Y-66003809D01*
X56034285Y-66194285D01*
X56081904Y-66289523D01*
X56177142Y-66384761D01*
X56320000Y-66432380D01*
X56415238Y-66432380D01*
X56558095Y-66384761D01*
X56605714Y-66337142D01*
X56605714Y-66003809D01*
X56415238Y-66003809D01*
X57034285Y-66432380D02*
X57034285Y-65432380D01*
X57605714Y-66432380D01*
X57605714Y-65432380D01*
X58081904Y-66432380D02*
X58081904Y-65432380D01*
X58320000Y-65432380D01*
X58462857Y-65480000D01*
X58558095Y-65575238D01*
X58605714Y-65670476D01*
X58653333Y-65860952D01*
X58653333Y-66003809D01*
X58605714Y-66194285D01*
X58558095Y-66289523D01*
X58462857Y-66384761D01*
X58320000Y-66432380D01*
X58081904Y-66432380D01*
X55861904Y-62222380D02*
X56480952Y-62222380D01*
X56147619Y-62603333D01*
X56290476Y-62603333D01*
X56385714Y-62650952D01*
X56433333Y-62698571D01*
X56480952Y-62793809D01*
X56480952Y-63031904D01*
X56433333Y-63127142D01*
X56385714Y-63174761D01*
X56290476Y-63222380D01*
X56004761Y-63222380D01*
X55909523Y-63174761D01*
X55861904Y-63127142D01*
X56909523Y-63127142D02*
X56957142Y-63174761D01*
X56909523Y-63222380D01*
X56861904Y-63174761D01*
X56909523Y-63127142D01*
X56909523Y-63222380D01*
X57290476Y-62222380D02*
X57909523Y-62222380D01*
X57576190Y-62603333D01*
X57719047Y-62603333D01*
X57814285Y-62650952D01*
X57861904Y-62698571D01*
X57909523Y-62793809D01*
X57909523Y-63031904D01*
X57861904Y-63127142D01*
X57814285Y-63174761D01*
X57719047Y-63222380D01*
X57433333Y-63222380D01*
X57338095Y-63174761D01*
X57290476Y-63127142D01*
X58195238Y-62222380D02*
X58528571Y-63222380D01*
X58861904Y-62222380D01*
X59814285Y-62222380D02*
X60385714Y-62222380D01*
X60100000Y-63222380D02*
X60100000Y-62222380D01*
X60719047Y-63222380D02*
X60719047Y-62222380D01*
X61100000Y-62222380D01*
X61195238Y-62270000D01*
X61242857Y-62317619D01*
X61290476Y-62412857D01*
X61290476Y-62555714D01*
X61242857Y-62650952D01*
X61195238Y-62698571D01*
X61100000Y-62746190D01*
X60719047Y-62746190D01*
X61468095Y-51140000D02*
X61372857Y-51092380D01*
X61230000Y-51092380D01*
X61087142Y-51140000D01*
X60991904Y-51235238D01*
X60944285Y-51330476D01*
X60896666Y-51520952D01*
X60896666Y-51663809D01*
X60944285Y-51854285D01*
X60991904Y-51949523D01*
X61087142Y-52044761D01*
X61230000Y-52092380D01*
X61325238Y-52092380D01*
X61468095Y-52044761D01*
X61515714Y-51997142D01*
X61515714Y-51663809D01*
X61325238Y-51663809D01*
X61944285Y-52092380D02*
X61944285Y-51092380D01*
X62515714Y-52092380D01*
X62515714Y-51092380D01*
X62991904Y-52092380D02*
X62991904Y-51092380D01*
X63230000Y-51092380D01*
X63372857Y-51140000D01*
X63468095Y-51235238D01*
X63515714Y-51330476D01*
X63563333Y-51520952D01*
X63563333Y-51663809D01*
X63515714Y-51854285D01*
X63468095Y-51949523D01*
X63372857Y-52044761D01*
X63230000Y-52092380D01*
X62991904Y-52092380D01*
X54456666Y-51302380D02*
X54790000Y-52302380D01*
X55123333Y-51302380D01*
X56028095Y-52207142D02*
X55980476Y-52254761D01*
X55837619Y-52302380D01*
X55742380Y-52302380D01*
X55599523Y-52254761D01*
X55504285Y-52159523D01*
X55456666Y-52064285D01*
X55409047Y-51873809D01*
X55409047Y-51730952D01*
X55456666Y-51540476D01*
X55504285Y-51445238D01*
X55599523Y-51350000D01*
X55742380Y-51302380D01*
X55837619Y-51302380D01*
X55980476Y-51350000D01*
X56028095Y-51397619D01*
X57028095Y-52207142D02*
X56980476Y-52254761D01*
X56837619Y-52302380D01*
X56742380Y-52302380D01*
X56599523Y-52254761D01*
X56504285Y-52159523D01*
X56456666Y-52064285D01*
X56409047Y-51873809D01*
X56409047Y-51730952D01*
X56456666Y-51540476D01*
X56504285Y-51445238D01*
X56599523Y-51350000D01*
X56742380Y-51302380D01*
X56837619Y-51302380D01*
X56980476Y-51350000D01*
X57028095Y-51397619D01*
X98979523Y-113272380D02*
X98503333Y-113272380D01*
X98503333Y-112272380D01*
X99029523Y-110622380D02*
X98696190Y-110146190D01*
X98458095Y-110622380D02*
X98458095Y-109622380D01*
X98839047Y-109622380D01*
X98934285Y-109670000D01*
X98981904Y-109717619D01*
X99029523Y-109812857D01*
X99029523Y-109955714D01*
X98981904Y-110050952D01*
X98934285Y-110098571D01*
X98839047Y-110146190D01*
X98458095Y-110146190D01*
X99099523Y-98862380D02*
X98623333Y-98862380D01*
X98623333Y-97862380D01*
X99099523Y-96322380D02*
X98766190Y-95846190D01*
X98528095Y-96322380D02*
X98528095Y-95322380D01*
X98909047Y-95322380D01*
X99004285Y-95370000D01*
X99051904Y-95417619D01*
X99099523Y-95512857D01*
X99099523Y-95655714D01*
X99051904Y-95750952D01*
X99004285Y-95798571D01*
X98909047Y-95846190D01*
X98528095Y-95846190D01*
D14*
X95471428Y-107798571D02*
X95471428Y-106298571D01*
X96185714Y-106798571D02*
X96185714Y-107798571D01*
X96185714Y-106941428D02*
X96257142Y-106870000D01*
X96400000Y-106798571D01*
X96614285Y-106798571D01*
X96757142Y-106870000D01*
X96828571Y-107012857D01*
X96828571Y-107798571D01*
X95010000Y-92018571D02*
X95295714Y-92018571D01*
X95438571Y-92090000D01*
X95581428Y-92232857D01*
X95652857Y-92518571D01*
X95652857Y-93018571D01*
X95581428Y-93304285D01*
X95438571Y-93447142D01*
X95295714Y-93518571D01*
X95010000Y-93518571D01*
X94867142Y-93447142D01*
X94724285Y-93304285D01*
X94652857Y-93018571D01*
X94652857Y-92518571D01*
X94724285Y-92232857D01*
X94867142Y-92090000D01*
X95010000Y-92018571D01*
X96938571Y-92518571D02*
X96938571Y-93518571D01*
X96295714Y-92518571D02*
X96295714Y-93304285D01*
X96367142Y-93447142D01*
X96510000Y-93518571D01*
X96724285Y-93518571D01*
X96867142Y-93447142D01*
X96938571Y-93375714D01*
X97438571Y-92518571D02*
X98010000Y-92518571D01*
X97652857Y-92018571D02*
X97652857Y-93304285D01*
X97724285Y-93447142D01*
X97867142Y-93518571D01*
X98010000Y-93518571D01*
D10*
X65181428Y-107147142D02*
X65133809Y-107194761D01*
X64990952Y-107242380D01*
X64895714Y-107242380D01*
X64752857Y-107194761D01*
X64657619Y-107099523D01*
X64610000Y-107004285D01*
X64562380Y-106813809D01*
X64562380Y-106670952D01*
X64610000Y-106480476D01*
X64657619Y-106385238D01*
X64752857Y-106290000D01*
X64895714Y-106242380D01*
X64990952Y-106242380D01*
X65133809Y-106290000D01*
X65181428Y-106337619D01*
X65562380Y-107194761D02*
X65705238Y-107242380D01*
X65943333Y-107242380D01*
X66038571Y-107194761D01*
X66086190Y-107147142D01*
X66133809Y-107051904D01*
X66133809Y-106956666D01*
X66086190Y-106861428D01*
X66038571Y-106813809D01*
X65943333Y-106766190D01*
X65752857Y-106718571D01*
X65657619Y-106670952D01*
X65610000Y-106623333D01*
X65562380Y-106528095D01*
X65562380Y-106432857D01*
X65610000Y-106337619D01*
X65657619Y-106290000D01*
X65752857Y-106242380D01*
X65990952Y-106242380D01*
X66133809Y-106290000D01*
X67324285Y-107242380D02*
X67324285Y-106242380D01*
X67705238Y-106242380D01*
X67800476Y-106290000D01*
X67848095Y-106337619D01*
X67895714Y-106432857D01*
X67895714Y-106575714D01*
X67848095Y-106670952D01*
X67800476Y-106718571D01*
X67705238Y-106766190D01*
X67324285Y-106766190D01*
X68181428Y-106242380D02*
X68752857Y-106242380D01*
X68467142Y-107242380D02*
X68467142Y-106242380D01*
X92770952Y-86562380D02*
X92770952Y-85562380D01*
X93151904Y-85562380D01*
X93247142Y-85610000D01*
X93294761Y-85657619D01*
X93342380Y-85752857D01*
X93342380Y-85895714D01*
X93294761Y-85990952D01*
X93247142Y-86038571D01*
X93151904Y-86086190D01*
X92770952Y-86086190D01*
X93770952Y-86562380D02*
X93770952Y-85562380D01*
X94104285Y-86276666D01*
X94437619Y-85562380D01*
X94437619Y-86562380D01*
X95104285Y-85562380D02*
X95294761Y-85562380D01*
X95390000Y-85610000D01*
X95485238Y-85705238D01*
X95532857Y-85895714D01*
X95532857Y-86229047D01*
X95485238Y-86419523D01*
X95390000Y-86514761D01*
X95294761Y-86562380D01*
X95104285Y-86562380D01*
X95009047Y-86514761D01*
X94913809Y-86419523D01*
X94866190Y-86229047D01*
X94866190Y-85895714D01*
X94913809Y-85705238D01*
X95009047Y-85610000D01*
X95104285Y-85562380D01*
X95961428Y-86562380D02*
X95961428Y-85562380D01*
X96199523Y-85562380D01*
X96342380Y-85610000D01*
X96437619Y-85705238D01*
X96485238Y-85800476D01*
X96532857Y-85990952D01*
X96532857Y-86133809D01*
X96485238Y-86324285D01*
X96437619Y-86419523D01*
X96342380Y-86514761D01*
X96199523Y-86562380D01*
X95961428Y-86562380D01*
X97723333Y-86562380D02*
X97723333Y-85562380D01*
X98104285Y-85562380D01*
X98199523Y-85610000D01*
X98247142Y-85657619D01*
X98294761Y-85752857D01*
X98294761Y-85895714D01*
X98247142Y-85990952D01*
X98199523Y-86038571D01*
X98104285Y-86086190D01*
X97723333Y-86086190D01*
X98580476Y-85562380D02*
X99151904Y-85562380D01*
X98866190Y-86562380D02*
X98866190Y-85562380D01*
X90582857Y-52354761D02*
X90725714Y-52402380D01*
X90963809Y-52402380D01*
X91059047Y-52354761D01*
X91106666Y-52307142D01*
X91154285Y-52211904D01*
X91154285Y-52116666D01*
X91106666Y-52021428D01*
X91059047Y-51973809D01*
X90963809Y-51926190D01*
X90773333Y-51878571D01*
X90678095Y-51830952D01*
X90630476Y-51783333D01*
X90582857Y-51688095D01*
X90582857Y-51592857D01*
X90630476Y-51497619D01*
X90678095Y-51450000D01*
X90773333Y-51402380D01*
X91011428Y-51402380D01*
X91154285Y-51450000D01*
X91487619Y-51402380D02*
X91725714Y-52402380D01*
X91916190Y-51688095D01*
X92106666Y-52402380D01*
X92344761Y-51402380D01*
X92725714Y-52402380D02*
X92725714Y-51402380D01*
X92963809Y-51402380D01*
X93106666Y-51450000D01*
X93201904Y-51545238D01*
X93249523Y-51640476D01*
X93297142Y-51830952D01*
X93297142Y-51973809D01*
X93249523Y-52164285D01*
X93201904Y-52259523D01*
X93106666Y-52354761D01*
X92963809Y-52402380D01*
X92725714Y-52402380D01*
X85048095Y-60314761D02*
X85190952Y-60362380D01*
X85429047Y-60362380D01*
X85524285Y-60314761D01*
X85571904Y-60267142D01*
X85619523Y-60171904D01*
X85619523Y-60076666D01*
X85571904Y-59981428D01*
X85524285Y-59933809D01*
X85429047Y-59886190D01*
X85238571Y-59838571D01*
X85143333Y-59790952D01*
X85095714Y-59743333D01*
X85048095Y-59648095D01*
X85048095Y-59552857D01*
X85095714Y-59457619D01*
X85143333Y-59410000D01*
X85238571Y-59362380D01*
X85476666Y-59362380D01*
X85619523Y-59410000D01*
X85952857Y-59362380D02*
X86190952Y-60362380D01*
X86381428Y-59648095D01*
X86571904Y-60362380D01*
X86810000Y-59362380D01*
X87762380Y-60267142D02*
X87714761Y-60314761D01*
X87571904Y-60362380D01*
X87476666Y-60362380D01*
X87333809Y-60314761D01*
X87238571Y-60219523D01*
X87190952Y-60124285D01*
X87143333Y-59933809D01*
X87143333Y-59790952D01*
X87190952Y-59600476D01*
X87238571Y-59505238D01*
X87333809Y-59410000D01*
X87476666Y-59362380D01*
X87571904Y-59362380D01*
X87714761Y-59410000D01*
X87762380Y-59457619D01*
X88667142Y-60362380D02*
X88190952Y-60362380D01*
X88190952Y-59362380D01*
X89000476Y-60362380D02*
X89000476Y-59362380D01*
X89571904Y-60362380D02*
X89143333Y-59790952D01*
X89571904Y-59362380D02*
X89000476Y-59933809D01*
X85513809Y-56732380D02*
X86132857Y-56732380D01*
X85799523Y-57113333D01*
X85942380Y-57113333D01*
X86037619Y-57160952D01*
X86085238Y-57208571D01*
X86132857Y-57303809D01*
X86132857Y-57541904D01*
X86085238Y-57637142D01*
X86037619Y-57684761D01*
X85942380Y-57732380D01*
X85656666Y-57732380D01*
X85561428Y-57684761D01*
X85513809Y-57637142D01*
X86561428Y-57637142D02*
X86609047Y-57684761D01*
X86561428Y-57732380D01*
X86513809Y-57684761D01*
X86561428Y-57637142D01*
X86561428Y-57732380D01*
X86942380Y-56732380D02*
X87561428Y-56732380D01*
X87228095Y-57113333D01*
X87370952Y-57113333D01*
X87466190Y-57160952D01*
X87513809Y-57208571D01*
X87561428Y-57303809D01*
X87561428Y-57541904D01*
X87513809Y-57637142D01*
X87466190Y-57684761D01*
X87370952Y-57732380D01*
X87085238Y-57732380D01*
X86990000Y-57684761D01*
X86942380Y-57637142D01*
X87847142Y-56732380D02*
X88180476Y-57732380D01*
X88513809Y-56732380D01*
X85257142Y-55312380D02*
X85257142Y-54312380D01*
X85828571Y-55312380D01*
X85828571Y-54312380D01*
X86876190Y-55312380D02*
X86542857Y-54836190D01*
X86304761Y-55312380D02*
X86304761Y-54312380D01*
X86685714Y-54312380D01*
X86780952Y-54360000D01*
X86828571Y-54407619D01*
X86876190Y-54502857D01*
X86876190Y-54645714D01*
X86828571Y-54740952D01*
X86780952Y-54788571D01*
X86685714Y-54836190D01*
X86304761Y-54836190D01*
X87257142Y-55264761D02*
X87400000Y-55312380D01*
X87638095Y-55312380D01*
X87733333Y-55264761D01*
X87780952Y-55217142D01*
X87828571Y-55121904D01*
X87828571Y-55026666D01*
X87780952Y-54931428D01*
X87733333Y-54883809D01*
X87638095Y-54836190D01*
X87447619Y-54788571D01*
X87352380Y-54740952D01*
X87304761Y-54693333D01*
X87257142Y-54598095D01*
X87257142Y-54502857D01*
X87304761Y-54407619D01*
X87352380Y-54360000D01*
X87447619Y-54312380D01*
X87685714Y-54312380D01*
X87828571Y-54360000D01*
X88114285Y-54312380D02*
X88685714Y-54312380D01*
X88400000Y-55312380D02*
X88400000Y-54312380D01*
X95260952Y-60484761D02*
X95403809Y-60532380D01*
X95641904Y-60532380D01*
X95737142Y-60484761D01*
X95784761Y-60437142D01*
X95832380Y-60341904D01*
X95832380Y-60246666D01*
X95784761Y-60151428D01*
X95737142Y-60103809D01*
X95641904Y-60056190D01*
X95451428Y-60008571D01*
X95356190Y-59960952D01*
X95308571Y-59913333D01*
X95260952Y-59818095D01*
X95260952Y-59722857D01*
X95308571Y-59627619D01*
X95356190Y-59580000D01*
X95451428Y-59532380D01*
X95689523Y-59532380D01*
X95832380Y-59580000D01*
X96165714Y-59532380D02*
X96403809Y-60532380D01*
X96594285Y-59818095D01*
X96784761Y-60532380D01*
X97022857Y-59532380D01*
X97403809Y-60532380D02*
X97403809Y-59532380D01*
X97641904Y-59532380D01*
X97784761Y-59580000D01*
X97880000Y-59675238D01*
X97927619Y-59770476D01*
X97975238Y-59960952D01*
X97975238Y-60103809D01*
X97927619Y-60294285D01*
X97880000Y-60389523D01*
X97784761Y-60484761D01*
X97641904Y-60532380D01*
X97403809Y-60532380D01*
X98403809Y-60532380D02*
X98403809Y-59532380D01*
X99070476Y-59532380D02*
X99260952Y-59532380D01*
X99356190Y-59580000D01*
X99451428Y-59675238D01*
X99499047Y-59865714D01*
X99499047Y-60199047D01*
X99451428Y-60389523D01*
X99356190Y-60484761D01*
X99260952Y-60532380D01*
X99070476Y-60532380D01*
X98975238Y-60484761D01*
X98880000Y-60389523D01*
X98832380Y-60199047D01*
X98832380Y-59865714D01*
X98880000Y-59675238D01*
X98975238Y-59580000D01*
X99070476Y-59532380D01*
X95848095Y-54300000D02*
X95752857Y-54252380D01*
X95610000Y-54252380D01*
X95467142Y-54300000D01*
X95371904Y-54395238D01*
X95324285Y-54490476D01*
X95276666Y-54680952D01*
X95276666Y-54823809D01*
X95324285Y-55014285D01*
X95371904Y-55109523D01*
X95467142Y-55204761D01*
X95610000Y-55252380D01*
X95705238Y-55252380D01*
X95848095Y-55204761D01*
X95895714Y-55157142D01*
X95895714Y-54823809D01*
X95705238Y-54823809D01*
X96324285Y-55252380D02*
X96324285Y-54252380D01*
X96895714Y-55252380D01*
X96895714Y-54252380D01*
X97371904Y-55252380D02*
X97371904Y-54252380D01*
X97610000Y-54252380D01*
X97752857Y-54300000D01*
X97848095Y-54395238D01*
X97895714Y-54490476D01*
X97943333Y-54680952D01*
X97943333Y-54823809D01*
X97895714Y-55014285D01*
X97848095Y-55109523D01*
X97752857Y-55204761D01*
X97610000Y-55252380D01*
X97371904Y-55252380D01*
X95289047Y-57804761D02*
X95431904Y-57852380D01*
X95670000Y-57852380D01*
X95765238Y-57804761D01*
X95812857Y-57757142D01*
X95860476Y-57661904D01*
X95860476Y-57566666D01*
X95812857Y-57471428D01*
X95765238Y-57423809D01*
X95670000Y-57376190D01*
X95479523Y-57328571D01*
X95384285Y-57280952D01*
X95336666Y-57233333D01*
X95289047Y-57138095D01*
X95289047Y-57042857D01*
X95336666Y-56947619D01*
X95384285Y-56900000D01*
X95479523Y-56852380D01*
X95717619Y-56852380D01*
X95860476Y-56900000D01*
X96193809Y-56852380D02*
X96431904Y-57852380D01*
X96622380Y-57138095D01*
X96812857Y-57852380D01*
X97050952Y-56852380D01*
X97622380Y-56852380D02*
X97812857Y-56852380D01*
X97908095Y-56900000D01*
X98003333Y-56995238D01*
X98050952Y-57185714D01*
X98050952Y-57519047D01*
X98003333Y-57709523D01*
X97908095Y-57804761D01*
X97812857Y-57852380D01*
X97622380Y-57852380D01*
X97527142Y-57804761D01*
X97431904Y-57709523D01*
X97384285Y-57519047D01*
X97384285Y-57185714D01*
X97431904Y-56995238D01*
X97527142Y-56900000D01*
X97622380Y-56852380D01*
D11*
%TO.C,U3*%
X61770940Y-109281420D02*
G75*
G03X61770940Y-109281420I-60960J0D01*
G01*
%TO.C,R20*%
X75425279Y-80750000D02*
X75099721Y-80750000D01*
X75425279Y-79730000D02*
X75099721Y-79730000D01*
%TO.C,J11*%
X63860000Y-112900000D02*
X65190000Y-112900000D01*
X63860000Y-114230000D02*
X63860000Y-112900000D01*
X63860000Y-115500000D02*
X66520000Y-115500000D01*
X66520000Y-115500000D02*
X66520000Y-115560000D01*
X63860000Y-115500000D02*
X63860000Y-115560000D01*
X63860000Y-115560000D02*
X66520000Y-115560000D01*
%TO.C,U5*%
X81410000Y-77110000D02*
X82110000Y-77110000D01*
X82110000Y-77110000D02*
X82110000Y-76410000D01*
X68590000Y-77110000D02*
X67890000Y-77110000D01*
X67890000Y-77110000D02*
X67890000Y-76410000D01*
X81410000Y-62890000D02*
X82110000Y-62890000D01*
X82110000Y-62890000D02*
X82110000Y-63590000D01*
X68590000Y-62890000D02*
X67890000Y-62890000D01*
X67890000Y-62890000D02*
X67890000Y-63590000D01*
X67890000Y-63590000D02*
X66525000Y-63590000D01*
%TO.C,C1*%
X65584000Y-58415422D02*
X65584000Y-58932578D01*
X67004000Y-58415422D02*
X67004000Y-58932578D01*
%TO.C,C2*%
X78030000Y-53852578D02*
X78030000Y-53335422D01*
X79450000Y-53852578D02*
X79450000Y-53335422D01*
%TO.C,C4*%
X80919721Y-93730000D02*
X81245279Y-93730000D01*
X80919721Y-94750000D02*
X81245279Y-94750000D01*
%TO.C,C6*%
X83954779Y-99858000D02*
X83629221Y-99858000D01*
X83954779Y-100878000D02*
X83629221Y-100878000D01*
%TO.C,C7*%
X84022779Y-102978000D02*
X83697221Y-102978000D01*
X84022779Y-101958000D02*
X83697221Y-101958000D01*
%TO.C,C9*%
X73577221Y-103600000D02*
X73902779Y-103600000D01*
X73577221Y-102580000D02*
X73902779Y-102580000D01*
%TO.C,C10*%
X77230279Y-103640000D02*
X76904721Y-103640000D01*
X77230279Y-102620000D02*
X76904721Y-102620000D01*
%TO.C,C11*%
X91682000Y-99305221D02*
X91682000Y-99630779D01*
X92702000Y-99305221D02*
X92702000Y-99630779D01*
%TO.C,C12*%
X92802000Y-103530779D02*
X92802000Y-103205221D01*
X91782000Y-103530779D02*
X91782000Y-103205221D01*
%TO.C,C15*%
X65694779Y-61720000D02*
X65369221Y-61720000D01*
X65694779Y-62740000D02*
X65369221Y-62740000D01*
%TO.C,C24*%
X79567721Y-106682000D02*
X79893279Y-106682000D01*
X79567721Y-105662000D02*
X79893279Y-105662000D01*
%TO.C,C27*%
X82024721Y-79315000D02*
X82350279Y-79315000D01*
X82024721Y-80335000D02*
X82350279Y-80335000D01*
%TO.C,C28*%
X84000000Y-61772779D02*
X84000000Y-61447221D01*
X85020000Y-61772779D02*
X85020000Y-61447221D01*
%TO.C,C29*%
X64572779Y-76360000D02*
X64247221Y-76360000D01*
X64572779Y-75340000D02*
X64247221Y-75340000D01*
%TO.C,C31*%
X86954779Y-114658000D02*
X86629221Y-114658000D01*
X86954779Y-113638000D02*
X86629221Y-113638000D01*
%TO.C,C32*%
X87042279Y-116858000D02*
X86716721Y-116858000D01*
X87042279Y-115838000D02*
X86716721Y-115838000D01*
%TO.C,C34*%
X74838779Y-116359500D02*
X74513221Y-116359500D01*
X74838779Y-115339500D02*
X74513221Y-115339500D01*
%TO.C,C35*%
X71536779Y-115314000D02*
X71211221Y-115314000D01*
X71536779Y-116334000D02*
X71211221Y-116334000D01*
%TO.C,C36*%
X83582000Y-116972721D02*
X83582000Y-117298279D01*
X84602000Y-116972721D02*
X84602000Y-117298279D01*
%TO.C,C37*%
X84602000Y-113523279D02*
X84602000Y-113197721D01*
X83582000Y-113523279D02*
X83582000Y-113197721D01*
%TO.C,D1*%
X61750000Y-60690000D02*
X61750000Y-58690000D01*
X61750000Y-58690000D02*
X57850000Y-58690000D01*
X61750000Y-60690000D02*
X57850000Y-60690000D01*
%TO.C,D2*%
X81216500Y-55345000D02*
X83501500Y-55345000D01*
X83501500Y-55345000D02*
X83501500Y-53875000D01*
X83501500Y-53875000D02*
X81216500Y-53875000D01*
%TO.C,D3*%
X55875000Y-100485000D02*
X53590000Y-100485000D01*
X55875000Y-101955000D02*
X55875000Y-100485000D01*
X53590000Y-101955000D02*
X55875000Y-101955000D01*
%TO.C,D4*%
X58454000Y-103325000D02*
X56169000Y-103325000D01*
X56169000Y-103325000D02*
X56169000Y-104795000D01*
X56169000Y-104795000D02*
X58454000Y-104795000D01*
%TO.C,D5*%
X59005000Y-101955000D02*
X61290000Y-101955000D01*
X59005000Y-100485000D02*
X59005000Y-101955000D01*
X61290000Y-100485000D02*
X59005000Y-100485000D01*
%TO.C,D6*%
X58298000Y-98067000D02*
X56013000Y-98067000D01*
X56013000Y-98067000D02*
X56013000Y-99537000D01*
X56013000Y-99537000D02*
X58298000Y-99537000D01*
%TO.C,FB1*%
X64210000Y-58493922D02*
X64210000Y-59011078D01*
X62790000Y-58493922D02*
X62790000Y-59011078D01*
%TO.C,FB2*%
X80563922Y-97020000D02*
X81081078Y-97020000D01*
X80563922Y-95600000D02*
X81081078Y-95600000D01*
%TO.C,FB3*%
X60465000Y-78046078D02*
X60465000Y-77528922D01*
X61885000Y-78046078D02*
X61885000Y-77528922D01*
%TO.C,FB4*%
X79243422Y-108914000D02*
X79760578Y-108914000D01*
X79243422Y-107494000D02*
X79760578Y-107494000D01*
%TO.C,HSE1*%
X62260000Y-67510000D02*
X58960000Y-67510000D01*
X58960000Y-67510000D02*
X58960000Y-71510000D01*
%TO.C,J1*%
X61370000Y-55330000D02*
X61370000Y-52670000D01*
X58770000Y-55330000D02*
X61370000Y-55330000D01*
X58770000Y-52670000D02*
X61370000Y-52670000D01*
X58770000Y-55330000D02*
X58770000Y-52670000D01*
X57500000Y-55330000D02*
X56170000Y-55330000D01*
X56170000Y-55330000D02*
X56170000Y-54000000D01*
%TO.C,J2*%
X94548000Y-53280000D02*
X89348000Y-53280000D01*
X94548000Y-58420000D02*
X94548000Y-53280000D01*
X89348000Y-61020000D02*
X89348000Y-53280000D01*
X94548000Y-58420000D02*
X91948000Y-58420000D01*
X91948000Y-58420000D02*
X91948000Y-61020000D01*
X91948000Y-61020000D02*
X89348000Y-61020000D01*
X94548000Y-59690000D02*
X94548000Y-61020000D01*
X94548000Y-61020000D02*
X93218000Y-61020000D01*
%TO.C,J3*%
X52670000Y-61670000D02*
X54000000Y-61670000D01*
X52670000Y-63000000D02*
X52670000Y-61670000D01*
X52670000Y-64270000D02*
X55330000Y-64270000D01*
X55330000Y-64270000D02*
X55330000Y-66870000D01*
X52670000Y-64270000D02*
X52670000Y-66870000D01*
X52670000Y-66870000D02*
X55330000Y-66870000D01*
%TO.C,J4*%
X78172000Y-59242000D02*
X80832000Y-59242000D01*
X78172000Y-59182000D02*
X78172000Y-59242000D01*
X80832000Y-59182000D02*
X80832000Y-59242000D01*
X78172000Y-59182000D02*
X80832000Y-59182000D01*
X78172000Y-57912000D02*
X78172000Y-56582000D01*
X78172000Y-56582000D02*
X79502000Y-56582000D01*
%TO.C,J6*%
X94936000Y-94428000D02*
X96266000Y-94428000D01*
X94936000Y-95758000D02*
X94936000Y-94428000D01*
X94936000Y-97028000D02*
X97596000Y-97028000D01*
X97596000Y-97028000D02*
X97596000Y-102168000D01*
X94936000Y-97028000D02*
X94936000Y-102168000D01*
X94936000Y-102168000D02*
X97596000Y-102168000D01*
%TO.C,J7*%
X85490000Y-73130000D02*
X90690000Y-73130000D01*
X85490000Y-70530000D02*
X85490000Y-73130000D01*
X90690000Y-67930000D02*
X90690000Y-73130000D01*
X85490000Y-70530000D02*
X88090000Y-70530000D01*
X88090000Y-70530000D02*
X88090000Y-67930000D01*
X88090000Y-67930000D02*
X90690000Y-67930000D01*
X85490000Y-69260000D02*
X85490000Y-67930000D01*
X85490000Y-67930000D02*
X86820000Y-67930000D01*
%TO.C,J8*%
X85470000Y-79970000D02*
X90670000Y-79970000D01*
X85470000Y-77370000D02*
X85470000Y-79970000D01*
X90670000Y-74770000D02*
X90670000Y-79970000D01*
X85470000Y-77370000D02*
X88070000Y-77370000D01*
X88070000Y-77370000D02*
X88070000Y-74770000D01*
X88070000Y-74770000D02*
X90670000Y-74770000D01*
X85470000Y-76100000D02*
X85470000Y-74770000D01*
X85470000Y-74770000D02*
X86800000Y-74770000D01*
%TO.C,J9*%
X85470000Y-81640000D02*
X86800000Y-81640000D01*
X85470000Y-82970000D02*
X85470000Y-81640000D01*
X88070000Y-81640000D02*
X90670000Y-81640000D01*
X88070000Y-84240000D02*
X88070000Y-81640000D01*
X85470000Y-84240000D02*
X88070000Y-84240000D01*
X90670000Y-81640000D02*
X90670000Y-86840000D01*
X85470000Y-84240000D02*
X85470000Y-86840000D01*
X85470000Y-86840000D02*
X90670000Y-86840000D01*
%TO.C,J10*%
X66620000Y-88710000D02*
X71820000Y-88710000D01*
X66620000Y-86110000D02*
X66620000Y-88710000D01*
X71820000Y-83510000D02*
X71820000Y-88710000D01*
X66620000Y-86110000D02*
X69220000Y-86110000D01*
X69220000Y-86110000D02*
X69220000Y-83510000D01*
X69220000Y-83510000D02*
X71820000Y-83510000D01*
X66620000Y-84840000D02*
X66620000Y-83510000D01*
X66620000Y-83510000D02*
X67950000Y-83510000D01*
%TO.C,J13*%
X94808000Y-116456000D02*
X97468000Y-116456000D01*
X94808000Y-111316000D02*
X94808000Y-116456000D01*
X97468000Y-111316000D02*
X97468000Y-116456000D01*
X94808000Y-111316000D02*
X97468000Y-111316000D01*
X94808000Y-110046000D02*
X94808000Y-108716000D01*
X94808000Y-108716000D02*
X96138000Y-108716000D01*
%TO.C,J14*%
X93670000Y-79030000D02*
X98870000Y-79030000D01*
X93670000Y-66270000D02*
X93670000Y-79030000D01*
X98870000Y-63670000D02*
X98870000Y-79030000D01*
X93670000Y-66270000D02*
X96270000Y-66270000D01*
X96270000Y-66270000D02*
X96270000Y-63670000D01*
X96270000Y-63670000D02*
X98870000Y-63670000D01*
X93670000Y-65000000D02*
X93670000Y-63670000D01*
X93670000Y-63670000D02*
X95000000Y-63670000D01*
%TO.C,J15*%
X67980000Y-101150000D02*
X65320000Y-101150000D01*
X67980000Y-103750000D02*
X67980000Y-101150000D01*
X65320000Y-103750000D02*
X65320000Y-101150000D01*
X67980000Y-103750000D02*
X65320000Y-103750000D01*
X67980000Y-105020000D02*
X67980000Y-106350000D01*
X67980000Y-106350000D02*
X66650000Y-106350000D01*
%TO.C,J17*%
X54895000Y-80420000D02*
X56225000Y-80420000D01*
X54895000Y-81750000D02*
X54895000Y-80420000D01*
X54895000Y-83020000D02*
X57555000Y-83020000D01*
X57555000Y-83020000D02*
X57555000Y-85620000D01*
X54895000Y-83020000D02*
X54895000Y-85620000D01*
X54895000Y-85620000D02*
X57555000Y-85620000D01*
%TO.C,J18*%
X93460000Y-81610000D02*
X93460000Y-84270000D01*
X96060000Y-81610000D02*
X93460000Y-81610000D01*
X96060000Y-84270000D02*
X93460000Y-84270000D01*
X96060000Y-81610000D02*
X96060000Y-84270000D01*
X97330000Y-81610000D02*
X98660000Y-81610000D01*
X98660000Y-81610000D02*
X98660000Y-82940000D01*
%TO.C,J19*%
X61905000Y-80430000D02*
X59245000Y-80430000D01*
X61905000Y-83030000D02*
X61905000Y-80430000D01*
X59245000Y-83030000D02*
X59245000Y-80430000D01*
X61905000Y-83030000D02*
X59245000Y-83030000D01*
X61905000Y-84300000D02*
X61905000Y-85630000D01*
X61905000Y-85630000D02*
X60575000Y-85630000D01*
%TO.C,R1*%
X82179279Y-52068000D02*
X81853721Y-52068000D01*
X82179279Y-53088000D02*
X81853721Y-53088000D01*
%TO.C,R2*%
X84791078Y-95800000D02*
X84273922Y-95800000D01*
X84791078Y-94380000D02*
X84273922Y-94380000D01*
%TO.C,R3*%
X89329221Y-99658000D02*
X89654779Y-99658000D01*
X89329221Y-100678000D02*
X89654779Y-100678000D01*
%TO.C,R4*%
X89329221Y-103078000D02*
X89654779Y-103078000D01*
X89329221Y-102058000D02*
X89654779Y-102058000D01*
%TO.C,R5*%
X87102000Y-99305221D02*
X87102000Y-99630779D01*
X86082000Y-99305221D02*
X86082000Y-99630779D01*
%TO.C,R6*%
X87202000Y-103418279D02*
X87202000Y-103092721D01*
X86182000Y-103418279D02*
X86182000Y-103092721D01*
%TO.C,R7*%
X83570578Y-106224000D02*
X83053422Y-106224000D01*
X83570578Y-107644000D02*
X83053422Y-107644000D01*
%TO.C,R8*%
X66390000Y-79392779D02*
X66390000Y-79067221D01*
X67410000Y-79392779D02*
X67410000Y-79067221D01*
%TO.C,R9*%
X92154779Y-113538000D02*
X91829221Y-113538000D01*
X92154779Y-114558000D02*
X91829221Y-114558000D01*
%TO.C,R10*%
X68840000Y-115180279D02*
X68840000Y-114854721D01*
X67820000Y-115180279D02*
X67820000Y-114854721D01*
%TO.C,R11*%
X92254779Y-116958000D02*
X91929221Y-116958000D01*
X92254779Y-115938000D02*
X91929221Y-115938000D01*
%TO.C,R12*%
X89902000Y-113185221D02*
X89902000Y-113510779D01*
X88882000Y-113185221D02*
X88882000Y-113510779D01*
%TO.C,R13*%
X90002000Y-117298279D02*
X90002000Y-116972721D01*
X88982000Y-117298279D02*
X88982000Y-116972721D01*
%TO.C,R14*%
X63934721Y-71370000D02*
X64260279Y-71370000D01*
X63934721Y-70350000D02*
X64260279Y-70350000D01*
%TO.C,R15*%
X61422000Y-93649221D02*
X61422000Y-93974779D01*
X60402000Y-93649221D02*
X60402000Y-93974779D01*
%TO.C,R16*%
X59390000Y-93649221D02*
X59390000Y-93974779D01*
X58370000Y-93649221D02*
X58370000Y-93974779D01*
%TO.C,R17*%
X57358000Y-93974779D02*
X57358000Y-93649221D01*
X56338000Y-93974779D02*
X56338000Y-93649221D01*
%TO.C,R18*%
X54306000Y-93649221D02*
X54306000Y-93974779D01*
X55326000Y-93649221D02*
X55326000Y-93974779D01*
%TO.C,R19*%
X73110279Y-60390000D02*
X72784721Y-60390000D01*
X73110279Y-59370000D02*
X72784721Y-59370000D01*
%TO.C,U1*%
X74300000Y-58528000D02*
X74300000Y-57268000D01*
X74300000Y-51708000D02*
X74300000Y-52968000D01*
X70540000Y-58528000D02*
X74300000Y-58528000D01*
X68290000Y-51708000D02*
X74300000Y-51708000D01*
D15*
%TO.C,U2*%
X70892000Y-98644000D02*
G75*
G03X70892000Y-98644000I-100000J0D01*
G01*
D16*
X75892000Y-101244000D02*
X72892000Y-101244000D01*
X72892000Y-98244000D02*
X75892000Y-98244000D01*
%TO.C,U4*%
X72738000Y-110746000D02*
X75738000Y-110746000D01*
X75738000Y-113746000D02*
X72738000Y-113746000D01*
D15*
X70738000Y-111146000D02*
G75*
G03X70738000Y-111146000I-100000J0D01*
G01*
D11*
%TO.C,J12*%
X73280000Y-88740000D02*
X78480000Y-88740000D01*
X73280000Y-86140000D02*
X73280000Y-88740000D01*
X78480000Y-83540000D02*
X78480000Y-88740000D01*
X73280000Y-86140000D02*
X75880000Y-86140000D01*
X75880000Y-86140000D02*
X75880000Y-83540000D01*
X75880000Y-83540000D02*
X78480000Y-83540000D01*
X73280000Y-84870000D02*
X73280000Y-83540000D01*
X73280000Y-83540000D02*
X74610000Y-83540000D01*
%TO.C,U3*%
D10*
X59248095Y-109622380D02*
X59248095Y-110431904D01*
X59295714Y-110527142D01*
X59343333Y-110574761D01*
X59438571Y-110622380D01*
X59629047Y-110622380D01*
X59724285Y-110574761D01*
X59771904Y-110527142D01*
X59819523Y-110431904D01*
X59819523Y-109622380D01*
X60200476Y-109622380D02*
X60819523Y-109622380D01*
X60486190Y-110003333D01*
X60629047Y-110003333D01*
X60724285Y-110050952D01*
X60771904Y-110098571D01*
X60819523Y-110193809D01*
X60819523Y-110431904D01*
X60771904Y-110527142D01*
X60724285Y-110574761D01*
X60629047Y-110622380D01*
X60343333Y-110622380D01*
X60248095Y-110574761D01*
X60200476Y-110527142D01*
%TO.C,J11*%
X65484476Y-111212380D02*
X65484476Y-111926666D01*
X65436857Y-112069523D01*
X65341619Y-112164761D01*
X65198761Y-112212380D01*
X65103523Y-112212380D01*
X66484476Y-112212380D02*
X65913047Y-112212380D01*
X66198761Y-112212380D02*
X66198761Y-111212380D01*
X66103523Y-111355238D01*
X66008285Y-111450476D01*
X65913047Y-111498095D01*
X67436857Y-112212380D02*
X66865428Y-112212380D01*
X67151142Y-112212380D02*
X67151142Y-111212380D01*
X67055904Y-111355238D01*
X66960666Y-111450476D01*
X66865428Y-111498095D01*
%TO.C,J1*%
X58396666Y-56202380D02*
X58396666Y-56916666D01*
X58349047Y-57059523D01*
X58253809Y-57154761D01*
X58110952Y-57202380D01*
X58015714Y-57202380D01*
X59396666Y-57202380D02*
X58825238Y-57202380D01*
X59110952Y-57202380D02*
X59110952Y-56202380D01*
X59015714Y-56345238D01*
X58920476Y-56440476D01*
X58825238Y-56488095D01*
%TO.C,J2*%
X91486666Y-61702380D02*
X91486666Y-62416666D01*
X91439047Y-62559523D01*
X91343809Y-62654761D01*
X91200952Y-62702380D01*
X91105714Y-62702380D01*
X91915238Y-61797619D02*
X91962857Y-61750000D01*
X92058095Y-61702380D01*
X92296190Y-61702380D01*
X92391428Y-61750000D01*
X92439047Y-61797619D01*
X92486666Y-61892857D01*
X92486666Y-61988095D01*
X92439047Y-62130952D01*
X91867619Y-62702380D01*
X92486666Y-62702380D01*
%TO.C,J3*%
X53666666Y-60122380D02*
X53666666Y-60836666D01*
X53619047Y-60979523D01*
X53523809Y-61074761D01*
X53380952Y-61122380D01*
X53285714Y-61122380D01*
X54047619Y-60122380D02*
X54666666Y-60122380D01*
X54333333Y-60503333D01*
X54476190Y-60503333D01*
X54571428Y-60550952D01*
X54619047Y-60598571D01*
X54666666Y-60693809D01*
X54666666Y-60931904D01*
X54619047Y-61027142D01*
X54571428Y-61074761D01*
X54476190Y-61122380D01*
X54190476Y-61122380D01*
X54095238Y-61074761D01*
X54047619Y-61027142D01*
%TO.C,J4*%
X81106666Y-56772380D02*
X81106666Y-57486666D01*
X81059047Y-57629523D01*
X80963809Y-57724761D01*
X80820952Y-57772380D01*
X80725714Y-57772380D01*
X82011428Y-57105714D02*
X82011428Y-57772380D01*
X81773333Y-56724761D02*
X81535238Y-57439047D01*
X82154285Y-57439047D01*
%TO.C,J6*%
X92626666Y-94682380D02*
X92626666Y-95396666D01*
X92579047Y-95539523D01*
X92483809Y-95634761D01*
X92340952Y-95682380D01*
X92245714Y-95682380D01*
X93531428Y-94682380D02*
X93340952Y-94682380D01*
X93245714Y-94730000D01*
X93198095Y-94777619D01*
X93102857Y-94920476D01*
X93055238Y-95110952D01*
X93055238Y-95491904D01*
X93102857Y-95587142D01*
X93150476Y-95634761D01*
X93245714Y-95682380D01*
X93436190Y-95682380D01*
X93531428Y-95634761D01*
X93579047Y-95587142D01*
X93626666Y-95491904D01*
X93626666Y-95253809D01*
X93579047Y-95158571D01*
X93531428Y-95110952D01*
X93436190Y-95063333D01*
X93245714Y-95063333D01*
X93150476Y-95110952D01*
X93102857Y-95158571D01*
X93055238Y-95253809D01*
%TO.C,J7*%
X91746666Y-68672380D02*
X91746666Y-69386666D01*
X91699047Y-69529523D01*
X91603809Y-69624761D01*
X91460952Y-69672380D01*
X91365714Y-69672380D01*
X92127619Y-68672380D02*
X92794285Y-68672380D01*
X92365714Y-69672380D01*
%TO.C,J8*%
X91686666Y-75822380D02*
X91686666Y-76536666D01*
X91639047Y-76679523D01*
X91543809Y-76774761D01*
X91400952Y-76822380D01*
X91305714Y-76822380D01*
X92305714Y-76250952D02*
X92210476Y-76203333D01*
X92162857Y-76155714D01*
X92115238Y-76060476D01*
X92115238Y-76012857D01*
X92162857Y-75917619D01*
X92210476Y-75870000D01*
X92305714Y-75822380D01*
X92496190Y-75822380D01*
X92591428Y-75870000D01*
X92639047Y-75917619D01*
X92686666Y-76012857D01*
X92686666Y-76060476D01*
X92639047Y-76155714D01*
X92591428Y-76203333D01*
X92496190Y-76250952D01*
X92305714Y-76250952D01*
X92210476Y-76298571D01*
X92162857Y-76346190D01*
X92115238Y-76441428D01*
X92115238Y-76631904D01*
X92162857Y-76727142D01*
X92210476Y-76774761D01*
X92305714Y-76822380D01*
X92496190Y-76822380D01*
X92591428Y-76774761D01*
X92639047Y-76727142D01*
X92686666Y-76631904D01*
X92686666Y-76441428D01*
X92639047Y-76346190D01*
X92591428Y-76298571D01*
X92496190Y-76250952D01*
%TO.C,J9*%
X91306666Y-81902380D02*
X91306666Y-82616666D01*
X91259047Y-82759523D01*
X91163809Y-82854761D01*
X91020952Y-82902380D01*
X90925714Y-82902380D01*
X91830476Y-82902380D02*
X92020952Y-82902380D01*
X92116190Y-82854761D01*
X92163809Y-82807142D01*
X92259047Y-82664285D01*
X92306666Y-82473809D01*
X92306666Y-82092857D01*
X92259047Y-81997619D01*
X92211428Y-81950000D01*
X92116190Y-81902380D01*
X91925714Y-81902380D01*
X91830476Y-81950000D01*
X91782857Y-81997619D01*
X91735238Y-82092857D01*
X91735238Y-82330952D01*
X91782857Y-82426190D01*
X91830476Y-82473809D01*
X91925714Y-82521428D01*
X92116190Y-82521428D01*
X92211428Y-82473809D01*
X92259047Y-82426190D01*
X92306666Y-82330952D01*
%TO.C,J10*%
X68260476Y-81962380D02*
X68260476Y-82676666D01*
X68212857Y-82819523D01*
X68117619Y-82914761D01*
X67974761Y-82962380D01*
X67879523Y-82962380D01*
X69260476Y-82962380D02*
X68689047Y-82962380D01*
X68974761Y-82962380D02*
X68974761Y-81962380D01*
X68879523Y-82105238D01*
X68784285Y-82200476D01*
X68689047Y-82248095D01*
X69879523Y-81962380D02*
X69974761Y-81962380D01*
X70070000Y-82010000D01*
X70117619Y-82057619D01*
X70165238Y-82152857D01*
X70212857Y-82343333D01*
X70212857Y-82581428D01*
X70165238Y-82771904D01*
X70117619Y-82867142D01*
X70070000Y-82914761D01*
X69974761Y-82962380D01*
X69879523Y-82962380D01*
X69784285Y-82914761D01*
X69736666Y-82867142D01*
X69689047Y-82771904D01*
X69641428Y-82581428D01*
X69641428Y-82343333D01*
X69689047Y-82152857D01*
X69736666Y-82057619D01*
X69784285Y-82010000D01*
X69879523Y-81962380D01*
%TO.C,J13*%
X91620476Y-108652380D02*
X91620476Y-109366666D01*
X91572857Y-109509523D01*
X91477619Y-109604761D01*
X91334761Y-109652380D01*
X91239523Y-109652380D01*
X92620476Y-109652380D02*
X92049047Y-109652380D01*
X92334761Y-109652380D02*
X92334761Y-108652380D01*
X92239523Y-108795238D01*
X92144285Y-108890476D01*
X92049047Y-108938095D01*
X92953809Y-108652380D02*
X93572857Y-108652380D01*
X93239523Y-109033333D01*
X93382380Y-109033333D01*
X93477619Y-109080952D01*
X93525238Y-109128571D01*
X93572857Y-109223809D01*
X93572857Y-109461904D01*
X93525238Y-109557142D01*
X93477619Y-109604761D01*
X93382380Y-109652380D01*
X93096666Y-109652380D01*
X93001428Y-109604761D01*
X92953809Y-109557142D01*
%TO.C,J14*%
X95460476Y-62122380D02*
X95460476Y-62836666D01*
X95412857Y-62979523D01*
X95317619Y-63074761D01*
X95174761Y-63122380D01*
X95079523Y-63122380D01*
X96460476Y-63122380D02*
X95889047Y-63122380D01*
X96174761Y-63122380D02*
X96174761Y-62122380D01*
X96079523Y-62265238D01*
X95984285Y-62360476D01*
X95889047Y-62408095D01*
X97317619Y-62455714D02*
X97317619Y-63122380D01*
X97079523Y-62074761D02*
X96841428Y-62789047D01*
X97460476Y-62789047D01*
%TO.C,J15*%
X65860476Y-99372380D02*
X65860476Y-100086666D01*
X65812857Y-100229523D01*
X65717619Y-100324761D01*
X65574761Y-100372380D01*
X65479523Y-100372380D01*
X66860476Y-100372380D02*
X66289047Y-100372380D01*
X66574761Y-100372380D02*
X66574761Y-99372380D01*
X66479523Y-99515238D01*
X66384285Y-99610476D01*
X66289047Y-99658095D01*
X67765238Y-99372380D02*
X67289047Y-99372380D01*
X67241428Y-99848571D01*
X67289047Y-99800952D01*
X67384285Y-99753333D01*
X67622380Y-99753333D01*
X67717619Y-99800952D01*
X67765238Y-99848571D01*
X67812857Y-99943809D01*
X67812857Y-100181904D01*
X67765238Y-100277142D01*
X67717619Y-100324761D01*
X67622380Y-100372380D01*
X67384285Y-100372380D01*
X67289047Y-100324761D01*
X67241428Y-100277142D01*
%TO.C,J17*%
X52470476Y-80512380D02*
X52470476Y-81226666D01*
X52422857Y-81369523D01*
X52327619Y-81464761D01*
X52184761Y-81512380D01*
X52089523Y-81512380D01*
X53470476Y-81512380D02*
X52899047Y-81512380D01*
X53184761Y-81512380D02*
X53184761Y-80512380D01*
X53089523Y-80655238D01*
X52994285Y-80750476D01*
X52899047Y-80798095D01*
X53803809Y-80512380D02*
X54470476Y-80512380D01*
X54041904Y-81512380D01*
%TO.C,J18*%
X95080476Y-80302380D02*
X95080476Y-81016666D01*
X95032857Y-81159523D01*
X94937619Y-81254761D01*
X94794761Y-81302380D01*
X94699523Y-81302380D01*
X96080476Y-81302380D02*
X95509047Y-81302380D01*
X95794761Y-81302380D02*
X95794761Y-80302380D01*
X95699523Y-80445238D01*
X95604285Y-80540476D01*
X95509047Y-80588095D01*
X96651904Y-80730952D02*
X96556666Y-80683333D01*
X96509047Y-80635714D01*
X96461428Y-80540476D01*
X96461428Y-80492857D01*
X96509047Y-80397619D01*
X96556666Y-80350000D01*
X96651904Y-80302380D01*
X96842380Y-80302380D01*
X96937619Y-80350000D01*
X96985238Y-80397619D01*
X97032857Y-80492857D01*
X97032857Y-80540476D01*
X96985238Y-80635714D01*
X96937619Y-80683333D01*
X96842380Y-80730952D01*
X96651904Y-80730952D01*
X96556666Y-80778571D01*
X96509047Y-80826190D01*
X96461428Y-80921428D01*
X96461428Y-81111904D01*
X96509047Y-81207142D01*
X96556666Y-81254761D01*
X96651904Y-81302380D01*
X96842380Y-81302380D01*
X96937619Y-81254761D01*
X96985238Y-81207142D01*
X97032857Y-81111904D01*
X97032857Y-80921428D01*
X96985238Y-80826190D01*
X96937619Y-80778571D01*
X96842380Y-80730952D01*
%TO.C,J19*%
X62610476Y-80512380D02*
X62610476Y-81226666D01*
X62562857Y-81369523D01*
X62467619Y-81464761D01*
X62324761Y-81512380D01*
X62229523Y-81512380D01*
X63610476Y-81512380D02*
X63039047Y-81512380D01*
X63324761Y-81512380D02*
X63324761Y-80512380D01*
X63229523Y-80655238D01*
X63134285Y-80750476D01*
X63039047Y-80798095D01*
X64086666Y-81512380D02*
X64277142Y-81512380D01*
X64372380Y-81464761D01*
X64420000Y-81417142D01*
X64515238Y-81274285D01*
X64562857Y-81083809D01*
X64562857Y-80702857D01*
X64515238Y-80607619D01*
X64467619Y-80560000D01*
X64372380Y-80512380D01*
X64181904Y-80512380D01*
X64086666Y-80560000D01*
X64039047Y-80607619D01*
X63991428Y-80702857D01*
X63991428Y-80940952D01*
X64039047Y-81036190D01*
X64086666Y-81083809D01*
X64181904Y-81131428D01*
X64372380Y-81131428D01*
X64467619Y-81083809D01*
X64515238Y-81036190D01*
X64562857Y-80940952D01*
%TO.C,U1*%
X66040095Y-50506380D02*
X66040095Y-51315904D01*
X66087714Y-51411142D01*
X66135333Y-51458761D01*
X66230571Y-51506380D01*
X66421047Y-51506380D01*
X66516285Y-51458761D01*
X66563904Y-51411142D01*
X66611523Y-51315904D01*
X66611523Y-50506380D01*
X67611523Y-51506380D02*
X67040095Y-51506380D01*
X67325809Y-51506380D02*
X67325809Y-50506380D01*
X67230571Y-50649238D01*
X67135333Y-50744476D01*
X67040095Y-50792095D01*
%TO.C,U2*%
X73518095Y-96522380D02*
X73518095Y-97331904D01*
X73565714Y-97427142D01*
X73613333Y-97474761D01*
X73708571Y-97522380D01*
X73899047Y-97522380D01*
X73994285Y-97474761D01*
X74041904Y-97427142D01*
X74089523Y-97331904D01*
X74089523Y-96522380D01*
X74518095Y-96617619D02*
X74565714Y-96570000D01*
X74660952Y-96522380D01*
X74899047Y-96522380D01*
X74994285Y-96570000D01*
X75041904Y-96617619D01*
X75089523Y-96712857D01*
X75089523Y-96808095D01*
X75041904Y-96950952D01*
X74470476Y-97522380D01*
X75089523Y-97522380D01*
%TO.C,U4*%
X73349095Y-108777380D02*
X73349095Y-109586904D01*
X73396714Y-109682142D01*
X73444333Y-109729761D01*
X73539571Y-109777380D01*
X73730047Y-109777380D01*
X73825285Y-109729761D01*
X73872904Y-109682142D01*
X73920523Y-109586904D01*
X73920523Y-108777380D01*
X74825285Y-109110714D02*
X74825285Y-109777380D01*
X74587190Y-108729761D02*
X74349095Y-109444047D01*
X74968142Y-109444047D01*
%TO.C,J12*%
X75040476Y-81862380D02*
X75040476Y-82576666D01*
X74992857Y-82719523D01*
X74897619Y-82814761D01*
X74754761Y-82862380D01*
X74659523Y-82862380D01*
X76040476Y-82862380D02*
X75469047Y-82862380D01*
X75754761Y-82862380D02*
X75754761Y-81862380D01*
X75659523Y-82005238D01*
X75564285Y-82100476D01*
X75469047Y-82148095D01*
X76421428Y-81957619D02*
X76469047Y-81910000D01*
X76564285Y-81862380D01*
X76802380Y-81862380D01*
X76897619Y-81910000D01*
X76945238Y-81957619D01*
X76992857Y-82052857D01*
X76992857Y-82148095D01*
X76945238Y-82290952D01*
X76373809Y-82862380D01*
X76992857Y-82862380D01*
%TD*%
M02*
