M48
; DRILL file {KiCad (5.1.5-0-10_14)} date Saturday, January 02, 2021 at 03:40:28 PM
; FORMAT={3:3/ absolute / metric / suppress leading zeros}
; #@! TF.CreationDate,2021-01-02T15:40:28-05:00
; #@! TF.GenerationSoftware,Kicad,Pcbnew,(5.1.5-0-10_14)
FMAT,2
METRIC,TZ
T1C0.400
T2C1.000
%
G90
G05
T1
X54790Y-90210
X55768Y-98772
X55944Y-104080
X56120Y-101270
X56870Y-90240
X58760Y-101230
X58890Y-90270
X59370Y-72470
X61000Y-90290
X61580Y-75880
X61870Y-66550
X62280Y-107840
X62340Y-76740
X62640Y-111360
X62910Y-75060
X63160Y-79810
X63510Y-77400
X63550Y-65820
X63790Y-62220
X64060Y-73310
X64080Y-74370
X64220Y-68360
X64420Y-66730
X64790Y-107810
X65290Y-65020
X66290Y-60580
X66360Y-63170
X67710Y-53260
X67720Y-55730
X67740Y-54550
X67750Y-52200
X68320Y-116760
X69340Y-80460
X70100Y-59390
X70270Y-73950
X70470Y-116810
X70590Y-114840
X70780Y-52870
X71100Y-79660
X71660Y-73960
X71950Y-104380
X73070Y-74010
X73850Y-116830
X73880Y-114890
X74040Y-56280
X74050Y-53880
X74510Y-74130
X74530Y-104070
X74680Y-59860
X74850Y-57520
X74990Y-52740
X75990Y-107910
X76030Y-81200
X76150Y-52720
X76190Y-57520
X76270Y-104120
X76730Y-96710
X76960Y-80250
X76980Y-117340
X77550Y-95980
X78210Y-51660
X78310Y-99720
X78490Y-111700
X78660Y-64870
X79430Y-51660
X79970Y-109360
X80320Y-52630
X80730Y-55570
X80850Y-109370
X81170Y-64110
X81280Y-97500
X81380Y-51590
X81670Y-55520
X82100Y-109520
X82180Y-97530
X82220Y-77240
X82260Y-62610
X83080Y-60810
X83120Y-118020
X83350Y-97640
X83900Y-79760
X83920Y-78190
X84120Y-111660
X84300Y-105720
X84560Y-59890
X85020Y-117940
X85070Y-96850
X85090Y-112540
X85230Y-106880
X85560Y-93880
X86460Y-95250
X86590Y-97770
X86670Y-104970
X88400Y-112570
X88510Y-118000
X89390Y-111600
X90490Y-117970
X92200Y-97740
X92310Y-105130
T2
X86800Y-82970
X86800Y-85510
X89340Y-82970
X89340Y-85510
X56225Y-81750
X56225Y-84290
X96266Y-95758
X96266Y-98298
X96266Y-100838
X94790Y-82940
X97330Y-82940
X95000Y-65000
X95000Y-67540
X95000Y-70080
X95000Y-72620
X95000Y-75160
X95000Y-77700
X97540Y-65000
X97540Y-67540
X97540Y-70080
X97540Y-72620
X97540Y-75160
X97540Y-77700
X96138Y-110046
X96138Y-112586
X96138Y-115126
X60575Y-81760
X60575Y-84300
X54000Y-63000
X54000Y-65540
X57500Y-54000
X60040Y-54000
X79502Y-57912
X86800Y-76100
X86800Y-78640
X89340Y-76100
X89340Y-78640
X86820Y-69260
X86820Y-71800
X89360Y-69260
X89360Y-71800
X74610Y-84870
X74610Y-87410
X77150Y-84870
X77150Y-87410
X90678Y-54610
X90678Y-57150
X90678Y-59690
X93218Y-54610
X93218Y-57150
X93218Y-59690
X67950Y-84840
X67950Y-87380
X70490Y-84840
X70490Y-87380
X65190Y-114230
X66650Y-102480
X66650Y-105020
T0
M30
