M48
; DRILL file {KiCad (5.1.5-0-10_14)} date Friday, January 01, 2021 at 10:31:09 AM
; FORMAT={2:4/ absolute / inch / suppress leading zeros}
; #@! TF.CreationDate,2021-01-01T10:31:09-05:00
; #@! TF.GenerationSoftware,Kicad,Pcbnew,(5.1.5-0-10_14)
FMAT,2
INCH,TZ
T1C0.0157
T2C0.0394
%
G90
G05
T1
X21571Y-35516
X21956Y-38887
X22025Y-40976
X22094Y-39870
X22390Y-35528
X23134Y-39854
X23185Y-35539
X23374Y-28531
X24016Y-35547
X24244Y-29874
X24358Y-26201
X24520Y-42457
X24543Y-30213
X24661Y-43843
X24768Y-29551
X24866Y-31421
X25004Y-30472
X25020Y-25913
X25114Y-24496
X25220Y-28862
X25228Y-29280
X25283Y-26913
X25362Y-26272
X25508Y-42445
X25705Y-25598
X26098Y-23850
X26126Y-24870
X26657Y-20969
X26661Y-21941
X26669Y-21476
X26673Y-20551
X26898Y-45969
X27299Y-31677
X27598Y-23382
X27665Y-29114
X27744Y-45988
X27791Y-45213
X27866Y-20815
X27992Y-31362
X28213Y-29118
X28327Y-41094
X28768Y-29138
X29075Y-45996
X29087Y-45232
X29150Y-22157
X29154Y-21213
X29335Y-29185
X29343Y-40972
X29402Y-23567
X29469Y-22646
X29524Y-20764
X29917Y-42484
X29933Y-31969
X29980Y-20756
X29996Y-22646
X30028Y-40992
X30209Y-38075
X30299Y-31594
X30307Y-46197
X30531Y-37787
X30791Y-20339
X30831Y-39260
X30902Y-43976
X30969Y-25539
X31272Y-20339
X31484Y-43055
X31622Y-20720
X31783Y-21878
X31831Y-43059
X31957Y-25240
X32000Y-38386
X32039Y-20311
X32154Y-21858
X32323Y-43118
X32354Y-38398
X32370Y-30409
X32386Y-24650
X32709Y-23941
X32724Y-46465
X32815Y-38441
X33031Y-31402
X33039Y-30783
X33118Y-43961
X33189Y-41622
X33291Y-23579
X33472Y-46433
X33492Y-38130
X33500Y-44307
X33555Y-42079
X33685Y-36961
X34039Y-37500
X34091Y-38492
X34122Y-41327
X34803Y-44319
X34846Y-46457
X35193Y-43937
X35626Y-46445
X36299Y-38480
X36343Y-41390
T2
X22638Y-21260
X23638Y-21260
X23848Y-32189
X23848Y-33189
X34173Y-32665
X34173Y-33665
X35173Y-32665
X35173Y-33665
X26240Y-40346
X26240Y-41346
X37900Y-37700
X37900Y-38700
X37900Y-39700
X35700Y-21500
X35700Y-22500
X35700Y-23500
X36700Y-21500
X36700Y-22500
X36700Y-23500
X34181Y-27268
X34181Y-28268
X35181Y-27268
X35181Y-28268
X29374Y-33413
X29374Y-34413
X30374Y-33413
X30374Y-34413
X22136Y-32185
X22136Y-33185
X25665Y-44972
X21260Y-24803
X21260Y-25803
X26752Y-33402
X26752Y-34402
X27752Y-33402
X27752Y-34402
X37402Y-25591
X37402Y-26591
X37402Y-27591
X37402Y-28591
X37402Y-29591
X37402Y-30591
X38402Y-25591
X38402Y-26591
X38402Y-27591
X38402Y-28591
X38402Y-29591
X38402Y-30591
X31300Y-22800
X34173Y-29961
X34173Y-30961
X35173Y-29961
X35173Y-30961
X37319Y-32654
X38319Y-32654
X37850Y-43325
X37850Y-44325
X37850Y-45325
T0
M30
